<svg xmlns="http://www.w3.org/2000/svg" width="441" height="441"><path fill="#FAE8D2" d="M229.262 45.904C263.163 44.608 299.33 53.724 328 72c1.582.918 3.166 1.835 4.75 2.75 4.42 2.655 8.66 5.534 12.875 8.5l1.905 1.323c1.529 1.09 3.005 2.253 4.47 3.427v2l1.688.75c2.736 1.48 4.989 3.185 7.312 5.25v2h2v2l1.688.625C367 102 367 102 369.25 104.938c2.872 3.637 6.288 5.05 10.75 6.062h4a74.13 74.13 0 0 0 4.938-6.812C394.195 96.085 394.195 96.085 399 94c5.122.654 7.686 3.256 10.742 7.152 3.724 5.47 3.905 11.436 3.258 17.848-1.862 5.463-7.13 8.31-12 11h-2c-.827 10.11-.206 16.716 4.86 25.734 19.597 36.815 21.782 88.328 10.256 127.812-2.587 8.32-5.746 16.423-9.116 24.454l-1.43 3.422c-5.73 13.015-13.1 25.168-21.855 36.355-1.733 2.1-1.733 2.1-2.715 4.223h-2l-.875 1.938C375 356 375 356 373 357c-1.423.093-2.85.124-4.275.123l-2.736.006-3.024-.009-3.198.003c-3.56.001-7.118-.004-10.678-.01l-7.626.001c-5.485 0-10.97-.003-16.455-.008-7.93-.008-15.86-.011-23.791-.012-12.866-.002-25.732-.01-38.597-.019a95227.373 95227.373 0 0 0-51.424-.025c-32.065-.01-64.13-.028-96.196-.05 9.19 9.65 26.687 12.985 39.602 13.402a470.7 470.7 0 0 0 8.867.04c29.096-.05 54.539 6.766 75.913 27.628 10.298 10.298 10.298 10.298 11.016 13.965-.033 2.918-.075 5.357-1.46 7.965-3.266 1.686-5.292 1.53-8.938 1-2.202-1.297-4.218-2.782-6.293-4.273-15.883-10.13-33.989-11.45-51.988-7.59a364.45 364.45 0 0 0-12.84 3.215C140.362 418.775 109.606 410.676 85 396l-2.906-1.676c-7.126-4.29-13.338-9.495-19.561-14.975a566.024 566.024 0 0 0-4.263-3.704c-22.715-19.898-41.014-47.664-43.491-78.389C13.822 274.504 18.423 254.738 30 235l1.555-2.812L33 230h2l.72-1.722c1.546-2.752 3.484-4.528 5.749-6.723 5.288-5.79 6.173-10.814 7.031-18.43C51.772 180.886 58.533 160.349 70 141l1.719-2.992A253.661 253.661 0 0 1 76 131l1.742-2.863C80.804 123.176 83.753 119.029 88 115a194.258 194.258 0 0 0 4.57-6.133c1.377-1.798 2.721-3.38 4.43-4.867h2v-2h2l2-4h2v-2h2v-2c4.47-4 4.47-4 7-4v-2c1.68-1.405 1.68-1.405 4.016-3.004l2.543-1.744 2.691-1.814 2.645-1.827c7.168-4.876 7.168-4.876 11.105-5.611v-2c6.625-4 6.625-4 10-4v-2c2.226-.9 4.454-1.791 6.688-2.672 2.349-.942 4.674-1.909 7-2.906 22.069-9.267 44.764-13.506 68.574-14.518Z"/><path fill="#7D5B37" d="m291 172 1.738.879c1.413.7 2.847 1.361 4.305 1.96C306.093 179.473 309.7 189.888 313 199c4.252 13.676 4.327 32.096-2 45l-1.566 3.34c-3.969 8.195-3.969 8.195-5.434 9.66a166.18 166.18 0 0 0-.313 5.25c-.776 10.207-4.239 19.594-8.687 28.75 4.19-3.27 7.652-6.736 11.094-10.781 2.021-2.353 4.116-4.626 6.219-6.906 3.984-4.4 7.615-8.996 11.15-13.759 2.62-3.5 5.392-6.537 8.537-9.554-2.44 26.726-6.018 53.293-14 79a5743.228 5743.228 0 0 0-3 10l1.706-.048c30.592-.738 30.592-.738 39.294 7.048 4.092 4.092 4 4.754 4 11H115c11.355 11.355 30.916 13.44 46.23 13.451l2.24-.01c29.095-.05 54.538 6.767 75.912 27.629 10.298 10.298 10.298 10.298 11.016 13.965-.033 2.918-.075 5.357-1.46 7.965-3.266 1.686-5.292 1.53-8.938 1-2.202-1.297-4.218-2.782-6.293-4.273-15.883-10.13-33.989-11.45-51.988-7.59a364.45 364.45 0 0 0-12.84 3.215C140.362 418.775 109.606 410.676 85 396l-2.906-1.676c-7.126-4.29-13.338-9.495-19.561-14.975a566.024 566.024 0 0 0-4.263-3.704c-22.715-19.898-41.014-47.664-43.491-78.389C13.822 274.504 18.423 254.738 30 235l1.555-2.813L33 230h2l.77-1.715c9.988-18.55 33.617-29.05 52.632-35.375 21.356-5.403 43.442-1.53 64.094 4.508 11.528 3.347 23.156 6.186 34.941 8.457 19.71 3.806 39.696 8.16 58.524 15.238 9.662 2.82 20.182 1.472 29.039-3.113 9.132-5.377 14.262-12.777 17.313-22.844 1.733-7.958 1.064-15.431-1.313-23.156Z"/><path fill="#FAE8D2" d="m397 142 .809 1.652c.83 1.637 1.7 3.253 2.601 4.852 21.426 39.661 26.316 91.845 13.706 135.042-2.587 8.32-5.746 16.423-9.116 24.454l-1.43 3.422c-5.73 13.015-13.1 25.168-21.855 36.355-1.733 2.1-1.733 2.1-2.715 4.223h-2l-.875 1.938C375 356 375 356 373 357c-2.207.07-4.417.084-6.625.063l-3.602-.028L360 357l-.75-3.188c-1.13-3.764-2.261-6.115-5.25-8.812-9.373-4.419-18.736-5.137-28.938-5.563l-2.939-.13c-2.374-.106-4.749-.208-7.123-.307.417-3.918 1.062-7.404 2.375-11.121 2.045-5.866 3.311-11.878 4.625-17.942l.796-3.64c2.666-12.283 4.996-24.542 6.767-36.985l.387-2.714c.547-3.867 1.076-7.732 1.507-11.614 1.16-9.49 1.16-9.49 5.121-13.336 1.989-2.305 3.109-4.844 4.422-7.585 1.97-4.098 4.02-7.672 6.773-11.27 2.071-3.027 3.556-6.344 5.114-9.656C354 211 354 211 356 209c.753-1.926.753-1.926 1.375-4.125 1.167-3.676 2.646-6.945 4.457-10.36.995-2.143 1.822-4.246 2.617-6.468l.776-2.166a288.76 288.76 0 0 0 1.493-4.334c1.398-3.955 2.485-6.55 6.282-8.547h2v-2c1.574-1.516 1.574-1.516 3.688-3.25 5.52-4.706 9.705-10.196 13.98-16.016C394 150 394 150 396 148c.398-1.988.738-3.99 1-6Z"/><path fill="#7A5A37" d="M401.938 94.375c4.99 2.648 7.973 6.397 10.437 11.438 1.058 5.393 1.48 10.677-.313 15.937-3.168 3.457-6.965 5.988-11.062 8.25h-2l.176 1.906c.359 6.806-.754 10.887-5.176 16.094-5.368 5.886-12.027 9.48-19.992 10.313-5.91.12-12.534.173-18.008-2.313-2.313-2.938-2.313-2.938-4-6-2.546-2.83-4.692-3.266-8.375-3.5-5.04.133-7.176 1.963-10.625 5.5l-2.5-2.5c-2.523-2.094-4.275-2.919-7.563-3.063-4.345.621-5.956 1.406-8.937 4.563l-.875 2.063c-1.792 3.085-4.86 3.908-8.125 4.937-2.743.468-5.408.572-8.188.563l-2.24-.006c-8.594-.278-14.868-3.76-21.635-8.87-3.501-4.857-4.965-9.923-5-15.875-.52-3.86-.52-3.86-3.113-5.433a351.15 351.15 0 0 0-5.433-2.965c-3.381-2-4.373-3.633-5.391-7.414-1.12-7.616.604-12.78 5-19 2.318-3.065 3.148-3.855 6.938-4.5 4.91.802 7.348 3.56 10.3 7.445l2.075 3.18 2.113 3.195C282 111 282 111 282 113l1.617-.586c15.183-5.306 30.407-5.646 46.32-5.664l2.669-.006c17.342-.01 34.288 1.25 51.394 4.256l2.012-2.957 2.675-3.856 1.319-1.947c6.029-8.619 6.029-8.619 11.932-7.865Z"/><path fill="#EAC8A2" d="M396 144h1c.313 2.188.313 2.188 0 5-2.063 2.25-2.063 2.25-3.453 3.496-1.85 1.798-3.315 3.752-4.86 5.816-3.505 4.582-7.267 8.959-11.687 12.688h-2v2l-2.246.984c-4.259 3.117-5.155 7.386-6.817 12.266-2.208 6.307-4.488 12.02-7.937 17.75l-.938 2.938c-1.168 3.367-2.78 5.959-4.71 8.933-1.352 2.129-2.58 4.292-3.79 6.504-2.719 4.958-5.632 9.79-8.562 14.625l-1.492 2.547C337 242 337 242 335.387 243.89c-1.893 2.88-2.133 5.46-2.575 8.859l-.48 3.547L332 259h-1v-8l-1.766 2.352C318.941 266.958 307.694 279.589 296 292l-2-1 .988-2.02c4.078-8.6 6.93-16.612 7.387-26.168.316-4.938 1.347-7.586 4.219-11.535 3.048-4.936 4.595-10.795 6.406-16.277l1-3c.805-11.758 1.49-24.94-3-36l-.782-1.937c-3.76-9.031-7.101-15.64-16.218-20.063-5.834-3.503-5.834-3.503-7-7l-1.813-.875c-2.9-1.491-4.222-3.546-6.187-6.125l-2.063-1.938c-2.348-2.5-3.654-4.889-4.937-8.062l1-3 1.875 2.188c6.432 6.218 13.035 8.262 21.813 8.312l2.159.019c5.029-.12 8.692-1.17 13.153-3.519 1.717-2.445 1.717-2.445 3-5 2.6-2.792 4.009-3.001 7.875-3.5 4.735.142 6.858 2.233 10.125 5.5l2.438-2.5c3.386-2.817 6.117-3.184 10.449-2.922 3.247.648 4.896 2.01 7.113 4.422l1.25 2.625c2.353 3.193 4.274 3.451 8.094 4.09 10.087 1.083 18.625.761 27.02-5.469 3.853-3.186 3.853-3.186 6.636-7.246Z"/><path fill="#5C3F1F" d="M331 250c1.659 4.976.46 9.976-.125 15.125l-.413 3.655c-1.46 12.231-3.817 24.198-6.462 36.22l-1.293 6.031c-2.072 9.516-4.26 18.84-7.707 27.969l1.706-.048c30.592-.738 30.592-.738 39.294 7.048 3.681 3.778 4 4.46 4 10h-44l-3-10h-2v-2l-1.625-.375C307 343 307 343 304.312 341.937c-4.183-1.183-7.997-1.11-12.312-.937l-.516-3.078c-.242-1.391-.487-2.782-.734-4.172l-.387-2.201c-.853-4.577-2.08-8.705-3.8-13.049-1.723-4.836-1.723-4.836-1.032-7.7 1.031-1.988 1.031-1.988 2.239-3.843 2.114-3.363 3.076-7.179 4.23-10.957h2v-3h2l.664-1.633c1.791-3.173 4.21-5.627 6.711-8.242 8.991-9.585 17.619-19.362 25.2-30.113C330 251 330 251 331 250Z"/><path fill="#EBC8A2" d="M183 293c4.063.58 7.659 1.508 11.5 2.938 16.365 5.515 34.5 5.11 51.5 3.062l.351 1.697c.527 2.539 1.057 5.077 1.587 7.615l.552 2.67a470543874.28 470543874.28 0 0 0 1.03 4.933c.486 2.26.486 2.26 1.48 5.085.891 12.504-1.02 23.884-4 36h-14l-.688-4.563c-1.266-6.25-3.42-10.475-8.742-14.085-5.118-1.938-10.014-1.922-15.445-2.04l-3.242-.103A845.55 845.55 0 0 0 197 336l1.172-1.32 1.578-1.805 1.547-1.758c2.073-2.576 3.869-5.366 5.703-8.117h-33c2-5 2-5 2.965-6.895 3.698-7.292 4.74-15.115 6.035-23.105Z"/><path fill="#916E48" d="M104 193v1l-5 1 3.797-.07c1.65-.02 3.302-.037 4.953-.055l2.5-.05 2.422-.02 2.222-.032c2.405.26 4.019 1.035 6.106 2.227v3h-3v2l-2.71.734c-8.22 2.279-16.047 5.004-23.88 8.383C89 212 89 212 86 212v2l-1.758.734c-3.748 1.609-7.321 3.183-10.68 5.516C71 222 71 222 69 222v2a201.979 201.979 0 0 1-5 3c-5.739 4.61-10.737 9.442-14.844 15.566L48 244h-2l-.86 1.777c-1.035 2.02-2.157 3.883-3.39 5.786-5.369 8.524-9.834 17.517-14.234 26.566C26 281 26 281 24 283c-2.125-.375-2.125-.375-4-1l-1-5c-2.48 2.48-2.29 3.362-2.414 6.79l-.117 2.85-.094 2.985-.117 3.008c-.095 2.455-.18 4.91-.258 7.367h-1c-.836-24.052 2.671-43.98 15-65l1.555-2.813L33 230h2l.77-1.715c10.037-18.64 33.758-29.067 52.828-35.472 5.301-1.267 10.126-1.092 15.402.187Z"/><path fill="#5B3E1E" d="M176.462 323.546c1.423 0 2.846.023 4.268.063l2.274.018c2.395.022 4.789.072 7.184.123 1.624.02 3.248.038 4.873.055 3.98.044 7.96.113 11.939.195-2.527 4.455-5.32 7.483-9 11l1.893.012c2.87.034 5.738.104 8.607.175l2.977.018c6.753.203 11.313 1.39 16.523 5.795 1.875 1.992 1.875 1.992 3 3.875l1.188 1.867C233 349 233 349 233 356h-34l-2-9c-2.138-5.064-5.268-6.59-10-9v-2h-24v-2c1.426-1.367 1.426-1.367 3.313-2.875 2.089-1.673 3.53-2.836 4.818-5.203C173 324 173 324 176.46 323.546Z"/><path fill="#F8E6D0" d="M251 321c.58 12.573-.998 23.793-4 36h-14l-.688-4.563c-1.266-6.25-3.42-10.475-8.742-14.085-5.118-1.938-10.014-1.922-15.445-2.04l-3.242-.103A845.55 845.55 0 0 0 197 336l1.251-1.446 1.64-1.902 1.626-1.883c1.58-1.84 1.58-1.84 3.233-4.207L206 325h2v-2l3.165-.076c3.875-.094 7.75-.194 11.624-.296 1.677-.044 3.354-.085 5.031-.125 2.41-.058 4.82-.122 7.23-.187l2.274-.05c4.733-.135 8.954-1.394 13.676-1.266Z"/><path fill="#F8E7D1" d="M327 146c2.384 1.449 4.004 3.004 6 5l2.438-2.5c3.384-2.815 6.114-3.188 10.445-2.918 3.305.653 4.925 1.894 7.117 4.418 2.318 4.636 2.595 9.092 1 14-2.193 2.642-3.933 4.467-7 6-2.672.134-5.323.043-8 0v-2h-3c-2.188-2-2.188-2-4-4l-.75 1.875c-1.556 2.644-2.326 3.202-5.25 4.125-2.691.155-5.3.09-8 0v-2l-2.438-.75C313 166 313 166 312.188 164.375c-.852-10.794-.852-10.794 2.813-15.375 3.33-3.576 7.355-3.997 12-3Z"/><path fill="#634729" d="M269 95c4.09 2.79 6.605 5.947 9.313 10.063l2.113 3.16C282 111 282 111 282 114c-2.875 2.076-5.514 3.354-9 4v2h-2l-2 9c-5.008-.477-8.106-1.798-12-5-3.537-4.952-3.956-10.114-3-16 2.765-7.034 6.533-14.382 15-13Z"/><path fill="#F7E6D0" d="M90 323h2l.75 2.375c1.476 3.1 2.243 3.24 5.25 4.625 1.193.805 2.38 1.618 3.563 2.438 9.316 5.805 19.767 6.144 30.437 6.562-.914 4.223-2.884 7.6-5.125 11.25l-1.11 1.969c-1.148 1.86-1.148 1.86-3.765 4.781-3.555.422-3.555.422-7 0h-4c-8.652-6.27-13.172-16.236-17.875-25.5l-.942-1.854C90 325.245 90 325.245 90 323Z"/><path fill="#343331" d="M353 137c1.283 3.85 1.066 6.947 1 11-1.875.625-1.875.625-4 1l-2-2c-3.797-.721-7.529-.857-10.926 1.121-1.833 1.499-1.833 1.499-4.074 3.879l-2.5-2.5c-2.548-2.126-4.236-2.88-7.563-2.938-3.431.382-5.875.907-8.937 2.438-2.09-3.397-2.421-6.043-2-10 1.555-2.721 3.241-3.09 6.188-4.188 10.015-2.194 25.533-2.451 34.812 2.188Z"/><path fill="#DDB389" d="M368 177c-.78 11.192-6.447 21.478-12 31-3.213-1.372-4.799-2.785-6.875-5.563-3.83-4.604-8.411-7.436-13.501-10.467-1.57-.944-3.101-1.952-4.624-2.97v-2l2.535-.043C345.414 186.47 358.03 177 368 177Z"/><path fill="#D7B186" d="M183 293c3.716.565 6.724 1.11 10 3l-1 1a185.939 185.939 0 0 0 0 6.875c.068 6.444-.297 12.711-1 19.125h-17c2-5 2-5 2.965-6.895 3.698-7.292 4.74-15.115 6.035-23.105Z"/><path fill="#80613D" d="M98 193c-.691 1.89-.691 1.89-2 4-2.277 1.047-2.277 1.047-4.938 1.75l-2.652.734C86 200 86 200 83 200v2h-5v2l-2.875.563c-6.228 1.75-11.303 6.202-16.3 10.16C57 216 57 216 55 216l-1 3h-3v2c-1.46 1.438-1.46 1.438-3.375 3-1.967 1.619-3.822 3.197-5.625 5l-1-3h2l-.688-1.688c-.458-3.39.687-4.549 2.688-7.312 2.262-2.124 4.693-3.97 7.188-5.813l2.128-1.583C66.967 200.452 82.05 192.502 98 193Z"/><path fill="#81613F" d="M235 395c14.023 11.394 14.023 11.394 15.61 17.25.106 2.887-.315 5.194-1.673 7.75-3.265 1.686-5.291 1.53-8.937 1-2.438-1.345-4.644-2.843-6.887-4.492-1.976-1.41-3.916-2.486-6.113-3.508l1-4c3.01-.934 3.867-1.044 7 0l3-8-2-1c-.625-2.563-.625-2.563-1-5Z"/><path fill="#F4E3CD" d="M284 315h2c3.316 8.22 5.68 15.023 5 24h-17c.77-3.854 1.422-6.24 3.066-9.645l1.221-2.548 1.276-2.62 1.287-2.677A1580.49 1580.49 0 0 1 284 315Z"/><path fill="#353430" d="M378 128c1.875 1.5 1.875 1.5 3 4 .113 3.897.095 7.598-2.367 10.75C377 144 377 144 374 144.438c-3-.438-3-.438-4.676-2.137-1.586-2.756-1.636-4.398-1.512-7.551l.083-2.703L368 130h2v-2c3.359-1.12 4.677-1.08 8 0Z"/><path fill="#353330" d="M296 128c1.707 1.234 1.707 1.234 3 3 .328 2.156.328 2.156.25 4.5-.015.773-.03 1.547-.047 2.344C299 140 299 140 298 143c-3.01.58-5.929 1.022-9 1-2.063-1.5-2.063-1.5-3-4-.27-3.775-.375-7.426 1-11 3.05-1.525 5.642-1.236 9-1Z"/><path fill="#5F4120" d="M176 268h2l.988 1.863 1.325 2.45 1.3 2.425c1.297 2.115 2.59 3.578 4.387 5.262 3.18 4.325 4.041 8.823 5 14-3.123-.486-5.996-.999-9-2-.504-2.437-1.003-4.874-1.5-7.313l-.434-2.091c-.592-2.921-1.066-5.607-1.066-8.596h-2l-1-6Z"/><path fill="#967D5F" d="m19 263 4 1-2 18h-1l-1-5c-2.48 2.48-2.29 3.362-2.414 6.79l-.117 2.85-.094 2.985-.117 3.008c-.095 2.455-.18 4.91-.258 7.367h-1c-.06-3.604-.094-7.208-.125-10.813l-.05-3.044C14.716 269.425 14.716 269.425 19 263Z"/><path fill="#77532E" d="M198 349h1v7h-76l2-1v-2h4l1 2h68v-2l-3-1h3v-3Z"/><path fill="#765C42" d="M401.875 94.438c4.121 2.06 6.386 4.929 9.125 8.562l-1 2h-2v-2l-3 1v-3h-6l-.875-1.938c-.953-2.214-.953-2.214-3.125-3.062 2.577-1.784 3.732-2.04 6.875-1.563ZM397 101l2 1Z"/><path fill="#7F5D38" d="M291 172c3.107 1.468 5.905 3.2 8.75 5.125l2.422 1.633L304 180c-.75 4.75-.75 4.75-3 7l-1-6-2.375.625L295 182c-2.952-2.952-3.087-5.955-4-10Z"/><path fill="#8E7456" d="M42 220c.553 2.076 1 3.844 1 6h-2l.625 1.875L42 230c-2.393 2.393-3.731 2.442-7 3l-3 1 1-4h2l.688-1.625c1.746-3.16 3.952-5.643 6.312-8.375Z"/><path fill="#7C5A35" d="m36 231 3 1-1 4h-2c-1.075 2.652-2.095 5.284-3 8h-2l-1 3c-1-3-1-3-.125-4.813L31 240l.375-3.063C32 234 32 234 33.875 232.063c.701-.35 1.403-.7 2.125-1.062Z"/><path fill="#8C7354" d="M31 234c1.596 3.192.732 5.566 0 9-1.18 2.473-2.53 4.677-4 7h-4c1.57-5.967 4.75-10.83 8-16Z"/><path fill="#EBC8A4" d="M300 279h3v2l2 1-9 10-2-1 6-12Z"/><path fill="#7B5B36" d="M28 247c1.115 3.345.934 3.88-.313 7l-.8 2.063C26 258 26 258 24 261l-3-1 1-3 1 1v-8h2l1-2 2-1Z"/><path fill="#9A8267" d="m131 367 2.195.402c4.93.9 9.858 1.796 14.805 2.598v1l-7 1v-2l-2.813 1.563C135 373 135 373 132 372l-1-2h2v-2l-2-1Z"/><path fill="#958065" d="m248 409 2 1c.36 7.322.36 7.322-1.063 10-2.958 1.527-5.674 1.185-8.937 1v-1h6l1-5h-2v-2h3v-4Z"/><path fill="#876645" d="M291 172c3.436 1.527 6.12 3.6 9 6l-1 2h-6l-2-8Z"/><path fill="#90785C" d="M203 405a398.51 398.51 0 0 1 5.188-.125l2.917-.07c3.023.204 5.163.926 7.895 2.195v1c-5.113.09-9.961.028-15-1l-1-2Z"/><path fill="#624729" d="m326 273 3 1-1 11h-1v-5l-4-2h2l1-5Z"/><path fill="#9B866C" d="m44 360 4 1v2l2 1 4 2v5c-4.322-3.34-7.175-6.328-10-11Z"/><path fill="#EEDDC8" d="M207 328v6h-8c4.625-6 4.625-6 8-6Z"/><path fill="#957C5E" d="m27 335 6 1c0 3.767-.235 4.912-2 8-4-6.75-4-6.75-4-9Z"/><path fill="#896D4D" d="M28 328h3l1 2-1 3c-2.563 1.188-2.563 1.188-5 2l-2-6 3 1 1-2Z"/><path fill="#3F3D38" d="m333 145 1 2h2l-2 5a697.93 697.93 0 0 1-3.5-2.438l-1.969-1.37L327 147v-1c1.207.03 1.207.03 2.438.063 2.496.233 2.496.233 3.562-1.063Z"/><path fill="#7B644D" d="M404 96c3.739 2.657 5.65 4.581 7 9h-3v-2l-3 1 1-5h-2v-3Z"/><path fill="#927F60" d="M86 394c4.43 1.208 6.981 2.517 10 6l-2 1c-5-2.456-5-2.456-7-4l-1-3Z"/><path fill="#63482B" d="M230 345c1.563 1.75 1.563 1.75 3 4-.313 2.25-.313 2.25-1 4v-2l-5 1v-3h2l1-4Z"/><path fill="#947C5F" d="M199 376c5.415-.37 5.415-.37 8.375 1.5L209 379l-7 1-3-4Z"/><path fill="#D2B18D" d="m297 284 1 2h2v-2h2c-1.443 3.366-3.333 5.51-6 8l-2-1 3-7Z"/><path fill="#9A8365" d="M22 250h1v5l2 1-5 5c-1-2-1-2-.441-4.164l.878-2.461.872-2.477L22 250Z"/><path fill="#F3E1CA" d="m279 209 2 1c.625 2.063.625 2.063 1 4l-3 2-1-3-2-1 3-3Z"/><path fill="#8D7456" d="m235 395 7 6-4 3v-3l-2-1c-.625-2.563-.625-2.563-1-5Z"/><path fill="#9B8469" d="M31 234c1.534 3.069.55 5.7 0 9l-4-1c1.125-2.972 2.223-5.334 4-8Z"/><path fill="#EDDAC1" d="m159 197 2 2-3.813.125-2.144.07C153 199 153 199 150 197c3.119-1.56 5.663-.655 9 0Z"/><path fill="#FAEAD6" d="m119 352 4 3-1 2h-7l2-3h2v-2Z"/><path fill="#DAC4A7" d="M90 323h2l.813 2.438L94 328l3 1-4 2c-3-5.75-3-5.75-3-8Z"/><path fill="#84613C" d="m393 145 2 2a141.4 141.4 0 0 1-5 5h-2c1.25-3.653 1.671-4.78 5-7Z"/><path fill="#F0DECB" d="M367 104a697.93 697.93 0 0 1 3.5 2.438l1.969 1.37L374 109v1l-7-1v-5Z"/><path fill="#8E7557" d="M242 404c1.875.25 1.875.25 4 1 1.25 2.063 1.25 2.063 2 4h-4v-2l-3-1 1-2Z"/><path fill="#5F4324" d="m397 96 2 1v4h-2v2h-2v-6l2-1Z"/><path fill="#6A4D32" d="M357 348c1.563 1.25 1.563 1.25 3 3-.313 2.188-.313 2.188-1 4h-4v-2l2-1-1-2 1-2Z"/><path fill="#CFAA81" d="m183 293 6 1c-1.392 2.784-3.156 2.979-6 4v-5Z"/><path fill="#E2C09D" d="m322 259 1 3-4 3-2-4 5-2Z"/><path fill="#907C66" d="M389 104v3c.306 1.34.635 2.675 1 4h-5c1.074-2.915 1.778-4.778 4-7Z"/><path fill="#ECDAC2" d="m289 109-4 4h-3l-1-3c4.625-2.125 4.625-2.125 8-1Z"/><path fill="#694F31" d="m260 98 3 2-2 4-4-2 3-4Z"/><path fill="#846543" d="m105 351 6 5-2 2-5-5 1-2Z"/><path fill="#403F3B" d="M350 143h2l1 6-4-1c0-3 0-3 1-5Z"/><path fill="#F0DDC6" d="m251 117 1 2 3-1 2 5-3 1-1-4h-2v-3Z"/><path fill="#745B3F" d="M263 95c5.538-.37 5.538-.37 7.875 1.5L272 98c-1.688.75-1.688.75-4 1-2.75-1.938-2.75-1.938-5-4Z"/></svg>