<svg xmlns="http://www.w3.org/2000/svg" width="58" height="58"><path d="m22.191 9.602 3.612-.012 3.76.035 3.771-.035 3.607.012 3.303.01C43 10 43 10 44.85 11.167c2.608 4.154 1.661 9.838 1.651 14.583l.086 3.54c.026 11.377.026 11.377-3.633 15.578-4.673 2.71-10.426 1.904-15.64 1.694l-3.784-.044C14.323 46.323 14.323 46.323 12 44c-.423-4.4-.372-8.813-.37-13.23-.005-2.196-.041-4.39-.08-6.584-.005-1.394-.01-2.788-.01-4.182-.01-1.27-.017-2.54-.026-3.85C12 13 12 13 13.642 11.088c2.994-1.38 5.253-1.475 8.55-1.485Z" fill="#DFE6EB"/><path d="m22.191 9.602 3.612-.012 3.76.035 3.771-.035 3.607.012 3.303.01C43 10 43 10 44.86 11.152c1.642 2.663 1.479 4.716 1.433 7.828l-.03 3.526-.075 3.681-.042 3.717c-.035 3.033-.084 6.064-.146 9.096l-2 1-.076-2.37c-.115-3.523-.238-7.045-.361-10.568l-.12-3.732-.127-3.545-.11-3.285c.07-2.44.07-2.44-1.206-3.5-1.854-.087-3.71-.107-5.566-.098l-3.409.01-3.587.025-3.6.014c-2.946.012-5.892.028-8.838.049l-1 3h11v-2h10v24h-2l-2-5h-2l-2 5h-2V18h-9v28c-5-1-5-1-6-2-.266-4.38-.271-8.767-.295-13.155a540.933 540.933 0 0 0-.105-6.61c-.01-1.4-.019-2.797-.026-4.196l-.044-3.869C12 13 12 13 13.64 11.085c2.994-1.377 5.256-1.473 8.551-1.483Z" fill="#A8B6C0"/><path d="M27 14h10v24h-2l-2-5h-2l-2 5h-2V14Z" fill="#DD2F45"/><path d="M17 12c4.125-.058 8.25-.094 12.375-.125 1.176-.017 2.351-.034 3.563-.05l3.398-.02 3.142-.032C42 12 42 12 44 14c.227 2.797.227 2.797.195 6.32l-.02 3.809-.05 3.996c-.01 1.34-.02 2.68-.027 4.02-.024 3.285-.057 6.57-.098 9.855l-2 1-1-25-4-2v-2H27v2H16l1-4Z" fill="#F5F7F9"/><path d="M37 16c3.875.875 3.875.875 5 2 .088 2 .107 4.002.098 6.004l-.01 3.682-.026 3.877-.013 3.888C42.037 38.634 42.02 41.817 42 45l-3 1c.01-.767.02-1.533.032-2.323.041-3.476.067-6.951.093-10.427l.05-3.656.02-3.516.032-3.237C39.002 20.02 38.458 18.392 37 16Z" fill="#A7B4BE"/><path d="M42 11h3c1.357 2.714 1.112 4.848 1.098 7.883l-.01 3.535-.026 3.707-.013 3.73A3194.62 3194.62 0 0 1 46 39l-2 1-.076-2.34c-.116-3.49-.239-6.981-.361-10.472l-.12-3.682-.127-3.526-.11-3.253c-.101-2.82-.101-2.82-1.206-5.727Z" fill="#A2AFB9"/></svg>