<svg xmlns="http://www.w3.org/2000/svg" width="200" height="200"><path fill="#04CB46" d="m131.387 2.707 2.476.013c2.608.017 5.216.054 7.825.092 1.768.016 3.537.03 5.306.042 4.336.033 8.67.084 13.006.146 1.376 21.783 1.818 39.264-10.298 58.287-2.84 4.527-5.302 9.255-7.827 13.963-.985 1.792-1.97 3.584-2.957 5.375a612.751 612.751 0 0 0-8.73 16.625l-1.331 2.583-1.189 2.37-1.054 2.083L126 106l1 2 2.922.076c3.565.094 7.13.194 10.695.296 1.545.044 3.09.085 4.636.125 2.216.058 4.433.122 6.65.187l2.105.05c4.878.152 4.878.152 5.992 1.266.093 1.535.117 3.074.114 4.612v2.972l-.016 3.232-.005 3.292c-.005 3.485-.018 6.97-.03 10.454-.006 2.357-.01 4.713-.014 7.069-.011 5.79-.028 11.58-.049 17.369l-2.244.004c-6.99.018-13.977.06-20.966.128-3.593.034-7.185.06-10.778.064-3.47.004-6.938.032-10.407.077-1.963.02-3.927.014-5.89.008-6.835.005-6.835.005-12.839 2.859-2.005 3.057-3.832 6.08-5.505 9.333l-.959 1.833c-1 1.914-1.989 3.835-2.975 5.756-.99 1.926-1.983 3.85-2.985 5.768a887.69 887.69 0 0 0-2.7 5.225c-2.064 3.469-4.107 6.122-7.752 7.945-2.542.099-5.056.14-7.598.133l-2.27.003c-1.585 0-3.17-.001-4.754-.006-2.434-.005-4.868 0-7.302.007-1.537 0-3.074-.002-4.611-.004l-2.22.006c-5.13-.024-5.13-.024-6.245-1.139-3.064-25.17.685-43.353 13.991-64.724 2.734-4.459 5.13-9.06 7.509-13.714.767-1.456 1.535-2.912 2.305-4.367 2.31-4.4 4.58-8.82 6.82-13.257l1.041-2.043C72.423 95.609 72.423 95.609 73 92l-2.906.016c-3.552.018-7.104.03-10.656.039-1.538.005-3.077.012-4.615.02-2.21.013-4.419.018-6.628.023l-2.09.015c-4.877 0-4.877 0-7.105-1.113V42c3.794-.759 6.583-1.116 10.354-1.082l3.165.02 3.387.035 7.13.037c3.739.025 7.478.053 11.217.086 3.614.03 7.227.048 10.84.064l3.388.04 3.165.011 2.774.023c2.882-.261 4.99-.957 7.58-2.234 1.663-2.069 1.663-2.069 2.902-4.621l1.51-2.838 1.525-2.979 3.028-5.746 1.507-2.89c1.563-2.993 3.13-5.982 4.72-8.961l1.416-2.672c3.45-5.683 6.29-5.713 12.779-5.586Z"/></svg>