<svg xmlns="http://www.w3.org/2000/svg" width="562" height="561"><path fill="#010101" d="m51.523 14.617 2.461-.015c2.71-.013 5.418-.005 8.126.004a3996.26 3996.26 0 0 1 22.085-.027c5.823.002 11.645-.012 17.467-.025 11.403-.02 22.806-.025 34.209-.023a29502.897 29502.897 0 0 0 35.816-.017l2.012-.001c18.666-.015 37.332-.023 55.998-.018h2.131l10.696.003h2.145l4.295.002c22.277.006 44.553-.01 66.829-.042 25.038-.036 50.077-.055 75.115-.05 13.253.002 26.507-.003 39.76-.028 11.283-.021 22.566-.025 33.849-.006 5.755.01 11.51.01 17.266-.01a2011.19 2011.19 0 0 1 15.816.008c1.904.004 3.807 0 5.711-.013 12.541-.084 23.29.54 33.128 9.329 7.36 8.096 9.718 16.57 9.696 27.284l.007 2.427c.007 2.695.007 5.39.006 8.085l.011 5.843c.01 5.36.014 10.72.017 16.08.004 5.779.013 11.557.022 17.335.02 13.957.03 27.914.039 41.872l.015 19.714a146140.415 146140.415 0 0 1 .04 69.764v2.123a1564206.64 1564206.64 0 0 0 .005 12.78c.008 22.83.031 45.661.064 68.492.034 24.143.054 48.286.057 72.429.002 13.159.011 26.317.036 39.476.022 11.205.03 22.41.02 33.615-.004 5.717-.002 11.434.017 17.15.018 5.236.017 10.472.001 15.708-.002 1.892.002 3.783.014 5.675.077 13.057-.687 23.994-9.458 34.452-8.288 8.13-18.196 10.332-29.454 10.26l-2.423.008c-2.665.008-5.331 0-7.997-.006a5816.736 5816.736 0 0 1-21.737.007c-5.73-.004-11.46.003-17.19.008-11.221.01-22.442.007-33.664.002-9.12-.005-18.24-.006-27.359-.003h-3.933l-7.91.003c-24.018.005-48.037 0-72.056-.011-21.92-.01-43.84-.009-65.761 0a108025.56 108025.56 0 0 1-81.786.008l-3.917-.001c-9.109-.002-18.218 0-27.327.006-11.1.005-22.2.004-33.3-.007-5.665-.005-11.328-.007-16.992 0-5.185.005-10.37.002-15.555-.009-1.876-.002-3.751 0-5.626.004-2.551.006-5.102 0-7.653-.01l-2.2.015c-10.561-.077-19.285-3-27.254-10.086-9.865-10.414-9.528-21.94-9.454-35.43a3009.014 3009.014 0 0 1-.007-22.105c.01-5.828-.001-11.656-.01-17.484-.014-11.41-.006-22.82.009-34.23.016-12.616.014-25.232.01-37.847-.007-25.096.009-50.193.035-75.289.023-22.29.028-44.58.018-66.869l-.008-17.126v-2.13a56565.487 56565.487 0 0 1 .014-63.915l.002-3.982c.005-9.263.003-18.526-.001-27.789-.005-11.287 0-22.574.02-33.86.01-5.76.015-11.519.008-17.278-.008-5.272 0-10.543.017-15.815.004-1.907.003-3.814-.003-5.721-.009-2.594.002-5.187.017-7.781l-.02-2.239C16.707 37.507 20.372 30.067 27 23c6.89-6.382 15.332-8.463 24.523-8.383ZM198 164a244.79 244.79 0 0 0-.12 8.89l-.003 2.861c-.002 3.19.004 6.378.01 9.568l-.001 6.828c0 6.2.006 12.4.013 18.6.006 6.472.006 12.943.008 19.415.002 10.869.009 21.738.018 32.607.009 11.198.016 22.395.02 33.592v2.112l.007 18.181c.01 26.115.03 52.23.048 78.346h131v-63l7-1c5.433-1.324 10.337-3.315 15.375-5.687l2.254-1.062C359.223 321.54 364.674 318.56 369 314v-2l1.688-.187c3.327-1.17 5.043-3.166 7.312-5.813v-3l1.727-.613c3.125-1.907 4.742-4.538 6.648-7.574l1.182-1.866c5.53-9.028 9.378-18.366 10.443-28.947.418-2.3.861-4.528 1.52-6.77 4.075-18.917-3.829-40.237-13.438-56.21-3.813-5.53-8.345-10.277-13.082-15.02l-1.992-2.027c-17.096-16.179-40.389-21.144-63.121-21.102l-3.576-.006c-3.874-.004-7.749-.001-11.623.002a14474.8 14474.8 0 0 0-25.008.002c-6.525.006-13.049.004-19.573-.001-5.609-.005-11.217-.005-16.826-.003-3.347.002-6.694.002-10.042-.001-3.72-.003-7.44.001-11.16.007l-3.376-.007-3.05.009-2.665.001c-1.989-.094-1.989-.094-2.988 1.126Z"/><path fill="#010101" d="m232 197 43.25-.125 13.59-.055c5.533-.01 5.533-.01 8.133-.01 1.793-.004 3.585-.01 5.378-.021 10.07-.055 19.764-.021 29.649 2.211v2l2 .25c5.946 1.487 10.945 4.095 15 8.75l1.406 1.367c1.757 1.8 3.264 3.69 4.781 5.696l1.606 2.097C358 221 358 221 358 223l2 1v3l2 1c5.636 12.808 4.919 25.844 1 39h-2l-.375 2.188c-.621 2.794-1.403 5.225-2.625 7.812l-2 1-1 3c-2.502 2.52-5.275 4.725-8 7l-2.313 2.125C328.94 301.113 315.243 299 295 299v62h-63V197Z"/></svg>