<svg xmlns="http://www.w3.org/2000/svg" width="500" height="500"><path d="m356 8 2 6h2v6h2a714.187 714.187 0 0 1 2.5 6.625l1.406 3.727c1.041 3.471 1.179 6.066 1.094 9.648l1.5 1.5c1.5 1.5 1.5 1.5 1.688 4.688L370 49h2l1 9h2l1 9h2c1.802 3.83 2.196 6.781 2 11h2l1 9h2v6h2l1 9h2v6h2c2.04 4.93 3.407 8.58 3 14h2l1 3c4.152 1.19 6.387.79 10.313-.938l2.675-1.152L413 122l.107 1.753a478867.418 478867.418 0 0 0 1.536 25.105l.203 3.318.2 3.29c.133 2.16.267 4.322.402 6.482a995.5 995.5 0 0 1 .802 14.11l.117 2.26c.098 1.928.186 3.857.274 5.786.163 3.088.163 3.088 2.359 5.896 2.15 3.224 2.45 5.229 3 9 .776 3.075.776 3.075 3 5 .125 3.125.125 3.125 0 6h2c1.172 3.984 2.208 7.925 3 12l1 3c1 3 1 3 1 8l-11 4 1 2c-.698 5.698-.698 5.698-2 7 .055 2.987.178 5.945.345 8.926.05.937.098 1.873.148 2.838.163 3.111.333 6.223.503 9.334a12766.51 12766.51 0 0 0 1.253 23.473c.312 5.784.618 11.568.925 17.353.603 11.359 1.212 22.718 1.826 34.076l2-1c.566 10.225 1.098 20.445 1.125 30.688l.014 2.156c-.015 4.908-.015 4.908-1.139 7.156-.07 1.874-.084 3.75-.063 5.625l.028 3.04L427 392c-26.858.165-53.707-.122-80.563-.5l-2.575-.036c-10.62-.15-21.241-.305-31.862-.464v1h-27l-1 3-1 3-.438 3.313c-.524 3.436-1.371 6.431-2.562 9.687h-2v6h-2l-.438 2.75c-.995 5.75-2.298 11.354-5.562 16.25a183.177 183.177 0 0 0-2.625 7.75l-.695 2.094c-1.05 3.325-1.688 5.877-1.586 9.398-.143 5.728-2.115 10.75-3.969 16.133l-1.105 3.348c-2.756 8.145-2.756 8.145-5.02 9.277-1.131 2.34-1.131 2.34-2.125 5.063l-1.07 2.785L251 494l-2.09-1.355c-10.004-6.702-10.004-6.702-20.91-11.645l-1-3a92.17 92.17 0 0 0-6.156-4.332l-1.946-1.288c-2.128-1.405-4.263-2.799-6.398-4.192a5052.94 5052.94 0 0 1-4.434-2.921 5016.028 5016.028 0 0 0-6.926-4.56 1708.185 1708.185 0 0 1-16.535-11.02l-4.53-3.047c-2.186-1.47-4.37-2.94-6.55-4.417a1697.325 1697.325 0 0 0-6.076-4.086l-1.807-1.231c-2.306-1.538-4.272-2.816-6.983-3.477L157 433l-1-3a115.722 115.722 0 0 0-6.957-4.852l-2.12-1.392a1012.44 1012.44 0 0 0-4.45-2.9c-2.272-1.473-4.534-2.96-6.795-4.45l-4.323-2.82-2.049-1.348c-3.509-2.332-3.509-2.332-7.454-3.675L120 408l-1-3c-2.333-1.896-2.333-1.896-5.242-3.758l-3.23-2.144-1.693-1.105a719.818 719.818 0 0 1-5.089-3.364C98.144 390.776 98.144 390.776 92 388a282.565 282.565 0 0 1-3-3c-3.501-2.566-7.097-4.996-10.688-7.435a1072.306 1072.306 0 0 1-5.22-3.58 3703.62 3703.62 0 0 0-3.338-2.274l-3.053-2.085c-2.344-1.41-4.032-2.19-6.701-2.626.464-2.167.936-3.89 2.063-5.813 1.175-2.346 1.175-2.346.937-5.812C63 352 63 352 65 350c.816-2.447 1.105-4.81 1.438-7.375.528-3.407 1.38-6.395 2.562-9.625h2l.375-3.438c.567-4.595 1.552-9.061 2.625-13.562h2l.938-5.125.558-3.031c.38-2.149.706-4.307 1.004-6.469L79 299l2-1c.657-2.145.657-2.145 1.063-4.688l.503-2.726c.343-2.044.646-4.096.934-6.149L84 282l2-1c.657-2.145.657-2.145 1.063-4.688l.503-2.726c.343-2.044.646-4.096.934-6.149L89 265l2-1c.418-2.32.736-4.658 1-7l1-7h2l.438-2.75c.616-3.56 1.42-6.825 2.562-10.25l.438-2c.562-2 .562-2 2.562-5 .08-2.332.088-4.668 0-7h2l-.188-3.313c.216-4.242.471-3.97 3.188-6.687 1-2.49 1-2.49 1.688-5.188L109 203c11.625-.382 23.21.854 34.785 1.794 2.747.221 5.495.435 8.242.647l2.55.215 2.38.182 2.08.168c2.135-.007 3.92-.41 5.963-1.006.02-1.981.037-3.962.048-5.944.01-1.77.027-3.54.05-5.31.033-5-.169-9.842-.778-14.809-1.641-14.52-1.641-14.52.747-18.89 2.872-3.392 6.374-5.718 10.172-7.972 2.682-1.637 5.074-3.598 7.511-5.575l2.422-1.844c2.089-1.62 2.089-1.62 2.828-4.656l1.688-.375c3.548-.959 5.662-3.152 8.312-5.625l1-3c1.862-.544 1.862-.544 4-1a137.868 137.868 0 0 0 6.813-5.188l1.885-1.511A1043.86 1043.86 0 0 0 217 119l2.438-1.957c3.588-2.927 3.588-2.927 5.562-7.043l1.688-.375c3.548-.959 5.662-3.152 8.312-5.625l1-3 4-1 1-3 1.723-.422c3.257-.827 5.152-2.681 7.714-4.828l2.81-2.328c5.015-4.187 5.015-4.187 8.753-9.422l1.707-.352c3.299-.932 5.35-2.852 7.98-5.023l2.95-2.398c2.575-2.075 2.575-2.075 3.363-5.227l1.688-.375c3.595-.972 5.597-3.095 8.312-5.625v-2l1.625-.188c4.126-1.411 7.542-4.146 9.5-8.062L300 49c1.333-.335 2.666-.668 4-1a137.868 137.868 0 0 0 6.813-5.188l1.885-1.511A1043.86 1043.86 0 0 0 318 37l2.438-1.957c3.588-2.927 3.588-2.927 5.562-7.043a75.65 75.65 0 0 1 4-1c1.846-1.2 1.846-1.2 3.61-2.73l2.038-1.686c.694-.585 1.387-1.17 2.102-1.771C353.12 8 353.12 8 356 8Zm6 18 1 2Zm1 3 1 3Zm1 3 1 2Zm1 3 1 2Zm3 9 1 2Zm9 26 1 2Zm1 3 1 3Zm3 9 1 2Zm5 15 1 2Zm6 17 1 2Zm1 3 1 3Zm3 9v3l3-1h-2l-1-2Zm23 67 1 2Zm-253 2v10h1v-10h-1Zm254 1 1 2Zm3 9 1 3Zm3 9 1 2ZM73 323l1 2Zm-4 13 1 3Zm-1 4 1 2Zm-1 2 1 2Zm-3 11 1 3Zm216 49 1 3Zm-1 3 1 2Zm-16 50 1 3Zm-1 4 1 2Zm-1 2 1 3Zm-1 4 1 3Zm-1 3 1 2Zm-2 7 1 2Z" fill="#B1C3E1"/><path d="M110 204a6568.235 6568.235 0 0 1 49.21 3.605c11.574.88 23.141 1.837 34.708 2.805 17.996 1.507 35.996 2.962 53.998 4.399l7.323.585c23 1.841 23 1.841 46.003 3.626l2.831.216c4.056.308 8.112.614 12.168.914 6.277.47 12.524.978 18.759 1.85-2.699 10.463-5.969 20.751-9.188 31.063l-.912 2.93c-5.66 18.17-11.452 36.296-17.27 54.415a3366.393 3366.393 0 0 0-11.695 37.11 1734.343 1734.343 0 0 1-6.56 20.795c-4.71 14.62-9.263 29.29-13.833 43.956a5522.262 5522.262 0 0 1-10.84 34.386c-2.73 8.567-5.434 17.144-8.14 25.72A203287.066 203287.066 0 0 1 251 490c-3.264 0-3.91-.36-6.514-2.11l-2.131-1.419-2.324-1.576-2.458-1.645a2631.158 2631.158 0 0 1-8.073-5.438 7421.16 7421.16 0 0 1-20.51-13.795c-2.932-1.978-5.866-3.955-8.8-5.932-7.442-5.014-14.884-10.03-22.32-15.053a4739.65 4739.65 0 0 0-30.176-20.23 2314.716 2314.716 0 0 1-16.214-10.888l-2.033-1.376c-3.525-2.387-7.044-4.78-10.554-7.188-7.396-5.054-14.843-9.983-22.45-14.714a1409.7 1409.7 0 0 1-11.696-7.392 353.356 353.356 0 0 0-5.74-3.536c-14.816-8.943-14.816-8.943-16.832-13.622-.872-4.201-.427-8.027.825-12.086l2-2c.816-2.447 1.105-4.81 1.438-7.375.528-3.407 1.38-6.395 2.562-9.625h2l.375-3.438c.567-4.595 1.552-9.061 2.625-13.562h2l.938-5.125.558-3.031c.38-2.149.706-4.307 1.004-6.469L79 299l2-1c.657-2.145.657-2.145 1.063-4.688l.503-2.726c.343-2.044.646-4.096.934-6.149L84 282l2-1c.657-2.145.657-2.145 1.063-4.688l.503-2.726c.343-2.044.646-4.096.934-6.149L89 265l2-1c.418-2.32.736-4.658 1-7l1-7h2l.438-2.75c.616-3.56 1.42-6.825 2.562-10.25l.438-2c.562-2 .562-2 2.562-5 .08-2.332.088-4.668 0-7h2l-.188-3.313c.21-4.138.401-4.115 3.188-6.687.744-2.31 1.422-4.643 2-7h2v-2ZM73 323l1 2Zm-4 13 1 3Zm-1 4 1 2Zm-1 2 1 2Zm-3 11 1 3Z" fill="#B1C3E1"/><path d="m418 244 .136 2.827a25568.455 25568.455 0 0 0 3.558 71.68 12793.396 12793.396 0 0 0 2.088 40.14c.217 4.047.436 8.093.66 12.139l.226 4.194.196 3.56c.15 3.826.145 7.631.136 11.46-16.225.062-32.435-.1-48.656-.438l-6.758-.134c-5.84-.116-11.678-.235-17.517-.355-5.995-.123-11.989-.242-17.983-.362-11.695-.234-23.39-.472-35.086-.711l2.844-9.488.803-2.683c3.248-10.832 6.525-21.623 10.353-32.267 2.782-7.74 5.116-15.57 7.391-23.471a458.512 458.512 0 0 1 9.48-28.884c1.303-3.702 2.416-7.434 3.453-11.219.89-2.62 1.859-4.546 4.35-5.892l2.002-.744 2.263-.86 2.373-.867 2.245-.844c1.603-.603 3.208-1.202 4.813-1.799 8.141-3.04 16.232-6.214 24.328-9.371 4.369-1.703 8.738-3.405 13.108-5.106 2.274-.886 4.549-1.774 6.822-2.662 3.304-1.29 6.61-2.577 9.915-3.863l3.093-1.211 2.845-1.104 2.506-.977C416 244 416 244 418 244Z" fill="#B0C3E1"/><path d="M110 204a6568.235 6568.235 0 0 1 49.21 3.605c11.574.88 23.141 1.837 34.708 2.805 17.996 1.507 35.996 2.962 53.998 4.399l7.323.585c23 1.841 23 1.841 46.003 3.626l2.831.216c4.056.308 8.112.614 12.168.914 6.277.47 12.524.978 18.759 1.85-2.699 10.463-5.969 20.751-9.188 31.063l-.912 2.93c-5.66 18.17-11.452 36.296-17.27 54.415a3366.393 3366.393 0 0 0-11.695 37.11 1734.343 1734.343 0 0 1-6.56 20.795c-4.71 14.62-9.263 29.29-13.833 43.956a5522.262 5522.262 0 0 1-10.84 34.386c-2.73 8.567-5.434 17.144-8.14 25.72A203287.066 203287.066 0 0 1 251 490c-3.264 0-3.91-.36-6.514-2.11l-2.131-1.419-2.324-1.576-2.458-1.645a2631.158 2631.158 0 0 1-8.073-5.438 7421.16 7421.16 0 0 1-20.51-13.795c-2.932-1.978-5.866-3.955-8.8-5.932-7.442-5.014-14.884-10.03-22.32-15.053a4739.65 4739.65 0 0 0-30.176-20.23 2314.716 2314.716 0 0 1-16.214-10.888l-2.033-1.376c-3.525-2.387-7.044-4.78-10.554-7.188-7.396-5.054-14.843-9.983-22.45-14.714a1409.7 1409.7 0 0 1-11.696-7.392 353.356 353.356 0 0 0-5.74-3.536c-14.816-8.943-14.816-8.943-16.832-13.622-.872-4.201-.427-8.027.825-12.086l2-2c.816-2.447 1.105-4.81 1.438-7.375.528-3.407 1.38-6.395 2.562-9.625h2l.375-3.438c.567-4.595 1.552-9.061 2.625-13.562h2l.938-5.125.558-3.031c.38-2.149.706-4.307 1.004-6.469L79 299l2-1c.657-2.145.657-2.145 1.063-4.688l.503-2.726c.343-2.044.646-4.096.934-6.149L84 282l2-1c.657-2.145.657-2.145 1.063-4.688l.503-2.726c.343-2.044.646-4.096.934-6.149L89 265l2-1c.418-2.32.736-4.658 1-7l1-7h2l.438-2.75c.616-3.56 1.42-6.825 2.562-10.25l.438-2c.562-2 .562-2 2.562-5 .08-2.332.088-4.668 0-7h2l-.188-3.313c.21-4.138.401-4.115 3.188-6.687.744-2.31 1.422-4.643 2-7h2v-2Zm3 13a343.489 343.489 0 0 0-7.875 25.5c-3.36 12.564-7.178 24.972-11.02 37.396-3.496 11.32-6.84 22.653-9.902 34.098A402.464 402.464 0 0 1 78.875 332l-.75 2.347-.73 2.282a724.29 724.29 0 0 0-3.832 12.308l-.997 3.278c-.593 2.918-.664 4.066.434 6.785 1.964 1.695 1.964 1.695 4.504 3.145l2.896 1.777 3.162 1.89 6.63 4.051 3.437 2.085c5.153 3.137 10.261 6.345 15.371 9.552l6 3.75 12 7.5 3.001 1.876 5.988 3.742c5.061 3.164 10.123 6.327 15.187 9.487a5812.77 5812.77 0 0 1 29.614 18.594 4203.681 4203.681 0 0 0 21.914 13.745 3429.434 3429.434 0 0 1 15.983 10.025l3.299 2.077c2.089 1.316 4.176 2.635 6.26 3.957l2.86 1.798 2.504 1.583c2.403 1.374 4.798 2.402 7.39 3.366a117.118 117.118 0 0 0 6.813-18.188c.516-1.767 1.034-3.534 1.554-5.3l.808-2.749c1.363-4.564 2.81-9.101 4.262-13.638l.882-2.76c1.195-3.735 2.394-7.47 3.593-11.204.906-2.824 1.81-5.649 2.713-8.474.29-.91.582-1.82.882-2.757a626.652 626.652 0 0 0 5.808-19.302c1.13-3.946 2.451-7.763 3.917-11.592 1.305-3.46 2.475-6.965 3.643-10.474l.79-2.368c1.918-5.813 3.679-11.66 5.378-17.54 3.469-11.94 7.37-23.75 11.195-35.58 3.66-11.33 7.29-22.66 10.651-34.084 1.928-6.506 4.055-12.937 6.284-19.346 1.03-3.007 1.827-5.44 1.827-8.644-13.25-2.097-26.533-3.633-39.875-5-11.103-1.138-22.18-2.329-33.237-3.851-11.127-1.502-22.299-2.625-33.464-3.792l-2.374-.25c-1.476-.155-2.953-.31-4.43-.46-3.59-.38-7.086-.912-10.62-1.647-3.572-.295-7.145-.505-10.723-.719-3.277-.281-3.277-.281-5.23-.77-2.044-.51-3.982-.774-6.078-.976l-2.367-.233-2.532-.24-2.63-.257a5043.08 5043.08 0 0 0-8.315-.805c-2.765-.267-5.53-.535-8.294-.805-1.718-.168-3.436-.334-5.155-.497A175.693 175.693 0 0 1 124 217a131.115 131.115 0 0 0-5.875-.063l-2.93.028L113 217ZM73 323l1 2Zm-4 13 1 3Zm-1 4 1 2Zm-1 2 1 2Zm-3 11 1 3Z" fill="#F7F7F8"/><path d="m355 10 .895 2.702c6.144 18.529 12.358 37.031 18.695 55.495 3.154 9.192 6.294 18.389 9.348 27.615 3.52 10.627 7.13 21.22 10.75 31.813l.908 2.66c2.987 8.738 5.978 17.475 8.975 26.21 1.373 4.002 2.745 8.003 4.116 12.005l.806 2.35a3648.953 3648.953 0 0 1 12.994 38.648c2.518 7.633 2.518 7.633 5.318 15.166C429 228 429 228 429 232l-2.926 1.091c-4.713 1.759-9.425 3.521-14.137 5.284l-2.643.988a3543.07 3543.07 0 0 0-33.31 12.64c-1.07.413-2.14.826-3.244 1.25a6483.868 6483.868 0 0 0-15.79 6.106l-5.782 2.23-2.684 1.05-2.464.947-2.144.832C342 265 342 265 339 265c.554-3.362 1.249-6.676 2-10l.627-2.775c1.173-4.066 2.138-7.241 5.52-9.935 2.748-1.41 5.494-2.53 8.392-3.599l3.14-1.269c3.301-1.325 6.622-2.592 9.946-3.86 2.211-.875 4.42-1.755 6.629-2.638 4.995-1.99 10.004-3.94 15.024-5.866 3.598-1.399 7.17-2.862 10.738-4.337C403 220 403 220 405 220l-.883-2.617c-5.328-15.82-10.572-31.644-15.41-47.622-1.75-5.745-3.59-11.43-5.644-17.073-3.154-8.667-5.83-17.474-8.54-26.286a1845.614 1845.614 0 0 0-7.898-25.027 3654.457 3654.457 0 0 1-10.313-32.5C352.66 57.209 348.957 45.567 345 34c-4.103 2.323-7.764 5.063-11.438 8l-3.761 2.98-1.924 1.53c-2.868 2.277-5.747 4.54-8.627 6.803l-1.717 1.35c-5.601 4.4-11.227 8.768-16.851 13.138a3866.094 3866.094 0 0 0-18.996 14.872c-2.894 2.278-5.79 4.552-8.686 6.827l-3.5 2.75-21 16.5-1.749 1.374-3.51 2.758a10037.37 10037.37 0 0 0-8.6 6.763 4455.758 4455.758 0 0 1-21.96 17.156 3848.481 3848.481 0 0 0-18.956 14.842 5996.27 5996.27 0 0 1-5.526 4.341l-1.907 1.498-3.588 2.816c-1.57 1.232-3.137 2.467-4.704 3.702l-2.702 1.58c-2.555 2.691-2.632 3.046-2.59 6.546.126 1.674.281 3.346.46 5.015l.223 2.673c.241 2.815.518 5.625.797 8.436.17 1.909.337 3.817.501 5.727.41 4.677.852 9.35 1.311 14.023h-7c-5.655-38.725-5.655-38.725-1.57-46.84 1.737-2.002 3.505-3.51 5.57-5.16l1.91-2.434c2.874-3.529 6.326-5.975 9.945-8.699 2.393-1.763 2.393-1.763 3.145-4.867l1.688-.375c3.548-.959 5.662-3.152 8.312-5.625l1-3c1.75-.563 1.75-.563 4-1 4.447-1.408 7.506-3.89 10.938-6.938 4.515-3.916 9.088-7.712 13.812-11.374 5.326-4.14 10.556-8.384 15.75-12.688 5.194-4.304 10.424-8.547 15.75-12.688 4.507-3.505 8.912-7.1 13.25-10.812a365.171 365.171 0 0 1 13.25-10.813 678.224 678.224 0 0 0 15.625-12.562l2.16-1.786 2.164-1.788c9.633-7.962 19.33-15.835 29.197-23.504 4.8-3.753 9.44-7.677 14.019-11.696C352.786 10 352.786 10 355 10Z" fill="#FAFAFA"/><path d="m356 8 2 6h2v6h2a714.187 714.187 0 0 1 2.5 6.625l1.406 3.727c1.041 3.471 1.179 6.066 1.094 9.648l1.5 1.5c1.5 1.5 1.5 1.5 1.688 4.688L370 49h2l1 9h2l1 9h2c1.802 3.83 2.196 6.781 2 11h2l1 9h2v6h2l1 9h2v6h2c2.04 4.93 3.407 8.58 3 14h2l1 3c4.152 1.19 6.387.79 10.313-.938l2.675-1.152L413 122l.107 1.753a478867.418 478867.418 0 0 0 1.536 25.105l.203 3.318.2 3.29c.133 2.16.267 4.322.402 6.482a995.5 995.5 0 0 1 .802 14.11l.117 2.26c.098 1.928.186 3.857.274 5.786.163 3.088.163 3.088 2.359 5.896 2.15 3.224 2.45 5.229 3 9 .776 3.075.776 3.075 3 5 .125 3.125.125 3.125 0 6h2c1.172 3.984 2.208 7.925 3 12l1 3c1 3 1 3 1 8l-11 4 1 2c-.698 5.698-.698 5.698-2 7 .055 2.987.178 5.945.345 8.926.05.937.098 1.873.148 2.838.163 3.111.333 6.223.503 9.334a12766.51 12766.51 0 0 0 1.253 23.473c.312 5.784.618 11.568.925 17.353.603 11.359 1.212 22.718 1.826 34.076l2-1c.566 10.225 1.098 20.445 1.125 30.688l.014 2.156c-.015 4.908-.015 4.908-1.139 7.156-.07 1.874-.084 3.75-.063 5.625l.028 3.04L427 392c-26.858.165-53.707-.122-80.563-.5l-2.575-.036c-10.62-.15-21.241-.305-31.862-.464v1h-27l-1 3-1 3-.438 3.313c-.524 3.436-1.371 6.431-2.562 9.687h-2v6h-2l-.438 2.75c-.995 5.75-2.298 11.354-5.562 16.25a183.177 183.177 0 0 0-2.625 7.75l-.695 2.094c-1.05 3.325-1.688 5.877-1.586 9.398-.143 5.728-2.115 10.75-3.969 16.133l-1.105 3.348c-2.756 8.145-2.756 8.145-5.02 9.277-1.131 2.34-1.131 2.34-2.125 5.063l-1.07 2.785L251 494l-2.09-1.355c-10.004-6.702-10.004-6.702-20.91-11.645l-1-3a92.17 92.17 0 0 0-6.156-4.332l-1.946-1.288c-2.128-1.405-4.263-2.799-6.398-4.192a5052.94 5052.94 0 0 1-4.434-2.921 5016.028 5016.028 0 0 0-6.926-4.56 1708.185 1708.185 0 0 1-16.535-11.02l-4.53-3.047c-2.186-1.47-4.37-2.94-6.55-4.417a1697.325 1697.325 0 0 0-6.076-4.086l-1.807-1.231c-2.306-1.538-4.272-2.816-6.983-3.477L157 433l-1-3a115.722 115.722 0 0 0-6.957-4.852l-2.12-1.392a1012.44 1012.44 0 0 0-4.45-2.9c-2.272-1.473-4.534-2.96-6.795-4.45l-4.323-2.82-2.049-1.348c-3.509-2.332-3.509-2.332-7.454-3.675L120 408l-1-3c-2.333-1.896-2.333-1.896-5.242-3.758l-3.23-2.144-1.693-1.105a719.818 719.818 0 0 1-5.089-3.364C98.144 390.776 98.144 390.776 92 388a282.565 282.565 0 0 1-3-3c-3.501-2.566-7.097-4.996-10.688-7.435a1072.306 1072.306 0 0 1-5.22-3.58 3703.62 3703.62 0 0 0-3.338-2.274l-3.053-2.085c-2.344-1.41-4.032-2.19-6.701-2.626l1-4h2v3l2.058.71c3.624 1.589 6.765 3.704 10.012 5.935l2.115 1.435c2.316 1.573 4.628 3.153 6.94 4.733l4.888 3.322c2.587 1.756 5.173 3.513 7.758 5.272a7850.54 7850.54 0 0 0 28.473 19.255l8.286 5.59c10.224 6.898 10.224 6.898 20.478 13.752 7.71 5.13 15.376 10.326 23.05 15.51a9922.744 9922.744 0 0 0 50.125 33.652c2.338 1.56 4.677 3.12 7.016 4.678l2.047 1.366c4.533 3.015 9.123 5.927 13.754 8.79l.775-2.493c4.395-14.125 8.796-28.246 13.35-42.32 5.114-15.814 10.064-31.68 15.028-47.542a7054.71 7054.71 0 0 1 11.208-35.5 8587.436 8587.436 0 0 0 7.389-23.332l1.546-4.896a13489.455 13489.455 0 0 0 9.01-28.638l1.382-4.404c.34-1.088.34-1.088.69-2.199a3968.62 3968.62 0 0 1 10.261-32.196c2.067-6.41 4.103-12.828 6.107-19.257l.698-2.238c1.127-3.618 2.25-7.237 3.37-10.857l1.217-3.917 1.08-3.49C334 224 334 224 335 222l-1.67-.064a862.187 862.187 0 0 1-39.381-2.435c-3.086-.263-6.173-.52-9.26-.776-4.513-.375-9.026-.752-13.54-1.13a15201.1 15201.1 0 0 0-41.706-3.414 7003.556 7003.556 0 0 0-66.93-5.063c-4.11-.294-8.22-.592-12.331-.89-2.207-.158-4.414-.314-6.622-.468-3.484-.244-6.967-.496-10.45-.748l-3.184-.217c-6.748-.499-13.296-1.45-19.926-2.795l-1 2v-3c11.625-.382 23.21.854 34.785 1.794 2.747.221 5.495.435 8.242.647l2.55.215 2.38.182 2.08.168c2.135-.007 3.92-.41 5.963-1.006.028-2.854.048-5.708.063-8.563l.025-2.682c.017-5.02-.147-9.957-.592-14.958l-.244-3.088c-.165-1.98-.364-3.956-.6-5.928-.52-6.702-.52-6.702 2.133-10.001 1.997-1.756 3.998-3.316 6.215-4.78l2 1-1.531 1.047c-3.867 3.345-5.634 6.32-6.004 11.41-.214 9.102.594 18.114 2.097 27.086.356 2.806.483 5.359.465 8.173l-.012 2.437L169 208l3.957.137c15.877.597 31.69 1.749 47.527 3.01 3.55.282 7.1.56 10.651.837l2.172.17a141318.163 141318.163 0 0 0 10.91.852c15.148 1.186 30.301 2.306 45.455 3.419l9.262.68 2.95.217c11.707.864 23.412 1.77 35.116 2.678l-2 8 14 1c-.563 6.59-2.255 12.335-4.438 18.563a3778.6 3778.6 0 0 0-1.87 5.44l-.838 2.402c-1.044 3.173-1.952 6.378-2.854 9.595 22.194-8.28 44.357-16.632 66.455-25.162l2.376-.917 4.338-1.677c1.296-.5 2.592-1 3.888-1.497 1.372-.527 2.74-1.062 4.106-1.603C425.67 232 425.67 232 429 232a7439.375 7439.375 0 0 0-20-59.563l-1.033-3.03c-3.399-9.976-6.806-19.949-10.233-29.915l-.764-2.224-2.949-8.573c-4.005-11.647-7.899-23.328-11.77-35.02a1616.536 1616.536 0 0 0-11.376-33.05c-3.724-10.478-7.409-20.967-10.954-31.508-.443-1.314-.888-2.629-1.335-3.942-.613-1.804-1.217-3.61-1.82-5.417l-1.038-3.09C355 14 355 14 355 10a2157.904 2157.904 0 0 0-17.625 14.188l-2.062 1.676c-3.471 2.822-6.94 5.647-10.407 8.476-6.32 5.153-12.66 10.273-19.094 15.285-5.086 3.964-10.028 8.065-14.927 12.257-3.805 3.242-7.69 6.361-11.635 9.43a678.224 678.224 0 0 0-15.625 12.563l-2.16 1.786-2.164 1.788c-9.076 7.502-18.201 14.938-27.488 22.176-5.786 4.51-11.403 9.194-16.973 13.965A292.267 292.267 0 0 1 207 130l-2-1c5.503-4.998 11.114-9.736 17.031-14.238 2.223-1.696 2.223-1.696 2.969-4.762l1.688-.375c3.548-.959 5.662-3.152 8.312-5.625l1-3 4-1 1-3 1.723-.422c3.257-.827 5.152-2.681 7.714-4.828l2.81-2.328c5.015-4.187 5.015-4.187 8.753-9.422l1.707-.352c3.299-.932 5.35-2.852 7.98-5.023l2.95-2.398c2.575-2.075 2.575-2.075 3.363-5.227l1.688-.375c3.595-.972 5.597-3.095 8.312-5.625v-2l1.625-.188c4.126-1.411 7.542-4.146 9.5-8.062L300 49c1.333-.335 2.666-.668 4-1a137.868 137.868 0 0 0 6.813-5.188l1.885-1.511A1043.86 1043.86 0 0 0 318 37l2.438-1.957c3.588-2.927 3.588-2.927 5.562-7.043a75.65 75.65 0 0 1 4-1c1.846-1.2 1.846-1.2 3.61-2.73l2.038-1.686c.694-.585 1.387-1.17 2.102-1.771C353.12 8 353.12 8 356 8Zm6 18 1 2Zm1 3 1 3Zm1 3 1 2Zm1 3 1 2Zm3 9 1 2Zm9 26 1 2Zm1 3 1 3Zm3 9 1 2Zm5 15 1 2Zm6 17 1 2Zm1 3 1 3Zm3 9v3l3-1h-2l-1-2Zm23 67 1 2Zm-253 2v10h1v-10h-1Zm254 1 1 2Zm3 9 1 3Zm3 9 1 2Zm-15.3 31.956-3.36 1.296-3.652 1.42-3.754 1.45c-3.305 1.279-6.608 2.56-9.911 3.843a7480.924 7480.924 0 0 1-8.01 3.101c-15.502 5.977-15.502 5.977-30.936 12.124-1.894.739-3.825 1.381-5.757 2.013-7.087 2.099-7.087 2.099-11.882 7.297-.802 2.136-.802 2.136-1.438 4.5l-.895 2.738a314.62 314.62 0 0 0-1.976 6.446c-1.306 4.413-2.679 8.803-4.067 13.191l-.776 2.46a917.133 917.133 0 0 1-4.911 15.04c-2.513 7.49-4.843 15.027-7.117 22.594-3.538 11.775-7.174 23.5-11.124 35.144l-.849 2.504-.754 2.207c-.581 1.542-.581 1.542-.531 2.676 12.885.264 25.77.525 38.654.782 5.985.12 11.97.24 17.956.364 5.797.118 11.594.235 17.39.35 2.191.043 4.382.088 6.572.134A1848.9 1848.9 0 0 0 425 390a11165.027 11165.027 0 0 0-2.537-55.907c-.84-17.773-1.729-35.541-2.83-53.3-.75-12.257-1.234-24.52-1.633-36.793-2.742 0-4.74.964-7.3 1.956ZM280 402l1 3Zm-1 3 1 2Zm-16 50 1 3Zm-1 4 1 2Zm-1 2 1 3Zm-1 4 1 3Zm-1 3 1 2Zm-2 7 1 2Z" fill="#5F6575"/><path d="M113 217c9.254-.344 18.227.737 27.375 1.938 2.84.367 5.682.73 8.523 1.09l2.08.264c5.448.677 10.894 1.125 16.372 1.464 2.336.215 4.393.64 6.65 1.244 3.202.27 6.405.443 9.613.621 5.833.427 11.616 1.322 17.407 2.112 5.654.762 11.317 1.45 16.98 2.142l2.074.254a1261.148 1261.148 0 0 0 29.04 3.216c4.27.43 8.541.85 12.814 1.26 7.788.76 15.429 1.652 23.072 3.395v1l-1.777-.013c-6.199-.045-12.398-.075-18.597-.097-2.302-.01-4.604-.023-6.906-.04-19.367-.144-37.61 1.278-56.595 5.025l-3.93.738C165.105 248.857 135.47 264.403 112 287l-2.324 2.098C99.34 298.728 91.218 311.373 85 324h-3c1.493-7.039 3.3-13.95 5.25-20.875l.935-3.335a613.69 613.69 0 0 1 6.617-21.765c1.883-5.882 3.54-11.81 5.135-17.775a706.853 706.853 0 0 1 6.75-23.563l.865-2.836A621.599 621.599 0 0 1 113 217Z" fill="#A2B6DA"/><path d="m418 244 .136 2.827a25568.455 25568.455 0 0 0 3.558 71.68 12793.396 12793.396 0 0 0 2.088 40.14c.217 4.047.436 8.093.66 12.139l.226 4.194.196 3.56c.15 3.826.145 7.631.136 11.46-16.225.062-32.435-.1-48.656-.438l-6.758-.134c-5.84-.116-11.678-.235-17.517-.355-5.995-.123-11.989-.242-17.983-.362-11.695-.234-23.39-.472-35.086-.711.809-2.647 1.622-5.293 2.438-7.938l.697-2.287c1.752-5.662 1.752-5.662 2.865-6.775a60.149 60.149 0 0 1 4.135-.19l2.683-.05 2.944-.041 3.046-.055c2.166-.039 4.331-.075 6.496-.11 5.637-.09 11.274-.195 16.91-.3l3.372-.062c9.8-.186 19.592-.484 29.385-.887 10.342-.4 20.682-.347 31.029-.305-.263-7.54-.53-15.08-.8-22.62l-.27-7.674c-.434-12.416-.87-24.82-1.71-37.217-.386-6.116-.586-12.239-.783-18.364l-.128-3.91c-.303-9.742-.428-19.47-.309-29.215 2.457-1.004 4.915-2.004 7.375-3l2.117-.867C415.773 244 415.773 244 418 244Z" fill="#FCFCFD"/><path d="m298 69 2 1-2.551 2.535a9520.884 9520.884 0 0 0-9.455 9.416 4193.783 4193.783 0 0 1-4.076 4.055C273.628 96.194 273.628 96.194 264 107c-.876 1.01-1.754 2.02-2.633 3.027C235.854 139.82 213.464 173.396 199 210c-3.438-.11-6.875-.24-10.313-.375-.976-.03-1.952-.062-2.958-.094l-2.842-.117-2.619-.095C178 209 178 209 175 207a75.45 75.45 0 0 1-1.371-8.375l-.275-2.543a549.693 549.693 0 0 1-.521-5.346 175.8 175.8 0 0 0-.621-5.429c-1.884-14.474-1.884-14.474.817-19.05 3.111-3.558 6.946-5.85 10.971-8.257 1.459-1.1 2.904-2.219 4.328-3.363a1540.69 1540.69 0 0 1 3.922-2.95 561.774 561.774 0 0 0 17-13.375 650.341 650.341 0 0 1 17.559-13.867c3.317-2.534 6.6-5.11 9.879-7.695A3000.433 3000.433 0 0 1 253 104a4691.504 4691.504 0 0 0 26.695-20.914C285.745 78.318 291.807 73.582 298 69Z" fill="#A2B6DA"/><path d="m356 8 2 6h2v6h2a714.187 714.187 0 0 1 2.5 6.625l1.406 3.727c1.041 3.471 1.179 6.066 1.094 9.648l1.5 1.5c1.5 1.5 1.5 1.5 1.688 4.688L370 49h2l1 9h2l1 9h2c1.802 3.83 2.196 6.781 2 11h2l1 9h2v6h2l1 9h2v6h2c2.04 4.93 3.407 8.58 3 14h2l1 3c4.152 1.19 6.387.79 10.313-.938l2.675-1.152L413 122l.107 1.753a478867.418 478867.418 0 0 0 1.536 25.105l.203 3.318.2 3.29c.133 2.16.267 4.322.402 6.482a995.5 995.5 0 0 1 .802 14.11l.117 2.26c.098 1.928.186 3.857.274 5.786.163 3.088.163 3.088 2.359 5.896 2.15 3.224 2.45 5.229 3 9 .776 3.075.776 3.075 3 5 .125 3.125.125 3.125 0 6h2c1.172 3.984 2.208 7.925 3 12l1 3c1 3 1 3 1 8l-11 4 1 2c-.698 5.698-.698 5.698-2 7 .055 2.987.178 5.945.345 8.926.05.937.098 1.873.148 2.838.163 3.111.333 6.223.503 9.334a12766.51 12766.51 0 0 0 1.253 23.473c.312 5.784.618 11.568.925 17.353.603 11.359 1.212 22.718 1.826 34.076l2-1c.566 10.225 1.098 20.445 1.125 30.688l.014 2.156c-.015 4.908-.015 4.908-1.139 7.156-.07 1.874-.084 3.75-.063 5.625l.028 3.04L427 392c-26.858.165-53.707-.122-80.563-.5l-2.575-.036c-10.62-.15-21.241-.305-31.862-.464v1h-27l-1 3-1 3-.438 3.313c-.524 3.436-1.371 6.431-2.562 9.687h-2v6h-2l-.438 2.75c-.995 5.75-2.298 11.354-5.562 16.25a183.177 183.177 0 0 0-2.625 7.75l-.695 2.094c-1.05 3.325-1.688 5.877-1.586 9.398-.143 5.728-2.115 10.75-3.969 16.133l-1.105 3.348c-2.756 8.145-2.756 8.145-5.02 9.277-1.131 2.34-1.131 2.34-2.125 5.063l-1.07 2.785L251 494l-2.09-1.355c-10.004-6.702-10.004-6.702-20.91-11.645l-1-3a92.17 92.17 0 0 0-6.156-4.332l-1.946-1.288c-2.128-1.405-4.263-2.799-6.398-4.192a5052.94 5052.94 0 0 1-4.434-2.921 5016.028 5016.028 0 0 0-6.926-4.56 1708.185 1708.185 0 0 1-16.535-11.02l-4.53-3.047c-2.186-1.47-4.37-2.94-6.55-4.417a1697.325 1697.325 0 0 0-6.076-4.086l-1.807-1.231c-2.306-1.538-4.272-2.816-6.983-3.477L157 433l-1-3a115.722 115.722 0 0 0-6.957-4.852l-2.12-1.392a1012.44 1012.44 0 0 0-4.45-2.9c-2.272-1.473-4.534-2.96-6.795-4.45l-4.323-2.82-2.049-1.348c-3.509-2.332-3.509-2.332-7.454-3.675L120 408l-1-3c-2.333-1.896-2.333-1.896-5.242-3.758l-3.23-2.144-1.693-1.105a719.818 719.818 0 0 1-5.089-3.364C98.144 390.776 98.144 390.776 92 388a282.565 282.565 0 0 1-3-3c-3.501-2.566-7.097-4.996-10.688-7.435a1072.306 1072.306 0 0 1-5.22-3.58 3703.62 3703.62 0 0 0-3.338-2.274l-3.053-2.085c-2.344-1.41-4.032-2.19-6.701-2.626l1-4h2v3l2.058.71c3.624 1.589 6.765 3.704 10.012 5.935l2.115 1.435c2.316 1.573 4.628 3.153 6.94 4.733l4.888 3.322c2.587 1.756 5.173 3.513 7.758 5.272a7850.54 7850.54 0 0 0 28.473 19.255l8.286 5.59c10.224 6.898 10.224 6.898 20.478 13.752 7.71 5.13 15.376 10.326 23.05 15.51a9922.744 9922.744 0 0 0 50.125 33.652c2.338 1.56 4.677 3.12 7.016 4.678l2.047 1.366c4.533 3.015 9.123 5.927 13.754 8.79l.775-2.493c4.729-15.199 9.48-30.388 14.391-45.529 2.685-8.315 5.294-16.653 7.885-24.998l2.185-7.022c1.1-3.536 2.198-7.073 3.29-10.612 1.026-3.328 2.06-6.654 3.095-9.979l.943-3.08.883-2.823.766-2.476C285 379 285 379 287 377c-.875 7.75-.875 7.75-2 10l1.745.028c14.128.231 28.257.465 42.385.702 6.833.115 13.666.229 20.499.34 6.614.108 13.227.218 19.84.33 2.504.043 5.007.084 7.51.124 16.021.256 32.016.72 48.021 1.476l-.179-1.87c-1.581-16.61-2.495-33.215-3.23-49.883-.248-5.607-.509-11.213-.768-16.82l-.192-4.14a1886.14 1886.14 0 0 0-1.756-32.224c-.985-15.68-1.482-31.36-1.875-47.063l-3.176 1.348-4.137 1.714-2.091.893c-5.256 2.158-5.256 2.158-8.596 1.045 5.813-3.03 11.655-5.51 17.813-7.75l2.56-.957 2.459-.902 2.21-.812C426 232 426 232 429 232a7439.375 7439.375 0 0 0-20-59.563l-1.033-3.03c-3.399-9.976-6.806-19.949-10.233-29.915l-.764-2.224-2.949-8.573c-4.005-11.647-7.899-23.328-11.77-35.02a1616.536 1616.536 0 0 0-11.376-33.05c-3.724-10.478-7.409-20.967-10.954-31.508-.443-1.314-.888-2.629-1.335-3.942-.613-1.804-1.217-3.61-1.82-5.417l-1.038-3.09C355 14 355 14 355 10a2157.904 2157.904 0 0 0-17.625 14.188l-2.062 1.676c-3.471 2.822-6.94 5.647-10.407 8.476-6.32 5.153-12.66 10.273-19.094 15.285-5.086 3.964-10.028 8.065-14.927 12.257-3.805 3.242-7.69 6.361-11.635 9.43a678.224 678.224 0 0 0-15.625 12.563l-2.16 1.786-2.164 1.788c-9.076 7.502-18.201 14.938-27.488 22.176-5.786 4.51-11.403 9.194-16.973 13.965A292.267 292.267 0 0 1 207 130l-2-1c5.503-4.998 11.114-9.736 17.031-14.238 2.223-1.696 2.223-1.696 2.969-4.762l1.688-.375c3.548-.959 5.662-3.152 8.312-5.625l1-3 4-1 1-3 1.723-.422c3.257-.827 5.152-2.681 7.714-4.828l2.81-2.328c5.015-4.187 5.015-4.187 8.753-9.422l1.707-.352c3.299-.932 5.35-2.852 7.98-5.023l2.95-2.398c2.575-2.075 2.575-2.075 3.363-5.227l1.688-.375c3.595-.972 5.597-3.095 8.312-5.625v-2l1.625-.188c4.126-1.411 7.542-4.146 9.5-8.062L300 49c1.333-.335 2.666-.668 4-1a137.868 137.868 0 0 0 6.813-5.188l1.885-1.511A1043.86 1043.86 0 0 0 318 37l2.438-1.957c3.588-2.927 3.588-2.927 5.562-7.043a75.65 75.65 0 0 1 4-1c1.846-1.2 1.846-1.2 3.61-2.73l2.038-1.686c.694-.585 1.387-1.17 2.102-1.771C353.12 8 353.12 8 356 8Zm6 18 1 2Zm1 3 1 3Zm1 3 1 2Zm1 3 1 2Zm3 9 1 2Zm9 26 1 2Zm1 3 1 3Zm3 9 1 2Zm5 15 1 2Zm6 17 1 2Zm1 3 1 3Zm3 9v3l3-1h-2l-1-2Zm23 67 1 2Zm1 3 1 2Zm3 9 1 3Zm3 9 1 2ZM280 402l1 3Zm-1 3 1 2Zm-16 50 1 3Zm-1 4 1 2Zm-1 2 1 3Zm-1 4 1 3Zm-1 3 1 2Zm-2 7 1 2Z" fill="#222023"/><path d="M421 293h1c2.181 34.696 2.181 34.696 3 49l2-1c.566 10.225 1.098 20.445 1.125 30.688l.014 2.156c-.015 4.908-.015 4.908-1.139 7.156-.07 1.874-.084 3.75-.063 5.625l.028 3.04L427 392c-26.858.165-53.707-.122-80.563-.5l-2.575-.036c-10.62-.15-21.241-.305-31.862-.464v1h-27l-1 3-1 3-.438 3.313c-.524 3.436-1.371 6.431-2.562 9.687h-2v6h-2l-.438 2.75c-.995 5.75-2.298 11.354-5.562 16.25a183.177 183.177 0 0 0-2.625 7.75l-.695 2.094c-1.05 3.325-1.688 5.877-1.586 9.398-.143 5.728-2.115 10.75-3.969 16.133l-1.105 3.348c-2.756 8.145-2.756 8.145-5.02 9.277-1.131 2.34-1.131 2.34-2.125 5.063l-1.07 2.785L251 494l-2.09-1.355c-10.004-6.702-10.004-6.702-20.91-11.645l-1-3a92.17 92.17 0 0 0-6.156-4.332l-1.946-1.288c-2.128-1.405-4.263-2.799-6.398-4.192a5052.94 5052.94 0 0 1-4.434-2.921 5016.028 5016.028 0 0 0-6.926-4.56 1708.185 1708.185 0 0 1-16.535-11.02l-4.53-3.047c-2.186-1.47-4.37-2.94-6.55-4.417a1697.325 1697.325 0 0 0-6.076-4.086l-1.807-1.231c-2.306-1.538-4.272-2.816-6.983-3.477L157 433l-1-3a115.722 115.722 0 0 0-6.957-4.852l-2.12-1.392a1012.44 1012.44 0 0 0-4.45-2.9c-2.272-1.473-4.534-2.96-6.795-4.45l-4.323-2.82-2.049-1.348c-3.509-2.332-3.509-2.332-7.454-3.675L120 408l-1-3c-2.333-1.896-2.333-1.896-5.242-3.758l-3.23-2.144-1.693-1.105a719.818 719.818 0 0 1-5.089-3.364C98.144 390.776 98.144 390.776 92 388a282.565 282.565 0 0 1-3-3c-3.501-2.566-7.097-4.996-10.688-7.435a1072.306 1072.306 0 0 1-5.22-3.58 3703.62 3703.62 0 0 0-3.338-2.274l-3.053-2.085c-2.344-1.41-4.032-2.19-6.701-2.626l1-4h2v3l2.058.71c3.624 1.589 6.765 3.704 10.012 5.935l2.115 1.435c2.316 1.573 4.628 3.153 6.94 4.733l4.888 3.322c2.587 1.756 5.173 3.513 7.758 5.272a7850.54 7850.54 0 0 0 28.473 19.255l8.286 5.59a3758.082 3758.082 0 0 0 20.478 13.752c7.71 5.13 15.376 10.326 23.05 15.51a9922.744 9922.744 0 0 0 50.125 33.652c2.338 1.56 4.677 3.12 7.016 4.678l2.047 1.366c4.533 3.015 9.123 5.927 13.754 8.79l.775-2.493c4.729-15.199 9.48-30.388 14.391-45.529 2.685-8.315 5.294-16.653 7.885-24.998l2.185-7.022c1.1-3.536 2.198-7.073 3.29-10.612 1.026-3.328 2.06-6.654 3.095-9.979l.943-3.08.883-2.823.766-2.476C285 379 285 379 287 377c-.875 7.75-.875 7.75-2 10l1.745.028c14.128.231 28.257.465 42.385.702 6.833.115 13.666.229 20.499.34 6.614.108 13.227.218 19.84.33 2.504.043 5.007.084 7.51.124 16.021.256 32.016.72 48.021 1.476l-.181-1.775-.238-2.338-.236-2.314c-3-29.983-3.864-60.456-3.345-90.573ZM280 402l1 3Zm-1 3 1 2Zm-16 50 1 3Zm-1 4 1 2Zm-1 2 1 3Zm-1 4 1 3Zm-1 3 1 2Zm-2 7 1 2Z" fill="#272528"/><path d="m356 8 2 6h2v6h2a714.187 714.187 0 0 1 2.5 6.625l1.406 3.727c1.041 3.471 1.179 6.066 1.094 9.648l1.5 1.5c1.5 1.5 1.5 1.5 1.688 4.688L370 49h2l1 9h2l1 9h2c1.802 3.83 2.196 6.781 2 11h2l1 9h2v6h2l1 9h2v6h2c2.04 4.93 3.407 8.58 3 14h2l1 3 3 2-1.875.375c-2.316.497-2.316.497-4.125 2.625-10.549-29.16-20.559-58.502-30.304-87.939-2.791-8.421-5.685-16.794-8.77-25.112C355 14 355 14 355 10a2157.904 2157.904 0 0 0-17.625 14.188l-2.062 1.676c-3.471 2.822-6.94 5.647-10.407 8.476-6.32 5.153-12.66 10.273-19.094 15.285-5.086 3.964-10.028 8.065-14.927 12.257-3.805 3.242-7.69 6.361-11.635 9.43a678.224 678.224 0 0 0-15.625 12.563l-2.16 1.786-2.164 1.788c-9.076 7.502-18.201 14.938-27.488 22.176-5.786 4.51-11.403 9.194-16.973 13.965A292.267 292.267 0 0 1 207 130l-2-1c5.503-4.998 11.114-9.736 17.031-14.238 2.223-1.696 2.223-1.696 2.969-4.762l1.688-.375c3.548-.959 5.662-3.152 8.312-5.625l1-3 4-1 1-3 1.723-.422c3.257-.827 5.152-2.681 7.714-4.828l2.81-2.328c5.015-4.187 5.015-4.187 8.753-9.422l1.707-.352c3.299-.932 5.35-2.852 7.98-5.023l2.95-2.398c2.575-2.075 2.575-2.075 3.363-5.227l1.688-.375c3.595-.972 5.597-3.095 8.312-5.625v-2l1.625-.188c4.126-1.411 7.542-4.146 9.5-8.062L300 49c1.333-.335 2.666-.668 4-1a137.868 137.868 0 0 0 6.813-5.188l1.885-1.511A1043.86 1043.86 0 0 0 318 37l2.438-1.957c3.588-2.927 3.588-2.927 5.562-7.043a75.65 75.65 0 0 1 4-1c1.846-1.2 1.846-1.2 3.61-2.73l2.038-1.686 2.102-1.771C353.12 8 353.12 8 356 8Zm6 18 1 2Zm1 3 1 3Zm1 3 1 2Zm1 3 1 2Zm3 9 1 2Zm9 26 1 2Zm1 3 1 3Zm3 9 1 2Zm5 15 1 2Zm6 17 1 2Zm1 3 1 3Z" fill="#262427"/><path d="m172 155 2 1-1.531 1.047c-3.867 3.345-5.634 6.32-6.004 11.41-.214 9.102.594 18.114 2.097 27.086.356 2.806.483 5.359.465 8.173l-.012 2.437L169 208l3.957.137c15.877.597 31.69 1.749 47.527 3.01 3.55.282 7.1.56 10.651.837a291385848.378 291385848.378 0 0 0 13.081 1.022c15.149 1.186 30.302 2.306 45.456 3.419l9.262.68 2.95.217c11.707.864 23.412 1.77 35.116 2.678l-1.392 6.259c-.357 1.612-.71 3.226-1.06 4.84-.454 1.982-.999 3.943-1.548 5.901l-2 1c.391-4.384.959-8.04 2.532-12.158l.83-2.181L335 222l-1.67-.064a862.187 862.187 0 0 1-39.381-2.435c-3.086-.263-6.173-.52-9.26-.776-4.513-.375-9.026-.752-13.54-1.13a15201.1 15201.1 0 0 0-41.706-3.414 7003.556 7003.556 0 0 0-66.93-5.063c-4.11-.294-8.22-.592-12.331-.89-2.207-.158-4.414-.314-6.622-.468-3.484-.244-6.967-.496-10.45-.748l-3.184-.217c-6.748-.499-13.296-1.45-19.926-2.795l-1 2v-3c11.625-.382 23.21.854 34.785 1.794 2.747.221 5.495.435 8.242.647l2.55.215 2.38.182 2.08.168c2.135-.007 3.92-.41 5.963-1.006.028-2.854.048-5.708.063-8.563l.025-2.682c.017-5.02-.147-9.957-.592-14.958l-.244-3.088c-.165-1.98-.364-3.956-.6-5.928-.52-6.702-.52-6.702 2.133-10.001 1.997-1.756 3.998-3.316 6.215-4.78Zm-6 40v10h1v-10h-1Z" fill="#4F5056"/><path d="M421 293h1c2.181 34.696 2.181 34.696 3 49l2-1c.566 10.225 1.098 20.445 1.125 30.688l.014 2.156c-.015 4.908-.015 4.908-1.139 7.156-.07 1.874-.084 3.75-.063 5.625l.028 3.04L427 392c-25.86.153-51.707-.102-77.563-.5l-2.357-.036c-9.694-.15-19.387-.304-29.08-.464v-1l-19-1v-1c25.88-.11 51.75-.065 77.625.438l3.19.059c15.072.287 30.126.816 45.185 1.503l-.403-3.918c-3.12-30.827-4.131-62.11-3.597-93.082Z" fill="#252326"/><path d="M412 125c.29 5.26.575 10.522.854 15.784.096 1.782.193 3.564.292 5.346.624 11.305.997 22.546.854 33.87-1.72-2.58-2.625-4.458-3.62-7.332l-.92-2.64-.972-2.84-1.007-2.926c-.701-2.04-1.4-4.08-2.096-6.122-1.07-3.131-2.154-6.257-3.239-9.382a6973.34 6973.34 0 0 1-2.033-5.946l-.99-2.84-.891-2.64-.796-2.321C397 133 397 133 398 130c2.652-1.387 2.652-1.387 5.938-2.688l3.277-1.324C410 125 410 125 412 125Z" fill="#888688"/><path d="m335 228 14 1a106.836 106.836 0 0 1-1 8l-.348 2.137c-.928 3.609-1.861 5.354-5.05 7.406-5.036 2.352-10.207 4.138-15.602 5.457l-2 8c-1.013-4.052-.968-4.999.215-8.766l.83-2.695.892-2.789.881-2.836A940.83 940.83 0 0 1 330 236l2 1 3-9Z" fill="#5F6573"/><path d="M344 245c1 2 1 2 .293 4.355l-1.106 2.833c-1.612 4.241-3.018 8.43-4.187 12.812l2 1-8.313 2.938-2.38.841a286495294.17 286495294.17 0 0 0-4.406 1.557c-1.629.569-3.264 1.118-4.901 1.664l.438-2.063c.416-2.176.76-4.367 1.062-6.562.903-6.096 2.812-10.35 7.5-14.375 2.435-1.047 4.743-1.94 7.25-2.75l1.969-.668c1.59-.538 3.185-1.061 4.781-1.582ZM289 372h15c-2.75 11.5-2.75 11.5-5 16h-15l5-16Z" fill="#868486"/><path d="M286 377c1.475 3.836.346 6.249-1 10 12.61 1.129 25.224 1.323 37.875 1.563l6.457.13c5.223.106 10.445.208 15.668.307v1l-33 1v1h-27l-1 3-1 3-.438 3.313c-.524 3.436-1.371 6.431-2.562 9.687h-2v6h-2l-.438 2.75c-.426 2.465-.913 4.838-1.562 7.25l-2-2c.348-5.98 1.847-11.35 3.688-17.023l.795-2.508c.833-2.617 1.675-5.23 2.517-7.844.566-1.777 1.13-3.554 1.695-5.332a8219.81 8219.81 0 0 1 1.618-5.066l.77-2.412c1.798-5.578 1.798-5.578 2.917-7.815Zm-6 25 1 3Zm-1 3 1 2Z" fill="#231F23"/><path d="M426 219h4v6h2v8l-11 4 1 2c-.698 5.698-.698 5.698-2 7 .068 2.666.2 5.301.375 7.96l.297 5.063c.16 2.646.324 5.291.494 7.936.79 12.451.755 24.596-.166 37.041h-1c-1.412-21.995-2.448-43.966-3-66l-3.176 1.348-4.137 1.714-2.091.893c-5.256 2.158-5.256 2.158-8.596 1.045 5.813-3.03 11.655-5.51 17.813-7.75l2.56-.957 2.459-.902 2.21-.812C426 232 426 232 429 232l-.656-2.082-.844-2.73-.844-2.708C426 222 426 222 426 219Z" fill="#282529"/><path d="M323 261c1.605 4.012.218 7.017-1 11l3.14-1.348 4.11-1.714 2.066-.893c3.704-1.528 5.868-2.286 9.684-1.045l-4 1-.375 2.25c-1.037 4.564-1.037 4.564-2.625 6.75-3.382 1.425-6.732 2.548-10.234 3.623-4.47 1.46-4.47 1.46-7.266 5.068L316 288c-1.236-3.529-.75-5.654.398-9.168l.954-2.955 1.023-3.065 1-3.1c2.466-7.553 2.466-7.553 3.625-8.712Z" fill="#3D3E47"/><path d="M299 388c34.014-.143 67.995.216 102 1v1c-56.269 1.21-56.269 1.21-83 1v-1l-19-1v-1Z" fill="#7B797B"/><path d="M412 125c1.194 24.776 1.194 24.776 1 36-2.074-3.531-2.642-6.933-3.29-10.953l-.327-2c-.342-2.099-.675-4.198-1.008-6.297l-.695-4.281A2969.52 2969.52 0 0 1 406 127c3.75-2 3.75-2 6-2Z" fill="#E6E6E6"/><path d="m356 8 2 6h2v6h2a210.497 210.497 0 0 1 1.563 3.75l.878 2.11c.637 2.44.361 3.78-.441 6.14-3-1-3-1-3.891-2.61l-.714-2.066c-.262-.746-.523-1.491-.791-2.26l-.791-2.377-.827-2.341C355.701 16.598 355 14.042 355 10l-1.66 1.328L330 30l-2-1c6.621-5.7 13.287-11.327 20.188-16.688L349.86 11C353.76 8 353.76 8 356 8Zm6 18 1 2Z" fill="#1C1A1C"/><path d="M323 392a13939.92 13939.92 0 0 1 30.498-.065c24.512-.027 49 .282 73.502 1.065v1c-25.59.132-51.165-.05-76.75-.5l-2.06-.036c-8.397-.149-16.793-.303-25.19-.464v-1Z" fill="#1A161B"/><path d="M417 238v6c-1.726.82-3.456 1.63-5.188 2.438l-2.917 1.37c-2.661 1.096-5.063 1.742-7.895 2.192v-6c11.476-6 11.476-6 16-6Z" fill="#878587"/><path d="M398 245c-7.327 3.424-14.842 6.232-22.438 9-8.673 3.172-17.306 6.4-25.835 9.945-5.399 2.164-5.399 2.164-8.727 1.055 10.007-4.24 20.093-8.28 30.203-12.268 1.88-.744 3.76-1.493 5.637-2.246 2.737-1.097 5.479-2.18 8.223-3.26l2.54-1.028 2.37-.922 2.07-.822c2.312-.536 3.728-.193 5.957.546Z" fill="#3F3E43"/><path d="M419 246h1c.317 5.206.619 10.412.91 15.619.1 1.762.203 3.524.31 5.285A274.515 274.515 0 0 1 421 304h-1c-.291-4.549-.576-9.098-.854-13.647-.096-1.54-.193-3.08-.292-4.62-1.798-28.072-1.798-28.072.146-39.733Z" fill="#3A373B"/><path d="M294 218c14.412-.361 28.647.755 43 2-.615 2.815-1.241 5.627-1.875 8.438l-.527 2.431c-.47 2.06-1.028 4.098-1.598 6.131l-2 1c.526-5.889 1.842-10.493 4-16l-1.718-.06c-13.169-.48-26.196-1.384-39.282-2.94v-1Z" fill="#4C4E56"/><path d="M396 129c2.298 2.298 2.494 3.378 3.238 6.488 2.177 8.389 5.11 16.518 7.95 24.7l1.693 4.908c1.37 3.97 2.743 7.937 4.119 11.904h2v4l-3 1-1.022-3.083c-1.275-3.843-2.553-7.686-3.83-11.529-.549-1.65-1.097-3.3-1.644-4.951-.795-2.399-1.593-4.797-2.39-7.195l-.79-2.378c-1.237-3.709-2.505-7.398-3.87-11.062l-.723-1.952c-.643-1.723-1.3-3.44-1.957-5.158C395 132 395 132 396 129Z" fill="#3E3B3F"/><path d="m172 155 2 1-1.516 1.188c-3.48 3.223-5.29 5.617-6.062 10.378-.11 4.165-.035 8.274.14 12.434.036 1.457.068 2.914.096 4.371.077 3.545.197 7.086.342 10.629h-1c-.339-4-.67-8-1-12-.095-1.125-.19-2.25-.29-3.41A695.7 695.7 0 0 1 164 170l-.203-2.457c-.175-3.365-.113-5.125 1.953-7.856L168 158l2.25-1.75L172 155Z" fill="#262526"/><path d="M323 261c1.605 4.012.218 7.017-1 11l3.14-1.348 4.11-1.714 2.066-.893c3.704-1.528 5.868-2.286 9.684-1.045-7.309 3.064-14.632 6.082-22 9 .497-5.661 1.545-9.877 4-15Z" fill="#37353A"/><path d="M271 423c1.942 3.516 2.183 5.972 2 10h-2l-.988 3.465c-.441 1.49-.882 2.982-1.325 4.473l-.646 2.287c-.587 1.955-1.307 3.87-2.041 5.775l-3 1c2.37-9.096 5.157-18.044 8-27Z" fill="#363437"/><path d="M368 255v2l-1.665.61-7.522 2.765-2.62.96-2.548.938-2.463.902a103.44 103.44 0 0 0-5.108 2.114C344 266 344 266 341 265c23.617-10 23.617-10 27-10Z" fill="#45454A"/><path d="M264 449c2.287 6.86.469 12.519-2 19l-3-2c.466-6.401 2.147-11.268 5-17Zm-1 6 1 3Zm-1 4 1 2Zm-1 2 1 3Z" fill="#221F22"/><path d="M408 164h6v16c-2.15-3.224-3.025-5.984-4.125-9.688l-1.07-3.574L408 164Z" fill="#828082"/><path d="M396 129c2.349 2.349 2.589 3.685 3.375 6.875 1.36 5.317 3.08 10.436 4.953 15.594C405 154 405 154 404 157a2221.008 2221.008 0 0 1-4.563-12.313l-1.326-3.537-1.24-3.388-1.158-3.127C395 132 395 132 396 129Z" fill="#343235"/><path d="M423 287h1c1.017 12.68 1.114 25.285 1 38h-1c-.702-12.679-1.15-25.301-1-38Z" fill="#1A171B"/><path d="M415 135h1c1.147 12.005 1.106 23.952 1 36h-1c-.652-12.01-1.166-23.97-1-36Z" fill="#1A171C"/><path d="m371 57 4 1 1 9h2l-1 7c-2.487-2.487-3.034-4.605-4.125-7.938l-1.07-3.214C371 60 371 60 371 57Z" fill="#1A171B"/><path d="M258 464c1.625 1.438 1.625 1.438 3 4-.336 3.097-1.114 6.018-2 9-1.625-1.438-1.625-1.438-3-4 .336-3.097 1.114-6.018 2-9Zm1 4 1 2Z" fill="#343135"/><path d="M362 32h4c.928 4.333.928 7.667 0 12-2.214-3.795-3.01-7.756-4-12Zm3 3 1 2Z" fill="#353337"/><path d="M193 454c3.498.634 5.84 2.052 8.75 4.063l2.422 1.66L206 461l-2 2a1771.912 1771.912 0 0 1-5.5-3.938l-3.094-2.214L193 455v-1Z" fill="#3C393D"/><path d="M109 201c8.064-.129 15.975.203 24 1v1c-8.07.115-15.977-.1-24-1v-1Z" fill="#262327"/><path d="M256 473c1.804 2.76 2.013 3.89 1.625 7.25L257 483l-3-1c.875-7.875.875-7.875 2-9Z" fill="#232024"/><path d="M304 321c1.254 3.76.839 6.154 0 10l-3 2c.857-8.571.857-8.571 3-12Z" fill="#464750"/><path d="M157 429c3.436 1.527 6.12 3.6 9 6-3.38 0-5.835-.875-9-2v-4Z" fill="#3D3A3D"/><path d="M421 245h1v22h-1v-22Z" fill="#1B171C"/><path d="m172 155 2 1-1.46 1.645-1.915 2.167-1.898 2.145c-1.868 2.131-1.868 2.131-3.727 5.043.324-5.352 3.497-8.283 7-12Z" fill="#8E8D8E"/><path d="M429 233c-2.686 2.686-5.376 3.06-9 4l-2-2c1.266-.532 2.538-1.05 3.813-1.563l2.144-.878C426 232 426 232 429 233Z" fill="#333033"/><path d="m420 201 4 1 1 6-3 1c-1.765-3.088-2-4.233-2-8Z" fill="#201E22"/><path d="M253 480c1.125 1.625 1.125 1.625 2 4-.875 3.25-.875 3.25-2 6h-2c.458-3.47.891-6.674 2-10Z" fill="#423F43"/><path d="m420 193 2 2c-.25 3.063-.25 3.063-1 6l-2 1c-.81-2.915-1.218-4.461-.063-7.313L420 193Zm0 3 1 2Z" fill="#343034"/><path d="m318 277 2 1v2h-2l-.375 2.875C317 286 317 286 315 288c.551-3.95 1.39-7.35 3-11Z" fill="#34343A"/><path d="m416 189 4 1-1 7-2-1a108.817 108.817 0 0 1-1-7Z" fill="#1E1B1F"/><path d="M422 267h1v17h-1v-17Z" fill="#19171B"/><path d="M425 326h1v15h-1v-15Z" fill="#1A171A"/><path d="M146 204h15v1h-15v-1Z" fill="#272528"/><path d="M163 170h1v15h-1v-15Z" fill="#757376"/><path d="M417 171h1v15h-1v-15Z" fill="#19171B"/><path d="M135 203h11v1h-11v-1Z" fill="#1A171B"/><path d="M414 123h1v11h-1v-11Z" fill="#201D22"/><path d="M428 383h1v9h-1v-9Z" fill="#1A171A"/><path d="M164 185h1v9h-1v-9Z" fill="#3F3D40"/><path d="M162 162h1v8h-1v-8Z" fill="#1D1B1F"/><path d="m409 121 3 1-4 1 1-2Z" fill="#1F1B20"/><path d="m269 439 1 4Z" fill="#1A171A"/><path d="m61 359 1 4Z" fill="#646265"/><path d="m71 325 1 4Z" fill="#5D5B5D"/><path d="m76 308 1 4Z" fill="#605E61"/><path d="m81 291 1 4Z" fill="#666366"/><path d="m86 274 1 4Z" fill="#5C5A5D"/><path d="m91 257 1 4Z" fill="#5A585B"/><path d="m106 206 1 4Z" fill="#5E5C5F"/><path d="m183 144 2 1h-3l1-1Z" fill="#4F4E50"/><path d="m337 19 2 1h-3l1-1Z" fill="#1C1A1D"/><path d="m424 236 3 1Z" fill="#1B191C"/><path d="m427 235 3 1Z" fill="#1A171C"/><path d="m247 493 2 1Z" fill="#110E12"/><path d="m244 491 2 1Z" fill="#151216"/><path d="m241 489 2 1Z" fill="#181519"/><path d="m238 487 2 1Z" fill="#1C191C"/><path d="m235 485 2 1Z" fill="#1B161B"/><path d="m232 483 2 1Z" fill="#19161A"/><path d="m225 478 2 1Z" fill="#0E0D0E"/><path d="m222 476 2 1Z" fill="#0F0E10"/><path d="m219 474 2 1Z" fill="#0F0D0F"/><path d="m216 472 2 1Z" fill="#131416"/><path d="m213 470 2 1Z" fill="#171519"/><path d="m210 468 2 1Z" fill="#141115"/><path d="m207 466 2 1Z" fill="#141216"/><path d="m204 464 2 1Z" fill="#161418"/><path d="m201 462 2 1Z" fill="#1C171C"/><path d="m198 460 2 1Z" fill="#19161A"/><path d="m195 458 2 1Z" fill="#18141A"/><path d="m191 455 2 1Z" fill="#140F15"/><path d="m188 453 2 1Z" fill="#100E12"/><path d="m185 451 2 1Z" fill="#0F0E10"/><path d="m182 449 2 1Z" fill="#111011"/><path d="m179 447 2 1Z" fill="#141013"/><path d="m176 445 2 1Z" fill="#161217"/><path d="m173 443 2 1Z" fill="#141115"/><path d="m170 441 2 1Z" fill="#141015"/><path d="m167 439 2 1Z" fill="#18161A"/><path d="m164 437 2 1Z" fill="#18151A"/><path d="m161 435 2 1Z" fill="#1A171B"/><path d="m154 430 2 1Z" fill="#101112"/><path d="m151 428 2 1Z" fill="#151217"/><path d="m148 426 2 1Z" fill="#0F0E10"/><path d="m145 424 2 1Z" fill="#121112"/><path d="m142 422 2 1Z" fill="#131016"/><path d="m139 420 2 1Z" fill="#151216"/><path d="m136 418 2 1Z" fill="#161217"/><path d="m133 416 2 1Z" fill="#121013"/><path d="m124 410 2 1Z" fill="#19161B"/><path d="m117 405 2 1Z" fill="#191419"/><path d="m114 403 2 1Z" fill="#1C181C"/><path d="m111 401 2 1Z" fill="#0F0E10"/><path d="m108 399 2 1Z" fill="#121013"/><path d="m105 397 2 1Z" fill="#151114"/><path d="m102 395 2 1Z" fill="#1A171C"/><path d="m99 393 2 1Z" fill="#181619"/><path d="m96 391 2 1Z" fill="#151216"/><path d="m87 385 2 1Z" fill="#1A171A"/><path d="m83 382 2 1Z" fill="#171216"/><path d="m80 380 2 1Z" fill="#1E1A20"/><path d="m77 378 2 1Z" fill="#29262A"/><path d="m74 376 2 1Z" fill="#201B1F"/><path d="m71 374 2 1Z" fill="#131013"/><path d="m68 372 2 1Z" fill="#131014"/><path d="m65 370 2 1Z" fill="#1B181D"/><path d="m62 368 2 1Z" fill="#1D1A1E"/><path d="m422 237 2 1Z" fill="#1A171B"/><path d="m166 158 2 1Z" fill="#69656A"/><path d="m172 153 2 1Z" fill="#3C3A3D"/><path d="m177 149 2 1Z" fill="#454245"/><path d="m193 136 2 1Z" fill="#312F32"/><path d="m203 128 2 1Z" fill="#777678"/><path d="m401 125 2 1Z" fill="#191719"/><path d="m403 124 2 1Z" fill="#1A171B"/><path d="m405 123 2 1Z" fill="#1C181D"/><path d="m209 123 2 1Z" fill="#3E3B3F"/><path d="m214 119 2 1Z" fill="#3E393D"/><path d="m220 114 2 1Z" fill="#171518"/><path d="m230 106 2 1Z" fill="#2F2D30"/><path d="m246 93 2 1Z" fill="#363538"/><path d="m251 89 2 1Z" fill="#3A383C"/><path d="m257 84 2 1Z" fill="#151116"/><path d="m267 76 2 1Z" fill="#29262A"/><path d="m273 71 2 1Z" fill="#1F1C1F"/><path d="m283 63 2 1Z" fill="#39373A"/><path d="m294 54 2 1Z" fill="#151216"/><path d="m304 46 2 1Z" fill="#2B282D"/><path d="m310 41 2 1Z" fill="#201D21"/><path d="m315 37 2 1Z" fill="#1D1B1C"/><path d="m320 33 2 1Z" fill="#39383B"/><path d="m331 24 2 1Z" fill="#141014"/><path d="m341 16 2 1Z" fill="#2A272A"/><path d="m347 11 2 1Z" fill="#201D21"/><path d="m353 6 2 1Z" fill="#1A171B"/></svg>