<svg xmlns="http://www.w3.org/2000/svg" width="500" height="500"><path fill="#222" d="m249.813-.375 3 .002C268.862-.333 284.264.582 300 4l3.114.666C344.937 13.845 382.83 32.732 415 61l2.05 1.715c11.447 9.632 21.74 20.517 30.64 32.526a365.85 365.85 0 0 0 4.044 5.302c29.277 38.277 48.215 88.835 48.47 137.25l.02 2.729c.23 37.834.23 37.834-3.224 54.478l-.618 3.011C487.82 338.498 470.96 375.715 445 408l-2.477 3.102c-11.102 13.64-23.617 26.193-37.796 36.62a309.334 309.334 0 0 0-5.262 4.005C367.622 476.086 328.497 491.825 289 498l-3.385.535c-11.476 1.632-22.849 1.864-34.428 1.84l-3-.002c-16.05-.04-31.452-.955-47.187-4.373l-3.114-.666C156.063 486.155 118.17 467.268 86 439l-2.05-1.715c-11.447-9.632-21.74-20.517-30.64-32.526a365.85 365.85 0 0 0-4.044-5.302C19.989 361.18 1.05 310.622.796 262.207l-.02-2.729C.545 221.644.545 221.644 4 205l.618-3.011C13.18 161.502 30.04 124.285 56 92l2.477-3.102c11.102-13.64 23.617-26.193 37.796-36.62a309.334 309.334 0 0 0 5.262-4.005C133.378 23.914 172.503 8.175 212 2l3.385-.535C226.861-.167 238.234-.4 249.813-.375Z"/><path fill="#FAFAFA" d="M104 136h44l3 8c2.278 2.49 3.463 2.926 6.804 3.385l3.296.014 3.79.038 4.15-.005 4.376.031c3.958.028 7.917.037 11.875.043 4.137.01 8.275.036 12.412.06 7.834.044 15.668.072 23.502.095 10.586.033 21.173.088 31.759.142 16.679.085 33.357.138 50.036.197v136H79V148l17-1c5.57-3.812 5.57-3.812 8-11Z"/><path fill="#FAFAFA" d="M231 64c10.254 1.836 19.99 6.546 29.625 10.375 8.65 3.427 17.314 6.744 26.113 9.767a122.127 122.127 0 0 1 11.961 4.862c3.05 1.32 6.165 2.397 9.301 3.496 4.678 1.64 9.195 3.412 13.695 5.48 3.808 1.685 7.706 3.129 11.598 4.606a788.694 788.694 0 0 1 7.945 3.078c7.566 2.976 15.143 5.86 22.825 8.523 5.008 1.738 9.9 3.576 14.707 5.817 3.95 1.764 8.01 3.247 12.054 4.781a351.88 351.88 0 0 1 7.926 3.153c8.286 3.341 16.776 6.237 25.25 9.062-.715 4.412-2.169 8.464-3.75 12.625l-.727 1.965a151.635 151.635 0 0 1-4.726 11.133c-3.646 7.931-6.65 16.12-9.735 24.282a4021.2 4021.2 0 0 1-3.18 8.372c-3.378 8.895-6.709 17.798-9.831 26.787-1.035 2.792-2.212 5.46-3.488 8.149-2.04 4.35-3.697 8.77-5.25 13.312-3.684 10.751-7.993 21.254-12.263 31.782-1.024 2.528-2.039 5.06-3.05 7.593-4.153-.361-7.596-1.129-11.453-2.723l-2.658-1.087L351 278c-2.1-.85-4.202-1.697-6.305-2.543l-3.265-1.314c-1.09-.44-2.181-.878-3.305-1.33l-3.375-1.366-3.242-1.302-2.918-1.177c-2.787-1.097-2.787-1.097-6.59-1.968v-25c7 1 7 1 10 3 1.587.439 3.174.875 4.766 1.297 3.934 1.238 7.682 2.945 11.464 4.582 2.28.922 4.39 1.56 6.77 2.121.23-1.07.461-2.14.7-3.242 1.463-5.846 3.823-11.321 6.113-16.883 3.19-7.854 6.311-15.692 9.054-23.715 1.59-4.436 3.368-8.791 5.133-13.16a6202.39 6202.39 0 0 0 1.93-4.824l.962-2.405 2.027-5.073c1.596-3.997 3.197-7.992 4.827-11.975 2.782-6.819 5.344-13.603 7.254-20.723l-3.688-1.188c-8.327-2.78-16.478-6.018-24.562-9.437a144.222 144.222 0 0 0-12.292-4.526c-2.709-.936-5.326-2.014-7.966-3.13-15.01-6.3-30.102-12.405-45.492-17.719-5.016-1.774-9.873-3.808-14.75-5.938-5.413-2.342-10.836-4.333-16.45-6.132-3.487-1.158-6.866-2.522-10.265-3.914-4.468-1.79-9.003-3.396-13.535-5.016l-.328 2.527c-.747 3.862-1.998 7.386-3.422 11.035l-.801 2.094c-.811 2.117-1.63 4.23-2.449 6.344l-1.508 3.934c-1.16 3.024-2.325 6.045-3.492 9.066h-25c.83-4.155 1.87-7.586 3.363-11.516l.707-1.864c.493-1.298.988-2.596 1.485-3.893.75-1.955 1.491-3.913 2.232-5.872 2.287-6.016 4.656-11.963 7.326-17.82 1.536-3.524 2.77-7.15 4.012-10.785 1.538-4.456 3.073-8.891 4.875-13.25Z"/><path fill="#252525" d="m224.375 170.875 2.809.027c2.272.024 4.544.057 6.816.098v2c1.887.03 1.887.03 3.813.063 8.603.924 17.453 7.641 23.03 14.058C269.25 198.878 272.342 209.781 271 224c-2.073 12.403-9.401 24.142-19.547 31.48-11.916 7.382-23.372 10.331-37.273 8.06-15.22-4.16-24.478-13.212-32.516-26.294-5.267-10.275-5.45-23.87-2.754-35.004A54.36 54.36 0 0 1 183 194l1.281-2.18c5.542-8.28 14.435-15.23 23.719-18.82l2.582-1.09c4.644-1.237 9.012-1.124 13.793-1.035Z"/><path fill="#F2F2F2" d="M113.602 340.84c6.537 3.336 12.767 9.182 15.398 16.16.79 7.98 1.331 16.492-4 23-4.559 4.782-9.701 9.602-16.542 10.235-2.95.06-5.883.027-8.833-.048l-3.098-.04c-2.509-.036-5.018-.09-7.527-.147v21H79c-.15-7.043-.258-14.086-.33-21.13-.03-2.392-.07-4.784-.123-7.175C77.99 356.498 77.99 356.498 85 348c7.927-7.57 17.839-10.635 28.602-7.16Z"/><path fill="#F4F4F4" d="M262 320h10v20l9.875-.313c9.216-.1 15.896.568 22.938 6.958 5.663 6.03 7.786 12.366 7.539 20.578-.883 6.97-4.308 12.952-9.352 17.777-7.42 5.342-15.04 6.306-24 5-3.25-1.14-5.479-2.676-8-5l-1.965-1.797c-7.417-7.584-7.335-16.407-7.23-26.582l.008-3.19c.011-3.331.036-6.662.062-9.993.01-2.272.02-4.543.027-6.815.022-5.541.057-11.082.098-16.623Z"/><path fill="#F1F1F1" d="M243.777 342.617c6.486 4.035 9.612 9.166 11.65 16.391 1.118 5.834.88 11.701.76 17.617l-.04 3.91c-.036 3.156-.085 6.31-.147 9.465-4.232.125-8.462.215-12.695.275-1.436.025-2.871.059-4.306.102-10.48.31-18.365-.613-26.655-7.623-5.73-6.811-7.915-11.894-7.719-20.875.852-6.545 3.938-11.919 8.813-16.317A96.86 96.86 0 0 1 217 343l2.625-1.875c7.918-2.64 16.6-2.02 24.152 1.492Z"/><path fill="#F4F4F4" d="M354.438 342.063c6.629 3.81 10.566 8.961 13.562 15.937.34 3.619.34 3.619.293 7.586l-.013 2.127a683.844 683.844 0 0 1-.092 6.662 2462.05 2462.05 0 0 0-.042 4.543c-.032 3.694-.084 7.388-.146 11.082-4.09.1-8.178.172-12.268.22-1.387.02-2.774.047-4.16.082-9.612.236-18.144-.021-25.974-6.197-6.347-7.929-8.265-13.477-8.004-23.73.93-7.727 5.675-12.016 11.344-16.93 7.423-5.202 17.42-5.104 25.5-1.382Z"/><path fill="#FAFAFA" d="M233.809 192.945c7.121 3.82 12.769 9.218 15.191 17.055 1.071 7.844.21 15.201-4 22-2.425 2.734-5.022 4.893-8 7l-2.688 1.938c-7.218 2.315-14.8 2.174-21.75-.938-6.931-3.984-11.213-10.43-13.562-18-.99-7.217.172-13.766 4-20 8.454-9.277 18.404-13.23 30.809-9.055Z"/><path fill="#F4F4F4" d="M374 340h10l.184 4.969.253 6.531.12 3.266c-.168 10.04-.168 10.04 2.748 19.293l1.57 1.378 1.555 1.434c3.745 2.692 8.15 2.713 12.57 2.129 4.85-1.767 7.78-4.343 10-9 .5-3.38.5-3.38.512-7.05l.054-1.997c.054-2.089.088-4.177.122-6.265.033-1.423.067-2.846.103-4.268.085-3.473.152-6.946.209-10.42h10c.124 7.24.215 14.48.275 21.722.025 2.461.059 4.922.102 7.382.061 3.548.09 7.094.111 10.642l.078 3.306c.004 8.364-2.067 14.044-7.664 20.288l-1.964 1.598-1.973 1.652c-4.387 3.148-7.254 3.644-12.715 3.535l-3.547-.055L394 410v-10l2.195-.043c6.551-.227 6.551-.227 12.305-3.02 3.045-3.577 4.136-6.466 5.5-10.937l-1.547.875c-7.29 3.723-14.205 4.564-22.16 2.383-7.26-3.055-11.45-8.527-15.293-15.258-1.233-3.63-1.114-7.146-1.098-10.953l.005-2c.005-2.1.018-4.198.03-6.297.006-1.427.01-2.854.014-4.281.011-3.49.028-6.98.049-10.469ZM155 340c4.475-.606 8.549-.866 13 0 3.212 2.897 5.044 6.178 7 10l2 3c4.075-1.358 4.636-3.45 6.875-7.063 2.425-3.609 4.19-5.724 8.605-6.73 3.25.039 6.317.258 9.52.793-1.694 3.88-4.223 7.065-6.813 10.375l-1.29 1.672a211.418 211.418 0 0 1-6.659 8.18c-2.381 2.62-2.381 2.62-3.238 5.773l3 1c1.762 1.934 1.762 1.934 3.688 4.438l2.109 2.718L195 377c2.14 2.627 4.285 5.251 6.434 7.871C203 387 203 387 204 390c-4.923.906-9.109 1.182-14 0-4.696-3.703-7.865-8.984-11-14-4.338 1.496-5.32 4.192-7.375 8.125-2.055 3.273-2.055 3.273-4.625 5.875-4.82 1.047-9.148.736-14 0 1.541-4.787 4.255-8.157 7.375-12l1.46-1.828 1.438-1.797 1.394-1.75c1.198-1.46 2.469-2.86 3.747-4.25 1.775-2.22 1.775-2.22 1.707-4.688-1.695-4.063-4.333-7.256-7.059-10.687-6.639-8.418-6.639-8.418-8.062-13Z"/><path fill="#202020" d="M104 170h43v18h-43v-18Z"/><path fill="#252525" d="M348.23 350.684c4.844 2.19 7.294 4.46 9.77 9.316.465 3.477.38 6.875.25 10.375l-.055 2.809A430.568 430.568 0 0 1 358 380c-3.187.147-6.373.234-9.563.313l-2.712.126c-6.615.122-9.747-1.057-14.725-5.439-3.529-3.87-3.672-8.145-3.563-13.2.96-4.774 3.927-7.723 7.563-10.8 4.055-2.028 8.972-1.622 13.23-.316Z"/><path fill="#242424" d="M272 350c3.043-.108 6.081-.188 9.125-.25l2.594-.102c5.638-.086 8.818.565 13.281 4.352 4.85 5.374 5.114 9.057 5 16h-2l-.625 2.75c-1.802 4.26-3.165 5.33-7.375 7.25-4.646.812-8.97 1.12-13.195-1.21-3.7-3.05-6.542-6.141-7.032-11.08.01-.817.02-1.634.032-2.476l.02-2.695.05-2.789.027-2.836c.024-2.305.057-4.61.098-6.914ZM238.313 351.125c3.165 2.209 5.208 4.326 6.687 7.875.474 3.641.38 7.21.25 10.875l-.055 2.953A477.568 477.568 0 0 1 245 380c-2.542.054-5.083.094-7.625.125l-2.16.05c-6.886.064-12.14-1.238-17.215-6.175-3.117-4.467-3.202-7.663-2.52-12.852.55-2.272 1.397-4.105 2.52-6.148h2l1-3c5.312-3.154 11.644-2.8 17.313-.875Z"/><path fill="#232323" d="M112.25 351.688c6.47 5.44 6.47 5.44 7.133 9.867.185 4.565-.038 7.716-2.008 11.882-3.105 3.351-5.94 6.22-10.642 6.883-2.547.073-5.062.03-7.608-.07l-2.664-.055A465.28 465.28 0 0 1 90 380c-.176-3.353-.281-6.706-.375-10.063l-.152-2.857c-.106-5.031.09-8.233 3.402-12.174 5.45-5.537 12.444-6.817 19.375-3.219Z"/><path fill="#F5F5F5" d="M136 340h10v50h-10v-50Z"/><path fill="#303030" d="m300 361 2 1v8h-2l-1 3-4-1a6888.26 6888.26 0 0 1 1.938-4.375l1.09-2.46c.629-1.402 1.285-2.791 1.972-4.165Z"/><path fill="#2D2D2D" d="M177 375c2.622 1.049 3.794 1.65 5.25 4.125L183 381l-3.75.375c-3.126.382-5.539.93-8.25 2.625 1.527-3.436 3.6-6.12 6-9Z"/><path fill="#3B3B3B" d="m193 352 1 2c-2.4 6.4-2.4 6.4-5 9v2l-5 1c.582-3.952 2.552-6.221 5.063-9.25l2.222-2.703L193 352Z"/><path fill="#2B2B2B" d="m97 139 5 1c-.336 3.14-1.052 4.051-3.375 6.313L96 148l-3-1h2l2-8Z"/><path fill="#1C1C1C" d="m130 362 3 2 2-2v12l-4-4h-1v-8Z"/><path fill="#292929" d="M410 390h3c-1.34 4.383-3.122 6.54-7 9l-3-1v-2a791.206 791.206 0 0 1 5-3l2-3Z"/><path fill="#2D2D2D" d="m354 136 8 2-4 4-7-2 2-1 1-3Z"/><path fill="#2B2B2B" d="m257 247 1 3-6 4-3-3c2.666-1.777 5.028-2.875 8-4Z"/><path fill="#393939" d="M333 353h1v6l-1.875.313c-2.49.562-2.49.562-4.125 3.687.502-4.392 2.035-6.757 5-10Z"/><path fill="#2E2E2E" d="m243 233 1 2-1 2h-2v2c-2.5 1.625-2.5 1.625-5 3l-3-2 1.68-1.023 2.195-1.352 2.18-1.336c2.063-1.274 2.063-1.274 3.945-3.289Z"/><path fill="#353535" d="M374 114v2l1 3-10-3c5-3.333 5-3.333 9-2Z"/><path fill="#2D2D2D" d="M233 350c4.43 1.208 6.981 2.517 10 6l-1 3-2-3c-2.05-1.192-2.05-1.192-4-2v-2l-3-1v-1Z"/><path fill="#2F2F2F" d="M190 248c3.438.813 3.438.813 7 2l1 3-2 2-6-7Z"/><path fill="#3F3F3F" d="M244 94c3.806.672 7.352 1.727 11 3v1c-.615-.095-1.23-.19-1.863-.29-.809-.11-1.617-.22-2.45-.335l-2.425-.352c-2.55-.238-2.55-.238-5.262 1.977l1-5Z"/><path fill="#393939" d="m241 339-1 3-12-2v-1c4.63-1.016 8.345-.838 13 0Z"/><path fill="#2A2A2A" d="m333 241 3 2v2l3 1c-2 1-2 1-5.125.063L331 245v-2h2v-2Z"/><path fill="#353535" d="m238 193 5 2-2 4-4-4 1-2Zm6 0 2 1Z"/><path fill="#303030" d="m193 352 1 2a135.916 135.916 0 0 1-3 7h-2c.53-3.821 1.497-6.062 4-9Z"/><path fill="#D6D6D6" d="m91 343 2 1-7 8-2-2 7-7Z"/><path fill="#505050" d="M387 164h2l-3 10-2-3 1-3h2l-1-3 1-1Z"/><path fill="#1E1E1E" d="M251 211h2c.262 3.146.248 4.618-1.5 7.313L250 220c-.098-6.152-.098-6.152 0-8l1-1Z"/><path fill="#393939" d="M301 116c2.343.256 4.678.593 7 1l1 2c-5.75.125-5.75.125-8-1v-2Z"/></svg>