<svg xmlns="http://www.w3.org/2000/svg" width="180" height="180"><path d="M76 0h28v2l2.238.043C114.203 2.417 120.005 4.267 127 8l2.887 1.488C135.243 12.316 140.112 15.436 145 19l3 1c1.648 1.707 1.648 1.707 3.375 3.813 2.655 3.15 5.397 5.623 8.625 8.187l1 3 2 1 2 6 2 1c.625 2.063.625 2.063 1 4h2c8.608 19.266 8.608 19.266 8 29h2v28h-2l-.043 1.695c-.475 7.99-3.1 14.884-5.957 22.305l-1 3h-2l-.688 2.5c-1.561 4.165-3.54 8-6.312 11.5h-2v3c-1.504 1.613-1.504 1.613-3.563 3.313l-2.195 1.843L152 155a881.455 881.455 0 0 0-3.938 3.313l-1.714 1.425c-1.482 1.242-1.482 1.242-2.348 3.262-11.414 7.232-26.126 15.446-40 15v2H76v-2l-1.766-.078c-7.093-.49-13.7-2.07-20.234-4.922l-1-2c-3.03-.658-3.03-.658-6-1v-2l-5-1v-2l-2.688-.688c-3.839-1.52-5.467-3.345-8.312-6.312l-2.648-2.543C22.512 149.793 17.084 144.122 13 137v-2l-2-1c-.854-1.626-.854-1.626-1.691-3.71l-.924-2.274-.947-2.391-.96-2.367c-1.956-4.851-3.563-9.197-4.04-14.445l-.254-2.731L2 104H0V76h2l.043-1.73C2.498 66.53 4.925 60.067 8 53l1.125-2.629C18.494 30.104 36.528 14.45 57 6c6.402-2.309 12.136-4.277 19-4V0ZM52 28v2l-1.71.297c-11.418 3.507-20.254 17.522-25.665 27.515-7.891 17.173-9.489 36.677-3.906 54.801 2.455 6.491 5.43 12.611 9.281 18.387h2l.262 1.707c.954 2.963 2.485 4.662 4.55 6.98l2.083 2.387c2.196 2.01 3.31 2.277 6.105 2.926l1 3c6.623 5.267 13.963 8.562 22 11l2.656.906c19.397 5.885 39.128 1.696 56.746-7.222 2.877-1.481 2.877-1.481 3.598-4.684 2.063-.688 2.063-.688 4-1v-2l1.797-.285c2.694-.874 3.666-1.982 5.453-4.153l1.578-1.87c1.362-1.623 1.362-1.623 1.172-3.692l3-1c9.954-12.36 14.387-27.81 14.25-43.438l.023-2.658C162.227 72.28 156.816 57.204 147 45h-2l-.625-2.188c-1.85-3.784-3.977-5.335-7.375-7.812h-2l-.73-1.816c-4.56-7.842-18.095-11.442-26.309-13.76-5.835-1.45-11.403-1.727-17.398-1.674l-2.659-.023C74.491 17.767 63.748 21.91 52 28Z" fill="#042E3C"/><path d="M69.936 37.269c2.306.817 3.381 1.69 5.085 3.427l1.7 1.71 1.802 1.86 1.89 1.91c1.995 2.018 3.979 4.045 5.962 6.074 1.978 2.013 3.957 4.023 5.94 6.031 1.232 1.25 2.461 2.501 3.686 3.757 2.687 2.733 5.373 5.316 8.369 7.711C107 72 107 72 107.875 74.813L108 77c-2.855 2.326-5.45 3.961-9 5a75.316 75.316 0 0 1-5-1c-2.745-.358-5.268-.498-8 0-2.734 2.14-4.496 3.814-5.86 7.023-1.47 2.549-2.846 3.173-5.515 4.352l-2.336 1.086C70 94 70 94 66 92V38c2-1 2-1 3.936-.731Z" fill="#DA2C52"/><path d="M109 86c1.938.313 1.938.313 4 1 1.001 3.004 1.121 4.977 1.114 8.114v3.154l-.016 3.4-.005 3.485c-.005 3.678-.018 7.356-.03 11.034-.006 2.492-.01 4.984-.014 7.475-.011 6.113-.028 12.225-.049 18.338l-2 1c-4.89-2.301-9.248-6.137-13-10v-2h-2c-1.729-1.625-3.36-3.287-5-5-1.364-1.37-2.732-2.737-4.102-4.102L75 109l-1.74-1.612C72 106 72 106 72.012 103.96c1.396-2.77 2.944-3.224 5.8-4.336l2.645-1.086c3.052-.647 3.936-.11 6.543 1.461 3.429.365 5.55.184 8.75-1.125C98.576 96.52 98.9 94.448 100 91c2.746-1.989 5.687-2.448 9-3v-2Z" fill="#032E3B"/><path d="M69.938 37.188C72.576 38.227 73.486 39.654 75 42l-1 2h-2v-2h-2l-1 47h5l2-2h3v-7l3 3c-1.775 6.153-1.775 6.153-5.063 8.426C74.582 92.553 72.569 93.506 70 94l-4-2V38c2-1 2-1 3.938-.813Z" fill="#C93456"/><path d="M70.063 37.313C72 38 72 38 73 40l-6-1 1 52 5 1-3 2-4-2V38c2-1 2-1 4.063-.688Z" fill="#BC5F76"/><path d="M113 90h1v52h-3v-3h2V90Z" fill="#375057"/><path d="m152 126 3 2-1.875 1.563c-2.6 2.982-3.244 5.621-4.125 9.437l-1.938.313L145 140l-1 3h-3c1.31-4.321 3.59-6.993 6.535-10.285 1.783-2.087 3.152-4.309 4.465-6.715Z" fill="#133341"/><path d="M112 114h1v25h-2v3c-2.884-1.293-4.872-2.66-7-5l1-2 5 3c1.683-1.683 1.228-3.82 1.316-6.129l.127-3.135.12-3.298.13-3.311c.107-2.709.209-5.418.307-8.127Z" fill="#0B2A34"/><path d="M7 121c2.438.75 2.438.75 5 2 1.31 2.923 1 5.84 1 9l1 2c-3-1-3-1-4.168-2.707l-1.02-2.106-1.042-2.082C7 125 7 125 7 121Z" fill="#072932"/><path d="M106 79c-4.658 2.283-6.897 3.369-12 2-4.352-.332-8.24-.506-12 2l1-4c3.27-.197 6.541-.38 9.813-.563l2.814-.17 2.705-.146 2.491-.143C103 78 103 78 106 79Z" fill="#CD5F77"/><path d="m80 101-1.375 1.75c-1.466 2.03-2.574 3.985-3.625 6.25-1.563-1.25-1.563-1.25-3-3 .063-2.063.063-2.063 1-4 2.907-2.035 3.529-2.157 7-1Z" fill="#18333C"/><path d="m79 80 3 3c-1.585 4.756-1.585 4.756-3 7-3.188 1.438-3.188 1.438-6 2 .75-1.938.75-1.938 2-4 2.125-.75 2.125-.75 4-1v-7Z" fill="#C24965"/><path d="M162 36c3 3.75 3 3.75 3 6l2 1-2 4h-2v-5h-2l1-6Z" fill="#143941"/><path d="M109 18c1.65.422 3.295.863 4.938 1.313l2.777.738L119 21l1 3c-1.627-.45-3.252-.91-4.875-1.375l-2.742-.773C110 21 110 21 108 19l1-1Z" fill="#0F2E36"/><path d="m109 86 1 3c-2.395 2.9-4.312 3.502-8 4v-2l-2-1 9-2v-2Z" fill="#1D3844"/><path d="M78 45c1.15.954 2.294 1.914 3.438 2.875l1.933 1.617C85 51 85 51 86 53l-5-1v-3h-3v-4Z" fill="#C44F6A"/><path d="M100 67c4.066 1.355 5.53 3.57 8 7l-1 3-1-4-1.875-.188C102 72 102 72 100.75 69.439L100 67Z" fill="#C3516B"/><path d="M86 53c1.129.933 2.253 1.871 3.375 2.813l1.898 1.582C93 59 93 59 95 62a174.184 174.184 0 0 1-4-2l-2.75-1.375L86 57v-4Z" fill="#C04E69"/><path d="m136 13 9 6-1 2c-5.371-2.734-5.371-2.734-7-4l-1-4Z" fill="#0E2D36"/><path d="M146 43c3.356 1.389 5.073 2.917 7 6v2c-3.291-1.135-3.996-1.993-5.75-5.125L146 43Z" fill="#0A2B34"/><path d="M68 40h6v3l-2 1v-2h-2l-1 6h-1v-8Z" fill="#CD3A5E"/><path d="M106 79c-6.625 3-6.625 3-10 3v-3c6.625-1.125 6.625-1.125 10 0Z" fill="#C05A6F"/><path d="M125 8c5.75 1.75 5.75 1.75 8 4-3.796 0-5.629-.502-9-2l1-2Z" fill="#0A2B33"/><path d="M110 87h3v9l-3-1 2-5h-2v-3Z" fill="#0B2C33"/><path d="m162 93 4 5-3 1-1 3v-9Z" fill="#0A2934"/><path d="m37 17 2 3h-2l-1 3v-2l-5 2 6-6Z" fill="#13313B"/></svg>