<svg xmlns="http://www.w3.org/2000/svg" width="500" height="500"><path d="m221.625-.188 2.414.02C226 0 226 0 227 1c.235 2.35.414 4.706.563 7.063l.253 3.91L228 15h8v2c3.249.366 6.5.715 9.75 1.063l2.79.314 2.694.283 2.476.27c2.329.071 4.068-.273 6.29-.93l2.438-.438c2.693-.59 5.027-1.484 7.562-2.562l2.625-.813C275.66 12.67 276.309 10.89 278 8c2.879-2.273 4.13-3.097 7.813-2.688L288 6c2.607 12.716 2.346 26.86-2.223 39.027-.957 3.66-.424 6.266.223 9.973.027 3.344-.062 6.67-.16 10.012.16 3 .66 4.448 2.16 6.988 1.169 3.507.772 4.486-.328 7.93l-.926 2.91-.996 3.035-.95 3.012c-1.578 4.895-3.11 8.63-5.8 13.113l12 2v2l2 1-.625 1.813c-.682 2.472-.682 2.472 1.625 5.187 1.666-.99 1.666-.99 3-3 .273-2.718.135-5.257 0-8h4v4c12.567-10.497 26.559-22.624 31-39v-3.813c0-3.187 0-3.187 1.313-4.75L335 58a133.473 133.473 0 0 0 3-6c6.537-.224 12.45.058 18.809 1.66 2.43.377 3.832-.056 6.191-.66 1.838.11 3.672.284 5.5.5 6.241.599 12.296.448 18.5-.5l1-1c6.915-3.415 13.327-4.708 21-5v-2h7c1.007 3.022 1.307 4.855 1 8a71.492 71.492 0 0 1-3 4c-.59 1.946-.59 1.946-1 4a206.38 206.38 0 0 1-2 5h-2a125.417 125.417 0 0 0-3.875 6.125c-7.141 11.504-16.176 21.254-25.945 30.57-1.98 2.094-2.943 3.762-4.18 6.305l-2.563 1-2.437 1c-.887 2.041-.887 2.041-1 4h3c1.815 8.518.803 19.547-4 27-4.822 2.874-8.496 3.104-14 3-2.184.8-2.184.8-4 2l-2.125.938c-9.162 5.191-14.126 27.72-16.875 37.5-3.174 11.981-3.983 24.036-4.5 36.375-.92 21.653-.92 21.653-7.5 30.187l-2 2.688c-6.05 6.996-6.05 6.996-10 8.312l-2 3h-2l.688 1.813L304 270c-1.523 1.958-2.782 2.891-5 4l-1 2c-2.55.312-5.004.513-7.563.625l-2.154.117c-1.76.095-3.522.177-5.283.258v2a488379439.73 488379439.73 0 0 1-6.738 3.809C274 284 274 284 271 285l-1 2-1.938.375c-2.219.41-2.219.41-3.062 2.438L264 292l-1.965 1.57c-2.954 3.527-3.068 7.018-3.598 11.493a338.318 338.318 0 0 1-.628 4.847l-.257 2.16c-.675 2.36-1.812 3.246-3.552 4.93-.727 3.108-.727 3.108-1 6h-2l-.719 1.62a26111.33 26111.33 0 0 1-3.219 7.255l-1.13 2.55-1.084 2.442-1 2.254c-1.505 3.336-3.257 5.288-5.848 7.879v1c4.399.652 8.74 1.117 13.188 1.25l2.417.078c2.519-.178 2.519-.178 4.786-1.82 3.246-1.876 5.444-1.909 9.171-1.883l3.38-.023c3.349.436 4.55 1.236 7.058 3.398l3 1c1.063 2.25 1.063 2.25 2 5l1.125 2.813L285 360h2v4h70v2l2.633-.07 3.492-.055 3.445-.07c3.518.2 6.197.81 9.43 2.195.625 2 .625 2 1 4l2 .938 2 1.062.438 2.25c.352 3.01.352 3.01 3.125 5.313 3.374 3.766 3.067 7.8 2.875 12.652-.558 3.55-1.795 5.382-4.438 7.785l-1 2c-1.66.369-3.328.696-5 1-3.82 1.025-4.869 1.827-7.313 5.063-1.77 2.517-1.77 2.517-1.687 3.937l-3.5-.188c-4.712-.025-8.196 1.343-12.5 3.188v2c-3.518 1.592-6.227 2.243-10.082 2.195l-2.822-.02-2.909-.05-2.966-.027A974.057 974.057 0 0 1 326 421l-.938-1.938c-.897-1.998-.897-1.998-2.062-3.062-3.304 21.918-3.304 21.918-5 44l-3-1c-1.125-2.438-1.125-2.438-2-5l-1-2c-.071-3.543.003-7.074.063-10.617-.05-2.726-.237-4.816-1.063-7.383l-7 1c-2.152 4.343-2.248 8.295-2.16 13.04l.016 2.31c.017 2.425.049 4.85.082 7.275.027 2.432.052 4.864.07 7.296.013 1.51.03 3.02.054 4.531.03 3.139-.06 5.545-1.062 8.548-2.063.688-2.063.688-4 1-2.466-4.763-2.215-9.141-2.133-14.36 0-1.856-.003-3.713-.008-5.57.002-2.908.016-5.814.062-8.721.722-12.843.722-12.843-4.913-23.74l-2.191-1.887c-2.065-1.957-2.468-3.002-2.817-5.784V416l-1.728.016c-2.57.02-5.14.034-7.71.046l-2.72.026-2.588.01-2.396.016C266 416 266 416 265 415c-1.67.038-3.338.154-5 .313l-2.75.238L255 416l-1 2-7 1-1 2h-1c-1.556 12.502-2.86 24.45-1 37 .195 4.808.348 9.346-1 14-1.875-.125-1.875-.125-4-1-1.25-3.063-1.25-3.063-2-6h-2v-29h-10l.5 2.25c1.07 8.028.542 16.126.063 24.188l-.12 2.042c-.233 3.582-.64 7.02-1.443 10.52-2.438-.375-2.438-.375-5-1-1.582-3.165-1.242-6.59-1.316-10.07l-.063-2.413c-.066-2.547-.125-5.095-.184-7.642l-.13-5.176c-.108-4.233-.209-8.466-.307-12.699h-2l-.25-3.375L214 429l-4-2v-9h-12v-2l-2-1c.875-5.875.875-5.875 2-7 2.716-.089 5.406-.115 8.121-.098l2.47.005c2.616.005 5.231.018 7.846.03A7146.85 7146.85 0 0 1 235 408h2v-1l9-1 2 3c2.207.364 2.207.364 4.625.188l2.477-.083L257 409l1-2c4.565-1.43 9.333-1.076 14.063-1 1.594.026 3.19.047 4.785.063l2.125.035c2.058-.026 2.058-.026 4.099-.664C285 405 285 405 288 406c4.247.232 7.356.332 11-2l1 1c2.978.073 5.944-.004 8.922-.063 2.846.058 5.308.46 8.078 1.063h3v-7c5.875 1.875 5.875 1.875 7 3 .072 1.686.084 3.375.063 5.063l-.028 2.785L327 412l2.152.184 2.786.253 2.777.247C337 413 337 413 338 414l1-3 6-2 2-2h1c.313-5.222-.12-8.577-3-13-1.968-1.36-1.968-1.36-4-2l-2-1c-6.386-.41-12.671.183-19 1l-1-2 7-1a837196614.85 837196614.85 0 0 1-12.387-.37l-4.486-.134a3197.6 3197.6 0 0 1-24.049-.785c-25.19-.936-49.958-1.066-75.078 1.289l1 2c-24.845 1.748-50.159 1.88-75 0-2.77 4.918-2.77 4.918-2.688 10.375L134 405h7v4l3.176-.035 4.137-.027 2.091-.026c3.144-.015 5.59.086 8.596 1.088l4-4 2.141.974c3.025 1.085 5.396 1.337 8.597 1.44l3.233.117 3.341.094 3.4.117c2.763.094 5.525.18 8.288.258l2 6c-2.59 2.59-4.027 2.374-7.625 2.625l-3.04.227L181 418v2h-2v7h-2c-3.27 7.63-3.27 7.63-3.52 15.719.546 3.445.618 6.67.583 10.156l-.028 3.492L174 459l-5-1c-.683 2.126-1.111 3.556-.563 5.75 1.645 6.579.496 11.27-2.437 17.25l-.938 2.813c-1.302 2.681-2.395 3.02-5.062 4.187l-2 3-1.875.375c-4.031 1.186-5.893 5.276-8.125 8.625-2.72-.356-3.764-.718-5.555-2.855-3.538-6.25-3.538-6.25-3.132-10.145 1.687-3 1.687-3 3.175-5.016 3.588-4.897 5.492-8.43 5.106-14.613-1.011-4.037-3.288-6.892-6.594-9.371l-1.88-.441c-2.29-.604-3.792-1.463-5.757-2.774l-1.998-1.33-2.053-1.392-2.087-1.381C122.13 447.26 122.13 447.26 121 445l-1.938-.875c-2.598-1.417-2.835-2.453-4.062-5.125l-2.375-3c-3.551-4.815-4.904-10.326-6.625-16l-20-1v-2l-4-1 2-7h12v-1h5l.148-1.934.227-2.503.21-2.497L102 399l2-1c.407-2.322.744-4.657 1-7l-3.797-.184-4.953-.253-2.5-.12-2.422-.127-2.222-.11c-2.118-.207-4.058-.637-6.106-1.206-.125-7.75-.125-7.75 1-10 2.066-.414 2.066-.414 4.563-.625l2.503-.227L93 378v3h13l1-3 2-3a103.77 103.77 0 0 0 1.625-5.188l.79-2.73L112 365h-6v-6l6-1v-2h2c.427-5.947-.868-9.806-3.438-15.125-3.936-8.34-3.936-8.34-4.562-12.875h-2c-1.337-7.48-.3-12.633 1.938-19.813 2.255-7.85 3.63-15.128 3.562-23.312l-.02-2.491c-.176-6.727-.176-6.727-3.48-12.384.05-1.82.05-1.82.313-4.125l.238-2.258C107 261 107 261 108.043 257.742c1.107-4.329 1.097-8.062.957-12.492-.208-16.88 4.518-32.77 15-46.25a179.648 179.648 0 0 1 4.625-4.5c4.178-3.944 6.2-7.79 8.324-13.082C138 179 138 179 140.125 176.562c3.99-5.453 4.646-12.643 5.516-19.218 2.031-15.184 2.031-15.184 7.007-22.207 1.835-2.9 2.36-5.667 2.832-9.032 1.334-5.402 5.167-9.063 9.02-12.855l1.473-1.496c2.33-2.317 3.866-3.7 7.027-4.754 2.525-1.634 3.74-3.101 4.582-6.008.933-6.54-.052-12.55-1.144-18.992-1.268-7.609-1.567-13.508.562-21 .34-1.43.673-2.863 1-4.297A975.532 975.532 0 0 1 181 44l.381-2.121C182 40 182 40 184.801 38.215c3.956-2.74 5.342-5.409 7.387-9.653l1.98-3.933.947-1.879c1.195-2.363 2.33-4.6 3.885-6.75a64.018 64.018 0 0 1 4-1c2.366-1.928 2.366-1.928 4.625-4.313l2.352-2.363C211.797 6.233 212.78 4.445 214 2c3.17-2.113 3.996-2.253 7.625-2.188ZM226 11v6h1v-6h-1Zm184 42 1 2Zm-6 1 4 1Zm-41 1v1c10.54 1.073 10.54 1.073 21 0v-1h-21Zm46 0 1 2Zm-69 1-.445 3.297c-2.129 14.471-6.715 24.533-16.97 35.012-2.88 2.998-5.715 5.95-7.585 9.691l-1.875.313c-3.069.992-3.7 2.91-5.125 5.687l4 3c-2.024 2.934-3.908 5.181-7 7h-5l-2 3c3.088 1.765 4.233 2 8 2l.188 2.688c1 4.08 2.814 5.464 5.812 8.312 1.264 2.979 1.074 4.974 0 8l-2 3c-.378 2.018-.378 2.018-.5 4.125L309 155l-2 1v2l-3-1-.625 1.813c-1.98 3.149-3.906 3.902-7.375 5.187l-3.688-.66c-2.168-.146-2.168-.146-4.312.66-3.398 3.53-5.845 7.642-8.375 11.813a868.104 868.104 0 0 1-2.152 3.392 574.98 574.98 0 0 0-3.904 6.251A186.523 186.523 0 0 1 270 191l-.813 2.063C268 195 268 195 265.438 196L263 197c-1.092 2.965-1.117 5.792-1.098 8.926l.01 2.968.026 3.204.011 3.344c.016 4.709.044 9.418.072 14.128.123 23.091.123 23.091-.459 34.301l-.118 2.305c-.221 3.696-.713 7.201-1.444 10.824.377 2.725.377 2.725 1 5l2.676-1.54c7.394-4.243 14.818-8.416 22.324-12.46v-2h5v-2l3.688-1.375c1.439-.537 2.876-1.079 4.312-1.625l2.453-.8c3.205-1.51 5.148-3.475 7.61-6.012l2.535-2.583L314 249l2.082-2.168c2.39-3.53 2.718-6.618 3.008-10.754l.21-2.33c.148-1.645.29-3.29.424-4.937.36-4.32.788-8.634 1.221-12.948l.26-2.59c1.957-18.97 5.649-39.594 14.568-56.668 1.603-2.627 1.603-2.627.227-5.605l-8 1 1.46-1.61 1.915-2.14 1.898-2.11c1.61-1.994 2.615-3.85 3.727-6.14a243.64 243.64 0 0 1 3.434-3.383c5.79-5.978 9.94-11.737 12.566-19.617-.278-2.34-.605-4.676-1-7l1.234 1.496c1.642 1.67 1.642 1.67 3.782 1.79 5.442-.543 8.607-1.958 12.671-5.618 1.482-1.883 1.769-3.367 2.313-5.668a258.928 258.928 0 0 1 5-3c6.3-5.439 14.358-13.074 17-21 1.664-1.67 3.331-3.336 5-5 1.685-2.141 3.221-4.37 4.75-6.625l1.207-1.734c1.739-2.535 3.066-4.709 4.043-7.641-4.578-1.387-7.495-.32-12 1h-7c-2.167.875-2.167.875-4 2-2.8.845-5.313 1.128-8.23 1.133l-2.436.004-2.522-.012-2.462.012c-5.521-.01-10.89-.284-16.35-1.137l-1-2h-12l-1-2Zm4 1 4 1Zm-11 6 1 2Zm-95 17 1 2 1-2h-2Zm-3 1 1 3Zm9 0 1 4Zm29 0 1 2c.04 2 .043 4 0 6h1l1-8h-3Zm-5 11 1 2 1-2h-2Zm-89 6v7h1v-7h-1Zm83 10 1 2 1-2h-2Zm13 0 1 2 2-2h-3Zm4 1v2l4-2h-4Zm2 3 7-1c-3.486-1.202-3.68-1.213-7 1Zm24-2v3l3-2-3-1Zm-19 2 4 1Zm72 0 4 1Zm9 0 1 2Zm-201 1 1 2Zm104 0 1 2 1-2h-2Zm3 1 2 1 1 3v-3l2-1h-5Zm7 1 2 2v-2h-2Zm3 1 4 1Zm6 1 1 2Zm-30 0-.188 3.313C258 124 258 124 255.5 125.686L253 127c-1.272 3.176-.878 5.488-.063 8.75l.59 2.422L254 140l2-2a79.047 79.047 0 0 1 7.438 1.875c5.188 1.585 5.188 1.585 10.562 2.125.84-1.935 1.672-3.873 2.5-5.813l1.406-3.269c1.27-2.867 1.27-2.867 1.094-5.918l-3-2-2-2-3-1c-1.188-2.063-1.188-2.063-2-4-4.14-.21-4.14-.21-8 1l-2-2Zm27 1 1 2Zm-8 3 1 2Zm3 0 4 1Zm-2 2v2l-2 1 3 1 1-2-2-2Zm2 0 1 2 1-2h-2Zm-30 3 1 3Zm38 7 1 2Zm-30 7 4 1Zm83 1v3Zm-2 3 1 2Zm-2 2-1 2 2 2 1-4h-2Zm-1 4 1 2Zm-46 13v1h5v-1h-5Zm-36 39-2 3-2-2-.262 2.64c-.712 6.038-1.456 11.232-4.238 16.673-5.06 10.97-4.848 25.734-4.5 37.687 1.445 1.445 3.17 2.113 5 3 2.524 1.262 3.423 2.778 5.063 5.063.955 1.33 1.929 2.647 2.937 3.937h1c1.577-10.779 2.33-21.29 2.25-32.188l-.005-2.144c-.035-11.97-.731-23.79-2.245-35.668h-1Zm-14 58 1 2Zm18 17v10l2-2c.024-1.993.024-1.993-.375-4.125L260 277h-1Zm-1 17 1 2Zm4 53v1h12v-1h-12Zm-29 1-1 2 4-1-3-1Zm5 2v1h7v-1h-7Zm7 1v1h9v-1h-9Zm-130 1v6h1v-6h-1Zm172 13v1h12v-1h-12Zm73 2v1h9v-1h-9Zm10 1 4 1Zm-87.063 2.938c-1.208.09-2.417.182-3.663.276-3.458.265-6.915.537-10.372.813l-3.161.25-2.917.242-2.542.209c-3.822.456-6.728 1.365-10.032 3.334L247 378c3.023 3.023 6.556 2.473 10.625 2.625l2.56.113c14.035.975 14.035.975 27.815-.738l1 1c1.489.087 2.981.107 4.473.098l2.724-.01 2.865-.026 2.877-.013c2.354-.012 4.707-.028 7.061-.049l1 2v-2l2 1c2.15-.023 2.15-.023 4.5-.313l2.406-.238c2.303-.296 2.303-.296 4.094-2.449a144.366 144.366 0 0 1 6.688-3.063l3.636-1.597c3.622-1.32 6.856-1.924 10.676-2.34 1.67-.32 3.337-.647 5-1v-2c-22.121-.553-43.997.254-66.063 1.938ZM363 373v3l-2.25.438L358 377l-2.188.438c-2.039.478-2.039.478-3.812 2.562-3.823 1.323-7.997 1.613-12 2l-2-1v2h-2l-1-2v2l-2 1 2.52.043 3.293.144 3.269.106c2.918.707 2.918.707 4.672 3.066L348 390l2.125 3.063c2.77 4.34 2.998 7.581 2.938 12.687l-.028 2.984L353 411c2.646-2.06 2.646-2.06 5-5 .418-3.71.418-3.71 0-7h2l1 4 2.25-2.313c4.137-4.043 7.19-5.995 12.75-7.687l2-1c.338-5.638.557-10.295-3-15-3.519-1.382-6.228-2-10-2l-2-2Zm-141 4v1h18v-1h-18Zm19 1 2 3 1-3h-3Zm-19 1v2l18 1 1-3h-19Zm23 0 1 2Zm-28 1 1 3Zm30 0v3l21-1v-1l-21-1Zm-154 2v1h6v-1h-6Zm13 0 1 3Zm118 0v1h15v-1h-15Zm44 0v1h10v-1h-10Zm23 0v1h17v-1h-17Zm93 2 1 3Zm-297 4v1h17v-1H87Zm52 1v1c16.96 1.47 33.993 1.095 51 1v-1c-25.494-.892-25.494-.892-51-1Zm244 1v6h1v-6h-1Zm-252 12v6h1v-6h-1Zm190 2 1 3Zm-219 1v5h1v-5h-1Zm162 2v1h15v-1h-15Zm38 0v1h6v-1h-6Zm-13 1 4 1Zm-155 3h22v-1c-3.29-.225-6.582-.427-9.875-.625l-2.84-.195-2.715-.157-2.507-.158c-2.29-.078-2.29-.078-4.063 2.135Zm65-2v1h7v-1h-7Zm-29 1v1h13v-1h-13Zm117 4 1 2Zm44 0v1h5v-1h-5Zm-105 1v1h14v-1h-14Zm-93 1v1h10v-1h-10Zm153 0 1 2Zm-154 1 1 2Zm2 1c-.442 3.988-.442 3.988 1.938 6.188L138 426l1 1c2.62 1.746 4.038 2.387 7 3 1.014-3.62 1.499-7.278 2-11-2.765-1.382-5.046-1.095-8.125-1.063l-3.32.028L134 418Zm159 0v5h1v-5h-1Zm22-3-1 3-1.871-.035c-5.804-.062-11.372.292-17.129 1.035v1h11l-11 1 1 3c3.62 1.81 8.23.946 12.234.785 2.141-.043 2.141-.043 5.766.215l2 3c1.292-4.12 2.263-7.668 2-12l-3-1Zm27 4 4 1Zm-125 1v5h1v-5h-1Zm12 0v1h8v-1h-8Zm-59 1 1 3Zm49 0-1 5 1.75.875C222 428 222 428 223.813 429.188c3.921 1.456 7.716.408 11.5-1.125 1.85-1.08 1.85-1.08 3.687-3.063l-1-3c-6.382-.824-12.567-1.12-19-1Zm20 0 1 4Zm-86 1v1h15v-1h-15Zm-2 1 1 3Zm143 0 1 2Zm-141 1v2c3.56 1.187 6.438 1.097 10.188 1.063l3.855-.028L170 427v-3h-17Zm145 2v1h16v-1h-16Zm-151 2 1 2Zm24-4v4h-15v1h16v-5h-1Zm-23 6 1 2Zm165 1v7h1v-7h-1Zm-164 1-1 2h2l-1-2Zm155.375-.5-3.04.281L299 432c1.805 2.267 1.805 2.267 4.348 2.047l2.714-.297 2.723-.266L311 433l1-2c-2.563 0-5.073.263-7.625.5ZM154 434l1 3Zm69 0v9h1v-9h-1Zm2 0v1h9v-1h-9Zm-67 1v1h8v-1h-8Zm9 0v20h1v-20h-1Zm-11 1c-1.279 2.835-1.279 2.835-.328 5.008l1.078 2.117c.345.704.69 1.408 1.047 2.133 1.168 2.064 1.168 2.064 4.203 2.742l.375 2.875c.342 3.212.342 3.212 2.625 5.125 1.655-3.31 1.1-6.991 1.063-10.625l-.014-2.43c-.012-1.981-.03-3.963-.049-5.945l-10-1Zm68 7v11h1v-11h-1Zm-56 12 1 2Zm-2 2 1 3Z"/><path d="M292 388v1h-73v-1c24.34-1.74 48.645-.948 73 0ZM266 245l3 1c1.862 4.73 2.258 9.962 2 15h-6l.5-3.5c.532-4.2.576-8.27.5-12.5ZM264 202h1v37h4v4h-4c-1.295-3.885-1.123-7.559-1.098-11.605l.005-2.544c.005-2.68.018-5.359.03-8.038A6252.52 6252.52 0 0 1 264 202ZM315 389c4 2 4 2 5.438 4.875.562 3.125.562 3.125-.625 5.5C318 401 318 401 315 401v-12ZM328.75 369.938A3918.815 3918.815 0 0 1 344 370c-3.068 2.044-3.656 2.247-7.104 2.226h-2.487l-2.67-.032-2.746-.008c-2.893-.011-5.787-.037-8.68-.062-1.962-.01-3.924-.02-5.885-.027A3648.1 3648.1 0 0 1 300 372v-1c9.595-1.02 19.117-1.12 28.75-1.063ZM255 211h1c1.048 9.77 1.119 19.441 1.063 29.25A4187.79 4187.79 0 0 1 257 256h-1l-1-45ZM293 432h1v42h-1v-42ZM216 436h1v36h-1v-36Z"/><path d="M264 243h1c.194 2.291.38 4.583.563 6.875l.316 3.867C266 257 266 257 265 259c-.23 2.204-.41 4.414-.563 6.625l-.253 3.602L264 272h-1c-.104-9.727-.045-19.313 1-29ZM294 389h20v12h-1v-11h-19v-1ZM318 362h29v1h-29v-1ZM289 7c1.956 3.912 2.242 5.253 2.195 9.422l-.02 3.105-.05 3.223-.027 3.27c-.024 2.66-.057 5.32-.098 7.98h-1l-1-27ZM298 372v1c-8.7 1.013-17.255 1.106-26 1v-1c8.687-.72 17.283-1.144 26-1ZM245 229h1c.027 2.854.047 5.708.063 8.563l.025 2.423c.02 4.786-.284 9.295-1.088 14.014h-1l1-25ZM320 436h1c.147 7.39-.292 14.644-1 22h-1c-.103-7.427.001-14.635 1-22ZM327 211h1v22h-1v-22ZM302 440h1v21h-1v-21ZM108 276h1v20h-1v-20ZM174 64h1v17h-1c-1.333-11.522-1.333-11.522 0-17ZM245 421h1c.12 5.778-.168 11.28-1 17h-1c-.12-5.778.168-11.28 1-17ZM354 397c3 3 3 3 3.313 6.063C357 406 357 406 355 408l-1-11ZM299 363h17v1h-17v-1ZM286 52c2 2 2 2 2.195 5.258l-.07 3.867-.055 3.883L288 68h-1l-1-16ZM108 238h1v16h-1v-16ZM144 153h1c.103 5.126.036 9.95-1 15h-1l1-15ZM303 461h1v14h-1v-14ZM226 455h1v14h-1v-14ZM260 296h1c.077 4.516.102 8.59-1 13h-1l1-13ZM175 446h1v13h-1v-13ZM329 421h13v1h-13v-1ZM363 63h13v1h-13v-1ZM236 16h12v1h-12v-1ZM245 457h1v11h-1v-11ZM181 418h11v1h-11v-1ZM255 416h11v1h-11v-1ZM388 386h1v11h-1v-11ZM318 213h1v11h-1v-11ZM330 190h1l-1 10h-1l1-10ZM146 465h1v10h-1v-10ZM243 440h1v10h-1v-10ZM255 256h1v10h-1v-10ZM316 234h1v10h-1v-10ZM317 224h1v10h-1v-10ZM328 201h1v10h-1v-10ZM340 59h1v10h-1V59ZM339 50h10v1h-10v-1ZM228 1h1v10h-1V1ZM322 422h1v9h-1v-9ZM376 383h1v9h-1v-9ZM102 315c.93 2.606 1.15 3.642.063 6.25L101 323l1-8ZM104 307c.93 2.606 1.15 3.642.063 6.25L103 315l1-8ZM154 124h1c.125 2.875.125 2.875 0 6l-2 2 1-8ZM170 466h1v8h-1v-8ZM310 444h1v8h-1v-8ZM322 395l1 3 2 1h-4l1-4ZM211 389h8v1h-8v-1ZM373 122h1v8h-1v-8ZM285 88h1l-1 7c-1.044-3.133-.934-3.99 0-7ZM347 400h1v7h-1v-7ZM103 391h1v7h-1v-7ZM326 233h1v7h-1v-7ZM108 228h1v7h-1v-7ZM250 217c.625 1.875.625 1.875 1 4l-2 2 1-6ZM319 206h1v7h-1v-7ZM335 173c.625 1.875.625 1.875 1 4l-2 2 1-6ZM177 54l1 3-2 3 1-6ZM244 451h1v6h-1v-6ZM174 440h1v6h-1v-6ZM311 438h1v6h-1v-6ZM323 417l2 2-2 3v-5ZM315 416h2v5c-2-3.875-2-3.875-2-5ZM251 408h6v1h-6v-1ZM89 407h6v1h-6v-1ZM328 402h1v6h-1v-6ZM312 380h6v1h-6v-1ZM106 357h6v1h-6v-1ZM284 355l2 1-1 4-1-5ZM104 264h1v6h-1v-6ZM321 194h1v6h-1v-6ZM140 174v3l-2 1 2-4ZM176 86h1v6h-1v-6ZM225 470h1v5h-1v-5ZM311 452l2 4-2-1v-3ZM321 431h1v5h-1v-5ZM183 408h5v1h-5v-1ZM133 397h1v5h-1v-5ZM99 380h5v1h-5v-1ZM108 365h4l-1 2-3-2ZM258 309h1v5h-1v-5ZM106 299h1v5h-1v-5ZM271 250h1v5h-1v-5ZM320 200h1v5h-1v-5ZM323 185h1v5h-1v-5ZM145 147h1v5h-1v-5ZM372 130h1v5h-1v-5ZM300 121h2v2l-3-1 1-1ZM295 104h1v5h-1v-5ZM177 92h1v5h-1v-5ZM376 62h5v1h-5v-1ZM349 51h5v1h-5v-1ZM178 49h1v5h-1v-5ZM404 46h5v1h-5v-1ZM179 44h1v5h-1v-5ZM248 17h5v1h-5v-1ZM169 474l1 4ZM169 462l1 4ZM227 428l4 1ZM177 427l1 4ZM284 418l1 4ZM82 417l4 1ZM327 408l1 4ZM135 403l4 1ZM318 401l1 2-3-1 2-1ZM373 377l2 1-1 2-1-3ZM359 377l4 1ZM254 375l2 1h-3l1-1ZM349 363l4 1ZM105 329l1 4ZM107 272l1 4ZM106 257l1 4ZM272 255l1 4ZM312 247v3ZM325 240l1 4ZM322 190l1 4ZM332 182l1 4ZM324 181l1 4ZM326 174l1 4ZM285 170v3ZM312 147l1 4ZM354 145l4 1ZM146 143l1 4ZM309 131l2 1-1 2-1-3ZM302 123l4 1ZM382 90v3ZM394 87v3ZM175 82l1 4ZM287 81l1 4ZM335 80v3ZM339 69l1 4ZM359 62l4 1ZM175 60l1 4ZM354 52l4 1ZM285 48l1 4ZM289 34l1 4ZM187 34v3ZM357 415l3 1ZM360 414l3 1ZM208 406l3 1ZM282 403l3 1ZM84 390l3 1ZM345 383l3 1ZM328 153l3 1ZM351 146l3 1ZM348 123l2 1-2 1v-2ZM311 115l1 2-2-1 1-1ZM302 104l2 1-2 1v-2ZM297 101l3 1ZM280 100l1 2-2-1 1-1ZM356 61l3 1ZM390 59l3 1ZM350 59l3 1ZM401 47l3 1ZM253 18l3 1ZM196 18l2 1-2 1v-2ZM299 479l2 1ZM220 476l2 1ZM171 460l2 1ZM352 417l2 1ZM355 416l2 1ZM196 416l2 1ZM86 408l2 1ZM312 404l2 1ZM340 383l2 1ZM348 382l2 1ZM354 379l2 1ZM282 379l2 1ZM284 378l2 1ZM249 378l2 1ZM251 377l2 1ZM89 376l2 1ZM357 365l2 1ZM283 277l2 1ZM267 261l2 1ZM245 261l2 1ZM266 237l2 1ZM331 152l2 1ZM261 15l2 1ZM285 4l2 1Z"/></svg>