<svg xmlns="http://www.w3.org/2000/svg" width="150" height="150"><path d="M121.36 14.32C136.221 26.052 147.562 44.004 150 63c1.838 22.754-2.427 43.292-16.75 61.438-12.343 13.885-30.285 24.273-49.013 25.785-23.148 1.204-43.954-3.888-61.557-19.536C7.486 115.45-.303 96.32-.5 75-.291 54.066 7.06 34.897 22 20c28.052-24.858 68.789-27.576 99.36-5.68Z" fill="#AABCF0"/><path d="M121 79h5c.027 1.958.046 3.917.063 5.875l.035 3.305C126 91 126 91 125 93h23c-1.405 6.324-2.648 11.214-5.5 16.813l-1.06 2.08c-9.78 18.46-26.616 30.25-46.315 36.544-21.236 5.121-42.505 1.503-61.268-9.295C19.713 130.448 10.272 117.145 4 102v-3c2.995-.872 5.636-1.108 8.75-1.063l2.422.028L17 98c.027 2.563.047 5.125.063 7.688l.025 2.185c.017 3.843-.153 7.393-1.088 11.127l3-1-.125-2.563c.14-3.86.953-6.774 2.125-10.437l-2-1v-2h2l.188-1.875C22 98 22 98 24.313 96.75 27 96 27 96 31 96l-2-2h6v1l9 1v2h-2l-1 3-1-3h-2l-1 9 5-2 2 6 3-3v5l1-1-.625-3.375C47 105 47 105 48.188 103c1.812-1 1.812-1 4-.688L54 103l1-2c1.125 3.75 1.125 3.75 0 6l.563 2.75c.497 3.697-.179 5.83-1.563 9.25h2c0 5.439-.871 10.678-2 16h2l.375-2.375C57 130 57 130 59 128l-1 7 4-1 .148-2.23.227-2.958c.07-.962.14-1.925.21-2.917.422-2.941 1.102-5.235 2.415-7.895l2-1-1-5 8 1-.5-3.813c-.322-2.452-.5-4.704-.5-7.187h4v-4c-1.837-.772-1.837-.772-4-1-1.772 1.354-1.772 1.354-3 3l-1-3 1-2h-9v-2h25l-1 3-5-1v2l4 1-2 1 1 2.375c1.103 3.999 1.116 7.34.973 11.453-.13 2.22-.13 2.22 1.027 4.172.134 2.672.043 5.323 0 8h2l-.621-1.734c-.48-2.874.2-3.973 1.558-6.516 2.191-4.539 2.426-7.757 2.063-12.75h-2v-8l3 1-1 4h3v-5l2-1 1 6 7 1 1-4h-2l-1 2-4-1 1-5c3.734-.879 7.168-1.09 11-1l2-5h-2l-1 3-2-3h2v-8h4l.184 1.863.254 2.45c.08.8.162 1.6.246 2.425.269 2.423.269 2.423 1.316 5.262l2.375-2.5C119 87 119 87 121 87v-8Z" fill="#EFDCD2"/><path d="m59 41 2.181.424c7.535 1.373 14.795 1.896 22.444 1.955l3.485.051c3.63.053 7.26.094 10.89.133 3.659.044 7.317.09 10.976.142 2.266.032 4.532.06 6.798.08l3.097.041 2.717.03c2.268.135 4.236.51 6.412 1.144v2l2 1c-2 3-2 3-5 4v3l-5 1v2c-8.476 4.793-20.536 3.115-30 3v2l2.064-.016c3.083-.02 6.166-.034 9.249-.047l3.248-.025 3.115-.01 2.872-.016C113 63 113 63 116 64c1.992.083 3.987.107 5.98.098l3.526-.01 3.681-.025 3.717-.014c3.032-.012 6.064-.028 9.096-.049l-2 1v5h-3l-1 3h-6v6l-3-2 1 1c.072 1.686.084 3.375.063 5.063l-.028 2.785L128 88h-1v-9h-6l.313 3.688c.02 3.689-.235 4.213-2.688 7.312C116 92 116 92 114 92c-2-2-2-2-2.195-4.383l.07-2.742.055-2.758L112 80h-4v10l1-2h2l-1 7-1-2c-5.17.406-5.17.406-10 2-.652 2.025-.652 2.025-1 4l6-1v5c-5.461-.352-5.461-.352-8-1-1.5-2.063-1.5-2.063-2-4l-1 3h-3l-1-4-1 7h2c1.485 5.128.44 8.65-1.21 13.535-.793 2.473-1.326 4.912-1.79 7.465h-2c-1.621-6.544-2.177-12.596-1.973-19.336C83.002 103.21 82.845 101.3 82 99l-2-1v-3h5l1-2H61v2h9l1 3 3-2v2h3v4l-4 2 1 2.188c1.006 2.829 1.17 4.841 1 7.812l-8-1 1 5h-3c-1.724 8.428-1.724 8.428-2 17h-5v-5l-2 5h-2l1-11h-7v-1l8-1v-3h-2l.254-2.082.309-2.73.316-2.708c.278-2.614.278-2.614-.879-5.48v-3h-6l1 10h-2l-1-3-3 3-1-8-5 2c-1.033-2.788-1.045-3.868-.063-6.75L38 98h2l1 2 1-2h2v-2H32l-2 2-2.438-.5c-2.79-.856-2.79-.856-5.562 1.5l-1 3h-2v2l3 1-.938 3.125c-.937 3.265-1.57 6.511-2.062 9.875l2 1h-5c-.027-2.563-.047-5.125-.063-7.688l-.025-2.185c-.018-3.938.308-7.226 1.088-11.127L3 99 0 86c4.385-2.192 5.971-2.134 10.734-1.758l3.926.293 4.09.34c1.379.107 2.758.212 4.137.316 3.372.26 6.743.53 10.113.809v-2h-5l1-2h5c-.276-1.94-.276-1.94-1-4l-3-2v-2h2c-.348-1.975-.348-1.975-1-4l-2-1c-.625-2.563-.625-2.563-1-5l3 1c.688 2.063.688 2.063 1 4h2l-2-5c3 0 3 0 5.188 2L39 68h-3v2l2 1-2 6h1l1 3 1-3c2.49-1.245 3.41-.777 6 0l1-3 .313 1.938L47 78l3 1-2 1 3 1 1-2h2l-1-2.625c-.987-3.332-1.164-5.927-1-9.375h1l1 7h3c0-3.273-.3-5.847-1-9h-4v-2h9v-1h14l-2 1v2l15-1v-2h-9l1-2c-1.27-4.284-4.7-6.174-8.25-8.5l-1.7-1.145c-2.252-1.514-4.509-3.016-6.81-4.457-1.445-.917-2.847-1.902-4.24-2.898v-2Z" fill="#62564F"/><path d="M93 26h2v2h15l1 3h-2v-2H99v2h-2v-2h-3v2h28v-3l-6 1v-2h9l-1 3 2.012-.395 2.675-.418 2.637-.457c3.971.4 5.188 2.24 7.676 5.27 10.062 16.19 13.07 34.143 11 53l-2 6h-23l.781-10.84c.158-2.078.158-2.078.219-4.16.654-2.004 1.32-4.004 2-6l2 1c3.063-.247 3.063-.247 6-1l1-2h3v-5l-2.156.016c-3.219.02-6.437.034-9.656.046l-3.393.026-3.252.01-3 .016C116 65 116 65 113 64a118.84 118.84 0 0 0-5.324-.316l-3.115-.127-3.249-.12-3.283-.13A2817.61 2817.61 0 0 0 90 63v-2l2.323-.168c3.476-.253 6.952-.511 10.427-.77l3.656-.263 3.516-.264 3.237-.238c2.387-.25 4.541-.635 6.841-1.297v-2l5-1v-3h2l2-4c-3.263-3.263-6.637-3.127-11.1-3.19l-3.076-.05-3.308-.041-3.423-.056c-3.614-.059-7.229-.112-10.843-.163-4.745-.068-9.49-.142-14.234-.219l-3.284-.04c-15.467-.253-15.467-.253-18.732-2.803L60 40c2.83-1.02 4.281-.947 7.313-.375 4.664.474 6.522-.622 10.687-2.625h3v2l3 1-1-3 2.188-1c3.341-2.376 4.74-4.816 6.699-8.355L93 26Z" fill="#776E75"/><path d="m59 41 2.181.424c7.535 1.373 14.795 1.896 22.444 1.955l3.485.051c3.63.053 7.26.094 10.89.133 3.659.044 7.317.09 10.976.142 2.266.032 4.532.06 6.798.08l3.097.041 2.717.03c2.268.135 4.236.51 6.412 1.144v2l2 1c-2 3-2 3-5 4v3l-5 1v2c-8.476 4.793-20.536 3.115-30 3v2l2.064-.016c3.083-.02 6.166-.034 9.249-.047l3.248-.025 3.115-.01 2.872-.016C113 63 113 63 116 64c1.992.083 3.987.107 5.98.098l3.526-.01 3.681-.025 3.717-.014c3.032-.012 6.064-.028 9.096-.049l-2 1v5h-3l-1 3h-6v6l-3-2 1 1c.072 1.686.084 3.375.063 5.063l-.028 2.785L128 88h-1v-9h-6l.313 3.688c.02 3.689-.235 4.213-2.688 7.312C116 92 116 92 114 92c-2-2-2-2-2.195-4.383l.07-2.742.055-2.758L112 80h-4v7h-1V72l3-1v-3l-4-1v2h-3v-3l-3.377.016c-4.158.018-8.316.03-12.474.039-1.795.005-3.59.012-5.386.02-2.589.013-5.178.018-7.767.023l-2.41.015c-4.635 0-9.013-.344-13.586-1.113 1.05-1.488 1.05-1.488 3-3 3.355-.293 3.355-.293 7.188-.188l3.855.083L75 62l-2 1v2l15-1v-2h-9l1-2c-1.27-4.284-4.7-6.174-8.25-8.5l-1.7-1.145c-2.252-1.514-4.509-3.016-6.81-4.457-1.445-.917-2.847-1.902-4.24-2.898v-2Z" fill="#64594D"/><path d="M29 94h6v1l9 1v2h-2l-1 3-1-3h-2l-1 9 5-2 2 6 3-3v5l1-1-.625-3.375C47 105 47 105 48.188 103c1.812-1 1.812-1 4-.688L54 103l1-2c1.125 3.75 1.125 3.75 0 6l.563 2.75c.497 3.697-.179 5.83-1.563 9.25h2v3l-7 2v1c-3.726.87-7.456 1.719-11.188 2.563l-3.197.748-3.095.693-2.841.65c-2.9.374-4.892.21-7.679-.654-1.858-1.873-3.334-3.58-4.875-5.688l-1.3-1.733C4 106.684 4 106.684 4 99c2.995-.872 5.636-1.108 8.75-1.063l2.422.028L17 98c.027 2.563.047 5.125.063 7.688l.025 2.185c.017 3.843-.153 7.393-1.088 11.127l3-1-.125-2.563c.14-3.86.953-6.774 2.125-10.437l-2-1v-2h2l.188-1.875C22 98 22 98 24.313 96.75 27 96 27 96 31 96l-2-2Z" fill="#D5C6C2"/><path d="M54 47h3v4h2l1-2-1 5 2.152-.438a1797830373.89 1797830373.89 0 0 0 5.563-1.125c4.27-.817 7.356-.05 11.035 2.376C79.995 56.995 80.673 57.952 81 61h8l-1 4H73v-2H62v1c-6.625.125-6.625.125-10-1v2h4v3l2 1 1 3h-2v2h-3v5h-2l-1 3c-1.938-.75-1.938-.75-4-2-.75-2.125-.75-2.125-1-4l-7 2v5c-2-1-2-1-3.25-3.75-.864-3.745-.191-4.828 1.25-8.25-.766-2.286-.766-2.286-2-4h3l-5-3 1 5h-2l-.688-1.938c-1.165-2.334-1.165-2.334-3.937-2.812L25 64l-1-5-3-1 2-4h3v-2c1.605.087 3.21.196 4.813.313l2.707.175c2.786.575 3.721 1.333 5.48 3.512v-5h5l1-3h2l1 4h-2v3h2l2-5 2 2 2-5Z" fill="#7C7981"/><path d="M55 123c1.292 4.626.303 7.4-1 12h2l.375-2.375C57 130 57 130 59 128l-1 7 4-1v-5l1 2c2.527.656 2.527.656 5 1v2l-3 1-1 2 9 1v-2h2v3h2v-6l2-1 .313 1.875c.562 2.49.562 2.49 3.687 4.125v2l2-.688c4.184-.435 7.212 1.024 11 2.688v3l-10-1v-2l-8 2c1.228 1.646 1.228 1.646 3 3 2.039-.176 2.039-.176 4-1 4.05-1.35 6.792-.62 11 0v2c-21.682 5.611-43.005 1.98-62.292-8.948-3.637-2.24-6.774-4.963-9.708-8.052 2.684-2.684 4.827-2.765 8.54-3.508l1.941-.395c2.047-.414 4.095-.818 6.144-1.222l4.164-.84c3.402-.686 6.806-1.363 10.211-2.035Z" fill="#E0CCC9"/><path d="m102 20 3 1-1 2 2.375-.188L109 23l2 3 2.25-1c4.484-1.63 8.734-.858 13.375-.25l3.477.422L133 26l2 4h-11v-2l-8-1v2l6-1v3c-6.169.83-12.283 1.108-18.5 1.125l-2.14.014c-5.112-.015-5.112-.015-7.36-1.139v-2h3v2h2v-2h10v2h2l-1-2a95.746 95.746 0 0 0-7.563-.625l-2.154-.117c-1.76-.095-3.522-.177-5.283-.258v-2c-2.78 1.39-3.413 3.576-4.848 6.219C88.54 34.712 86.355 36.234 84 38v2l-4-1 1-2-3 1.438c-4.534 1.94-9.431 3.256-14.313 1.937L62 40c-1.772 1.354-1.772 1.354-3 3l2 .625c4.116 1.887 7.459 4.58 11 7.375l-2 4-2-2c-2.344.251-4.68.586-7 1h-2v-3h-2v-4h-3l-1 6-2-1a108.817 108.817 0 0 1-1-7l6-2-1-3 3-2 1-3 2-1-2-3h5v-5c2.996-1.498 6.083-1.386 9.395-1.621 2.602-.254 2.602-.254 4.789-1.379 4.279-1.52 8.556-1.431 13.066-1.563 1.818-.06 3.636-.123 5.453-.19l2.427-.073c1.883.026 1.883.026 2.87-1.174Z" fill="#BBC9F6"/><path d="M61 93h25l-1 3-5-1v2l4 1-2 1 1 2.375c.879 3.185 1.081 5.155 1 8.375-.129 5.291.777 10.119 2 15.25l-4 2v-3c-3.122 1.309-3.122 1.309-5 4-3.063.625-3.063.625-6 1l10 1v3l1.5-.5c3.534-.707 6.897-.56 10.5-.5v2h-4v2l2 1v2l5-1-1-5 6-1c.263 4.332-.708 7.88-2 12h2v-3h2l1 4c-3.98 1.932-6.528 2.064-10.875 1.438-3.847-.42-6.505-.678-10 1.062-3.618 1.737-5.318 1.521-9.125.5v-1l6-1-5-2v-1l11-1v2h10l-1-2c-2.015-.69-2.015-.69-4.375-1.125l-2.398-.508c-2.344-.448-2.344-.448-5.227-.367-2.68-2.286-3.874-3.622-5-7l-1 6h-2v-3h-2v2c-2.788 1.033-3.868 1.045-6.75.063L64 137l1-3h3l-1-2c-2.025-.652-2.025-.652-4-1-.298-8.787-.298-8.787 2-13l2-1-1-5 8 1-.5-3.813c-.322-2.452-.5-4.704-.5-7.187h4v-4c-1.837-.772-1.837-.772-4-1-1.772 1.354-1.772 1.354-3 3l-1-3 1-2h-9v-2Z" fill="#E6CFC9"/><path d="M149 58c1.284 5.653 1.184 11.165 1.188 16.938l.037 3.248.005 3.154.013 2.855C150 87 150 87 148 93h-23l.781-10.84c.158-2.078.158-2.078.219-4.16.654-2.004 1.32-4.004 2-6l2 1c3.063-.247 3.063-.247 6-1l1-2h3v-5l-2.156.016c-3.219.02-6.437.034-9.656.046l-3.393.026-3.252.01-3 .016C116 65 116 65 113 64a118.84 118.84 0 0 0-5.324-.316l-3.115-.127-3.249-.12-3.283-.13A2817.61 2817.61 0 0 0 90 63v-2c41.878-3 41.878-3 59-3Z" fill="#7D7068"/><path d="m33 63 6 4-3 1v2l2 1-2 6h1l1 3 1-3 2-1 2 1-.938 2.25C41.191 81.507 40.523 83.645 40 86v-2h-2l1 3-5 1c2.421 1.21 3.483.946 6.125.563L44 88l1 3-1 2c-3.059.608-6.12.96-9.215 1.34-3.105.402-3.105.402-4.785 3.66l-2.313-.625C24.782 96.666 24.782 96.666 22 99l-1 3h-2v2l3 1-.938 3.125c-.937 3.265-1.57 6.511-2.062 9.875l2 1h-5c-.027-2.563-.047-5.125-.063-7.688l-.025-2.185c-.018-3.938.308-7.226 1.088-11.127L3 99 0 86c4.385-2.192 5.971-2.134 10.734-1.758l3.926.293 4.09.34c1.379.107 2.758.212 4.137.316 3.372.26 6.743.53 10.113.809v-2h-5l1-2h5c-.276-1.94-.276-1.94-1-4l-3-2v-2h2c-.348-1.975-.348-1.975-1-4l-2-1c-.625-2.563-.625-2.563-1-5l3 1c.688 2.063.688 2.063 1 4h2l-2-5 1-1Z" fill="#4A4232"/><path d="M102 79c1 1 1 1 1.098 2.848L103 88l2 1c-2.625 4.875-2.625 4.875-6 6-.733 2.015-.733 2.015-1 4l6-1v5c-5.461-.352-5.461-.352-8-1-1.5-2.063-1.5-2.063-2-4l-1 3h-3l-1-4-1 7h2c1.485 5.128.44 8.65-1.21 13.535-.793 2.473-1.326 4.912-1.79 7.465h-2c-1.621-6.544-2.177-12.596-1.973-19.336C83.002 103.21 82.845 101.3 82 99l-2-1v-3h5l1-2H71l1-5h2l1-8h12l1 7h3v-7c3.732-.878 7.167-1.174 11-1Z" fill="#AC9F9D"/><path d="M121 79h1l1 14h-2v3h12l-2 2h-3v4l-5-1v2h19v2h-6l-1 2v-2h-22l1 4 2 1c-2.667-.142-5.333-.289-8-.438l-2.254-.119c-4.953-.28-9.83-.778-14.746-1.443l-1-4h-2v-8l3 1-1 4h3v-5l2-1 1 6 7 1 1-4h-2l-1 2-4-1 1-5c3.734-.879 7.168-1.09 11-1l2-5h-2l-1 3-2-3h2v-8h4l.184 1.863.254 2.45c.08.8.162 1.6.246 2.425.269 2.423.269 2.423 1.316 5.262l2.375-2.5C119 87 119 87 121 87v-8Z" fill="#EDD6C3"/><path d="M29 94h6v1l9 1v2h-2l-1 3-1-3h-2l-1 9 5-2 2 6 3-3v5l1-1-.625-3.375C47 105 47 105 48.188 103c1.812-1 1.812-1 4-.688L54 103l1-2c1.125 3.75 1.125 3.75 0 6l.563 2.75c.497 3.697-.179 5.83-1.563 9.25h2v3l-4 1-1-3c-7.012-2.337-13.997-.607-21 1-1.3-4.98-.074-7.333 2-12-.905-2.716-1.925-5.348-3-8l-1 6-4 1 1 2 4-2 1 3-3 1 1 1c.04 2 .043 4 0 6l-4 1c-1.416-2.833-1.346-5.475-1.563-8.625l-.253-3.602L22 105l-3-1v-2h2l.188-1.875C22 98 22 98 24.313 96.75 27 96 27 96 31 96l-2-2Z" fill="#EBCCA9"/><path d="M135 115c.7 2.203.7 2.203 1 5-6.352 12.18-19.98 19.566-32 25l-1-4h-2v3h-2c-.09-3.832.121-7.266 1-11l-4 1 .563 1.938L97 138c-1 1-1 1-3.563 1.063L91 139v-2l-3-1 1-2h4v-2h-5c2.76-1.804 3.89-2.013 7.25-1.625L98 131v-7h2l1 7 4 1v-2l-3-1h9l1-3h-2l-1 2v-2h-6l4-1v-6l-4-2 5-1v5l2.188-.563c2.94-.457 4.953-.172 7.812.563v1l-10 1v2l3-.688c4.61-.697 7.8.846 12 2.688v-4h-2v-2l3-1 1-3 3 2v-3c3-1 3-1 7-1Z" fill="#F6E4DE"/><path d="M59 41c1.125.2 1.125.2 2.273.402l3.102.535 3.023.528c8.885 1.32 17.756 1.78 26.727 2.097l3.477.131c2.799.105 5.598.207 8.398.307l-1 3 6-2v6h-3l-1 2v-2l-4 2v2c-4.75 1.125-4.75 1.125-7 0v-3l-2 1-1 6H80l-2-4a89.094 89.094 0 0 0-6.25-4.5l-1.7-1.145c-2.252-1.514-4.509-3.016-6.81-4.457-1.445-.917-2.847-1.902-4.24-2.898v-2Z" fill="#080503"/><path d="M17 63c8.335 1.992 8.335 1.992 10.938 5.938L29 72c1.462 3.29 1.84 3.893 5 6 .688 2.625.688 2.625 1 5h-6l4 1v2c-9.396.107-18.64-.007-28-1v1H0V76l4.5-.25c5.305-.506 8.904-2.112 13.5-4.75l-1.063-1.75c-1.086-2.608-.868-3.644.063-6.25Z" fill="#727380"/><path d="m68 96 3 2 3-2v2h3v4l-4 2 1 2.188c1.006 2.829 1.17 4.841 1 7.812l-8-1 1 5h-3c-1.724 8.428-1.724 8.428-2 17h-5v-5l-2 5h-2l1-11h-7v-1l8-1v-3h-2l.254-2.082.309-2.73.316-2.708c.278-2.614.278-2.614-.879-5.48.324-1.336.657-2.67 1-4l-1-2h2l-1-3h2l1 5 7 2v6c.774-4.064 1.098-7.864 1-12h2v-2Z" fill="#0C0A04"/><path d="M54 47h3l1 8h-2l-1-2-3 4 4 1-1 3v-2l-2 2-2 1v-3h-2l2 7c-3-1-3-1-4.125-2.75-.934-2.403-1.452-4.71-1.875-7.25v4h-3v-2h-2l1 2.063c1.532 4.5 1.5 8.439 0 12.937h-4l-2-6h3l-5-3 1 5h-2l-.688-1.938c-1.165-2.334-1.165-2.334-3.937-2.812L25 64l-1-5-3-1 2-4h3v-2c1.605.087 3.21.196 4.813.313l2.707.175c2.786.575 3.721 1.333 5.48 3.512v-5h5l1-3h2l1 4h-2v3h2l2-5 2 2 2-5Z" fill="#9A9BA8"/><path d="M81 44c6.05-.025 12.101-.043 18.152-.055 2.058-.005 4.116-.012 6.175-.02 2.958-.013 5.917-.018 8.876-.023l2.788-.015h2.608l2.288-.007c2.152.122 4.044.529 6.113 1.12v2l2 1c-2 3-2 3-5 4v3l-5 1v2c-3.258 1.937-5.656 2.237-9.422 2.195l-3.105-.02-3.223-.05-3.27-.027c-2.66-.024-5.32-.057-7.98-.098v-6l3-1v3h3l-1-2c1.415-.339 2.832-.67 4.25-1l2.39-.563C107 52 107 52 111 52l-1-5-5 1v-2l-24-1v-1Z" fill="#44423F"/><path d="M143 42c2.614 5.362 4.492 10.034 5 16-2.9 1.45-5.523 1.221-8.758 1.316l-2.01.063c-2.118.066-4.238.125-6.357.184l-4.309.13c-3.522.107-7.044.209-10.566.307l4-2v-2l5-1v-3h2l2-4c-2.202-2.202-3.09-2.295-6-3l-3-2c7.69-1.06 15.245-1.1 23-1Z" fill="#6B6A66"/><path d="m52 63 2.147.416c10.217 1.789 20.317 2.022 30.666 2.209l5.314.117c4.29.095 8.582.18 12.873.258v3h3v-2l6 1-2 1v2c-1.238 1.645-1.238 1.645-3 3-1.98.074-1.98.074-4.188-.313C98.474 73.034 94.386 72.92 90 73v6h-1l-1-7-1.563 1c-3.25 1.333-5.957 1.193-9.437 1l-2-1v2l-4-1-1 2-1-2v6l-4-1 2-8-3.375-.875C60 69 60 69 58 67a126.235 126.235 0 0 0-6-2v-2Z" fill="#0E0A05"/><path d="m87 68 .938 1.938c.897 1.998.897 1.998 2.062 3.062 2.502-.182 4.97-.52 7.457-.844 2.463-.151 4.208.104 6.543.844l1-2v3h2c.168 2.292.334 4.583.5 6.875l.281 3.867c.118 1.75.219 3.504.219 5.258l1-2h2l-1 7-1-2-6 1 .563-2.438L104 89l-1-1c-.455-2.655-.702-5.322-1-8H91v7l-4 1v-8l-3.75.563c-3.013.384-5.35.524-8.25-.563v6l-2 1-1-11 3-1v-2l1.898.035 2.477.028 2.46.035c2.214.047 2.214.047 4.165-1.098.652-2.025.652-2.025 1-4Z" fill="#412D20"/><path d="M116 27h9l-1 3 2.012-.395c7.214-1.126 7.214-1.126 10.863 1.332C139.33 34.477 141.255 38.07 143 42c-11.024 1.007-21.94 1.106-33 1l3-1V31h9v-3l-6 1v-2Z" fill="#9A9195"/><path d="m10.625 84.313 3.477.3C17 85 17 85 19 86v5l-2 1-1 3h3c1.125 6.75 1.125 6.75 0 9l3 1-.938 3.125c-.937 3.265-1.57 6.511-2.062 9.875l2 1h-5c-.027-2.563-.047-5.125-.063-7.688l-.025-2.185c-.018-3.938.308-7.226 1.088-11.127L3 99 0 86c4.353-2.177 5.916-2.129 10.625-1.688Z" fill="#1F1A14"/><path d="M121 79h1l1 14h-2v3h12c-3.549 2.366-4.576 2.109-8.688 1.625l-3.011-.336L119 97v5l-1.563-.5c-3.17-.65-6.21-.562-9.437-.5l2 3c-2.667 1.333-4.167.671-7 0l1-6h-2l-1 2-4-1 1-5c3.734-.879 7.168-1.09 11-1l2-5h-2l-1 3-2-3h2v-8h4l.184 1.863.254 2.45c.08.8.162 1.6.246 2.425.269 2.423.269 2.423 1.316 5.262l2.375-2.5C119 87 119 87 121 87v-8Z" fill="#C7B09B"/><path d="m78 132 .813 1.875C79.956 136.3 79.956 136.3 83 138v2l2-.688c4.184-.435 7.212 1.024 11 2.688v3l-10-1v-2l-8 2c1.228 1.646 1.228 1.646 3 3 2.039-.176 2.039-.176 4-1 4.05-1.35 6.792-.62 11 0v2c-6.676 1.725-12.684 2.256-19.563 2.125l-2.767-.027A806.311 806.311 0 0 1 67 150l-1-3 3-1v-2l3 1v-2c-5.244-1.748-9.473-2.194-15-2v2h-4v-2h3v-2c5.72-.832 11.222-1.12 17-1v-2h2v3h2l-.063-2.938C77 133 77 133 78 132Z" fill="#EFDCCE"/><path d="M150 70c.054 2.709.094 5.416.125 8.125l.05 2.305c.04 4.603-.416 8.235-2.175 12.57-6.11.113-11.952-.104-18-1l1-3c.067-1.561.085-3.125.063-4.688l-.028-2.449L131 80c4.417-1.104 8.474-1.15 13-1 1 1 1 1 1.098 2.848L145 88h2l-.219-2.52-.281-3.293-.281-3.269c-.426-5.675-.426-5.675 1.219-7.606C149 70 149 70 150 70Z" fill="#A79E96"/><path d="M61 93h25l-1 3-5-1v2l4 1-2 1 1.063 2.875C84 105 84 105 83 107h-3l-1-3 .125 3.688c.013 3.53-.525 6.112-2.125 9.312l3 1h-4v2h2v2c-3.508 1.604-6.144 2.22-10 2l2-1v-2l2-2-2-5h5l-.438-1.863-.562-2.45-.563-2.425C73 105 73 105 73 102h4v-4c-1.837-.772-1.837-.772-4-1-1.772 1.354-1.772 1.354-3 3l-1-3 1-2h-9v-2Z" fill="#DEC4A7"/><path d="M149 58v5c-5.35 1.613-10.985 1.378-16.527 1.558-2.032.067-4.064.145-6.096.223l-3.88.133-3.558.124C116 65 116 65 113 64a118.84 118.84 0 0 0-5.324-.316l-3.115-.127-3.249-.12-3.283-.13A2817.61 2817.61 0 0 0 90 63v-2c41.878-3 41.878-3 59-3Z" fill="#938885"/><path d="M122 79h4c.027 1.958.046 3.917.063 5.875l.035 3.305C126 91 126 91 125 93h23l-1 6-3 1v2h-14c0-4 0-4 1-5l-10-1v-3h2l-1-2c-.07-2.04-.084-4.083-.063-6.125l.028-3.32L122 79Z" fill="#E8D4C1"/><path d="m54 101 2 1-.563 2.125c-.603 2.892-.603 2.892.126 5.813.513 3.594-.216 5.733-1.563 9.062h2v3l-4 1-1-3c-3.196-1.065-5.657-1.074-9-1v-1l5-1-16 1v-2l7-2-3-3c7.75-1 7.75-1 10-1l2-2v5l1-1-.625-3.375C47 105 47 105 48.188 103c1.812-1 1.812-1 4-.688L54 103v-2Z" fill="#F3E7E3"/><path d="m45 74 .813 1.938C46.886 78.33 46.886 78.33 50 79l-2 1 3 1 1-2h3v-4h3c1.585 3.17 1.294 6.54 1 10-1 2.5-1 2.5-2 4l-2.125-.563c-3.214-.489-5.71-.1-8.875.563l1 4-3-2v-2c-.626.095-1.253.19-1.898.29-.818.11-1.635.22-2.477.335l-2.46.352L35 90l-2-2 5-2v-2h2v-5h2l1-2h2v-3Z" fill="#4E4536"/><path d="m101.688 44.938 2.449.027L106 45l-1 3 6-2v6h-3l-1 2v-2l-4 2v2c-4.75 1.125-4.75 1.125-7 0v-3l-2 1c-.658 3.03-.658 3.03-1 6H82v-7l2.25.125c2.838-.129 4.338-.696 6.75-2.125v2h2v-2h2l1-3-2-2c2.882-.96 4.699-1.106 7.688-1.063Z" fill="#15120F"/><path d="m90 89 2 1-3 5h4c1.125 3.75 1.125 3.75 0 6h-3l-1-4-1 7h2c1.485 5.128.44 8.65-1.21 13.535-.793 2.473-1.326 4.912-1.79 7.465h-2c-1.621-6.544-2.177-12.596-1.973-19.336C83.002 103.21 82.845 101.3 82 99l-2-1v-3l2.313.313L85 95c1.735-2.392 1.735-2.392 3-5l2-1Z" fill="#545058"/><path d="M17 98v23c-4.504-2.252-5.867-4.535-8.188-8.75l-1.076-1.844C5.603 106.617 4.444 103.323 4 99c4-1 4-1 13-1Z" fill="#E9D5CC"/><path d="m83.43 59.773 3.015.032 3.262.02 3.418.05 3.441.027c2.812.024 5.623.057 8.434.098v1H90v2c.681-.01 1.362-.02 2.064-.032 3.083-.041 6.165-.067 9.249-.093 1.071-.017 2.143-.034 3.248-.05l3.115-.02 2.872-.032C113 63 113 63 116 65l-10 1v3h-3v-3l-3.377.016c-4.158.018-8.316.03-12.474.039-1.795.005-3.59.012-5.386.02-2.589.013-5.178.018-7.767.023l-2.41.015c-4.635 0-9.013-.344-13.586-1.113 1.05-1.488 1.05-1.488 3-3 3.355-.293 3.355-.293 7.188-.188l3.855.083L75 62l-2 1v2l15-1v-2h-9c2-2 2-2 4.43-2.227Z" fill="#5C504C"/><path d="M75 80h12c1.125 10.75 1.125 10.75 0 13H71l1-5h2l1-8Z" fill="#7C6C53"/><path d="m112 130 3 1-1 1 9 1c-3.725 4.123-7.301 6.475-12.313 8.813-.645.31-1.29.622-1.955.943A538.39 538.39 0 0 1 104 145l-1-4h-2v3h-2c-.213-4.468.409-7.823 2-12l2 2 3-1 1-2v3h2v-2h3v-2Z" fill="#ECD7D3"/><path d="M17 63c8.335 1.992 8.335 1.992 10.938 5.938L29 72c1.208 2.558 1.977 3.977 4 6h-4v-2c-4.13.567-4.13.567-8 2l-3 1v-2H5v-1l1.828-.586 2.422-.789 2.39-.773c2.226-.804 4.27-1.75 6.36-2.852l-1.063-1.75c-1.103-2.648-.739-3.582.063-6.25Z" fill="#8D94B3"/><path d="M87 68c2.326 3.634 2.163 6.77 2 11h2v8l-4 1v-8l-3.75.563c-3.013.384-5.35.524-8.25-.563v6l-2 1-1-11 3-1v-2l1.898.035 2.477.028 2.46.035c2.214.047 2.214.047 4.165-1.098.652-2.025.652-2.025 1-4Z" fill="#3E2F1E"/><path d="m112.176 109.121 3.506.147 3.63.17 3.69.158c3 .13 5.999.264 8.998.404-3.875 4.875-3.875 4.875-5 6-2 .04-4 .043-6 0l-1 3h-3v-4h-4l-1 4-1.375-2.438c-1.372-2.65-1.372-2.65-3.625-3.562l-2 2v-2l-6 1c.688-1.938.688-1.938 2-4 3.775-1.094 7.273-1.052 11.176-.879Z" fill="#FBECE3"/><path d="m117 32-3 2c-.577 1.964-.577 1.964-.688 4.125L113 42l7 1v1h-19l2-4c-1.337-2.59-1.337-2.59-3-5v-3c1.895-.196 3.791-.382 5.688-.563l3.199-.316c2.927-.114 5.284.17 8.113.879Z" fill="#837A7F"/><path d="m68 52 2 1 3-1c1.79.855 1.79.855 3.625 2.188l1.852 1.292c1.79 1.787 2.132 3.055 2.523 5.52h8l-1 4H73v-2c-1.75-.027-3.5-.046-5.25-.063l-2.953-.035c-2.455.086-4.459.39-6.797 1.098l2-4 2 1v-2l1.758.219c4.443.528 8.758.896 13.242.781-.983-1.206-.983-1.206-2.848-1.098L68 59v-7Z" fill="#7D7676"/><path d="M118 24c2.553.21 5.082.458 7.625.75l2.063.188c1.976.234 1.976.234 5.312 1.062l2 4h-11v-2l-8-1v2l6-1v3c-6.169.83-12.283 1.108-18.5 1.125l-2.14.014c-5.112-.015-5.112-.015-7.36-1.139v-2h3v2h2v-2h10v2h2l-1-3c3.5-4 3.5-4 8-4Z" fill="#BBC0DB"/><path d="M111 103c3.073-.34 3.073-.34 6.977-.293l2.076.013c2.191.017 4.381.054 6.572.093 1.484.015 2.969.028 4.453.04 3.641.034 7.281.085 10.922.147v2h-6l-1 2v-2h-22l1 4 2 1c-2.667-.142-5.333-.289-8-.438l-2.254-.119c-4.953-.28-9.83-.778-14.746-1.443l-1-3a84.76 84.76 0 0 1 7 2v-2c3.36-1.12 4.635-.82 8 0l2.313.563L109 106l2-3Z" fill="#BAAA9F"/><path d="m65.563 140.313 2.316.238C70 141 70 141 73 143l-1 3-3-2 1 3-3 1v2c-5.569-.48-10.67-1.3-16-3v-6l1 2h5v-2c3.03-.918 5.423-1.043 8.563-.688Z" fill="#EDD5CD"/><path d="M120 43h14c1.354 2.709 1.065 5.01 1 8l-4 1v7l-15 1 4-2v-2l5-1v-3h2l2-4c-2.202-2.202-3.09-2.295-6-3l-3-2Z" fill="#5D5955"/><path d="M121 79h1l1 14h-2v3h12c-3.549 2.366-4.576 2.109-8.688 1.625l-3.011-.336L119 97l-1 4v-6c-1.837-.772-1.837-.772-4-1-1.772 1.354-1.772 1.354-3 3l-2-2 2-7h-2l-1 3-2-3h2v-8h4l.184 1.863.254 2.45c.08.8.162 1.6.246 2.425.269 2.423.269 2.423 1.316 5.262l2.375-2.5C119 87 119 87 121 87v-8Z" fill="#8F837E"/><path d="m33 63 6 4-3 1v2l2 1-2 6h1l1 3 1-3 2-1 2 1-.938 2.25C41.191 81.507 40.523 83.645 40 86v-2h-2l1 3-4 1-.332-2.117-.48-2.758-.458-2.742c-.56-2.727-.56-2.727-3.73-4.383v-2h2c-.348-1.975-.348-1.975-1-4l-2-1c-.625-2.563-.625-2.563-1-5l3 1c.688 2.063.688 2.063 1 4h2l-2-5 1-1Z" fill="#343231"/><path d="M101 132c.263 4.332-.708 7.88-2 12h2v-3h2l1 4c-3.98 1.932-6.528 2.064-10.875 1.438-3.847-.42-6.505-.678-10 1.062-3.618 1.737-5.318 1.521-9.125.5v-1l6-1-5-2v-1l11-1v2h10l-1-3 1-5-1-3c4.875-1 4.875-1 6-1Z" fill="#E7D1CF"/><path d="M113 31h8l-1 2 2 1-1 2 1 1 3-6 2 1v2h2v2h-5v2h3l-1 2-3 1 6 1v1h-19l3-1V31Z" fill="#90888D"/><path d="M46 95h6v3l-1-2-2 1v4l4-1 1 3h-6l1 10h-2l-1-3-3 3-1-8-5 2c-1.033-2.788-1.045-3.868-.063-6.75L38 98h2l1 2 1-2h2v5h3l-1.063-2.875C45 97 45 97 46 95Z" fill="#281F1B"/><path d="M34 102h2l1 5 5-2v6l-5 1 4 2-10 2v2l2.633-.438 3.492-.562 3.445-.563c3.191-.407 6.218-.515 9.43-.437-3.509 2.339-5.84 2.547-10 3.063-5.077.63-5.077.63-10 1.937-1.617-4.852-.095-7.499 2-12 .75-2.318 1.375-4.644 2-7Z" fill="#D7C6BD"/><path d="M29 100h1l1 5 1-5h1c.28 4.57.5 8.508-1.563 12.688-1.634 3.765-1.256 5.399-.437 9.312l-2 2v-3h-2l1 4-4 1 1-5-4-1 1-15h1l1 13 4 1v-6l-2-1 2-2h-2l-1 6h-1v-8l4-1v-2l-2-1h2l1-4Z" fill="#AC8767"/><path d="M111 49c2.343.256 4.678.593 7 1l1 2c-3.215 1.607-6.436 1.057-10 1v7H93v-6l3-1v3h3l-1-2c1.415-.339 2.832-.67 4.25-1l2.39-.563C107 52 107 52 111 52v-3Z" fill="#332D26"/><path d="M97.25 119.438 100 120a117.08 117.08 0 0 0 7-1v6l5 1-1 4h-6v2l-4-1-1-7h-2v6h-1v-8h-4v2l-6 1-1-4 6 2v-2c3-2 3-2 5.25-1.563Z" fill="#EED9D0"/><path d="m30 54 3 1v2l1.875.438C37 58 37 58 39 59l-2 5 3 1-2 2-5-3 1 5h-2l-.688-1.938c-1.165-2.334-1.165-2.334-3.937-2.812L25 64c-.8-3.287-1.097-4.71 0-8l1 2 4-2v-2Z" fill="#92919F"/><path d="M105 65h18l-2 1a69.17 69.17 0 0 0-1 4 206.38 206.38 0 0 1-2 5h-2v3h-3v-2l-2-1h2v-2h-6l1-2h2v-3l-5-2v-1Z" fill="#3C3632"/><path d="M26 52c9.101.191 9.101.191 12.5 3.25 2.843 5.213 3.835 8.716 3.5 14.75l-1 3h-4l-2-6 4 1v-3l-2-1 1-4c-3.726-3.066-3.726-3.066-8.25-3.875-1.941.855-1.941.855-3.75 2.875-3 0-3 0-5-1l2-4h3v-2Z" fill="#A0A2B4"/><path d="M30 47c2.625.938 2.625.938 5 2l-1 4c-5.75.125-5.75.125-8-1v2h-3l-1 4 3 1-3 1v2h-6c-.125-3.375-.125-3.375 0-7l2-2h3l1-3c2.007-1.003 3.833-1.458 6-2l2-1Z" fill="#C5CEF5"/><path d="M124 64h18l-2 1v5h-3l-1 3h-6l-1-2h-2v-6l-3-1Z" fill="#6B6764"/><path d="m0 77 17 2-1 3h-4l9 2v1H5v1H0v-9Z" fill="#9292A1"/><path d="M2 88c1.863.253 3.717.577 5.563.938l3.066.59L13 90v6l5 1-1 2H3c-1.66-7.715-1.66-7.715-2-10l1-1Z" fill="#463A34"/><path d="M19 86h14c-4 2-4 2-7 3l-1 3h2v2l-3 1-2-1-1 8c-2-2-2-2-2.438-4.063L18 96l-3-1 2-4h2v-5Z" fill="#322418"/><path d="m54 101 2 1-.563 2.125c-.603 2.911-.603 2.911.126 5.938.475 3.19.166 4.293-1.563 6.937v-2l-3 1c-3.14-3.413-3.833-6.398-4-11 1.188-2 1.188-2 3-3 2.188.313 2.188.313 4 1v-2Z" fill="#EAE6E0"/><path d="m43 77 2 1c.625 2.563.625 2.563 1 5h-3v4l3-1-1-2h10l-1 3c-1.848.73-1.848.73-4.063 1.188l-2.222.48L46 89l1 4-3-2v-2c-.626.095-1.253.19-1.898.29-.818.11-1.635.22-2.477.335l-2.46.352L35 90l-2-2 5-2v-2h2v-5h2l1-2Z" fill="#685D46"/><path d="m140.188 95.875 3.855.055L147 96l-1 4h-2v2h-14v-4c3.737-2.491 5.745-2.207 10.188-2.125Z" fill="#CCBDB2"/><path d="M112 79h9c.612 7.226.612 7.226-2.375 11C116 92 116 92 114 92c-2-2-2-2-2.195-4.602l.07-3.023.055-3.04L112 79Z" fill="#3A3734"/><path d="M58 88v2c2.915.81 4.461 1.218 7.313.063L67 89v3l4 1c-16.517 1.931-16.517 1.931-24 0l-1-4c4.462-1.806 7.31-2.117 12-1Z" fill="#2D2415"/><path d="M78 104h1c.167 4.921.248 8.503-2 13l3 1h-4v2h2v2c-3.508 1.604-6.144 2.22-10 2l2-1v-2l2-2-2-5h5l-1-7h3l1-3Z" fill="#7C7379"/><path d="M149 58v5c-3.498.875-5.562.874-9 0a123.726 123.726 0 0 0-5.203-.316l-2.969-.127-3.078-.12-3.125-.13c-2.542-.106-5.083-.208-7.625-.307 3.212-1.865 5.848-2.353 9.535-2.633l3.201-.254 3.327-.238 3.337-.262C145.368 58 145.368 58 149 58Z" fill="#C4BABA"/><path d="M52 63c2.084.31 4.167.623 6.25.938l3.516.527L65 65l2.36.379L69 66l1 3 1.563 1.563L73 72v2h-2l-1 2-1-2v6l-4-1 2-8-3.375-.875C60 69 60 69 58 67a126.235 126.235 0 0 0-6-2v-2Z" fill="#15130D"/><path d="M145 63h5c.37 6.4.37 6.4-1.5 9.438L147 74l1 2h-2l1 2a95.33 95.33 0 0 1 .063 5.125l-.028 2.758L147 88h-2l-.684-6.055c-.229-2.019-.229-2.019-1.316-3.945l1-2h-2c.375-2.938.375-2.938 1-6l2-1c.752-1.926.752-1.926 1-4l-1-2Z" fill="#8D8987"/><path d="M49 131c-4.588 2.294-8.241 3.408-13.375 3.875l-2.04.258c-1.983.172-1.983.172-5.585-.133-2.477-2.492-2.477-2.492-4-5 6.89-3.445 17.602-.079 25 1Z" fill="#F0DAD8"/><path d="m79 104 2 1-1 2h3c.34 1.561.671 3.124 1 4.688l.563 2.636c.427 2.613.513 5.034.437 7.676l-9-2c.458-3.47.891-6.674 2-10a298.87 298.87 0 0 0 1-6Z" fill="#ECDAD9"/><path d="m57 118 7 1-1 16h-5l.063-2.875c.01-4.74-.533-9.42-1.063-14.125Z" fill="#080703"/><path d="M134.313 29.438c3.879 2.255 5.737 5.579 7.687 9.562v2h-11l.977-6.836L132 32l-2-2c2-1 2-1 4.313-.563Z" fill="#ABA5A8"/><path d="m148 64-2 1c-.656 2.527-.656 2.527-1 5h-2l-1 6h2l-1 3c-1.813.813-1.813.813-4 1-2.25-.938-2.25-.938-4-2v-2h6v-2h-2v-2h-2v-2h3v-5c2.709-1.354 5.01-1.065 8-1Z" fill="#7D7977"/><path d="M127 65v6l3-1v9h-1l-1-5h-5v2h-3v2h-3v-2h2l-1-3c2.897-8 2.897-8 9-8Z" fill="#47423E"/><path d="M102 79v11h-2v-5l-3 3c-2.438-.625-2.438-.625-5-2-.813-3.125-.813-3.125-1-6 3.734-.879 7.168-1.09 11-1Z" fill="#7C6557"/><path d="m89 105 2 1c-.37 5.75-1.247 9.854-4 15v4h-2c-.896-6.048-1.113-11.89-1-18l2 2 1-3 2-1Z" fill="#232221"/><path d="M113 105c2.417-.054 4.833-.094 7.25-.125l2.066-.05c3.745-.037 6.508.096 9.684 2.175v2c-2.954 1.477-5.652 1.21-8.938 1.25l-3.777.078C116 110 116 110 114.06 108.61 113 107 113 107 113 105Z" fill="#E9D1BC"/><path d="M150 70c.054 2.709.094 5.416.125 8.125l.05 2.305c.04 4.603-.416 8.235-2.175 12.57h-10v-1h8v-2h-2v-2h3l-.219-2.52-.281-3.293-.281-3.269c-.426-5.675-.426-5.675 1.219-7.606C149 70 149 70 150 70Z" fill="#A59B96"/><path d="M54 46c13.69 1.01 13.69 1.01 18 6l-3 3-1-2-3.375.5C61 54 61 54 59 54v-3h-2v-4l-3-1Z" fill="#B2B8D3"/><path d="M81 44h39v5l-1-2h-3l-1 2v-2l-3 1h-7v-2l-24-1v-1Z" fill="#332C2C"/><path d="M138 79c2-.043 4-.04 6 0 1.899 1.899 1.124 4.572 1.133 7.09C145 88 145 88 144 90h2v2h-8l3-1-1-2c-2.025-.652-2.025-.652-4-1h2v-2h2v-5h-2v-2Z" fill="#B6AAA2"/><path d="M136 108h7a287.012 287.012 0 0 1-2.25 4.938l-1.266 2.777C138 118 138 118 135.828 118.816L134 119l1-4-9 2-1-3h3l2-2c2.625.375 2.625.375 5 1l1-5Z" fill="#EADBD5"/><path d="m81 37 1 6c-3.104.087-6.208.14-9.313.188l-2.67.076-2.568.029-2.364.048C62.5 42.918 61.637 41.985 60 40c2.83-1.02 4.281-.947 7.313-.375C72.725 40.175 75.776 37 81 37Z" fill="#7E777E"/><path d="M98 66h5v3h3v-2l6 1-2 1v2c-1.207 1.645-1.207 1.645-3 3-2.262.074-2.262.074-4.688-.313l-2.449-.363L98 73c-1.044-3.133-.934-3.99 0-7Z" fill="#17120E"/><path d="M59 41c1.125.2 1.125.2 2.273.402C67.838 42.535 74.363 43.442 81 44c-3.268 2.179-6.236 3.092-10 4l2 2-3 1c-2.191-1.398-2.191-1.398-4.563-3.375-3.05-2.572-3.05-2.572-6.437-4.625v-2Z" fill="#151513"/><path d="M122 28v3c-6.169.83-12.283 1.108-18.5 1.125l-2.14.014c-5.112-.015-5.112-.015-7.36-1.139v-2h3v2h2v-2h10v2h2v-2c3.735-.575 7.213-1 11-1Z" fill="#DECEC6"/><path d="m24 101 2 4h2v2l-4 1 1 2 4-2 1 3-3 1 1 1c.04 2 .043 4 0 6l-4 1c-1.587-3.174-1.143-6.582-1.125-10.063l-.012-2.26c.01-5.55.01-5.55 1.137-6.677Z" fill="#E1B896"/><path d="M143 48h3c1.316 3.62 2 6.096 2 10-2.525 1.262-4.312 1.099-7.125 1.063l-2.758-.028L136 59v-1h7l-4-1v-2h3v-2l-3-1 3-1 1-3Z" fill="#878582"/><path d="m106 34 1 2 3 1c-1 3-1 3-2 4 3.94 1.149 7.936 1.526 12 2v1h-19l1-3h2l-1-5 3-2Z" fill="#7C7378"/><path d="m66 112 8 1-3 2v2l2 1 1 2-4 1v2l-5 1c-.688-1.813-.688-1.813-1-4l1.5-1.438L67 117c-.23-2.655-.23-2.655-1-5Z" fill="#BDBEC9"/><path d="m68 96 3 2 3-2v2h3v4l-10 3c-1-1-1-1-1.063-4.063L66 98h2v-2Z" fill="#211A15"/><path d="m33 63 6 4-3 1v2l2 1-3 1v3l-2 2-3-1v-2h2c-.348-1.975-.348-1.975-1-4l-2-1c-.625-2.563-.625-2.563-1-5l3 1c.688 2.063.688 2.063 1 4h2l-2-5 1-1Z" fill="#626168"/><path d="m65.688 137.938 3.574.027L72 138l1 2c2.322.407 4.657.744 7 1v2l-3.508-.438-4.617-.562c-.76-.095-1.521-.19-2.305-.29-4.22-.508-8.31-.819-12.57-.71v2h-4v-2h3v-2c3.422-1.14 6.087-1.098 9.688-1.063Z" fill="#F9E6DB"/><path d="M71 84v6c-2.647 1.46-3.894 2-7 2a168.166 168.166 0 0 1-6-2l1-3 2 1c2.02-.606 4.023-1.27 6-2l-5-1-1 2-1-3c4.018-.841 7.018-1.054 11 0Z" fill="#57523A"/><path d="m45 56 2 1c.391 2.063.507 4.094.656 6.188L48 65l2 1h-3v-2h-2l-2 12-2-1 .035-2.45.028-3.237.035-3.2c-.09-2.837-.449-5.357-1.098-8.113h2v2h3v-4Z" fill="#57555C"/><path d="M74 45h2l-1 2-1-2Zm-4 2c3.485-.41 5.107.052 8.313 1.625C81 51 81 51 81.374 54.25L81 57c-4.438-1.395-6.943-3.519-10-7l-1-3Z" fill="#090908"/><path d="M61 140c1.438.115 2.876.242 4.313.375l2.425.21C70 141 70 141 73 143l-1 3-3-2 1 3-3 1v2h-2c-1.625-2-1.625-2-3-4l2-4h-3v-2Z" fill="#E7D1CB"/><path d="M52 93v1l-5 1v8h-3v-7H33c4.95-4.95 12.61-4.162 19-3Z" fill="#88736C"/><path d="m62 70 5 1c.042 2.333.04 4.667 0 7l-1 1 3 1-1-6 2-1v9c-5.563-.484-5.563-.484-7.375-2.625-.834-3.17-.75-6.114-.625-9.375Z" fill="#797379"/><path d="M67 96c.204 5.738.271 10.605-2 16-1.097-3.29-.8-4.713 0-8l-3.438-.438C58 103 58 103 57 102a99.984 99.984 0 0 1 0-5h2v5h3v-3l-2-2c3-1 3-1 7-1Z" fill="#B8A79B"/><path d="M72 88c5.802-.363 9.64.743 15 3v2H71l1-5Z" fill="#935145"/><path d="M71 74h2l-.125 3.75c-.018 3.355.486 5.3 2.125 8.25l-1 3-2-1v4l-4-1 2-2c.167-2.584.167-2.584 0-5h-6v-2c3-1 3-1 6 0l-.063-2.875C70 76 70 76 71 74Z" fill="#37322B"/><path d="M70.563 103.938 73 104c1.604 3.508 2.22 6.144 2 10l-7-1c-.879-6.152-.879-6.152-1-8 1-1 1-1 3.563-1.063Z" fill="#3D383A"/><path d="M89 115h4v2l9-1c-3.125 2.645-6.088 3.844-10 5v2l-5-1 2-7Z" fill="#F5E9E4"/><path d="M55 97h2l1 5 7 2-2 5h-6l-1-2-2-1 .563-1.875c.674-2.167.674-2.167-.563-4.125h2l-1-3Z" fill="#3A3028"/><path d="M82 53h8v7h-8v-7Z" fill="#2E251B"/><path d="m104.625 92.938 2.477.027L109 93l-1 5c-3 1-3 1-6 0l-1 2-4-1c.375-2.438.375-2.438 1-5 2.405-1.203 3.95-1.1 6.625-1.063Z" fill="#DED5C9"/><path d="M95 89c2.125.938 2.125.938 4 2l-1 3a99.485 99.485 0 0 0 0 5l6-1v5c-7.875-.875-7.875-.875-9-2a74.456 74.456 0 0 1-.063-4.563l.028-2.503L95 92h-2v-2l2-1Z" fill="#52403F"/><path d="M82 80h5l1 11-5-1c-1.158-3.473-1.069-6.36-1-10Z" fill="#7B5839"/><path d="M93 26h2v2h15l1 3h-2v-2H99v2h-2v-2h-3v2h2v2h-2l-1 3-3-1 3-9Z" fill="#6E6460"/><path d="M94.625 107.875c3.874.042 7.557.489 11.375 1.125l-1 2c-2.23.559-2.23.559-5 1l-2.676.535L90 114a99.984 99.984 0 0 1 0-5c1-1 1-1 4.625-1.125Z" fill="#F0DBD1"/><path d="M22 60h2l.75 1.75c1.159 2.356 1.159 2.356 3.25 4.125 2.39 2.54 3.092 4.794 4 8.125-3.356-1.389-5.073-2.917-7-6v-2c-4.538-1.816-4.538-1.816-9-1v-3h6v-2Z" fill="#A8ADC3"/><path d="M21 105h1v15l3 1-1 3v-2h-9l2-1v-2l2-1-.125-2.563c.14-3.86.953-6.774 2.125-10.437Z" fill="#A49C9A"/><path d="m133 51 1 4 2-1c2-.04 4-.043 6 0l-3 1v2l4-1v2l-12 1v-7l2-1Z" fill="#817D77"/><path d="m109 53 12 1c-4 2-4 2-6 2l1 4h-7v-7Z" fill="#433E37"/><path d="m77 32-1 7c-4.327 2.23-7.284 1.925-12 1 2-2 2-2 5.125-2.125L72 38l-1-5c4.875-1 4.875-1 6-1Z" fill="#BCC1DC"/><path d="m91.625 145.438 2.477.308L96 146v2c-6.817 1.788-12.965 2.237-20 2v-1l1.898-.621 2.477-.816 2.46-.81c5.13-1.786 5.13-1.786 8.79-1.315Z" fill="#F0DDE1"/><path d="M22 105h1l.184 2.809.253 3.629.247 3.62c-.007 2.828-.007 2.828 1.316 3.942 1.666.04 3.334.043 5 0l1 3-2 2v-3h-2l1 4-4 1 1-5-4-1 1-15Z" fill="#1F1510"/><path d="m12.75 97.938 2.422.027L17 98v5l-1-2H7l1 4-3-1-1-5c2.995-.872 5.636-1.108 8.75-1.063Z" fill="#AB9D93"/><path d="M131 80h1v8h2l1-3 1 4 5-1v3c-2.75.917-4.36 1.109-7.188 1.063L130 92l1-3c.067-1.561.085-3.125.063-4.688l-.028-2.449L131 80Z" fill="#B9A095"/><path d="M127 65h6v2l2 1-1 4-4 1-1-2h-2v-6Z" fill="#5E5957"/><path d="M105 65h11l-1 2 1 3h-3l1 3h-7l1-2h2v-3l-5-2v-1Z" fill="#2D2823"/><path d="m32 55 1 2c1.946.59 1.946.59 4 1l2 1-2 5 3 1-2 2c-4.228-2.907-4.228-2.907-6-5-.375-3.813-.375-3.813 0-7Z" fill="#7E7F86"/><path d="M138 43h6l1 5h-2l-1 4-6 1 2-1c.61-1.857.61-1.857 1-4l1-4-2-1Z" fill="#757572"/><path d="M54 117h3c.223 2.06.428 4.124.625 6.188l.352 3.48C58 130.033 57.474 132.012 56 135h-2l1-11h-7v-1l8-1v-3h-2v-2Z" fill="#372F2D"/><path d="M93 122h4v8h-1v-6h-2v5h-8v-2l3-1-3-1 7-1v-2Z" fill="#F8E4DC"/><path d="M17 111v10c-4.182-2.091-4.997-2.993-7-7v-2c2-1 2-1 7-1Z" fill="#F0E1E0"/><path d="M39 46h5l-2 7-2-1-1 4-3-1v-6l3-1v-2Z" fill="#BDC5E6"/><path d="M53 137v3h-3v2c-3.272 1.073-5.43.893-8.75.063l-2.422-.59L37 141v-1l1.898-.402 2.477-.536 2.46-.527C50.329 136.93 50.329 136.93 53 137Z" fill="#F9E8DE"/><path d="M78 104h1c.167 4.921.248 8.503-2 13l3 1h-5l-1-11h3l1-3Z" fill="#B0978A"/><path d="M108 80h4l.184 1.898.254 2.477.246 2.46c.207 2.208.207 2.208 1.316 4.165h-3v-3h-2l-1 3-2-3h2v-8Z" fill="#D9D5D8"/><path d="M126 79h1l.25 3.875c.209 2.178.209 2.178.75 4.125 1.92 1.59 1.92 1.59 4 2l-2 1v2h8v1h-13l1-14Z" fill="#A3776C"/><path d="M26 88h4v2h-2c.276 1.94.276 1.94 1 4l3 2-2 2c-1.673-.3-3.34-.636-5-1l-3 1v-4h5v-2h-2l1-4Z" fill="#7C5D4C"/><path d="m62 129 1 2c2.527.656 2.527.656 5 1v2l-3 1-1 2 3 1c-2.995.998-4.173 1.007-7.188.563L56 138c2-3 2-3 4.125-3.688L62 134v-5Z" fill="#C1B2B3"/><path d="m75.285 101.902 2.778.035 2.785.028L83 102l1 3-1 2h-3v-2h-2l-1 2h-3l-2-4c1-1 1-1 3.285-1.098Z" fill="#CDB4A4"/><path d="M69 66h7l-1 9h-2l-.25-2.375c-.478-2.772-.478-2.772-2.813-3.938L68 68l1-2Z" fill="#090402"/><path d="M52 138h3l1 3h-3l-2 5c-3.719-.507-6.735-1.116-10-3v-2l9 1v-2l2-2Z" fill="#F2DBD3"/><path d="M63 123h12v2l-1.938.375L71 126l-1 2h-6l-1 2v-7Z" fill="#EEE0DB"/><path d="m103 112-2 1 1 2c-3.135 1.858-5.375 2.201-9 2v-2l-3-1c1.6-.532 3.206-1.05 4.813-1.563l2.707-.878C100 111 100 111 103 112Zm-1 1 3 1Z" fill="#E6D1CB"/><path d="M20 89h4v4l3 1-3 1-2-1-1 8c-2-2-2-2-2.188-4.563C19 95 19 95 20 94c.04-1.666.043-3.334 0-5Z" fill="#5A3B33"/><path d="M45 84h10l-1 3c-1.848.73-1.848.73-4.063 1.188l-2.222.48L46 89l1 4-3-2v-3h2l-1-4Z" fill="#6C5F44"/><path d="M20 64c4.036.897 5.604 1.38 7.875 4.938C29 72 29 72 29 75l-4-1 1-1-4-2v-3c-.95-2.15-.95-2.15-2-4Z" fill="#797B8A"/><path d="M86 143c-.188 1.875-.188 1.875-1 4-3.888 2.333-6.68 2.004-11 1v-1l6-1-5-2v-1c7.625-1.125 7.625-1.125 11 0Z" fill="#BEA69A"/><path d="M55 123c1.033 2.788 1.045 3.868.063 6.75L54 132c-1.938-.313-1.938-.313-4-1l-1-3 3 1 1-1-7-2c3.188-2.125 5.265-2.502 9-3Z" fill="#E9D6D3"/><path d="M64 105c.981 3.053.981 4.947 0 8-2.813.25-2.813.25-6 0-1.938-1.813-1.938-1.813-3-4l1-3 1 3h6l1-4Z" fill="#090503"/><path d="M105 105v2l3 1c-5.936.893-11.07.97-17 0l-1-3a84.76 84.76 0 0 1 7 2v-2c2.862-1.43 4.934-.6 8 0Z" fill="#D5BEA6"/><path d="M119 97h11l-2 1v4l-9-1v-4Z" fill="#D3BAA1"/><path d="M84 77h3v2h4v8l-4 1-.586-6.152L86 80l-2-1v-2Z" fill="#3D2011"/><path d="M122 79h4v10h-4V79Z" fill="#E4E0E8"/><path d="M52 63a813.6 813.6 0 0 1 6.313.875l3.55.492C65 65 65 65 68 67h-2l1 3c-6.75-.75-6.75-.75-9-3a126.235 126.235 0 0 0-6-2v-2Z" fill="#110B09"/><path d="m64.355 61.707 3.832.105 3.856.083L75 62l-2 1v2H58c3-3 3-3 6.355-3.293Z" fill="#655A57"/><path d="m68 52 2 1 3-1 1 3c.833 2.167.833 2.167 3 3-1 1-1 1-2.848 1.098L68 59v-7Z" fill="#9697A6"/><path d="M86 139c1.996.234 1.996.234 4.438.75l2.433.484C95 141 95 141 97 144c-2.995.998-4.173 1.007-7.188.563L86 144c-.563-1.938-.563-1.938-1-4l1-1Z" fill="#F3DAD7"/><path d="M102 80h1v8l2 1c-2.625 4.875-2.625 4.875-6 6l-2-1c.281-1.481.575-2.96.875-4.438l.492-2.496L99 85l2-1-1 6h2l-1-3c.278-2.34.605-4.676 1-7Z" fill="#9C7E7D"/><path d="M22 78h12l1 5H25l-1-3h-2v-2Z" fill="#8991AB"/><path d="M140 59v1h-5v2h-17c6.974-3.487 14.32-3.122 22-3Z" fill="#B0A6A3"/><path d="m127 32 3 1c1.101 3.303.95 4.716 0 8-2.957 1.478-5.742 1.06-9 1 1.964-1.506 3.783-2.891 6-4h-3v-2h5v-2h-2v-2Z" fill="#9F979C"/><path d="M82 124v5c-2.525 1.262-4.312 1.099-7.125 1.063l-2.758-.028L70 130l1-2c2.314-.73 4.648-1.401 7-2l-2-1c2.076-.553 3.844-1 6-1Z" fill="#F3DDD6"/><path d="m90 89 2 1-3 5h4c1.125 3.75 1.125 3.75 0 6h-3v-4l-4-1c.313-2.375.313-2.375 1-5l3-2Z" fill="#3B3035"/><path d="M127 65v6l3-1v9h-1l-1-5-5-1 2-1c-.276-1.94-.276-1.94-1-4l-3-2c2-1 2-1 6-1Z" fill="#56514D"/><path d="M67 53c1.063 1.875 1.063 1.875 2 4l-1 2c5.17-.406 5.17-.406 10-2l-1 4c-1.937.081-3.875.14-5.813.188l-3.269.105C65 61 65 61 63.113 59.488L62 58l3-3v3l2 1v-6Z" fill="#57555C"/><path d="m26 52 8 1-2 1-1 2-3 1-2 2c-3 0-3 0-5-1l2-4h3v-2Z" fill="#ABB0CD"/><path d="M49 44c1.125 1.688 1.125 1.688 2 4-.777 2.51-1.828 4.657-3 7h-2v-3h2l-1-4-3 3-2-1v-2h2v-2h4l1-2Z" fill="#AFB9D7"/><path d="m45 74 .813 1.938C46.886 78.33 46.886 78.33 50 79l-2 1 .563 1.875C49 84 49 84 48 86h-2l-1 2-2-1v-4h3l-2-2c.375-3.625.375-3.625 1-7Z" fill="#474139"/><path d="M96 134c.75 2 .75 2 1 4-1 1-1 1-3.563 1.063L91 139v-2l-3-1c1-2 1-2 2.875-2.688C93 133 93 133 96 134Z" fill="#F3D8D3"/><path d="M79 130h2v3h3v5h5c-3 2-3 2-6 2-2.188-1.625-2.188-1.625-4-4-.25-3.25-.25-3.25 0-6Z" fill="#DAC5BD"/><path d="M84 107h1l1.367 6.055c.538 2.152.538 2.152 2.633 3.945l-1 2.875c-1.102 2.896-1.102 2.896-1 5.125h-2c-.896-6.048-1.113-11.89-1-18Z" fill="#161211"/><path d="m59 75 2 1v9l2.875-.125C67 85 67 85 69 87c-1.456.363-2.915.715-4.375 1.063l-2.46.597C60 89 60 89 58 88c-.027-1.98-.046-3.958-.063-5.938l-.035-3.34C58 76 58 76 59 75Z" fill="#383222"/><path d="m35 49-1 4-10-1v-4c4.41-1.026 6.926-1.037 11 1Z" fill="#C7D1FA"/><path d="M61 45v1h-7l-1 7-2-1a108.817 108.817 0 0 1-1-7c3.924-2.825 6.68-1.496 11 0Z" fill="#C4CFF5"/><path d="M46 95h6v3l-1-2-2 1v4l4-1 1 3h-7c-.73-1.977-1.394-3.98-2-6l1-2Z" fill="#392822"/><path d="M104 87h2l2 3 1-2h2l-1 7-1-2-6 1 1-7Z" fill="#6C4543"/><path d="M144 72c2.036 4.072 3.122 6.511 3.063 11.125l-.028 2.758L147 88h-2l-.684-6.055c-.229-2.019-.229-2.019-1.316-3.945l1-2h-2c1-3 1-3 2-4Z" fill="#9A8E8C"/><path d="M45 64h2v2h3v2h2l1 6-2 1c-1.125-3.75-1.125-3.75 0-6h-3l1 3h-2l-1-4h-2l1-4Z" fill="#A0A2B0"/><path d="M31 59c2.296 3.445 2.54 5.938 3 10h-2l-.688-1.938c-1.165-2.334-1.165-2.334-3.937-2.812L25 64v-3h5l1-2Z" fill="#8D8C93"/><path d="m124 52 1 3-5 1v2l-4 1-1-3 2-1-4-2 11-1Z" fill="#524F46"/><path d="m59 123 3 1-.098 5.957c.015 2.246.015 2.246 1.098 5.043h-5l1-12Z" fill="#191712"/><path d="M95 119c2.5 1.375 2.5 1.375 5 3v2h-2v6h-1v-8h-4v2l-6 1-1-4 6 2v-2l3-2Z" fill="#CBB9B4"/><path d="m54 87 2 5h-9l-1-3c5.75-2 5.75-2 8-2Z" fill="#423D28"/><path d="M74 130h5l-2 9h-2v-3l-3-1 2-5Z" fill="#E7D7BD"/><path d="M16 122h8l1 5-5 1-4-6Z" fill="#DCC9C6"/><path d="M115 111h7l-3 1-1 3h-4l-2 4-3-6h6v-2Z" fill="#F6E4DC"/><path d="m52 104 1 7-5-1-1-5c2-1 2-1 5-1Z" fill="#818493"/><path d="M38 72c3 1 3 1 4.188 3.063L43 77l-4 1v5c-2-1-2-1-3.313-3.813C35 76 35 76 36.376 73.626L38 72Z" fill="#7B7B82"/><path d="m106 67 6 1-2 1v2c-1.375 1.625-1.375 1.625-3 3h-2l-1-2-2-1 1-2h3v-2Z" fill="#201B18"/><path d="m59 41 12 2-5 5-2.375-1.938C61.205 44.02 61.205 44.02 59 43v-2Z" fill="#1F1E1A"/><path d="M87 33v3l-3 2v2l-4-1 1-2-5 2 1-5 1 2 2.875-1C84 34 84 34 86 34l1-1Z" fill="#CBD2EA"/><path d="M4 90h6c.563 1.938.563 1.938 1 4-1 1-1 1-4.063 1.063L4 95v-5Z" fill="#3A261F"/><path d="m98 80-.938 1.813C95.898 84.09 95.898 84.09 95 87l-3-1-1-6c4.75-1.125 4.75-1.125 7 0Z" fill="#74624D"/><path d="M139 73h3v3h2l-1 3c-1.813.813-1.813.813-4 1-2.25-.938-2.25-.938-4-2v-2h6v-2l-2-1Z" fill="#8C847C"/><path d="m62 59 1.828.219 2.422.281 2.39.281c2.629.28 2.629.28 6.36.219v2l-2.703.184-3.547.254-3.516.246C62.69 62.932 60.44 63.28 58 64l2-4 2 1v-2Z" fill="#BAB3B0"/><path d="M54 47h3l1 8h-2l-1-2-3 3-2-3 1.438-1.313c1.799-1.71 1.799-1.71 2.562-4.687Z" fill="#9A9DB2"/><path d="M66 106h2l1 6-2 1 1 5h-3l-1 2 .563-2.313c.665-2.777.665-2.777-.563-5.687.938-3.188.938-3.188 2-6Z" fill="#231B1B"/><path d="M135 105v3h-2l1 4-4-1v-2h2v-2h-8c3.634-2.326 6.77-2.163 11-2Z" fill="#EFDCCE"/><path d="M7 101h9v5H9v-3l5-1H7v-1Z" fill="#D0BBA4"/><path d="M94 95h1l1 7-8 2v-8l3 1-1 4h3l-.063-2.438C93 96 93 96 94 95Z" fill="#D4C6B3"/><path d="M80 95c6.75.875 6.75.875 9 2l-1 3h-4l-2 2v-3l-2-1v-3Z" fill="#7E716C"/><path d="M54 66h2v2l2 1 1 3h-2v2h-3a176.79 176.79 0 0 1-1-7l1-1Z" fill="#94939E"/><path d="M68.809 39.844c2.37.31 2.37.31 5.191-.844v2c-3.776 2.518-6.564 2.638-11 2-2-1.5-2-1.5-3-3 2.991-1.496 5.57-.626 8.809-.156Z" fill="#746A6D"/><path d="M27 121c3.273 0 5.847.3 9 1v2c-3.402 2.094-6.053 2.18-10 2l1-5Z" fill="#7A737A"/><path d="m110 105 .75 1.938c1.216 2.552 1.216 2.552 5.25 3.062l-16-1v-1l2.25-.438c4.209-.577 4.209-.577 7.75-2.562Z" fill="#C4B0A1"/><path d="m74 96 10 1-2 2v3h-5v-4h-3v-2Z" fill="#DCC6A9"/><path d="m118 94 1 2-3 3-1-4v3h-6v-2h3l-1-2c3.116-1.039 4.026-1.09 7 0Z" fill="#F0DAC6"/><path d="M111 47h12v3h-11l-1-3Z" fill="#56524F"/><path d="m95 22 .555 1.953c1.353 2.421 1.353 2.421 4.703 2.656l3.867.141 3.883.172L111 27v1H95v-2l-4 1 4-5Z" fill="#C0CCF2"/><path d="M52 133c2 2 2 2 2 4h-7v-2l-2-1c1.454.03 1.454.03 2.938.063 2.937.293 2.937.293 4.062-1.063Zm-7 2v2l-4 1v-2c2-1 2-1 4-1Z" fill="#EFD7D2"/><path d="M27 96c0 3 0 3-1.375 4.5L24 102l-2 3-3-1v-2h2l.313-1.875C22.277 97.141 23.835 96 27 96Z" fill="#F2DBCD"/><path d="m0 80 7 2v2c-2 2-2 2-4.625 2.125L0 86v-6Z" fill="#5F5D5F"/><path d="m56 66 9 1-3 2-.5 2.063L61 73l-3 1-.438-2.313C57.038 68.918 57.038 68.918 56 66Z" fill="#403C38"/><path d="M94 124h2v6l2 1-13-1v-1c6.75-1.125 6.75-1.125 9 0v-5Z" fill="#E6CFC5"/><path d="m48 110 7 1v6l-1-2-3 1c-3-3.75-3-3.75-3-6Z" fill="#D9D2BE"/><path d="m42 88 3 1-1 4-9 1 2-1v-3l1.938-.438C40.974 89.19 40.974 89.19 42 88Z" fill="#332C1C"/><path d="M53 55c3.125.375 3.125.375 6 1v3h3v2l-4 1-2-3c-2.552-1.205-2.552-1.205-5-2l2-2Z" fill="#565153"/><path d="M29.75 128.813c3.487.082 6.825.502 10.25 1.187v1c-1.728.197-3.458.382-5.188.563l-2.917.316c-2.837.119-5.15-.201-7.895-.879 2-2 2-2 5.75-2.188Z" fill="#F7E2E0"/><path d="M78 120h6l2 6-4 1v-3l-3-1-1-3Z" fill="#D6C2BE"/><path d="M114 107h8v1l6 1v1c-1.958.027-3.917.046-5.875.063l-3.305.035C116 110 116 110 114 109v-2Z" fill="#DDC4AE"/><path d="m48 96 1.813.5c2.3.611 2.3.611 5.187.5l1 3-7 1-1-5Z" fill="#B9AB9B"/><path d="M73 75h2v11l-2 1c-.194-1.812-.38-3.624-.563-5.438l-.316-3.058L72 76l1-1Z" fill="#382113"/><path d="M72 82c1.563 1.813 1.563 1.813 3 4l-1 3-2-1v4l-4-1 2-2c.366-1.994.701-3.995 1-6l1-1Z" fill="#473723"/><path d="M21 73c8.35.35 8.35.35 11.063 3.063L33 78h-4v-2l-2.75.625c-3.36.388-4.49.18-7.25-1.625h2v-2Z" fill="#8589A2"/><path d="M146 54v5h-10v-1h7l-4-1v-2c4.75-1 4.75-1 7-1Z" fill="#94908D"/><path d="m112 126-1 4c-6.75-.75-6.75-.75-9-3 3.38-1.04 6.478-1.08 10-1Z" fill="#E1C9C1"/><path d="m68 96 2 2c-.375 2.125-.375 2.125-1 4l3 2a88.406 88.406 0 0 1-5 1c-1-1-1-1-1.063-4.063L66 98h2v-2Z" fill="#17100C"/><path d="m46 93-1 2c-3.984 1.172-7.874 1.08-12 1 2.277-2.277 3.413-2.521 6.5-3.188l2.406-.542C44 92 44 92 46 93Z" fill="#A28C80"/><path d="M144 88h5l-1 5h-10v-1h8v-2h-2v-2Z" fill="#C19795"/><path d="M112 62c8.571-.286 8.571-.286 12 2v1c-8.571.286-8.571.286-12-2v-1Z" fill="#887E7C"/><path d="M134.563 29.813C137 31 137 31 138 33l-2 1v3h-2l-.875-2.375c-.974-2.722-.974-2.722-3.125-4.625 2-1 2-1 4.563-.188Z" fill="#A49BA1"/><path d="M122 28v3h-11v-2c3.735-.575 7.213-1 11-1Z" fill="#E8DBCE"/><path d="m56 110 2 2c1.988.398 3.99.738 6 1-1.125 1.563-1.125 1.563-3 3-3.188-.313-3.188-.313-6-1l1-5Z" fill="#21201B"/><path d="m79 104 2 1-1 2h3v8l-1-4-4-1 1-6Z" fill="#F9F0E3"/><path d="M84 80h3v8h-3v-8Z" fill="#827361"/><path d="m100 74 4 1v2l2 1c-1.813 1.063-1.813 1.063-4 2l-3-1 1-5Z" fill="#4D4131"/><path d="M90 73h7v2l3 1h-6v-2h-2v3l2 1-4-1v-4Z" fill="#291F14"/><path d="M39 51c2.342 1.511 3.771 2.461 4.875 5.063L44 58l-2 2v-2l-4-1 1-6Z" fill="#8D8EA2"/><path d="M95 38c1.125 3.75 1.125 3.75 0 6h-7c1-2 1-2 3-3a249.263 249.263 0 0 0 4-3Z" fill="#6D6668"/><path d="M125 27h9v3h-10l1-3Z" fill="#E2D3D0"/><path d="M72 142c2.25-.313 2.25-.313 5 0 2.313 2.5 2.313 2.5 4 5l-8-1-1-4Z" fill="#F5DDC4"/><path d="M42.043 125.926 48 127v2H37c3-3 3-3 5.043-3.074Z" fill="#F2DBD7"/><path d="m114.625 121.938 2.477.027L119 122l-1 3h-10v-2c2.405-1.203 3.95-1.1 6.625-1.063Z" fill="#E0CCC6"/><path d="M90 91h6l-2 5-5-1 1-4Z" fill="#A08A83"/><path d="m78 90 9 1v2h-9v-3Z" fill="#96675A"/><path d="m43 68 2 4 3 1c.688 2.063.688 2.063 1 4h-6v-9Z" fill="#9D9CA7"/><path d="M94 53h2l1 7h-4c-.043-2-.04-4 0-6l1-1Z" fill="#32291F"/><path d="M20 55c2 1 2 1 3 3l2 2h-3v2h-4v-4h2v-3Z" fill="#B9C2E1"/><path d="M125 52h3v6h-5v-3h2v-3Z" fill="#69635C"/><path d="m40 121-1 5-6-1 3-1v-2l-3-1c3.133-1.044 3.99-.934 7 0Z" fill="#D0BFBF"/><path d="m53 115 1 4h2v3l-4 1-1-6h2v-2Z" fill="#E2E1E1"/><path d="m109 110-4 5v-2l-6 1c.688-1.938.688-1.938 2-4 3.294-1.098 4.664-1.112 8 0Z" fill="#F7E8DF"/><path d="M40 105h2v6l-5-1c1.875-3.875 1.875-3.875 3-5Z" fill="#B7ADA3"/><path d="M55 75h3c.93 2.606 1.15 3.642.063 6.25L57 83v-2l-3-1 1-5Z" fill="#757073"/><path d="M136 61h13v2c-4.845 1.514-8.26.366-13-1v-1Z" fill="#AFA9A8"/><path d="m62 47 6 1-3 5-4-2 1-4Z" fill="#999FBB"/><path d="m112 135 7 1c-1.25 1.5-1.25 1.5-3 3h-4v-4Z" fill="#F1DEDC"/><path d="m66 112 8 1-3 2-1 3-3-1-1-5Z" fill="#A5AFCB"/><path d="M27 110c3 0 3 0 5 1-1.125 2.972-2.223 5.334-4 8v-6l-2-1 1-2Z" fill="#C99D7A"/><path d="M21 105h1c.027 1.437.046 2.875.063 4.313l.035 2.425C22 114 22 114 21 117h-2c.14-1.813.287-3.625.438-5.438.08-1.009.162-2.018.246-3.058C20 106 20 106 21 105Z" fill="#D6CEC7"/><path d="m83 99 5 1v4l-5-1v-4Z" fill="#3A2D2C"/><path d="m110 90 7 2-5 5-3-2 1-5Z" fill="#C1AA8F"/><path d="M10 90h3v6H4v-1l6-1v-4Z" fill="#573731"/><path d="m43 77 2 1c.625 2.563.625 2.563 1 5h-5l-1-4h2l1-2Z" fill="#737078"/><path d="M19 76h10v2l4 1c-9.41.369-9.41.369-14-2v-1Z" fill="#5B6076"/><path d="M16 73c-5.32 3.41-9.055 3.096-15 2 3-2 3-2 5-2v2l3.313-1.563C13 72 13 72 16 73Z" fill="#BFC7EF"/><path d="M44 68h2l1 4h2l1 6-3-1h2l-1-4-4-1v-4Z" fill="#6E6E77"/><path d="m35 67 6 1v5h-4l-2-6Z" fill="#9D9EAE"/><path d="M120 43h11v2c-5.957 1.074-5.957 1.074-8 1l-3-3Z" fill="#524D4C"/><path d="m120 45-1 4v-2h-3l-1 2v-2l-3-1c3.067-1.862 4.597-2.215 8-1Z" fill="#353331"/><path d="M94.063 107.938 97 108l-1 2-3-1v3l2 1-5 1a99.984 99.984 0 0 1 0-5c1-1 1-1 4.063-1.063Z" fill="#F5E9E2"/><path d="M104 98v5l-8-1c2.426-2.657 4.24-4 8-4Z" fill="#7B6D60"/><path d="M122 89h4l-1 7h-4v-3h2l-1-4Z" fill="#E1CEA3"/><path d="m9 86 10 2-1 3-10-2 1-3Z" fill="#090B03"/><path d="m104 71 1 3 2 1H97l-1-3 8 1v-2Z" fill="#373026"/><path d="m67 49 5 2-2 4-2-2-3 1c.875-3.875.875-3.875 2-5Z" fill="#C8D1E4"/><path d="m48 118 1 4c-4.554.37-4.554.37-6.813-1.5L41 119l7-1Z" fill="#DAC6C6"/><path d="M78 104h1v8h-3l1-4-3-1h3l1-3Z" fill="#867165"/><path d="M44 96v2h-2l-1 3-1-3h-2l-1 2-1-3c2.892-.826 4.887-1 8-1Z" fill="#E2C6A7"/><path d="M80 82c2.139 2.139 2.427 3.133 3 6-4.75 1.125-4.75 1.125-7 0l3-2c.724-2.06.724-2.06 1-4Z" fill="#8D7F63"/><path d="M103 80h3v7l-3 1v-8Z" fill="#553728"/><path d="M52 79h2l-1 5-6-1 1-2h3l1-2Z" fill="#544B4A"/><path d="m75 80 3 1a108.817 108.817 0 0 1-1 7l-2 1v-9Z" fill="#705E46"/><path d="m77 49 4 2v6c-3.013-1.507-3.61-4.032-5-7l1-1Z" fill="#1B1813"/><path d="M39 46h5l-2 7-2-1c-.625-3.063-.625-3.063-1-6Z" fill="#C1CCF0"/><path d="m68 142 5 1-1 3-3-2 1 3h-3l1-5Z" fill="#D9C3AF"/><path d="m41 141 8 1-1 4-7-3v-2Z" fill="#C7AD99"/><path d="M32 135h5v4l-5-1v-3Z" fill="#D7C1BE"/><path d="m100 132 1 4-4 1-2-4 5-1Z" fill="#DFC5BB"/><path d="m135 107 2 4-3 3-4-2h4l-1-4 2-1Z" fill="#F6E9E3"/><path d="m67 96-1 5h-3c-1.688-2-1.688-2-3-4 3-1 3-1 7-1Z" fill="#E0CBB2"/><path d="M70 95c6.625-.25 6.625-.25 10 2l-3.313-.188c-3.608-.168-3.608-.168-5.624 1.688L70 100l-1-3 1-2Z" fill="#BB9F8A"/><path d="M141 88h3v2h2v2h-8l3-1v-3Z" fill="#C6B7AA"/><path d="M71 84v2l-9-1-1 2-1-3c4.018-.841 7.018-1.054 11 0Z" fill="#756A55"/><path d="m67 72 3 1-.5 1.813c-.611 2.3-.611 2.3-.5 5.187l-4-1a84.76 84.76 0 0 1 2-7Z" fill="#3D3639"/><path d="M127 65v6h-2l-1-3-3-2c2-1 2-1 6-1Z" fill="#4E4945"/><path d="M90 66h7l-1 3-2-1-1 4v-4h-3v-2Z" fill="#130F09"/><path d="M45 48h2l1 4h-2v3h-2c-.043-2-.04-4 0-6l1-1Z" fill="#868CA1"/><path d="m108 41 1.5.438c3.478.782 6.96 1.149 10.5 1.562v1h-12v-3Z" fill="#766F70"/><path d="m98 32 4 2c0 3 0 3-1 5l-6-4 3-3Z" fill="#6F666C"/><path d="M54 144h2v3h5v2l-7-1v-4Z" fill="#E3CCC5"/><path d="M96 142v3l-6-1v-2c2.49-1.245 3.41-.777 6 0Z" fill="#FAE0DB"/><path d="M96 134v2l-8 1 1-3c2.944-1.178 3.9-1.033 7 0Z" fill="#F8E0CE"/><path d="m90 117 1 2 3 1-2 1v2l-4-1 2-5Z" fill="#E6CFCD"/><path d="M16 106h1v5l-7 1 2-3h3l1-3Z" fill="#C9B6AE"/><path d="M90 102h8c-1.688 1.563-1.688 1.563-4 3-2.75-.313-2.75-.313-5-1l1-2Z" fill="#FAF4DB"/><path d="m142 79 3 1v8l-2-1c-.594-2.649-.742-5.292-1-8Z" fill="#BBB1A9"/><path d="m102 117-9 3-1-2c4.108-1.587 5.592-2.102 10-1Z" fill="#FAE3DC"/><path d="M131 98h8v2l-7 1-1-3Z" fill="#FBECD2"/><path d="M89 73v6h-2v-2h-3v-2c3.875-2 3.875-2 5-2Z" fill="#473629"/><path d="M25 70c2.688 1.438 2.688 1.438 5 3l-1 2-4-1 1-1-4-2 3-1Z" fill="#575566"/><path d="m87 68 2 4c-2 3-2 3-4.625 3.688L82 76l1.938-1.75C85.981 72.02 86.582 70.926 87 68Z" fill="#2B2117"/><path d="m33 63 6 4-3 1-1 2-3-6 1-1Z" fill="#42424B"/><path d="M131 52h2l1 7h-3v-7Z" fill="#726C67"/></svg>