<svg xmlns="http://www.w3.org/2000/svg" width="426" height="426"><path fill="#070908" d="M156 28c6.014 3.971 9.917 9.59 14.195 15.305 2.996 3.986 6.143 7.84 9.305 11.695 3.927 4.801 7.802 9.63 11.563 14.563a708.562 708.562 0 0 0 10.875 13.874c3.9 4.856 7.78 9.725 11.625 14.626l1.358 1.73c1.829 2.333 3.656 4.666 5.482 7l2.839 3.629c.873 1.114 1.745 2.23 2.616 3.346a159.95 159.95 0 0 0 2.609 3.24C230 119 230 119 231.77 121.855c3.086 4.564 5.264 7.684 10.785 8.977 3.513.12 6.896.074 10.397-.176 3.8-.267 7.607-.34 11.415-.446l2.274-.079c17.074-.543 33.225 3.704 49.359 8.868l2.706.847c75.03 23.567 75.03 23.567 85.356 39.34 4.152 8.73 1.842 19.197.18 28.36l-.562 3.196c-.393 2.216-.792 4.432-1.196 6.646-.604 3.336-1.182 6.676-1.757 10.017-3.981 22.482-10.949 48.66-30.727 62.594-2.172.621-2.172.621-4 1l.975 1.766C390.86 336.107 390.86 336.107 390 346c-6.39.697-9.653-.444-14.832-4.215-2.724-2.243-5.192-4.646-7.621-7.203-1.624-1.733-1.624-1.733-4.047-3.52-3.602-2.971-6.498-6.498-9.5-10.062l-1.984 1.355c-13.264 8.787-25.19 12.889-41.172 11.118-9.244-1.49-9.244-1.49-17.496 1.578-1.838 2.626-1.838 2.626-3.032 5.433-1.677 3.206-3.021 4.054-6.316 5.516-2.595.561-5.002.972-7.625 1.25l-2.251.245c-11.531 1.084-22.868.067-34.272-1.746-10.641-1.665-19.913-1.642-30.548-.179-6.574.855-13.17 1.522-19.76 2.226-2.421.26-4.841.526-7.261.794l-4.623.508-2.057.23a323.664 323.664 0 0 1-33.083 1.91l-3.794.025a3583.3 3583.3 0 0 1-7.913.032c-2.644.009-5.287.032-7.93.062-53.748.601-53.748.601-66.508-10.045C46.158 329.84 40.615 312.103 40 297l-.121-2.613c-.803-34.922 12.462-76.98 35.996-103.137 1.374-1.418 2.749-2.834 4.125-4.25l2.375-3.125c7.544-8.262 16.245-12.341 26.813-15.438 1.315-.402 2.63-.806 3.944-1.212 2.945-.907 5.893-1.803 8.844-2.693 5.62-1.704 11.216-3.48 16.813-5.259C159.41 152.738 180.001 146.228 201 141c0-2.699-1.012-3.532-2.676-5.64l-1.743-2.224-1.893-2.386-1.931-2.456a2550.453 2550.453 0 0 0-3.91-4.958 2406.842 2406.842 0 0 1-6.207-7.893 3179.972 3179.972 0 0 0-4.003-5.091c-1.773-2.252-3.541-4.507-5.305-6.766A1147.31 1147.31 0 0 0 158.5 85c-5.017-6.152-9.984-12.337-14.84-18.617-1.809-2.331-3.678-4.59-5.601-6.828-7.804-9.237-7.804-9.237-7.496-14.43 1.436-5.41 4.013-9.483 8.664-12.633 5.592-3.188 10.197-5.26 16.773-4.492Z"/><path fill="#6DC8BD" d="M338.148 41.693c1.284.906 2.578 1.799 3.88 2.68 1.692 1.16 3.337 2.388 4.972 3.627v2l1.645.684c3.071 1.716 5.495 3.985 8.042 6.379l1.612 1.505a908.126 908.126 0 0 1 3.219 3.033 330.81 330.81 0 0 0 3.81 3.528C386.208 84.888 401.798 112.384 412 139l.848 2.21c19.147 51 16.277 109.753-5.94 159.223-2.16 4.603-4.492 9.095-6.908 13.567l-1.832 3.418A621.585 621.585 0 0 1 394 325h-3l-.946-1.908a8538.78 8538.78 0 0 0-4.304-8.654l-1.488-3.002-1.465-2.94-1.428-2.871c-1.19-2.28-2.475-4.422-3.853-6.59C376 296 376 296 376.496 293.828c1.76-2.14 3.615-4.11 5.566-6.078 17.203-18.781 22.26-44.104 26.125-68.437.39-2.41.781-4.818 1.173-7.227.24-1.48.478-2.96.715-4.441.452-2.826.924-5.64 1.49-8.446 2.04-10.305.16-19.13-5.253-27.949-19.782-19.248-55.69-27.167-81.312-35.812-.725-.248-1.45-.496-2.198-.75-18.623-6.332-37.827-11.032-57.599-10.536-23.232.45-23.232.45-28.324-3.836-2.478-2.835-4.205-5.994-5.851-9.365-1.72-3.264-4.067-5.988-6.403-8.826-.915-1.161-1.828-2.324-2.738-3.488-3.109-3.934-6.278-7.817-9.45-11.7a689.902 689.902 0 0 1-13.98-17.73c-3.962-5.187-8.017-10.301-12.057-15.428-1.411-1.793-2.818-3.59-4.224-5.388C171.82 32.774 171.82 32.774 158 22c-8.356-.95-16.013.795-23.11 5.355-5.877 4.685-8.864 9.729-9.828 17.145-.632 6.054 1.446 10.494 5.032 15.316l2.406 2.747c.895 1.038 1.788 2.079 2.68 3.12l1.401 1.633c2.424 2.877 4.732 5.842 7.044 8.809l2.797 3.578 1.338 1.713c4.03 5.148 8.136 10.235 12.271 15.299 5.95 7.29 11.842 14.606 17.531 22.101a312.775 312.775 0 0 0 5.313 6.774l1.425 1.792c.906 1.138 1.82 2.27 2.742 3.394 1.22 1.544 1.22 1.544 2.958 4.224l-1 3c-1.86.814-1.86.814-4.351 1.448l-2.867.76-3.184.812c-10.548 2.82-20.992 5.87-31.414 9.117l-2.186.68c-3.691 1.151-7.381 2.306-11.07 3.464a3709.971 3709.971 0 0 1-11.36 3.539c-2.963.921-5.925 1.848-8.886 2.777-1.397.437-2.794.872-4.192 1.305-24.378 7.554-40.73 24.383-52.875 46.635-17.63 33.676-29.48 73.675-18.549 111.361C41.5 330.166 46.593 342.798 56 349c4.23 1.861 8.501 2.976 13 4l3.672.836c41.553 8.638 85.27 3.498 127.043-.836l2.357-.243c3.854-.404 7.697-.85 11.537-1.373 7.797-1.05 14.857-1.63 22.641-.071 27.406 4.726 27.406 4.726 53.75-1.313 3.63-2.94 6.413-6.12 9-10 3.082-.369 3.082-.369 7.027-.371l4.342-.053c2.27-.01 4.541-.014 6.812-.012 11.212-.018 20.699-.908 30.194-7.439 1.898-1.285 1.898-1.285 3.625-2.125 3 .688 3 .688 5 2v2l4 2v2l1.71.746c2.68 1.468 4.67 3.248 6.915 5.317 2.963 2.795 2.963 2.795 6.375 4.937-2.434 5.568-6.894 9.622-11 14l-2.102 2.266C355.51 371.918 348.361 377.479 341 383l-1.772 1.334C330.851 390.597 322.219 396.056 313 401l-1.769.975C269.726 424.75 222.28 430.1 176 423l-2.224-.34c-17.199-2.755-33.951-8.479-49.776-15.66l-2.014-.913C106.033 398.733 91.645 389.009 78 378l-1.719-1.375C68.837 370.658 68.837 370.658 66 368v-2l-1.813-.812C62.002 364 60.587 362.904 59 361v-2h-2v-2h-2a117.786 117.786 0 0 1-5-6.125l-1.484-1.925A927.736 927.736 0 0 1 44 343l-1.316-1.731C32.366 327.624 23.66 312.759 17 297l-1.48-3.32C10.727 282.47 7.834 270.835 5 259l-.52-2.077C-4.506 220.833-.483 180.993 11 146l.792-2.443C15.937 130.999 21.538 119.518 28 108l1.516-2.781C36.502 92.93 45.317 81.27 55.074 71.066 57.15 68.952 57.15 68.952 59 66h2l.691-1.695c17.072-30.067 67.338-47.86 98.414-57.242 60.877-16.486 127.325-1.385 178.043 34.63Z"/><path fill="#E9C09A" d="M213 148c2.168 1.879 2.168 1.879 4.188 4.563l2.289 2.996c.841 1.146 1.683 2.293 2.523 3.441 1.007 1.346 2.015 2.69 3.023 4.035C233 173.742 233 173.742 233 175c-14.794-.711-26.35-3.44-37-14 2.648 2.578 4.944 4.916 7 8-5.2-.653-10.177-1.694-15.25-3l-2.14-.54c-2.907-.737-5.764-1.511-8.61-2.46v2l3.294.723a2029.98 2029.98 0 0 1 33.018 7.59l4.972 1.18a7629.38 7629.38 0 0 1 40.755 9.789c2.683.65 5.369 1.293 8.055 1.933l4.281 1.035 3.46.828c5.665 1.65 10.346 3.725 14.853 7.547 3.7 3.066 7.452 6.011 11.312 8.875 4.535 3.38 8.975 6.85 13.371 10.406a385.364 385.364 0 0 0 7.45 5.758c7.858 5.96 15.237 12.316 22.179 19.336-3.648-1.377-6.985-3.017-10.379-4.934l-3.04-1.716-3.144-1.787-3.154-1.776c-7.814-4.427-7.814-4.427-10.486-6.478-1.695-1.503-1.695-1.503-3.793-1.32-2.919 1.473-4.201 3.535-6.067 6.198l-2.035 2.856c-3.47 5.395-5.75 9.41-4.902 15.957 3.265 4.09 7.724 6.423 12.188 9 .717.425 1.434.85 2.173 1.29 9.84 5.991 9.84 5.991 20.889 8.272l2.39.067c3.617-.964 5.043-2.723 7.36-5.629 1.22-2.702 2.034-5.455 2.813-8.313l.654-2.244c.525-1.81 1.031-3.626 1.533-5.443h1c.634 8.556-2.087 15.974-7 23-2.41 1.766-2.41 1.766-5.063 3.25l-2.66 1.516c-5.915 3.206-11.663 3.586-18.277 2.234-8.637-2.894-16.825-7.016-25-11l-2.354-1.129a398.57 398.57 0 0 1-11.51-5.764c-2.515-1.303-5.04-2.585-7.566-3.869-1.899-.974-3.797-1.95-5.695-2.925l-2.696-1.37c-5.345-2.775-9.898-5.662-14.179-9.943v1h-10v1c-15.978 2.143-30.21 2.548-46-1l-2.64-.55C168.331 233.691 149.394 219.43 139 203v-2h-2c11.395 17.303 24.677 29.104 44 37-7.039 2.63-16.755-1.899-23.297-4.875-6.676-3.215-12.742-6.708-18.703-11.125 15.686 13.986 35.69 18.033 55.932 20.675 2.068.325 2.068.325 3.92.847 2.297.511 4.223.54 6.57.449l2.634-.089 2.835-.1c2.01-.048 4.02-.092 6.03-.134a509.99 509.99 0 0 0 9.438-.272c14.95-.574 24.34 1.062 36.641 9.624 1.604.908 3.22 1.793 4.86 2.637l1.984 1.05 1.906 1 2.107 1.112A752.27 752.27 0 0 0 292 268a60.543 60.543 0 0 1-4.078 10.219l-1.09 2.154L286 282l-3.665-.063c-4.54-.074-9.08-.119-13.62-.157-1.955-.02-3.91-.047-5.865-.082-13.391-.233-25.78-.308-36.85 8.302 1.637-5.324 3.83-10.312 6.125-15.375l1.193-2.644c3.685-8.101 7.628-16.06 11.682-23.981l1-2h-2l-.762 1.99c-1.556 3.784-3.295 7.466-5.047 11.162l-1.113 2.357c-.775 1.64-1.55 3.28-2.327 4.92a30871.958 30871.958 0 0 1-5.81 12.286l-1.06 2.245a830.583 830.583 0 0 1-1.978 4.143 299.476 299.476 0 0 0-2.475 5.373L222 293c-2.785.664-2.785.664-6.063.625-7.823.262-13.809 1.834-19.937 6.813-3.895 4.99-4.478 9.579-4.402 15.765.544 3.784 2.045 6.214 4.308 9.238C197 327 197 327 197 329l1.703.836c2.383 1.208 4.715 2.486 7.047 3.789l2.422 1.352L210 336v1c-28.316 4.637-56.401 6.295-85.063 6.438l-3.612.036c-12.979.112-25.656-.336-38.509-2.251l-3.202-.47c-6.996-1.16-14.444-2.65-19.665-7.76-8.03-13.474-11.511-27.065-11.324-42.743l.03-3.74c.157-9.185.944-17.611 3.345-26.51l.602-2.308C58.442 235.602 67.756 213.296 83 196l2.219-2.617c7.55-8.715 14.1-13.744 25.281-16.758 2.063-.59 4.126-1.184 6.188-1.781l3.183-.914c4.924-1.463 9.771-3.138 14.629-4.805 10.752-3.651 21.619-6.845 32.533-9.967 6.727-1.925 13.432-3.888 20.092-6.033 18.904-5.99 18.904-5.99 25.875-5.125Z"/><path fill="#090B0A" d="M156 28c6.014 3.971 9.917 9.59 14.195 15.305 2.996 3.986 6.143 7.84 9.305 11.695 3.927 4.801 7.802 9.63 11.563 14.563a708.562 708.562 0 0 0 10.875 13.874c3.9 4.856 7.78 9.725 11.625 14.626l1.358 1.73c1.829 2.333 3.656 4.666 5.482 7l2.839 3.629c.873 1.114 1.745 2.23 2.616 3.346a159.95 159.95 0 0 0 2.609 3.24C230 119 230 119 231.77 121.855c3.086 4.564 5.264 7.684 10.785 8.977 3.513.12 6.896.074 10.397-.176 3.8-.267 7.607-.34 11.415-.446l2.274-.079c17.074-.543 33.225 3.704 49.359 8.868l2.706.847c75.03 23.567 75.03 23.567 85.356 39.34 4.275 8.682 1.933 18.764-.062 27.813h-2l-2 16h-1v-5h-5c-.453-6.979.46-13.341 2.02-20.113 1.296-6.026 1.571-11.223-1.676-16.66-2.716-2.58-5.498-4.253-8.844-5.852l-2.035-.995c-14.975-7.113-30.73-12.74-46.345-18.268a362.618 362.618 0 0 1-7.35-2.706c-8.154-3.085-16.48-5.716-24.77-8.406l-3.11-1.016c-19.398-5.807-39.835-5.646-59.89-5.984 6.623 8.973 13.358 17.815 20.458 26.418 3.649 4.431 7.133 8.964 10.542 13.582l-.656-3.7c-1.635-9.547-2.815-18.589-2.344-28.3h1l.48 3.848c2.234 18.657 2.234 18.657 10.52 35.152v2l1.633.223c3.262 1.07 5.608 3.087 8.242 5.214a361.755 361.755 0 0 0 14.938 11.188l1.868 1.326c1.438 1.018 2.878 2.034 4.319 3.049l-.496-3.031c-.849-6.788-.609-13.641-.567-20.469A3926.911 3926.911 0 0 1 312 170h1l.12 1.965c.823 12.845 2.084 24.726 5.88 37.035.357 1.662.699 3.327 1 5l1.688.55c1.597.527 3.192 1.06 4.785 1.598 1.607.542 3.218 1.07 4.836 1.579 5.36 1.79 5.36 1.79 7.191 4.46L339 224l-4 2 5 6h-2l-1 2-2.781-2.414c-8.361-7.264-8.361-7.264-17.114-14.043-2.823-2.07-5.586-4.215-8.355-6.356a955.814 955.814 0 0 0-16.063-12.152 83.994 83.994 0 0 1-4.687-3.789c-4.022-3.459-7.717-4.893-12.863-6.21l-2.002-.516c-6.804-1.732-13.653-3.262-20.51-4.77-16.597-3.691-33.116-7.685-49.625-11.75l-3.75-.92c-3.397-.836-6.792-1.676-10.188-2.518l-3.032-.748a594628950.633 594628950.633 0 0 1-5.124-1.277C179 166 179 166 177 165v-2c4.135.911 8.266 1.827 12.387 2.8l3.488.825c1.09.26 2.181.52 3.305.79 2.83.687 2.83.687 5.82.585l-7-6 1-2 1.844 1.828C207.94 171.035 218.718 172.697 232 174l-1.098-1.434a29331.765 29331.765 0 0 1-6.754-8.82l-1.718-2.246-1.755-2.242C219 157 219 157 217.583 154.618c-1.385-2.239-2.548-3.945-4.583-5.618-3.53-.592-6.56.146-10 1l-2.716.596c-2.843.657-5.655 1.392-8.471 2.154l-3.066.814c-6.74 1.818-13.332 3.88-19.927 6.17-4.471 1.522-9.02 2.754-13.57 4.016-9.607 2.678-19.045 5.781-28.483 9-5.697 1.935-11.372 3.735-17.194 5.25-7.985 2.102-13.704 5.069-19.573 11l-2.25 2.21c-26.487 27.684-38.527 68.184-38.094 105.68.436 13.684 4.104 26.752 13.215 37.27 13.294 11.489 45.547 8.318 61.691 8.215l3.788-.011c27.146-.093 53.874-1.674 80.65-6.364l-1.793-.918c-7.108-3.769-13.422-8.145-16.207-16.082-.91-6.152-.546-11.834 2.602-17.281 3.9-4.795 9.57-7.111 15.398-8.719 3.43-.195 3.43-.195 6.875-.125l3.492.055L222 293l.825-2.625c1.135-3.26 2.464-6.27 3.968-9.375l1.652-3.42 1.743-3.58 1.768-3.652c3.95-8.148 7.94-16.275 12.044-24.348h2a82.123 82.123 0 0 1-4.645 11.633l-1.552 3.195-1.615 3.297c-4.011 8.19-7.776 16.416-11.188 24.875l2.168-1.86c9.12-6.892 20.06-6.682 30.957-6.452 1.402.011 2.805.02 4.207.029 7.266.065 14.456.363 21.668 1.283v1l-2.375.375c-2.766.416-2.766.416-4.625 2.625a83.907 83.907 0 0 1-7.21.055l-4.466-.075c-2.334-.049-4.668-.104-7.002-.172-15.772-.577-15.772-.577-29.606 6.139-3.45 3.614-5.605 7.114-6.716 12.053h-2l-1-7c-11.696.935-11.696.935-22 6-3.21 4.413-3.775 8.705-3 14 2.85 7.652 8.026 11.367 15.104 14.83 4.95 2 10.006 2.7 15.271 3.42l3.172.484c11.419 1.692 22.726 2.446 34.266 2.454l3.271.037c5.668.01 10.615-.118 15.916-2.225l1-2h-6v-3l1.863-.008 2.45-.117 2.425-.07c2.616-.646 2.616-.646 3.903-3.855L290 324l3.437.063c4.244.073 8.487.119 12.731.157 1.83.02 3.66.047 5.49.082 2.644.049 5.288.071 7.932.089l2.444.062c6.106.003 10.591-1.63 15.966-4.453l2.848-1.484 2.214-1.266 2.286-1.297L347 315v3l1.898-.105 2.477-.082 2.46-.106L356 318l2 3 2-1 1.313 2.75c1.392 2.682 2.798 4.911 4.687 7.25l-2 2-10-11-4.75 3.188c-12.407 7.801-23.773 10.906-38.406 9.285-9.244-1.49-9.244-1.49-17.496 1.578-1.838 2.626-1.838 2.626-3.032 5.433-1.677 3.206-3.021 4.054-6.316 5.516-2.595.561-5.002.972-7.625 1.25l-2.251.245c-11.531 1.084-22.868.067-34.272-1.746-10.641-1.665-19.913-1.642-30.548-.179-6.574.855-13.17 1.522-19.76 2.226-2.421.26-4.841.526-7.261.794l-4.623.508-2.057.23a323.664 323.664 0 0 1-33.083 1.91l-3.794.025a3583.3 3583.3 0 0 1-7.913.032c-2.644.009-5.287.032-7.93.062-53.748.601-53.748.601-66.508-10.045C46.158 329.84 40.615 312.103 40 297l-.121-2.613c-.803-34.922 12.462-76.98 35.996-103.137 1.374-1.418 2.749-2.834 4.125-4.25l2.375-3.125c7.544-8.262 16.245-12.341 26.813-15.438 1.315-.402 2.63-.806 3.944-1.212 2.945-.907 5.893-1.803 8.844-2.693 5.62-1.704 11.216-3.48 16.813-5.259C159.41 152.738 180.001 146.228 201 141c0-2.699-1.012-3.532-2.676-5.64l-1.743-2.224-1.893-2.386-1.931-2.456a2550.453 2550.453 0 0 0-3.91-4.958 2406.842 2406.842 0 0 1-6.207-7.893 3179.972 3179.972 0 0 0-4.003-5.091c-1.773-2.252-3.541-4.507-5.305-6.766A1147.31 1147.31 0 0 0 158.5 85c-5.017-6.152-9.984-12.337-14.84-18.617-1.809-2.331-3.678-4.59-5.601-6.828-7.804-9.237-7.804-9.237-7.496-14.43 1.436-5.41 4.013-9.483 8.664-12.633 5.592-3.188 10.197-5.26 16.773-4.492Z"/><path fill="#E8BF9A" d="M242 138c26.676-.485 49.325 1.597 74.859 9.988 3.212 1.035 6.44 1.995 9.676 2.953 5.277 1.613 10.295 3.578 15.361 5.756 4.502 1.89 9.081 3.556 13.66 5.248 37.33 13.822 37.33 13.822 41.626 22.42 2.851 9.183-1.424 21.302-3.12 30.635l-.802 4.484c-.515 2.877-1.035 5.753-1.559 8.628-.428 2.374-.846 4.75-1.246 7.13-.918 5.403-2.149 10.313-4.08 15.446l-1.352 3.636L384 257h-1l-.184-1.863-.253-2.45-.247-2.425c-.269-2.423-.269-2.423-1.316-5.262-8.344 1.143-8.344 1.143-15 6-3.28 8.972-1.467 21.415 2 30-3.748 1.188-6.217.702-9.898-.773-4.332-2.529-7.865-6.753-10.102-11.227-.323-4.602-.162-7.946 1.5-12.25 2.06-5.52 1.766-10.934 1.5-16.75h-2c-2.417-3.625-2.635-4.715-2-9 3.853-7.65 9.365-13.8 17.438-16.875L368 213c-7.154.311-13.625 3.577-18.672 8.695C348 223 348 223 346 223c-1.365-12.656 2.741-23.497 10.125-33.688 2.443-2.956 5.09-5.674 7.875-8.312 1.336-1.33 2.67-2.664 4-4-14.147 9.595-22.701 24.42-26 41-16.315.908-16.315.908-22-4-4.979-7.913-5.591-18.898-7-28-.1 7.755-.06 15.31 1 23-4.764-2.61-9.11-5.44-13.375-8.813l-1.69-1.316c-2.568-2-5.12-4.019-7.67-6.043l-2.39-1.89-2.07-1.66c-1.886-1.466-1.886-1.466-4.805-2.278-3.957-4.914-5.87-11.13-7.75-17.063l-.638-2c-1.4-4.633-2.118-9.122-2.612-13.937.576 8.416 1.618 16.68 3 25-4.075-3.916-7.648-8.098-11.188-12.5l-1.712-2.118a768.706 768.706 0 0 1-12.979-16.612 175.471 175.471 0 0 0-4.398-5.508C242 140 242 140 242 138Z"/><path fill="#141412" d="M181 148c2.375 1.875 2.375 1.875 4 4v2c-9.236 3.41-18.523 6.453-27.96 9.251-11.075 3.286-22.105 6.658-33.03 10.419-3.878 1.326-7.74 2.557-11.71 3.588-8.947 2.329-15.657 5.028-22.3 11.742l-2.25 2.21c-26.487 27.684-38.527 68.184-38.094 105.68.436 13.684 4.104 26.752 13.215 37.27 13.294 11.489 45.547 8.318 61.691 8.215l3.788-.011c27.146-.093 53.874-1.674 80.65-6.364l-1.793-.918c-7.108-3.769-13.422-8.145-16.207-16.082-.91-6.152-.546-11.834 2.602-17.281 3.9-4.795 9.57-7.111 15.398-8.719 3.43-.195 3.43-.195 6.875-.125l3.492.055L222 293l.825-2.625c1.135-3.26 2.464-6.27 3.968-9.375l1.652-3.42 1.743-3.58 1.768-3.652c3.95-8.148 7.94-16.275 12.044-24.348h2a82.123 82.123 0 0 1-4.645 11.633l-1.552 3.195-1.615 3.297c-4.011 8.19-7.776 16.416-11.188 24.875l2.168-1.86c9.12-6.892 20.06-6.682 30.957-6.452 1.402.011 2.805.02 4.207.029 7.266.065 14.456.363 21.668 1.283v1l-2.375.375c-2.766.416-2.766.416-4.625 2.625a83.907 83.907 0 0 1-7.21.055l-4.466-.075c-2.334-.049-4.668-.104-7.002-.172-15.772-.577-15.772-.577-29.606 6.139-3.45 3.614-5.605 7.114-6.716 12.053h-2l-1-7c-11.696.935-11.696.935-22 6-3.21 4.413-3.775 8.705-3 14 2.85 7.652 8.026 11.367 15.104 14.83 4.95 2 10.006 2.7 15.271 3.42l3.172.484c11.419 1.692 22.726 2.446 34.266 2.454l3.271.037c5.668.01 10.615-.118 15.916-2.225l1-2h-6v-3l1.863-.008 2.45-.117 2.425-.07c2.616-.646 2.616-.646 3.903-3.855L290 324l3.437.063c4.244.073 8.487.119 12.731.157 1.83.02 3.66.047 5.49.082 2.644.049 5.288.071 7.932.089l2.444.062c6.106.003 10.591-1.63 15.966-4.453l2.848-1.484 2.214-1.266 2.286-1.297L347 315v3l1.898-.105 2.477-.082 2.46-.106L356 318l2 3 2-1 1.313 2.75c1.392 2.682 2.798 4.911 4.687 7.25l-2 2-10-11-4.75 3.188c-12.407 7.801-23.773 10.906-38.406 9.285-9.244-1.49-9.244-1.49-17.496 1.578-1.838 2.626-1.838 2.626-3.032 5.433-1.677 3.206-3.021 4.054-6.316 5.516-2.595.561-5.002.972-7.625 1.25l-2.251.245c-11.531 1.084-22.868.067-34.272-1.746-10.641-1.665-19.913-1.642-30.548-.179-6.574.855-13.17 1.522-19.76 2.226-2.421.26-4.841.526-7.261.794l-4.623.508-2.057.23a323.664 323.664 0 0 1-33.083 1.91l-3.794.025a3583.3 3583.3 0 0 1-7.913.032c-2.644.009-5.287.032-7.93.062-53.748.601-53.748.601-66.508-10.045C46.158 329.84 40.615 312.103 40 297l-.121-2.613c-.803-34.922 12.462-76.98 35.996-103.137 1.374-1.418 2.749-2.834 4.125-4.25l2.375-3.125c7.543-8.262 16.245-12.342 26.813-15.438 1.3-.396 2.6-.795 3.9-1.196 2.93-.902 5.864-1.792 8.8-2.678 5.886-1.787 11.744-3.664 17.604-5.536 3.27-1.04 6.541-2.078 9.812-3.117 2.166-.688 4.332-1.378 6.496-2.07 3.066-.979 6.134-1.946 9.204-2.91l2.79-.898c4.483-1.397 8.455-2.597 13.206-2.032Z"/><path fill="#E6BD98" d="m258.063 284.813 3.788.002c7.441.049 14.809.29 22.212 1.06l2.338.238c3.562.424 5.562.862 8.599 2.887l-1.355 1.031c-5.34 4.281-9.927 8.654-11.09 15.645-.26 6.271.879 11.131 4.445 16.324l2 2c.25 2.5.25 2.5 0 5-3.006 3.006-5.824 2.596-10 3v1l5 1c-.625 1.938-.625 1.938-2 4-14.359 3.769-32.208 1.426-46.78-.684-2.396-.341-4.795-.64-7.197-.941-12.81-1.695-22.234-4.132-30.773-14.5-2.669-4.003-2.727-8.223-2.25-12.875 1.8-5.201 4.189-7.41 9-10 5.71-2.196 10.978-2.218 17-2l1 7h2l.063-2.5c1.535-5.734 5.14-9.86 10.261-12.863 8.015-3.643 14.994-3.83 23.738-3.825Z"/><path fill="#121413" d="M156 28c6.014 3.971 9.917 9.59 14.195 15.305 2.996 3.986 6.143 7.84 9.305 11.695 3.927 4.801 7.802 9.63 11.563 14.563a708.562 708.562 0 0 0 10.875 13.874c3.9 4.856 7.78 9.725 11.625 14.626l1.358 1.73c1.829 2.333 3.656 4.666 5.482 7 6.11 7.813 12.278 15.562 18.597 23.207l-2 1-1 3-2-3c-.986 5.201-.815 7.735 2.098 12.258 2.365 3.065 4.87 6.011 7.388 8.95 2.309 2.733 4.475 5.569 6.639 8.417.81 1.063 1.622 2.125 2.434 3.188l1.206 1.582a498.373 498.373 0 0 0 3.895 4.98l2.527 3.25c1.136 1.442 1.136 1.442 2.293 2.914L264 179l-1 3c-3.974-1.524-5.677-3.902-8.125-7.313-.8-1.098-1.6-2.195-2.402-3.292l-1.242-1.713c-1.93-2.636-3.924-5.22-5.918-7.807l-1.236-1.604c-3.614-4.686-7.253-9.352-10.89-14.021a2984.847 2984.847 0 0 1-18.578-24.141c-3.24-4.247-6.486-8.488-9.732-12.73a4205.96 4205.96 0 0 1-8.162-10.7c-5.734-7.535-11.54-14.997-17.48-22.371-3.7-4.608-7.275-9.297-10.794-14.046a495.474 495.474 0 0 0-5.851-7.68l-1.797-2.327a1337.045 1337.045 0 0 0-3.54-4.557l-1.628-2.108-1.46-1.88C153 42 153 42 152 39l-3 1-1-5h-2v-2h-2l-1 3h-7c4.743-5.774 12.575-9.375 20-8Z"/><path fill="#E8BF9A" d="M317.172 283.598c4.363-.495 6.857-.319 10.453 2.351 2.598 2.586 5.007 5.254 7.375 8.051l1.867 2.129a405.044 405.044 0 0 1 3.328 3.844c3.424 3.846 7.128 7.425 10.805 11.027-6.641 7.284-15.202 13.438-25.248 14.269-3.776.098-7.537.09-11.315.043l-3.904.01c-14.826-.084-14.826-.084-19.494-3.943l-1.414-1.817-1.46-1.808C285.38 313.56 285.196 308.84 286 304c4.538-9.405 14.482-15.583 24-19 2.404-.74 4.71-.946 7.172-1.402Z"/><path fill="#111110" d="M240 130c26.525-.471 50.536.849 76 9l2.706.847c75.03 23.567 75.03 23.567 85.356 39.34 4.275 8.682 1.933 18.764-.062 27.813h-2l-2 16h-1v-5h-5c-.453-6.979.46-13.341 2.02-20.113 1.296-6.026 1.571-11.223-1.676-16.66-2.716-2.58-5.498-4.253-8.844-5.852l-2.035-.995c-14.975-7.113-30.73-12.74-46.345-18.268a362.618 362.618 0 0 1-7.35-2.706c-8.154-3.085-16.48-5.716-24.77-8.406l-3.11-1.016c-17.112-5.123-35.172-5.588-52.89-5.984v-1h10l2-4c-2.397-.68-2.397-.68-5-1l-2 2c-2.125-.375-2.125-.375-4-1h3v-2h-13v-1Z"/><path fill="#DCB693" d="m221 297 1 7h2l.227 1.871c1.052 6.776 2.856 12.2 7.773 17.129 9.008 4.228 20.41 4.22 30.188 5.188l5.197.537c4.204.434 8.41.858 12.615 1.275l-1 3 5 1c-.625 1.938-.625 1.938-2 4-14.359 3.769-32.208 1.426-46.78-.684-2.396-.341-4.795-.64-7.197-.941-12.81-1.695-22.234-4.132-30.773-14.5-2.669-4.003-2.727-8.223-2.25-12.875 1.8-5.201 4.189-7.41 9-10 5.71-2.196 10.978-2.218 17-2Z"/><path fill="#100E0D" d="M137 201h2a92.889 92.889 0 0 1 3.563 4.938c12.8 17.883 32.454 29.841 54.097 33.554L200 240l3.066.559c10.86 1.634 24.42.946 34.934-2.559 2.333-.04 4.667-.044 7 0l-1-4a214.25 214.25 0 0 1 5.215 5.375c2.904 2.737 5.674 4.508 9.16 6.438l1.87 1.036c1.291.712 2.584 1.42 3.879 2.125 1.712.936 3.41 1.898 5.106 2.862 24.48 14.205 24.48 14.205 51.082 21.789l2.676.227L325 274v1l-5 1-1 6 5 1v1l-2.64.227c-13.684 1.51-24.435 6.55-33.36 17.148-1.722 4.52-1.99 9.1-.203 13.656 1.637 2.972 3.395 6.025 6.203 7.969 3.108.727 3.108.727 6 1v1l-1.898-.07-2.477-.055-2.46-.07c-2.378-.019-2.378-.019-4.165 2.195a383.56 383.56 0 0 1-2.91-5.086c-.9-1.582-1.863-3.128-2.84-4.664-1.858-4.83-2.12-9.15-1.25-14.25 2.672-5.96 6.808-10.168 12-14-2.794-1.397-5.54-1.609-8.625-2.063l-3.602-.535L279 286v-3h7l.25-2c.852-3.406 2.256-6.151 3.91-9.23.983-1.745.983-1.745.84-3.77l-1.826-.851c-30.01-14.04-30.01-14.04-42.174-22.149-2.104-.275-2.104-.275-4.436-.195l-2.712.02-2.926.05-3.024.023c-4.27.033-8.54.089-12.81.143-3.118.036-6.236.06-9.354.084l-2.895.05c-5.67.041-10.394-.614-15.843-2.175a264.813 264.813 0 0 0-7.313-.75c-17.242-1.901-34.995-8.148-47.687-20.25 3.69 0 4.445.898 7.313 3.125 10.25 7.349 21.405 10.747 33.687 12.875l-2.605-1.18C160.387 229.244 146.187 218.446 137 203v-2Z"/><path fill="#131211" d="M402 207h1c-1.998 27.113-7.263 54.495-25 76-1.5-1.313-1.5-1.313-3-3v-3l-3 2h-3l-1 2c-3.264-6.061-4.387-11.516-4.375-18.313l-.004-2.064c.085-3.945.545-7.114 2.379-10.623 3.78-3.49 6.386-4.887 11.563-5.25L381 245c2.296 3.445 2.54 5.938 3 10 5.144-12.964 7.075-26.245 9-40l1 3 3-1 2 1 3-11Z"/><path fill="#F7F8F8" d="M310 224c5.246 1.488 9.504 3.885 14.125 6.688l4.504 2.69 2.23 1.341a846.332 846.332 0 0 0 9.204 5.406l2.91 1.695L345 243c-.379 7.833-2.286 15.286-8 21-13.202 1.685-27.25-8.402-37.504-15.809L298 247c.586-6.152.586-6.152 1-8 2-1 2-1 4.875-.813 3.162.071 3.162.071 5.5-1.75 2.2-3.298 1.979-5.546 1.625-9.437l-1-3Z"/><path fill="#030707" d="m346 315 1 3 1.898-.105 2.477-.082 2.46-.106L356 318l2 3 2-1 1.313 2.75c1.392 2.682 2.798 4.911 4.687 7.25l-2 2-10-11-4.75 3.188c-12.407 7.801-23.773 10.906-38.406 9.285-9.244-1.49-9.244-1.49-17.496 1.578-1.838 2.626-1.838 2.626-3.032 5.433-1.694 3.239-3.004 3.976-6.316 5.516a71.537 71.537 0 0 1-8.145.293l-2.332-.013a833.2 833.2 0 0 1-7.336-.092c-1.663-.016-3.326-.03-4.99-.042-4.066-.032-8.131-.084-12.197-.146l.563-2.375c.697-2.596.697-2.596-.563-4.625l2.367-.06c3.566-.096 7.13-.205 10.696-.315 1.229-.03 2.458-.062 3.724-.094 8.801-.23 8.801-.23 17.213-2.531l1-2h-6v-3l1.863-.008 2.45-.117 2.425-.07c2.616-.646 2.616-.646 3.903-3.855L290 324l3.437.063c4.244.073 8.487.119 12.731.157 1.83.02 3.66.047 5.49.082 2.644.049 5.288.071 7.932.089l2.444.062c7.817.003 14.054-2.965 20.529-7.203l2.003-1.297L346 315Z"/><path fill="#060706" d="m368 176 2 1-1.469.926C357.637 185.363 350.764 197.51 347 210a72.2 72.2 0 0 0-1 13l2.16-1.645c8.45-6.312 14.1-10.013 24.84-9.355v1l-2.125.445c-10.107 2.39-16.3 6.496-21.816 15.375-1.981 4.08-1.445 7.023-.059 11.18h2c1.262 2.525 1.099 4.312 1.063 7.125l-.028 2.758L352 252h-1l-1-7-2 3-1-1-.734 2.668-1.016 3.52-.984 3.48c-1.525 4.015-3.323 7.36-7.266 9.332-12.816 2.668-25.509-7.5-35.747-14.03-4.123-2.709-4.123-2.709-5.253-4.97-1.062-7.13 2.148-12.151 6-18 2.206-2.8 4.52-5.44 7-8 3.096.635 5.446 1.686 8.16 3.293l2.392 1.403 2.51 1.492a4806.908 4806.908 0 0 0 7.617 4.464c4.387 2.547 8.844 4.963 13.321 7.348l-5-4 1-4-4-2c0-3 0-3 1.5-4.688L338 223l-1-2c-2.527-.656-2.527-.656-5-1l1-2h9l.25-3.375c1.715-13.185 10.444-26.96 20.746-35.227 1.636-1.178 3.316-2.296 5.004-3.398Zm-58 48 1 3c.35 3.853.554 6.135-1.563 9.438-3.256 2.087-5.647 1.854-9.437 1.562-1.862 3.143-2.617 5.36-2 9a39.316 39.316 0 0 0 6.125 4.375l1.892 1.16c14.52 9.151 14.52 9.151 30.983 11.465 4.811-4.41 6.956-10.347 7.582-16.734l.245-2.43L345 243l-2.902-1.617-4.036-2.258-2.148-1.203c-6.23-3.504-12.385-7.127-18.504-10.822-3.462-2.292-3.462-2.292-7.41-3.1Z"/><path fill="#26201B" d="M220 299c2 3 2 3 2 5h2l.227 1.871c1.052 6.776 2.856 12.2 7.773 17.129 9.008 4.228 20.41 4.22 30.188 5.188l5.197.537c4.204.434 8.41.858 12.615 1.275l-2 4c-7.699.257-15.179-.612-22.802-1.6-2.127-.274-4.255-.539-6.384-.802-5.772-.727-11.509-1.471-17.2-2.7-5.644-1.202-11.247-1.312-16.997-1.464l-2.422-.09-2.155-.057c-2.376-.334-4-1.036-6.04-2.287-2.287-4.574-1.695-11.475-.363-16.313.89-2.085 1.74-4.064 3.363-5.687a153.02 153.02 0 0 1 6.563-.063l3.628.028L220 303v-4Z"/><path fill="#E9EAE9" d="M152 36c4.21 1.403 5.814 4.466 8.313 7.938a429766499.712 429766499.712 0 0 0 4.957 6.735c2.81 3.779 5.705 7.491 8.605 11.202l1.762 2.258a7392.87 7392.87 0 0 1 12.613 16.18l1.779 2.286c7.768 9.992 15.463 20.04 23.148 30.096a5717.758 5717.758 0 0 0 12.444 16.215c1.577 2.048 3.153 4.098 4.727 6.149 4.224 5.501 8.465 10.989 12.735 16.456 2.383 3.056 4.758 6.119 7.131 9.183 1.197 1.542 2.396 3.082 3.599 4.62 1.718 2.199 3.423 4.408 5.125 6.62l1.595 2.024c1.236 1.621 2.363 3.324 3.467 5.038l-1 3c-3.974-1.524-5.677-3.902-8.125-7.313-.8-1.098-1.6-2.195-2.402-3.292l-1.242-1.713c-1.93-2.636-3.924-5.22-5.918-7.807l-1.236-1.604c-3.614-4.686-7.253-9.352-10.89-14.021a2984.847 2984.847 0 0 1-18.578-24.141c-3.24-4.247-6.486-8.488-9.732-12.73a4205.96 4205.96 0 0 1-8.162-10.7c-5.734-7.535-11.54-14.997-17.48-22.371-3.702-4.61-7.28-9.3-10.798-14.054a425.79 425.79 0 0 0-5.812-7.602l-1.783-2.299a901.504 901.504 0 0 0-3.502-4.48c-2.707-3.495-5.007-6.59-6.34-10.873l1-1Z"/><path fill="#1E1F1E" d="M346 279c3.661 3.47 6.518 6.952 9.313 11.188l2.113 3.167C359 296 359 296 359 298h3l-.563-2.375C361 293 361 293 362 291h2v-2h5l.938-2.875C371 283 371 283 372 281l5 2c-3.44 4.654-5.284 6.369-11 8l.975 1.766C390.86 336.107 390.86 336.107 390 346c-6.544.714-9.77-.621-15.117-4.395C373 340 373 340 371 337l2-2c2.625.375 2.625.375 5 1-.404-6.273-2.568-10.268-5.938-15.5l-1.491-2.375c-5.088-8.058-10.382-15.98-15.75-23.854-1.11-1.63-2.215-3.263-3.321-4.896-.63-.92-1.258-1.84-1.906-2.79-1.525-2.473-2.61-4.857-3.594-7.585Z"/><path fill="#2E251D" d="M137 201h2a92.889 92.889 0 0 1 3.563 4.938c12.8 17.883 32.454 29.841 54.097 33.554L200 240l3.066.559c10.86 1.634 24.42.946 34.934-2.559 2.333-.04 4.667-.044 7 0l-1-4a213.727 213.727 0 0 1 5.21 5.371c2.922 2.753 5.726 4.553 9.227 6.504l1.815 1.016c6.474 3.584 13.095 6.873 19.748 10.109l-1.938.375L276 258l-1 2c-2.42-1.182-4.835-2.37-7.25-3.563l-2.008-.978-2.07-1.025-2.273-1.108C259 252 259 252 256.593 250.172c-10.128-7.274-20.874-5.889-32.843-5.484-3.118.078-6.236.145-9.355.202-1.928.039-3.856.09-5.783.157-5.626.145-10.205-.49-15.612-2.047a264.813 264.813 0 0 0-7.313-.75c-17.242-1.901-34.995-8.148-47.687-20.25 3.69 0 4.445.898 7.313 3.125 10.25 7.349 21.405 10.747 33.687 12.875l-2.605-1.18C160.387 229.244 146.187 218.446 137 203v-2Z"/><path fill="#201E1A" d="m209 335 3 1v2l2.375.313C217 339 217 339 219 342c2.207.364 2.207.364 4.625.188l2.477-.083L228 342l.938-1.875L231 336l20 2c-1 6-1 6-2 8l3.262-.254c9.064-.65 17.685-.77 26.738.254v1c-14.338 1.7-28.774.578-43.017-1.604-12.178-1.77-23.287-.747-35.42.979-3.644.497-7.288.982-10.934 1.46l-2.59.346c-6.032.773-11.953 1.153-18.039.819v-1l8-1v-2l-2-1-1 1-1-3-1.516.496c-3.41.692-6.771.609-10.234.567l-2.113-.014c-1.713-.012-3.425-.03-5.137-.049v-1l2.896-.228c26.147-2.066 26.147-2.066 52.104-5.772v-1Z"/><path fill="#0E0E0C" d="M270 146h1l.48 3.848c2.234 18.657 2.234 18.657 10.52 35.152v2l1.633.223c3.262 1.07 5.608 3.087 8.242 5.214a361.755 361.755 0 0 0 14.938 11.188l1.868 1.326c1.438 1.018 2.878 2.034 4.319 3.049l-.496-3.031c-.849-6.788-.609-13.641-.567-20.469A3926.911 3926.911 0 0 1 312 170h1l.12 1.965c.823 12.845 2.084 24.726 5.88 37.035.357 1.662.699 3.327 1 5l1.688.55c1.597.527 3.192 1.06 4.785 1.598 1.607.542 3.218 1.07 4.836 1.579 5.36 1.79 5.36 1.79 7.191 4.46L339 224l-4 2 5 6h-2l-1 2-2.781-2.414c-8.361-7.264-8.361-7.264-17.114-14.043-2.823-2.07-5.586-4.215-8.355-6.356a1174.376 1174.376 0 0 0-16.027-12.144 271.992 271.992 0 0 1-5.04-3.867c-3.779-2.962-6.93-4.988-11.683-6.176v-2l2-1-2-1c-3.82-5.73-4.122-12.307-5-19l-.625-3.5c-.588-5.492-.45-10.983-.375-16.5Z"/><path fill="#F7F8F7" d="m310.57 297.902 2.715.01 2.84.026 2.863.013c2.338.012 4.675.028 7.012.049v4l-1 1c-.262 4.55.005 7.884 2 12-8.706 4.749-16.106 6.314-26 6-1.145-3.436-1.24-6.254-1.313-9.875l-.113-3.68c.498-4.03 1.596-5.599 4.426-8.445 2.4-1.2 3.894-1.115 6.57-1.098ZM242 300c2.896-.054 5.791-.094 8.688-.125l2.474-.05c4.409-.036 7.825.1 11.838 2.175v4l-2.063 1.813c-2.35 2.138-2.35 2.138-1.75 5.687A407.137 407.137 0 0 0 263 321c-3.625.029-7.25.047-10.875.063l-3.129.025-2.988.01-2.761.016C241 321 241 321 239 320c-.416-7.248.558-13.17 3-20Z"/><path fill="#0F1010" d="m177 343 1 5h-9v2c-11.602 1.21-23.162 1.115-34.813 1.063-1.964-.006-3.928-.01-5.892-.014-4.765-.011-9.53-.028-14.295-.049v-2l-2-1 1-2-5-1v-1c7.815-.286 15.63-.564 23.446-.834 3.63-.126 7.259-.254 10.888-.387 3.508-.129 7.016-.251 10.524-.37 1.978-.068 3.957-.143 5.935-.217 6.207-.204 12.076-.217 18.207.808Z"/><path fill="#E8BF9A" d="m249 289-1 3h2v3l2 2-1.863.113-2.45.2-2.425.175c-2.848.645-3.61 1.09-5.262 3.512a107.232 107.232 0 0 0-2.188 8.188l-.537 2.271A667.66 667.66 0 0 0 236 317l-5-1v4c-2.816-.971-3.968-1.956-5.75-4.375-2.18-6.325-2.528-12.865.313-19L228 294l1.332-1.723c5.492-6.103 12.16-4.422 19.668-3.277Z"/><path fill="#181410" d="M215 248c0 7.032-8.564 13.743-13.188 18.563-21.567 21.091-54.529 36.563-84.875 36.625-1.98-.047-3.959-.103-5.937-.188 3.78-2.335 7.816-2.658 12.125-3.25 28.362-4.423 56.44-18.82 77.875-37.75l1.482-1.3c6.787-5.852 6.787-5.852 12.518-12.7Z"/><path fill="#E7BF9A" d="m329 292 2 1v2l2.188.188c3.715 1.073 5.15 3.024 7.812 5.812l2.676 2.676L351 311c-5.576 5.762-11.606 11.57-20 12-2-3-2-3-1.633-5.316L330 315c.277-6.045.318-12.068-1-18h-3c1.875-3.875 1.875-3.875 3-5Z"/><path fill="#0B0B0A" d="m346 315 1 3 1.898-.105 2.477-.082 2.46-.106L356 318l2 3 2-1 1.313 2.75c1.392 2.682 2.798 4.911 4.687 7.25l-2 2-10-11-4.75 3.188c-17.072 10.735-32.846 10.17-52.25 8.812v-1l17-1v-2l8-2-16-1v-1l1.969-.028c2.99-.055 5.979-.138 8.969-.222l3.095-.043c8.774-.28 15.215-2.67 22.53-7.457l2.003-1.297L346 315Z"/><path fill="#F2F2F2" d="M208 305h12l1.188 4.5c1.52 5.124 3.825 9.116 6.812 13.5l1 2c-3.437.058-6.875.094-10.313.125-.976.017-1.952.034-2.958.05l-2.842.02-2.619.032C208 325 208 325 205 323c-1.108-6.548-.087-12.212 3-18Z"/><path fill="#F4F5F5" d="m380 248 1 1a235.648 235.648 0 0 1-1 7v2h1c1.012 6.411-2.402 10.999-6 16a109.658 109.658 0 0 1-4 4c-3.999-3.612-4.872-5.705-5.168-11.023l-.02-3.352-.042-3.336c.298-4.259 1.017-7.89 3.855-11.164 3.577-1.694 6.436-1.383 10.375-1.125Z"/><path fill="#14120F" d="M244 234a213.727 213.727 0 0 1 5.21 5.371c2.922 2.753 5.726 4.553 9.227 6.504l1.815 1.016c6.474 3.584 13.095 6.873 19.748 10.109l-1.938.375L276 258l-1 2c-2.42-1.182-4.835-2.37-7.25-3.563l-2.008-.978-2.07-1.025-2.259-1.108C259 252 259 252 256.47 250.176c-9.467-6.553-18.171-5.997-29.22-5.613-1.776.035-3.552.067-5.328.095-4.31.077-8.615.197-12.922.342v-1h6v-2l1.788-.26c2.675-.39 5.35-.783 8.024-1.178l2.815-.408 2.705-.4 2.491-.365c2.346-.365 2.346-.365 5.177-1.389 2.333-.04 4.667-.044 7 0l-1-4Z"/><path fill="#191917" d="M40 285h1l1 8h2v-3l3-1c1.209-2 1.209-2 2-4l.078 3.664c.295 9.403 1.089 17.608 4.18 26.55.749 2.812.761 4.109-.258 6.786l-3-1 1 11c-10.058-13.411-11.246-30.84-11-47Z"/><path fill="#090A09" d="m116 168-12 6v2l1.977-.438c4.75-1.008 9.137-1.82 14.023-1.562-4.17 2.78-8.779 3.71-13.576 4.969-4.866 1.35-8.302 3.136-12.424 6.031-2.063-.313-2.063-.313-4-1-2.681.386-2.681.386-5 1l-.313 2.125c-.78 3.266-2.108 5.922-3.687 8.875h-2l-1 3h-7c4.522-10.81 16.563-22.467 27.203-26.922 14.702-5.625 14.702-5.625 17.797-4.078Z"/><path fill="#1A1A18" d="M348 151c4.076.678 7.697 1.932 11.543 3.434l1.847.72c1.281.502 2.561 1.006 3.84 1.511 1.96.773 3.922 1.536 5.885 2.298l3.74 1.47 3.427 1.346C381 163 381 163 383 165l-5 1v-3c-2.016.716-2.016.716-4 2-.655 2.035-.655 2.035-1 4-7.767-2.522-15.411-5.336-23.063-8.188l-3.779-1.404c-3.053-1.135-6.106-2.27-9.158-3.408 3.098-.84 5.783-1.09 9-1l2-4Z"/><path fill="#0D0D0D" d="m209 335 3 1v2l2.375.313C217 339 217 339 219 342c2.207.364 2.207.364 4.625.188l2.477-.083L228 342l.938-1.875L231 336l20 2c-1 6-1 6-2 8l3.262-.254c9.064-.65 17.685-.77 26.738.254v1c-14.779 1.753-29.374.212-44.086-1.617-8.849-1.1-16.994-1.55-25.914-.383-1.223-3.669-.414-4.554 1-8l-1-2Z"/><path fill="#E2BB97" d="M294 269c5.721 1.805 11.094 4.208 16.563 6.66 3.2 1.247 6.04 1.92 9.437 2.34v2l-3.465.84-4.473 1.098-2.287.552c-3.688.648-3.688.648-6.775 2.51-5.525.286-9.765-.255-15-2 1.492-4.972 3.605-9.418 6-14Z"/><path fill="#292622" d="m242.86 297.628 2.245.009 2.483.002 2.6.048 2.54-.01c5.108.045 9.474.525 14.272 2.323 3 6 .785 13.866-.953 19.969-1.34 2.6-2.285 3.123-5.047 4.031-8.108.83-16.06-.423-24-2-.702-23.059-.702-23.059 5.86-24.372ZM242 300c-2.442 6.83-3.416 12.752-3 20 2.505 1.252 4.209 1.114 7.008 1.098l2.988-.01 3.129-.026 3.152-.013c2.575-.012 5.149-.028 7.723-.049-.148-.588-.296-1.176-.45-1.781-.778-3.137-1.376-5.98-1.55-9.219a90.488 90.488 0 0 1 4-4c-.14-2.707-.14-2.707-1-5-2.852-.814-5.366-1.119-8.328-1.098l-2.422.01-2.5.025-2.547.014c-2.068.012-4.135.03-6.203.049Z"/><path fill="#393835" d="m309.684 295.867 2.81-.004 2.943.012 2.932-.012 2.815.004 2.58.004C326 296 326 296 329 297c2.289 4.818 2.724 9.762 2 15-2.328 5.365-5.509 7.105-10.684 9.238-4.782 1.573-9.1 1.875-14.128 1.825l-3.52-.028L300 323c-2.42-3.75-2.402-7.552-2.438-11.875-.032-.695-.065-1.39-.1-2.105-.04-3.951.487-6.444 2.94-9.465 3.36-3.304 4.727-3.682 9.282-3.688ZM301 303l-1 1c-.1 2.29-.13 4.583-.125 6.875l-.008 3.805C299.846 318 299.846 318 301 321c9.274.464 18.108-.859 26-6l-1-2.063c-1.46-4.288-1.739-8.137 0-12.375l1-1.562c-2.306-2.306-7.657-1.327-10.75-1.375l-2.75-.113c-5.952-.079-8.706.475-12.5 5.488Z"/><path fill="#231F1C" d="M309 221c2.867.573 3.861.861 6 3l-4 1 1 2c.49 4.333.477 6.32-2.063 9.938-3.586 2.517-5.646 2.483-9.937 2.062l-1 8a4341.63 4341.63 0 0 0 9.5 5.75l2.688 1.633c5.173 3.12 10.368 5.997 15.812 8.617-4.987 1.576-7.85-.571-12.346-2.89-16.43-8.662-16.43-8.662-18.654-13.11-1.062-7.13 2.148-12.151 6-18 2.206-2.8 4.52-5.44 7-8Z"/><path fill="#040505" d="m290 324 33 2c-2.762 2.762-5.207 2.579-9 3v2l2 1c-3.23.03-6.458.047-9.688.063l-2.763.025-2.686.01-2.46.016c-2.552-.121-4.913-.554-7.403-1.114l-1 5h-3v2l-3-1v-2l-6-1v-3l1.863-.008 2.45-.117 2.425-.07c3.136-.822 3.136-.822 5.262-6.805Z"/><path fill="#7BCDC2" d="M34 306h1l.594 3.156C38.57 323.851 43.884 339.271 56 349c2.95 1.457 5.768 2.404 9 3v1c-5.75.125-5.75.125-8-1v5h-2a118.155 118.155 0 0 1-5-6.125l-1.465-1.892c-3.443-4.48-6.8-9.02-10.097-13.608l-1.264-1.754C35.2 330.84 33.404 328.11 32 325h2l-.035-1.828-.028-2.422-.035-2.39c.094-2.267.466-4.189 1.098-6.36l-3-1 2-5Z"/><path fill="#E3BC96" d="M317.5 283.473c4.546-.519 6.683-.114 10.352 2.765A117.45 117.45 0 0 1 335 294l-2 2-4-3-1.25 1.482c-2.122 1.84-3 1.873-5.762 1.811l-2.295-.03-2.38-.075-2.417-.042A525.76 525.76 0 0 1 309 296v-1l16-1h-4v-2l-8-1v-2h-2l-1 2-2-2v2c-2.983 1.524-5.818 2.94-9 4-2.188-.938-2.188-.938-4-2 7.334-4.822 13.949-7.724 22.5-9.527Z"/><path fill="#DFB895" d="M268 305c3.22 6.224 3.22 6.224 2.258 9.629l-1.133 2.933-1.117 2.942C267 323 267 323 266 325l7 2v1c-8.354 1.308-16.038.869-24.375-.25l-2.844-.368c-5.38-.78-9.966-1.816-14.781-4.382l-2-3h2v-4l5 1 1-2v7c13.633 1.807 13.633 1.807 27 0 2.383-5.316 3.374-11.238 4-17Z"/><path fill="#151210" d="M270 146h1l.48 3.848c2.234 18.657 2.234 18.657 10.52 35.152v2l1.802.362c3.476 1.01 6.033 3.355 8.823 5.576l1.773 1.38c2.309 1.809 4.527 3.607 6.602 5.682l-2 1 2 4a145.54 145.54 0 0 1-16.543-12.266c-2.728-1.925-5.26-2.827-8.457-3.734v-2l2-1-2-1c-3.82-5.73-4.122-12.307-5-19l-.625-3.5c-.588-5.492-.45-10.983-.375-16.5Z"/><path fill="#0E0F0E" d="M156 28c4.89 3.019 8.098 7.124 11 12h-5l-2 4c-4.875-4.75-4.875-4.75-6-7-2.124-.226-2.124-.226-3.625 1.5L149 40l-1-5h-2v-2h-2l-1 3h-7c4.743-5.774 12.575-9.375 20-8Z"/><path fill="#E5BC93" d="M269 187c1.418.285 2.834.578 4.25.875l2.39.492c2.328.625 4.25 1.481 6.36 2.633h-2l-.828 1.746c-1.167 2.245-2.479 4.24-3.922 6.316-3.46 5.115-6.373 10.48-9.25 15.938-1.117-3.742-1.117-3.742-.063-6.063L267 207v-3h-5l-1 2c.27-5.383 2.396-8.063 5.633-12.098 1.616-2.248 2.194-4.142 2.367-6.902Z"/><path fill="#0B0C0A" d="M181 148c2.375 1.875 2.375 1.875 4 4v2c-14.597 5.371-14.597 5.371-22 7l1-4h4l1-2h-2v-2a83.252 83.252 0 0 0-8.188 3.625C156 158 156 158 154 158v2c-3.73-.502-7.361-1.042-11-2 4.444-1.435 8.891-2.859 13.342-4.272 1.512-.482 3.023-.967 4.533-1.456a1124.65 1124.65 0 0 1 6.54-2.084c.668-.22 1.337-.438 2.026-.663 3.962-1.24 7.411-1.919 11.559-1.525Z"/><path fill="#737574" d="M346 279c3.661 3.47 6.518 6.952 9.313 11.188l2.113 3.167C359 296 359 296 359 298l4 1 .328 2.214c.718 2.975 1.741 4.823 3.43 7.36l1.644 2.522 3.47 5.218 1.636 2.51 1.52 2.284L376 323l-1 2c-17.931-26.803-17.931-26.803-23.5-35.375l-1.969-3.023c-1.46-2.48-2.549-4.901-3.531-7.602Zm25 2 6 2c-3.44 4.654-5.284 6.369-11 8l1.566 2.555c.66 1.095 1.318 2.191 1.997 3.32l2.003 3.305L373 303l-1 2c-2.938-.813-2.938-.813-6-2-1-3-1-3 0-6l-4 1c-1.125-4.75-1.125-4.75 0-7h2v-2h5c1.47-3.91 1.47-3.91 2-8Z"/><path fill="#E3BB97" d="M347 244h1c.634 8.556-2.087 15.974-7 23-2.41 1.766-2.41 1.766-5.063 3.25l-2.66 1.516c-4.004 2.17-6.47 2.397-11.09 2.421l-3.707.043c-3.307-.219-5.52-.803-8.48-2.23 2.892-.826 4.887-1 8-1l-1-2 5-1-1-5 2.375 1c4.507 1.243 9.013 2.045 13.625 1 4.865-3.71 6.27-7.65 7.813-13.313l.654-2.244c.525-1.81 1.031-3.626 1.533-5.443Z"/><path fill="#0A0B0B" d="m205 141 3 1h-2l.5 1.813C207 146 207 146 207 149c-3.29.837-6.583 1.67-9.875 2.5l-2.84.723-2.715.683-2.507.635C187 154 187 154 185 154a131.2 131.2 0 0 1-4-5l-2-2c8.983-2.976 16.506-4.626 26-4v-2Z"/><path fill="#7ECEC4" d="M422 181h1c2.346 15.649 2.21 31.205 2 47h-1l-1-26h-2l-1-5-.367 1.715-.508 2.222-.492 2.215C418 205 418 205 416 206l-1-8h-2l-1 3 1-15h1l1 6v-6h3l2-2v2h2v-5Z"/><path fill="#060809" d="M163 153h4v2h2l-1 3a70.134 70.134 0 0 1-4 1l-1 2c-2.434.88-4.831 1.653-7.313 2.375-1.46.438-2.922.876-4.382 1.316l-2.204.661c-3.89 1.2-7.719 2.578-11.55 3.949-2.635.722-4.833.831-7.551.699l2-1v-3l9-2v-2c2.72-2.72 4.768-3.883 8.625-4.25C152 158 152 158 154 160v-2l1.715-.84 2.222-1.097 2.215-1.09c1.81-.837 1.81-.837 2.848-1.973Z"/><path fill="#1E1F1F" d="m334 323-2 5c3.629.151 3.629.151 7-1l2 2c-13.748 6.955-29.12 5.041-44 4v-1l17-1v-2l8-2-16-1v-1l2.064-.076c3.083-.116 6.166-.239 9.248-.361l3.249-.12 3.115-.127 2.872-.11c2.626-.22 4.828-1.206 7.452-1.206Z"/><path fill="#090907" d="M201 328c3.359.42 5.396 1.227 8.375 2.938 5.156 2.746 10.714 3.013 16.43 3.57C229 335 229 335 231 337l-1 6h-14v-4l-1.938-.375L212 338l-1-2c-2.34-1.131-2.34-1.131-5.063-2.125l-2.785-1.07L201 332v-4Z"/><path fill="#D7B290" d="M195 309h1v7h2l1 2 2-7c2.022 3.033 2.293 4.087 2.563 7.563.252 3.344.252 3.344 1.437 6.437 2.725.908 4.622 1.184 7.45 1.316l2.568.127 2.67.12 2.705.13c2.202.106 4.404.208 6.607.307l-1 3-3.375.438c-3.446.346-3.446.346-5.625 1.562v2c-6.559-1.022-13.134-4.04-17.79-8.848-4.026-5.546-4.318-9.59-4.21-16.152Z"/><path fill="#181817" d="M50 321c2.305.207 2.305.207 5 1 1.695 2.074 1.695 2.074 3.125 4.688l1.508 2.742L61 332l2 3.313c1 2.687 1 2.687.188 5.562L62 343c-4.52-.758-6.61-2.988-9.516-6.39-2.75-4.835-2.542-10.162-2.484-15.61Z"/><path fill="#1B1814" d="m267.25 328.5 3.738.434c3.005.349 6.009.705 9.012 1.066l-2 4c-7.86.266-15.515-.617-23.296-1.6a903.386 903.386 0 0 0-6.68-.802c-1.415-.175-2.829-.35-4.243-.528l-3.873-.476L237 330l-1-2c10.283-2.333 20.908-.746 31.25.5Z"/><path fill="#121413" d="M366 297v5h2v2h2.75c3.65 1.123 3.929 1.484 5.625 4.688 1.554 3.568 1.898 6.402 1.625 10.312l1 3-4 1a1752.655 1752.655 0 0 1-6.5-10.25l-1.879-2.934-1.777-2.832-1.65-2.602C362 302 362 302 362 298c2-1 2-1 4-1Z"/><path fill="#0F1110" d="M162 40c2.23-.29 2.23-.29 5 0 2.238 1.977 2.238 1.977 4.313 4.625l2.113 2.602C175.24 50.425 175.313 52.38 175 56l2 1c-4.37 1.214-4.37 1.214-6.898.355-2.82-1.818-4.468-3.987-6.477-6.667-.73-.945-1.46-1.89-2.21-2.864C160 45 160 45 160.772 42.144L162 40Z"/><path fill="#251E17" d="M195 160c5.553 3.61 5.553 3.61 7.652 5.443 5.758 4.92 11.507 6.15 18.848 7.432l3.36.64c2.71.515 5.423 1.009 8.14 1.485l-2 3c-12.49-2.282-24.812-5.103-37.125-8.188l-2.186-.545c-12.312-3.079-12.312-3.079-14.689-4.267v-2c4.135.911 8.266 1.827 12.387 2.8l3.488.825c1.09.26 2.181.52 3.305.79 2.83.687 2.83.687 5.82.585l-1.531-1.242-1.969-1.633-1.969-1.617L195 162v-2Z"/><path fill="#1F1E1D" d="M381 245c3.125 4.688 2.387 9.63 1.5 15.063L382 262l-2-2-2 3c-.25-5.625-.25-5.625 2-9 .167-2.625.167-2.625 0-5-5.408-.377-5.408-.377-10.438 1.188-4.224 4.9-2.986 13.758-2.562 19.812.677 2.829 1.456 4.484 3 7l3 1-1.938.375L369 279l-1 2c-3.264-6.061-4.387-11.516-4.375-18.313l-.004-2.064c.085-3.945.545-7.114 2.379-10.623 4.812-4.442 8.468-5.475 15-5Z"/><path fill="#040605" d="m234 131 2 1 1-1c2.697-.073 5.367-.092 8.063-.063l2.298.014c1.88.012 3.76.03 5.639.049l1 2 3-2c2.688.375 2.688.375 5 1-.934 2.441-.934 2.441-3 5-2.998.849-5.96.882-9.063.938l-2.51.126c-4.477.164-4.477.164-6.427-.064l-2-2-4 3-2-1 1-7Z"/><path fill="#75CABF" d="m138 16-1 2c.4 2.098.4 2.098 1 4l2.375-1.5C143 19 143 19 145 19v2l3 1-2.195.7c-5.946 2.005-10.296 3.913-14.805 8.3l-4-5 2-3h-9c3.16-2.596 6.358-4.176 10.125-5.75l3.195-1.36C136 15 136 15 138 16Z"/><path fill="#070707" d="M85 183c3.217-.09 5.902.16 9 1l-2.375 2.75c-3.815 4.442-7.534 8.962-11.258 13.48A96.232 96.232 0 0 1 74 207l-4-2 1-6c4.75-1 4.75-1 7-1v-3l3-1c2.125-3.596 3.393-6.872 4-11Z"/><path fill="#1C1814" d="m368 176 2 1-1.469.926C357.637 185.363 350.764 197.51 347 210a72.2 72.2 0 0 0-1 13h-1l-1-5-1 1a91.472 91.472 0 0 1-5.063.063l-2.785-.028L333 219v-1h9l.25-3.375c1.715-13.185 10.444-26.96 20.746-35.227 1.636-1.178 3.316-2.296 5.004-3.398Z"/><path fill="#090A0A" d="M325 218c9.01-.3 9.01-.3 12 2 1.25 2.125 1.25 2.125 2 4l-4 2 5 6h-2l-1 2-13-11 1-5Z"/><path fill="#E3BA97" d="M330 312c.846 2.54 1.02 3.906.438 6.563-.773 2.685-.773 2.685 1.562 5.437-3.418 1.14-6.035 1.113-9.637 1.098l-3.935-.01-4.115-.026c-1.384-.005-2.767-.01-4.15-.013-3.388-.012-6.776-.028-10.163-.049 2.81-2.81 5.724-2.495 9.5-2.813 6.768-.706 12.979-1.898 18.5-6.187 1.267-2.063 1.267-2.063 2-4Z"/><path fill="#181816" d="M291 331h5c-1.863 5.59-4.835 10.322-9.5 13.938-2.712 1.152-4.584 1.312-7.5 1.062l2-1v-2l-4-2h3v-2l-4-1 3.313-.875c3.727-.944 3.727-.944 6.687-3.125l-1 3 2 1v-2h3l1-5Z"/><path fill="#DFBA96" d="m155 223 1.617 1.102c7.814 5.272 15.574 10.45 24.383 13.898-6.464 2.524-15.812-1.76-21.984-4.16-2.027-.9-4.026-1.862-6.016-2.84l2-8Z"/><path fill="#050807" d="M124 166v3l3 1-4 1v3c-2.604.336-5.208.669-7.813 1-.737.095-1.475.19-2.236.29-3.005.38-5.918.71-8.951.71v-2c5.569-5.231 12.38-8 20-8Z"/><path fill="#282521" d="M346 234c3 3.75 3 3.75 3 6h2c1.262 2.525 1.099 4.312 1.063 7.125l-.028 2.758L352 252h-1l-1-7-2 3-1-1-.734 2.668-1.016 3.52-.984 3.48c-1.525 4.015-3.323 7.36-7.266 9.332-1.663.12-3.332.175-5 .188l-2.688.042C327 266 327 266 325 264c3.092-.75 5.352-.97 8.563-.688 3.65.07 3.65.07 5.75-3 2.118-4.157 3.626-7.968 4.687-12.5 1-3.812 1-3.812 3-5.812l2 1v-2h-2v-2l-2-1 1-4Z"/><path fill="#11100D" d="m211 337-2 5 5 1v1c-3.674.853-7.045 1.108-10.813 1.063l-2.957-.028L198 345v-1l-5-1v-5a124.857 124.857 0 0 1 18-1Z"/><path fill="#0C0E0D" d="M201 91c3 1 3 1 4.5 2.563 1.515 1.783 1.515 1.783 4.5 1.437l-.563 1.875c-.674 2.167-.674 2.167.563 4.125l-1 2h2l1 3h3l1 6c-2.657-.102-4.449-.51-6.46-2.298-1.552-1.744-2.99-3.54-4.415-5.39l-1.547-1.857c-2.567-3.27-3.62-4.63-3.398-8.912L201 91Z"/><path fill="#322E2B" d="M329 304h1c.777 8.893.777 8.893-2.063 12.938-6.949 4.879-13.422 6.209-21.75 6.125l-3.519-.028L300 323c-2.026-3.35-2.217-5.87-2.125-9.75l.055-2.984L298 308c1.671 2.962 2.327 5.37 2.625 8.75l.227 2.422L301 321c12.988-1.27 12.988-1.27 25-6 .86-2.05.86-2.05 1-4l2 1v-8Z"/><path fill="#2D261F" d="M153 295c-11.86 7.907-28.255 8.366-42 8 3.82-2.368 7.954-2.706 12.313-3.313 7.605-1.128 14.403-3.087 21.55-5.894 3.57-.903 4.957-.53 8.137 1.207Z"/><path fill="#1E1A16" d="M244 281c4.374-.025 8.748-.043 13.123-.055 1.483-.005 2.967-.012 4.45-.02 8.205-.047 16.27.053 24.427 1.075v1l-2.375.375c-2.766.416-2.766.416-4.625 2.625-2.614.135-2.614.135-5.883-.023l-3.535-.157-3.707-.195-3.73-.172c-3.05-.142-6.097-.293-9.145-.453l4-2-13-1v-1Z"/><path fill="#020302" d="M108 344h31v1l-8 1-1 3 3 2h-19v-2l-2-1 1-2-5-1v-1Z"/><path fill="#DDB696" d="M331 228c1.133.952 2.267 1.902 3.402 2.852 3.216 2.697 6.41 5.417 9.598 8.148l-2 1c-1.86-.833-1.86-.833-4.105-2.168l-2.483-1.459-2.6-1.56-5.042-2.981-2.443-1.455A574.137 574.137 0 0 0 316 225c1-2 1-2 3.563-3 5.23 0 7.586 2.674 11.437 6Z"/><path fill="#D9B593" d="M242 138c4.392-.05 8.785-.086 13.177-.11 1.491-.01 2.982-.023 4.472-.04 8.022-.092 15.566-.08 23.351 2.15v1l-12 1 2 3h-5v-2h-5l1-2-22-1v-2Z"/><path fill="#251F1A" d="M244 246h2a81.83 81.83 0 0 1-4.61 11.563l-1.53 3.146-1.61 3.291c-4.324 8.91-8.51 17.828-12.25 27-1.15-1.637-1.15-1.637-2-4 .855-2.71.855-2.71 2.402-5.805l1.691-3.44 1.845-3.63c.609-1.226 1.216-2.452 1.822-3.679 1.73-3.49 3.485-6.968 5.24-10.446.812-1.63 1.622-3.262 2.43-4.895 1.508-3.043 3.031-6.077 4.57-9.105Z"/><path fill="#262626" d="M402 207h1c-.625 9.782-2.313 19.358-4 29h-1l-1-8h-2v-2l-3-1 1-10 1 3 3-1 2 1 3-11Z"/><path fill="#161816" d="m116 168-12 6v2l1.977-.438c4.75-1.008 9.137-1.82 14.023-1.562-2.662 1.774-4.236 2.482-7.23 3.29l-2.432.663-2.525.672-2.561.695c-2.083.565-4.167 1.123-6.252 1.68-1-3-1-3 0-6l-3-2a1407.49 1407.49 0 0 1 8.875-3.063l2.55-.892 2.442-.83 2.254-.778C114 167 114 167 116 168Z"/><path fill="#232423" d="M193 339v4h8v1l5 1v1c-2.562.337-5.125.67-7.688 1-.72.095-1.442.19-2.185.29-3.737.477-7.35.83-11.127.71.506-2.169 1-4 2-6l-10-1v-1c1.916-.169 3.833-.335 5.75-.5l3.234-.281c2.334-.17 4.676-.219 7.016-.219Z"/><path fill="#090707" d="m246 240-4 1v2l-3.14.184-4.11.254-2.066.119c-3.895.236-3.895.236-7.715.974-3.067.73-6.077.56-9.219.531l-3.828-.027L209 245v-1h6v-2c10.232-2.628 20.527-2.185 31-2Z"/><path fill="#1D1F1E" d="M210 95c3.532 3.432 6.714 6.974 9.813 10.813l2.394 2.957L224 111l-1 2c-3.083-1.199-6.063-2.477-9-4v-3h-3v-3h-2c-.625-2.313-.625-2.313-1-5l2-3Z"/><path fill="#E0BA95" d="M284 334c-.625 1.938-.625 1.938-2 4-4.041.93-7.92 1.119-12.055 1.098l-3.36-.01-3.46-.026-3.531-.013c-2.865-.012-5.73-.028-8.594-.049v-1h14v-3c6.374-.962 12.56-1.107 19-1Z"/><path fill="#141614" d="m85 181 2 1-.875 1.625c-1.219 2.43-1.219 2.43-2.063 5.375-1.026 2.899-2.122 4.656-4.062 7l-2 3c-3.625.188-3.625.188-7 0 1.312-2.843 2.767-5.094 4.82-7.453l1.621-1.875 1.684-1.922 1.707-1.969c1.386-1.597 2.776-3.19 4.168-4.781Z"/><path fill="#D8B493" d="M270 159h1c.53 2.77 1.05 5.54 1.563 8.313l.458 2.38.42 2.295.397 2.11C274 176 274 176 273 179a1605.964 1605.964 0 0 1-4.313-5.188l-2.425-2.917A62.38 62.38 0 0 1 261 163c1.813-1.063 1.813-1.063 4-2l3 1v3h2v-6Z"/><path fill="#ECC39C" d="M217 328h14l-1 4 3 1v2c-2.292.027-4.583.046-6.875.063l-3.867.035C219 335 219 335 217 334v-6Z"/><path fill="#7BCDC2" d="m403 300 3 2c-8.262 16.893-8.262 16.893-13 24-2.43-2.274-3.428-3.683-4-7l4 2c1.399-4.6 1.399-4.6 2.25-9.313.75-1.687.75-1.687 3.813-2.937L402 308l1-8Z"/><path fill="#2D2D2D" d="m179 149-3.375 1.188c-2.945 1.237-3.484 1.548-5.063 4.5L170 157l-1-2h-2v-2a83.252 83.252 0 0 0-8.188 3.625C156 158 156 158 154 158v2c-3.73-.502-7.361-1.042-11-2 4.48-1.456 8.964-2.898 13.452-4.327 1.526-.489 3.05-.98 4.574-1.476 2.192-.712 4.387-1.41 6.583-2.107l2.059-.679c3.428-1.072 5.923-1.809 9.332-.411Z"/><path fill="#1D1D1D" d="M349 318c3.375-.188 3.375-.188 7 0l2 3 2-1 1.313 2.75c1.392 2.682 2.798 4.911 4.687 7.25l-2 2-10-11-5.375 3.5C343.25 328 343.25 328 341 328l2-5 3 1 1-4 2 1v-3Z"/><path fill="#13110E" d="M276 258c6.066.48 10.584 1.844 16 4.563l2.059.998c1.652.802 3.297 1.62 4.941 2.439-2.332 1.206-4.496 2.165-7 3a92.826 92.826 0 0 1-7.625-3.75c-.694-.36-1.387-.722-2.102-1.094-5.146-2.774-5.146-2.774-6.273-6.156Z"/><path fill="#332E2C" d="M266 299c1.124 3.37.944 5.481.625 9l-.273 3.188C266 314 266 314 265 317l-3-1-1-8 4-2-1-4a36.975 36.975 0 0 0-8.11-1.316l-2.285-.127-2.355-.12-2.402-.13A2020.08 2020.08 0 0 0 243 300v-1c7.833-1.002 15.159-.89 23 0Z"/><path fill="#272622" d="M228 323h2v2l2-.625c4.096-.512 7.042.485 11 1.625-2.331 2.331-3.127 2.361-6.313 2.688l-2.3.261C232 329 232 329 229.82 328.555c-4.184-.823-8.379-.924-12.632-1.118l-2.678-.13c-2.17-.106-4.34-.207-6.51-.307v-1l20-2v-1Z"/><path fill="#161817" d="M175 51c3.925 3.7 6.946 7.55 10 12l-4 1-1-3-2-1 1 5-3 1-5-7 2-2h3l-1-1a99.984 99.984 0 0 1 0-5Z"/><path fill="#251F19" d="M312 170h1l.152 2.013c.235 3.08.478 6.158.723 9.237l.265 3.331c.543 6.525 1.254 12.853 2.688 19.247.209 2.636-.461 3.949-1.828 6.172h-3l.563-2.188c.592-2.724.592-2.724-.03-5.047-.64-3.323-.645-6.431-.63-9.816 0-.659.002-1.317.004-1.996.005-2.089.018-4.177.03-6.266.006-1.422.01-2.845.014-4.267.011-3.473.028-6.947.049-10.42Z"/><path fill="#212221" d="M404 182c2 2 2 2 2.23 4.645-.02 1.568-.02 1.568-.043 3.167l-.019 3.145c-.154 2.784-.541 5.331-1.168 8.043l-1.875-2c-1.881-2.228-1.881-2.228-4.125-2 1-7.429 1-7.429 2-11h2l1-4Zm-7 10h1l1 6h-2v-6Z"/><path fill="#E9BF96" d="m250.25 245.938 2.14 1.152 1.61.91v1l-8 1v2h-2l2-6h-2l-1 3h-10v-2h-5l1-2 2.703.035 3.547.028 3.516.035c3.09.04 3.09.04 5.39-.723 2.583-.525 3.82.312 6.094 1.563Z"/><path fill="#191B1A" d="m377 270 2.875.563c3.024.724 3.024.724 5.125-.563-.34 5.442-3.703 8.937-7 13-1.5-1.313-1.5-1.313-3-3v-3h-2a56.54 56.54 0 0 1 4-7Z"/><path fill="#1F1A16" d="M319 281v1l5 1v1l-2.676.262c-8.276.969-14.973 2.808-22.324 6.738l-1-4 8-1-3-2 3.813-1.438 2.144-.808c3.924-1.448 5.974-1.744 10.043-.754Z"/><path fill="#231F1D" d="M313 224c4.473.579 7.874 2.415 11.688 4.688l1.852 1.08a672.31 672.31 0 0 1 13.472 8.103c2.085 1.269 2.085 1.269 4.988 2.129l-1 3c-6.677-3.223-13.055-6.855-19.438-10.625l-3.044-1.773-2.89-1.704-2.622-1.541C314 226 314 226 313 224Z"/><path fill="#87D0C6" d="M49 343c1.508 1.11 1.508 1.11 3.125 2.75 3.881 3.574 7.828 4.945 12.875 6.25v1c-5.75.125-5.75.125-8-1v5h-2a106.595 106.595 0 0 1-4.625-5.375l-2.477-3.023C46 346 46 346 46 344l3-1Z"/><path fill="#79CCC1" d="M382 288c1.858 3.135 2.201 5.375 2 9h-5l1.938.75C383 299 383 299 383.813 301c.187 2 .187 2-.813 4l2 1-3 1a311.868 311.868 0 0 1-3.125-5.25l-1.758-2.953C376 296 376 296 376.687 293.78c1.586-2.151 3.361-3.96 5.313-5.781Z"/><path fill="#1A1B1A" d="M193 145v2l-2 1-1 3 2 1-7 2-1.875-2.375c-2.024-2.593-2.024-2.593-4.125-4.625 1.58-.533 3.164-1.051 4.75-1.563l2.672-.878c2.656-.576 4.048-.451 6.578.441Z"/><path fill="#100F0D" d="M201 328c4.211.526 7.362 2.144 11.063 4.078 2.274 1.082 4.442 1.61 6.937 1.922l-2 4h-5l-1-2c-2.34-1.131-2.34-1.131-5.063-2.125l-2.785-1.07L201 332v-4Z"/><path fill="#20201F" d="m394 242 3 2c-.455 1.73-.914 3.46-1.375 5.188l-.773 2.917c-.8 2.717-1.755 5.286-2.852 7.895h-1l1-11-5-1 1-5c1.207.03 1.207.03 2.438.063 2.496.233 2.496.233 3.562-1.063Z"/><path fill="#3C332A" d="M244 234c2.937 2.782 5.434 5.88 8 9h-3v2l-22-1v-1h15v-2l-2.375.188L237 241l-2-3h10l-1-4Z"/><path fill="#040605" d="m189 74 3 1v2h4c.688 2.813.688 2.813 1 6-1.438 1.875-1.438 1.875-3 3v-2l-3 1c-2.063-2.188-2.063-2.188-4-5 .293-4.293.293-4.293 2-6Z"/><path fill="#2B2C2B" d="m209 335 3 1v2l2.375.313C217 339 217 339 219 342c2.01.032 4.023.056 6.027-.09C227 342 227 342 230 344l-3.188-.063c-5.957-.01-11.88.557-17.812 1.063-1.223-3.669-.414-4.554 1-8l-1-2Z"/><path fill="#241F19" d="M206 170c9.163 1.168 18.032 2.766 27 5l-2 3c-3.23-.617-6.46-1.245-9.688-1.875l-2.763-.527c-4.373-.859-8.484-1.698-12.549-3.598v-2Z"/><path fill="#1C1A19" d="M325 143c1.44.284 2.876.577 4.313.875l2.425.492C334 145 334 145 337 147l-2 2-1 3 4 2c-3.304 1.124-5.05.896-8.25-.438l-2.14-.87L326 152v-1h6v-2l-7-2v-4Z"/><path fill="#CFAD8F" d="M347 244h1c.617 8.33-1.912 16.284-7 23-2.313 2-2.313 2-5 3-3.313-1.313-3.313-1.313-6-3v-1l1.828-.227 2.422-.398 2.39-.352c3.522-1.527 4.541-3.694 6.36-7.023 1.312-3.633 1.312-3.633 2.25-7.375l1.016-3.773L347 244Z"/><path fill="#3A2F26" d="M270 146h1l.55 3.953c.253 1.766.507 3.532.762 5.297.132.91.263 1.821.397 2.76.914 6.109 2.157 11.884 4.033 17.775C277 178 277 178 275.57 179.81L274 181c-.335-1.666-.668-3.333-1-5l-.754-3.75c-1.717-8.89-2.673-17.166-2.246-26.25Z"/><path fill="#100E0C" d="M249 339c4.125-.058 8.25-.094 12.375-.125 1.176-.017 2.351-.034 3.563-.05l3.398-.02 3.142-.032C274 339 274 339 276 341h-15l1 2h-13v-4Z"/><path fill="#EFC49C" d="m254 333 19 1v1h-8v3c-2.875.027-5.75.047-8.625.063l-2.45.025c-4.428.018-8.564-.192-12.925-1.088v-1l16 1v-2l-3-1v-1Z"/><path fill="#191714" d="M344 260h1v9h-2l4 10-2 1v-2h-2l-.813-2.938L341 272c-3.29-1.097-4.713-.8-8 0 2.688-2.252 4.646-3.882 8-5 1.17-2.424 1.17-2.424 2-5l1-2Z"/><path fill="#93D6CE" d="M218 422c2.417-.081 4.832-.14 7.25-.188l2.066-.076c4.365-.063 6.38.5 9.684 3.264-8.085.901-16.057 1.124-24.188 1.063l-3.462-.014c-2.784-.012-5.567-.028-8.35-.049v-1l3.465-.148 4.472-.227c.755-.03 1.51-.062 2.288-.094 1.93-.104 3.854-.31 5.775-.531l1-2Z"/><path fill="#EBC29D" d="m201 304 3 1-1 9-2-2-1 7-2-1v-2h-2c-.367-6.483-.367-6.483 1.375-8.938C199 306 199 306 201 306v-2Z"/><path fill="#5C5A56" d="m328 299 2 1c.96 2.882 1.106 4.699 1.063 7.688l-.028 2.449L331 312h-6c-1.478-2.957-1.06-5.742-1-9l4-2v-2Z"/><path fill="#DEB998" d="M296 271c1.375 3.82.74 7.075 0 11-1 1-1 1-4.563 1.063L288 283c2.545-7.818 2.545-7.818 4-11 2-1 2-1 4-1Z"/><path fill="#39342F" d="M381 245c3.125 4.688 2.387 9.63 1.5 15.063L382 262l-2-2-2 3c-.25-5.625-.25-5.625 2-9 .167-2.625.167-2.625 0-5l-9-2c3.68-2.453 5.654-2.395 10-2Z"/><path fill="#0E0C0B" d="M222 305c1.776 2.664 2.73 4.781 3.813 7.75 1.824 4.695 4.09 8.293 7.187 12.25h-3v-2l-1.828-.242c-3.601-1.257-4.505-4.083-6.195-7.328-1.38-3.432-1.434-5.778-.977-9.43l1-1Z"/><path fill="#EAEAEA" d="m308 225 2 1c.362 7.357.362 7.357-1.125 10-2.664 1.421-4.91 1.198-7.875 1 1.557-4.671 4.084-8.087 7-12Z"/><path fill="#2A2824" d="M311.063 221.188C313 222 313 222 315 224l-4 1 1 2c.495 4.374.492 6.32-2.125 9.938-3.306 2.372-4.899 2.524-8.875 2.062v-3l2.875.125c3.227.225 3.227.225 5.125-2.125.355-1.908.355-1.908.313-4l.05-2.125L309 226l-3-2c2.44-3.05 2.44-3.05 5.063-2.813Z"/><path fill="#1E1A15" d="m349 244 2 1c.465 7.79-.843 14.527-3 22-2.463-4.433-3.325-7.516-2.223-12.55l1.16-3.762 1.153-3.801L349 244Z"/><path fill="#0E0C0A" d="M317 207c3 3.625 3 3.625 3 7l9 3-4 1 1 3-3 1c-1.824-.996-1.824-.996-3.688-2.438l-1.886-1.433L316 217l3-1-1-1.688c-1.131-2.615-1.157-4.493-1-7.312Z"/><path fill="#E1B995" d="M347 207c2 1.125 2 1.125 4 3 .188 3 .188 3 0 6l1 3a90.488 90.488 0 0 1-4 4h-2a1216.82 1216.82 0 0 1-.063-6.313l-.035-3.55C346 210 346 210 347 207Z"/><path fill="#E7BF9A" d="M202 331.625c2.822 1.294 5.428 2.635 8 4.375v1c-1.768.25-3.54.474-5.313.688l-2.988.386C199 338 199 338 197.27 336.582L196 335l-2-1c2.999-2.293 4.216-3.163 8-2.375Z"/><path fill="#231B15" d="M373 212v1l-2.125.445c-6.077 1.437-10.388 3.141-15.121 7.25-1.948 1.45-3.357 1.98-5.754 2.305l-2-1c7.577-7.309 14.392-10.674 25-10Z"/><path fill="#1B1916" d="M266 302h2c.416 7.248-.558 13.17-3 20h-3c-.844-3.98-1.447-7.97-2-12l2-1 .375 3.438L263 316l2 1 1-15Z"/><path fill="#ECC39E" d="M242 289h7l-1 3h2v3l2 2c-7.37.362-7.37.362-10.063-1.188-1.318-2.55-.735-4.13.063-6.812Z"/><path fill="#2C2D2F" d="M40 285h1l1 8h2v-3l3-1c.293 6.055.293 6.055 0 8l-3 2c-.73 2.563-.73 2.563-1 5h-1c-2.308-6.348-2.198-12.295-2-19Z"/><path fill="#050606" d="m389 247 1 2h2l-1 11-5 2-1-5 3 1-1-3c-.04-2.333-.044-4.667 0-7l2-1Z"/><path fill="#101212" d="M267 170c2.313 3 2.313 3 4 6l-2 1-5-4 2 6-2 2a209.999 209.999 0 0 1-2.563-3.313l-1.44-1.863L259 174l1-3c2.653-1.327 4.059-1.49 7-1Z"/><path fill="#222323" d="M156 28v1h-6l-1 6h-3v-2h-2l-1 3h-7c5.076-6.18 12.21-8.663 20-8Z"/><path fill="#CCA887" d="M214 327h13l-1 3-3.375.438c-3.446.346-3.446.346-5.625 1.562v2c-2.763-.523-5.326-1.109-8-2v-2l1.938-.375L213 329l1-2Z"/><path fill="#1C1612" d="m286 313 1.188 1.625L289 317l2.313 3.188c3.004 3.144 4.43 3.614 8.687 3.812v1l-1.898-.07-2.477-.055-2.46-.07c-2.378-.019-2.378-.019-4.165 2.195-3.875-6.625-3.875-6.625-5-10h2v-4Z"/><path fill="#0B0C0A" d="M378 163v3l5-1c-.813 2.938-.813 2.938-2 6l-3 1c-2.688-1.438-2.688-1.438-5-3 .375-2.438.375-2.438 1-5 2-1 2-1 4-1Z"/><path fill="#9BD9D2" d="M299 340h30v1l-18 1v2l-8 1-1-3-2-1v2h-2l1-3Z"/><path fill="#E1B994" d="M213 250c-1.583 4.274-4.506 6.265-8 9-2.125-4.625-2.125-4.625-1-8 3.214-2.296 5.284-2.032 9-1Z"/><path fill="#78CCC1" d="M420 170h1l1 9c-3 0-3 0-6-1h-3l-2 2-1-4 2.313-.813c2.56-1.131 3.884-2.1 5.687-4.187l1 1 1-2Z"/><path fill="#E2E4E3" d="M180 71c3.636 3.434 6.361 6.797 9 11l-3 3-8-10 2-4Z"/><path fill="#261D16" d="M137 201h2c1.27 1.62 2.465 3.3 3.625 5 3.686 5.218 7.7 9.661 12.375 14l-2 2c-6.145-5.769-11.706-11.696-16-19v-2Z"/><path fill="#4D4E4C" d="M240 345c28.358-.206 28.358-.206 39 1v1c-13.139 1.558-25.883.331-39-1v-1Z"/><path fill="#060606" d="m49 245 2 4 4-1-1 8c-3.01.934-3.867 1.044-7 0v-4l2-1v-6Z"/><path fill="#DDB996" d="M308 211c3.565 1.621 6.59 3.76 9.75 6.063l2.984 2.16L323 221v1h-6v-2l-2.25-.813c-2.682-1.158-4.647-2.162-6.75-4.187v-4Z"/><path fill="#31261E" d="M279 191c0 3.997-1.493 4.91-4 8-1.679 2.718-3.213 5.512-4.75 8.313l-1.246 2.244A1656.838 1656.838 0 0 0 266 215c-.982-3.101-1.079-3.802.188-6.988 3.587-6.58 7.028-12.177 12.812-17.012Z"/><path fill="#191B19" d="M383 165c1.482.45 2.96.91 4.438 1.375l2.496.773C392 168 392 168 393 170h-6v2l-7 1c1.875-5.75 1.875-5.75 3-8Z"/><path fill="#85D1C6" d="m354 330.688 2 1.312v2l4 2-1 2h-5v-3l-7-1v2l-4-1c7.055-5.217 7.055-5.217 11-4.313Z"/><path fill="#EFC59E" d="M310 175h1v21l-1-2h-2l-1 2c.114-2.75.24-5.5.375-8.25.03-.777.062-1.555.094-2.355.365-7.12.365-7.12 2.531-10.395Z"/><path fill="#050604" d="M181.25 148.625c2.025 1.591 2.801 3.003 3.75 5.375-3.188.813-3.188.813-7 1-2.938-2.438-2.938-2.438-5-5 5.338-2.184 5.338-2.184 8.25-1.375Z"/><path fill="#070808" d="M321 143h4l1 3c3 1.709 3 1.709 6 3v2c-3.033.229-5.975.365-9 0-2.063-2-2.063-2-3-4h3l-2-4Z"/><path fill="#1E1815" d="m368 176 2 1-1.469.926c-6.359 4.341-10.235 9.768-14.531 16.074-.992 1.34-1.99 2.675-3 4l-1-3a63.589 63.589 0 0 1 4.438-6.313l1.374-1.762c3.546-4.416 7.334-7.955 12.188-10.925Z"/><path fill="#040607" d="M76.563 339.625C80 340 80 340 83 342l-6 1 1 4c-6.75-.75-6.75-.75-9-3 2.46-3.15 3.502-3.948 7.563-4.375Z"/><path fill="#171411" d="M339 293c3.336 2.99 5.15 5.932 7 10l-2 2a376.146 376.146 0 0 1-3-2.875l-1.688-1.617C338 299 338 299 338 297l-3-1 4-3Z"/><path fill="#DFB999" d="M247 332c7.427-.103 14.635.001 22 1v1h-14l2 1v2h-5v-2l-5-1v-2Z"/><path fill="#DEBA95" d="m61 327 1.563 2.438c3.07 3.226 5.086 3.311 9.437 3.562-1.688 2.063-1.688 2.063-4 4-2.438.188-2.438.188-5-1-1.909-2.19-3.482-4.526-5-7l3-2Z"/><path fill="#101211" d="m377 324 7 1 1 6-5 1c-3-5.75-3-5.75-3-8Z"/><path fill="#CCAB8B" d="M316 322v2h13v1h-29c2.559-2.559 3.883-2.37 7.438-2.625l2.933-.227A99.865 99.865 0 0 1 316 322Z"/><path fill="#B7997D" d="M327 288c3.795 1.491 5.61 3.757 8 7l-2 1-4-3-1.25 1.482c-2.122 1.84-3 1.873-5.762 1.811l-2.295-.03-2.38-.075-2.417-.042A525.76 525.76 0 0 1 309 296v-1l3.43-.078c1.481-.056 2.963-.114 4.445-.172l2.262-.043c2.434-.067 2.434-.067 5.863-.707 1.708-2.177 2-3.267 2-6Z"/><path fill="#1F1A15" d="M237 284v2l4 1-1.863.805-2.45 1.07-2.425 1.055c-2.458 1.096-2.458 1.096-5.262 3.07l-1-5c5.625-4 5.625-4 9-4Z"/><path fill="#242422" d="M299 135c7.394.596 7.394.596 11 3l-7 1-1 5-5-1 1.063-1.813c1.27-2.295 1.27-2.295-.063-5.187l1-1Z"/><path fill="#040505" d="M401 207c1.268 3.654.757 6.49.063 10.25l-.59 3.266L400 223h-1v-5h-5c.375-1.938.375-1.938 1-4l2-1c.656-2.527.656-2.527 1-5l2 1 1-2Z"/><path fill="#0A0A0A" d="M316 206h1l2 10c-5.38-1.076-6.485-2.083-10-6h6l1-4Z"/><path fill="#0C0C0A" d="M397 175h3c1.125 6.75 1.125 6.75 0 9-3.375-1.186-5.647-2.276-8-5l1-3 3 1 1-2Z"/><path fill="#030504" d="m223 116 1 2c2.527.656 2.527.656 5 1 .981 3.053.981 4.947 0 8-2.375-.5-2.375-.5-5-2-1.167-2.699-1.532-5.052-2-8l1-1Z"/><path fill="#79CCC1" d="M139 73c4.206 1.502 5.739 4.286 8 8-5.447 1.332-5.447 1.332-7.875-.125-1.463-2.438-1.42-4.079-1.125-6.875l1-1Z"/><path fill="#46423E" d="M250.379 320.902c1.394.007 2.789.019 4.184.036l2.154.013c1.76.012 3.522.03 5.283.049l1 2c-2.711 1.356-4.913 1.17-7.938 1.188l-3.214.042C249 324 249 324 246 322c1-1 1-1 4.379-1.098Z"/><path fill="#332C25" d="m215.688 292.938 3.574.027L222 293c-2 3-2 3-3.91 3.477l-2.153.148c-3.706-.069-3.706-.069-4.937 1.375-1.666.04-3.334.043-5 0v-4c3.422-1.14 6.087-1.098 9.688-1.063Z"/><path fill="#120E0C" d="M227 242v2c-3.754 1.204-7.332 1.099-11.25 1.063l-3.828-.028L209 245v-1h6v-2c3.956-1.217 8.206-1.897 12 0Z"/><path fill="#CBA98B" d="M188.688 163.313 192 164c1.396.106 2.792.21 4.188.313C200 165 200 165 202 167.063l1 1.937c-6.787-.79-13.361-2.413-20-4 3-2 3-2 5.688-1.688Z"/><path fill="#232524" d="M229 119c3.925 3.7 6.946 7.55 10 12h-2l-1 3-.875-1.875c-1.38-2.608-3.048-4.062-5.313-5.938C228 124 228 124 228.25 121.25L229 119Z"/><path fill="#7ECEC3" d="m59 354 4 1 2 11a158.814 158.814 0 0 1-6-5v-2l-2-1 2-4Z"/><path fill="#1C1812" d="M292 287h4l2 5-7 5v-2l-4 1c2.22-2.908 3.93-4.953 7-7l-2-2Z"/><path fill="#0F0F0D" d="M70 199c.553 2.076 1 3.844 1 6h3l1 3c-1.938 2.688-1.938 2.688-4 5-2.404-2.404-2.527-3.69-3-7 0-4 0-4 2-7Z"/><path fill="#EDC5A1" d="m327 266 9 1c-1 4-1 4-2.75 5.25-2.62.874-4.507 1.11-7.25.75l-2-3 1.5-1.438c1.615-1.321 1.615-1.321 1.5-2.562Z"/><path fill="#25231F" d="M348 151c3.375.547 5.082 1.055 8 3-3.75 1.125-3.75 1.125-6 0v2c-3 2-3 2-5 3-1.945-.559-1.945-.559-4.125-1.438l-2.195-.87L337 156c3.098-.84 5.783-1.09 9-1l2-4Z"/><path fill="#0B0F0F" d="M243 142v4h2v4l-3 1c-4.429-5.143-4.429-5.143-5-9 3.75-1.125 3.75-1.125 6 0Z"/><path fill="#464647" d="M240 130h33v1l-3.648.148-4.727.227c-.794.03-1.588.062-2.406.094-4.586.05-4.586.05-8.219 2.531-2.125-.375-2.125-.375-4-1h3v-2h-13v-1Z"/><path fill="#040605" d="M162 40h5l1 5c-1.75 1.125-1.75 1.125-4 2-2.25-.875-2.25-.875-4-2l2-5Z"/><path fill="#72C9BF" d="m330 386 1 4-6 4-3-2v-3c2.888-2.108 4.385-3 8-3Z"/><path fill="#282521" d="m85.688 340.313 3.011.363L91 341v1l-3.25.188c-4.504.975-5.042 2.292-7.75 5.812-2.75.313-2.75.313-5 0v-3h2v-2c2.479-3.562 4.6-3.216 8.688-2.688Z"/><path fill="#090908" d="m59 332 3 1c1.313 3.375 1.313 3.375 2 7l-2 3c-2-1-2-1-4-4 .375-3.688.375-3.688 1-7Z"/><path fill="#414342" d="M378 315c2.912 3.288 4.497 5.599 5 10l-6-1 1.563 2.875L380 330l-1 2c-3.077-4.308-3.077-4.308-2.688-7.813L377 322h2l-2-2c.375-2.625.375-2.625 1-5Z"/><path fill="#B09174" d="M226 232c4.43 1.392 6.916 3.563 10 7v1h-13v-3h8l-5-5Z"/><path fill="#E0BA97" d="M268 204c-.53 3.821-1.497 6.062-4 9l-.313-1.938L263 209l-3-1c.813-1.938.813-1.938 2-4 3-1 3-1 6 0Z"/><path fill="#E1B995" d="M207 151c-3.634 2.326-6.77 2.163-11 2l-1 2-4-2c2.735-1.824 4.326-2.516 7.438-3.25l2.308-.578c2.688-.205 3.984.442 6.254 1.828Z"/><path fill="#212322" d="M161 33c4.875 4.75 4.875 4.75 6 7h-5l-2 4-2-1c.787-3.41 1.871-6.689 3-10Z"/><path fill="#7ACDC3" d="M159 19h6v3h3v5c-3 0-3 0-5-1.875L161 23l-3-2 1-2Z"/><path fill="#241E18" d="M396 198h1l1 18-4-2c.499-5.369 1.022-10.692 2-16Z"/><path fill="#120F0D" d="M83 190h4c-1.51 4.98-4.557 8.243-8 12-2-3-2-3-1.813-5.125L78 195l3-1c1.209-2 1.209-2 2-4Z"/><path fill="#7BCDC2" d="M139 147c2.169.506 4 1 6 2v2l-12 3 1-4 5-1v-2Z"/><path fill="#050606" d="M150 29h6l-1 4 3-1-1 3h-7c-1.125-3.75-1.125-3.75 0-6Z"/><path fill="#7BCCC0" d="m291 404 12 1c-3.317 2.488-4.996 3.528-8.75 4.688-.8.25-1.598.502-2.422.761L290 411v-2l2-1 1-3-2-1Z"/><path fill="#D4AE8D" d="M252.426 247.055 254 248v1l-8 1v2h-2l2-6h-2l-1 2-2-2c4.634-2.896 7.048-1.389 11.426 1.055Z"/><path fill="#212322" d="M62 212c2.236 3.353 2.173 3.907 1.625 7.688l-.336 2.449L63 224h-3v-2h-2c.565-3.958 1.809-6.666 4-10Z"/><path fill="#030504" d="M85.438 342.75 88 343l2 3-1 2h-9c2.473-4.946 2.473-4.946 5.438-5.25Z"/><path fill="#050605" d="m178 60 3 1v3l4-1-1 6-7-2 1-7Z"/><path fill="#86CFC5" d="m75 51 2 1-4 5 2 1-3 1v4l-3-1v-2l-5 2 11-11Z"/><path fill="#040605" d="M169 48c2 0 2 0 3.563 1.5L174 51h1v5l2 1c-4.75 1-4.75 1-7 1l1-7-3-1 1-2Z"/><path fill="#050707" d="m50 321 5 1 1 7-4 1c-1.858-3.135-2.201-5.375-2-9Z"/><path fill="#13130F" d="M255 160c2.313.188 2.313.188 5 1 1.813 2.563 1.813 2.563 3 5l-5 1-1-4h-3l1-3Zm-3 2 3 3h-3v-3Z"/><path fill="#8DD1C7" d="M177 356c-3.068 2.976-4.462 3.965-8.813 4.25L165 360v-1l-8-1v-1c6.688-.624 13.281-1.13 20-1Z"/><path fill="#202221" d="M55 226c2.83 3.996 1.762 7.427 1 12h-3c-1.644-4.933-.186-7.54 2-12Z"/><path fill="#3A302A" d="m343 210 3 2c.293 2.602.293 2.602.188 5.625l-.083 3.04L346 223h-1l-1-5-1 1a91.472 91.472 0 0 1-5.063.063l-2.785-.028L333 219v-1h9l1-8Z"/><path fill="#DDB793" d="M221 159c2.526 2.363 3.888 3.665 5 7-.938 2.188-.938 2.188-2 4h-3c-1.286-7.429-1.286-7.429 0-11Z"/><path fill="#CAA685" d="M273 334h11l-2 4-9-1v-3Z"/><path fill="#29211A" d="m334 323-1 3c-5.916 1.096-11.448.938-17.438.563l-2.794-.159c-2.257-.128-4.512-.263-6.768-.404v-1l2.064-.076c3.083-.116 6.166-.239 9.248-.361l3.249-.12 3.115-.127 2.872-.11c2.626-.22 4.828-1.206 7.452-1.206Z"/><path fill="#29231E" d="m313 273 12 1v1l-2.375.375c-2.766.416-2.766.416-4.625 2.625-3.81-.324-5.784-.856-9-3h4v-2Z"/><path fill="#040708" d="m56 226 2 1c2.098-.4 2.098-.4 4-1l-1.063 2.313c-1.26 2.735-1.26 2.735.063 5.687h-2l-1 3c-2-2-2-2-2.195-4.164l.07-2.461.055-2.477L56 226Z"/><path fill="#413225" d="M195 160c4.275 2.748 8.141 5.693 12 9l-1 3-8-1 4-3-1.531-1.242-1.969-1.633-1.969-1.617L195 162v-2Z"/><path fill="#C7A687" d="M226 166c2.96 2.755 5.037 5.466 7 9l-10-1 3-4v-4Z"/><path fill="#1F2020" d="m338 147 10 3c-5.048 2.524-5.048 2.524-8 3l-3-1 1-5Z"/><path fill="#DFE0E0" d="M202 100c2.648 2.578 4.944 4.916 7 8l-3 3c-2.883-3.255-4.633-5.6-5-10l1-1Z"/><path fill="#1A1611" d="M298 308c1.576 2.886 2.463 5.533 3.125 8.75l.508 2.422L302 321l6 1v1h-8c-2.026-3.35-2.217-5.87-2.125-9.75l.055-2.984L298 308Z"/><path fill="#040405" d="M245 282c6.769-.102 13.303-.03 20 1v1l-17 1v-2l-3-1Z"/><path fill="#2D2E2E" d="m371 281 6 2c-2.778 3.993-4.495 6.211-9.313 7.375L364 291v-2h5c1.47-3.91 1.47-3.91 2-8Z"/><path fill="#030504" d="M346 259c2.419 8.983 2.419 8.983 1.125 12.125L346 273l-1 4-2-8h2l-.035-1.934c-.01-.826-.018-1.652-.027-2.503l-.036-2.497C345 260 345 260 346 259Z"/><path fill="#DDB996" d="M312 200h1l1 9-7-4v-4l4 1 1-2Z"/><path fill="#2C2119" d="M271 189c0 3.767-1.121 4.92-3.313 7.938l-1.863 2.59A770.565 770.565 0 0 1 261 206c.362-7.239 4.995-12.16 10-17Z"/><path fill="#E2BC97" d="M266.188 161.375 268 162v7c-1.813-.188-1.813-.188-4-1-1.75-2.563-1.75-2.563-3-5 3-2 3-2 5.188-1.625Z"/><path fill="#151413" d="M245 146c1.875.25 1.875.25 4 1 1.25 2.063 1.25 2.063 2 4-2.906 1.257-4.796 2-8 2 0-3.106.54-4.353 2-7Z"/><path fill="#DBB38E" d="m260 205 2 2-1 1 1.375 1.188c1.901 2.12 2.687 4.142 3.625 6.812l-2 1v-3l-2.375-.25C259 213 259 213 257.687 210.937L257 209h2l1-4Z"/><path fill="#C1A285" d="M269 187c1.418.285 2.834.578 4.25.875l2.39.492c2.328.625 4.25 1.481 6.36 2.633-4.75 2.875-4.75 2.875-7 4v-6l-6 2v-4Z"/><path fill="#0F0C0C" d="M144 166c-4.503 3.002-8.578 4.319-14 4l2-1v-3c4.316-.762 7.744-1.16 12 0Z"/><path fill="#282929" d="m157 155-1 3h-2v2c-3.73-.502-7.361-1.042-11-2 9.41-3.444 9.41-3.444 14-3Z"/><path fill="#040504" d="M201 91c3 1 3 1 4.5 2.563 1.515 1.783 1.515 1.783 4.5 1.437l-2 4-1-2h-2l-1 2v-2l-4-1 1-5Z"/><path fill="#EAC29C" d="m324 320 1 2c2.527.656 2.527.656 5 1v1h-14v-2c2.906-1.257 4.796-2 8-2Z"/><path fill="#090807" d="M303 139c3.27.564 4.826 1.5 7 4l-1 2-7-1c0-3 0-3 1-5Z"/><path fill="#343534" d="M182 109c5 6.59 5 6.59 5 10h2l-1 3-9-11 3-2Z"/><path fill="#7DCEC3" d="M161 99c3.288 3.11 5.837 6.016 8 10l-4 1-2-3 1-2-4-1h2l-1-5Z"/><path fill="#282928" d="M196 77c3.288 3.11 5.837 6.016 8 10l-2 1c-1.5-1.375-1.5-1.375-3-3v-2l-3-1v-5Zm0 6v3Z"/><path fill="#252018" d="m195 301 1 2-1 2c-.225 1.537-.408 3.08-.563 4.625l-.253 2.477L194 314h-1l-1 5h-1c-.557-11.593-.557-11.593 3-17l1-1Z"/><path fill="#DEB895" d="M294 294c1.293 2.586.843 3.764.25 6.563l-.484 2.44L293 305l-3 1 1-4-3-1 6-7Z"/><path fill="#1F1A17" d="M312 257c3.85.604 6.861 1.768 10.313 3.563l2.675 1.378L327 263c-2.685 1.033-3.792 1.076-6.543.074l-2.644-1.387-2.668-1.363C313 259 313 259 312 257Z"/><path fill="#11100E" d="M156.188 159.938 158 161c-1.974 2.523-2.967 2.993-6.188 3.688L149 165l-1-2c2.514-2.753 4.37-4.698 8.188-3.063Z"/><path fill="#CFCFCD" d="M264 307h2c.125 6.625.125 6.625-1 10l-3-1c.875-6.75.875-6.75 2-9Z"/><path fill="#0B0B0A" d="M247 327v2l2 1h-12l-1-2c3.734-.879 7.168-1.09 11-1Z"/><path fill="#C8A688" d="M236 315h1v6l-1-2c-3.248 1.722-3.248 1.722-4 5l-3-4h2v-4l5 1v-2Z"/><path fill="#E1BB96" d="M136 302c-1 3-1 3-2.688 3.875-3.344.18-5.454-1.251-8.312-2.875v-1c7.429-1.286 7.429-1.286 11 0Z"/><path fill="#12100F" d="M309 296c2.77-.027 5.542-.047 8.313-.063l2.38-.025 2.295-.01 2.11-.016C326 296 326 296 329 297l-2 4-1-2c-3.458-1.243-7.11-1.308-10.75-1.563l-3.547-.253L309 297v-1Z"/><path fill="#E1B995" d="M196 293h5v4l-6 3c0-4 0-4 1-7Z"/><path fill="#0E0E0C" d="M339 233c2.997.999 4.027 1.651 6 4v2h2v2h2v2l-4 1-.75-2.313c-1.378-2.962-2.678-3.801-5.25-5.687v-3Z"/><path fill="#1C1D1C" d="M66 205c1.884 3.265 2.493 6.281 3 10l-6-3c1.875-4.75 1.875-4.75 3-7Z"/><path fill="#343535" d="m85 181 2 1-4 8v-2l-4 3-2-1 8-9Z"/><path fill="#12110E" d="m205 141 3 1h-2l.5 1.813C207 146 207 146 207 149l-6 1v-3h2v-4h2v-2Z"/><path fill="#81CBC1" d="m41 88 1 3c-1.363 2.7-1.363 2.7-3.313 5.688l-1.925 3.011L35 102h-2c.624-3.761 2.348-6.19 4.563-9.25l1.94-2.703L41 88Z"/><path fill="#0B0C0B" d="m189 74 3 1-.563 2.313c-.665 2.777-.665 2.777.563 5.687h-3c-1.125-2.25-1.125-2.25-2-5 .875-2.313.875-2.313 2-4Z"/><path fill="#050605" d="m385 332 2 1c.625 3.063.625 3.063 1 6l-4 1v-2l-2-1 3-5Z"/><path fill="#EAC09B" d="M232 330h8l-1 2 4 3c-4.056-.468-7.466-.88-11-3v-2Z"/><path fill="#191613" d="M226 316c2.387 2.963 4.735 5.943 7 9h-3v-2l-1.875-.25C226 322 226 322 224.75 319.937L224 318l2-2Z"/><path fill="#241D18" d="m291 270 2 2-5 11-2-1c1.31-4.234 2.944-8.074 5-12Z"/><path fill="#EDC29B" d="M294 271h2c1.108 3.325.845 5.622 0 9-1.563-1.688-1.563-1.688-3-4 .313-2.75.313-2.75 1-5Zm0 9 2 2c-1 1-1 1-4.063 1.063L289 283v-1h5v-2Z"/><path fill="#2D2725" d="m303 250 11 6-3 2-10-6 2-2Z"/><path fill="#241E19" d="M317 207c2.097 2.36 2.97 3.546 3.188 6.75L320 216l2 1-2 3-4-4h3l-1-1.688c-1.131-2.615-1.157-4.493-1-7.312Z"/><path fill="#D4B292" d="M267 196c1.063 1.875 1.063 1.875 2 4l-1 2 2 1-2 2c-2.625-.375-2.625-.375-5-1 1.125-2.972 2.223-5.334 4-8Z"/><path fill="#202221" d="M393 170c2.884 1.293 4.872 2.66 7 5h-3l-2 4-.375-2.438L394 174l-2-1 1-3Z"/><path fill="#7BCDC2" d="m373 147 3 1 1 6-9-3c3-2 3-2 5-2v-2Z"/><path fill="#85CDC5" d="m163 140 3 1c1.664.348 3.33.684 5 1-2.886 1.576-5.533 2.463-8.75 3.125l-2.422.508L158 146v-2h5v-2l-2-1 2-1Z"/><path fill="#232322" d="M168 42c2.964 2.808 5.445 5.183 7 9l-2 2-2-5-4 1 1-7Z"/><path fill="#7DCCC2" d="M315 399c-2.853 2.325-5.54 3.75-9 5l-1-5c3.694-1.231 6.206-.644 10 0Z"/><path fill="#CEAC8D" d="M288 325c.625 1.875.625 1.875 1 4-2 2-2 2-5.625 2.125L280 331c4.625-4.875 4.625-4.875 8-6Z"/><path fill="#1D1814" d="M235 265c1.017 2.655 1.13 3.692.004 6.36l-1.441 2.39-1.434 2.422L231 278c-1-3-1-3-.004-5.48l1.441-2.707 1.434-2.731L235 265Z"/><path fill="#241D17" d="m280 257-1.938.375L276 258l-1 2-7-3v-1c4.69-1.117 7.538-.806 12 1Z"/><path fill="#DBB695" d="m60 235 2 3h3l-1 4-6 1c.523-2.763 1.109-5.326 2-8Z"/><path fill="#040708" d="M350 154h6v2c-5.415 3.077-5.415 3.077-8.375 2.688L346 158l1-2h3v-2Z"/><path fill="#E2E4E3" d="m167 54 5 5-2 4-5-5 2-4Z"/><path fill="#191B1A" d="M149 34c6.75 1.625 6.75 1.625 9 5h-3l-1-2c-2.124-.226-2.124-.226-3.625 1.5L149 40a88.406 88.406 0 0 1-1-5l1-1Z"/><path fill="#80CEC7" d="M145 19v2l3 1-10 3-1-3c5.75-3 5.75-3 8-3Z"/><path fill="#17130F" d="M304 283h4c-.246 1.86-.246 1.86-1 4-1.848 1.266-1.848 1.266-4.063 2.25l-2.222 1.016L299 291l-1-4 8-1-3-2 1-1Z"/><path fill="#0F0D0B" d="M184 278c-1 3-1 3-4 5h-3v-4c3.625-2.125 3.625-2.125 7-1Z"/><path fill="#DBB896" d="M381 246h4c1.026 4.41 1.037 6.926-1 11h-1l-.184-1.898-.253-2.477-.247-2.46c-.207-2.208-.207-2.208-1.316-4.165Z"/><path fill="#363737" d="m310 232 1 4c-2.55 2.354-3.71 2.983-7.25 3.188L301 239v-3l2.813.25c3.278.103 3.278.103 5.062-2.25l1.125-2Z"/><path fill="#282A29" d="m94 174 4 2-3 1-1 3-3-1h-3l6-5Z"/><path fill="#292B2A" d="M139 52h2c.93 2.606 1.15 3.642.063 6.25L140 60l2 1h-3c-1.75-2.375-1.75-2.375-3-5 1-2 1-2 3-3v-1Z"/><path fill="#030706" d="M174 341h14l-2 4-3-1c-1.56-.369-3.122-.722-4.688-1.063l-2.449-.535L174 342v-1Z"/><path fill="#211D17" d="M274 330h6l-2 4h-9l4-2 1-2Z"/><path fill="#E8C09A" d="M207.848 326.902 214 327l-1 3c-2.313.688-2.313.688-5 1-1.813-1.438-1.813-1.438-3-3 1-1 1-1 2.848-1.098Z"/><path fill="#030304" d="M194 308h1v11l-2 1c-1.114-2.229-1.165-3.53-1.188-6l-.042-2.125C192 310 192 310 194 308Z"/><path fill="#34302E" d="m366 270 .813 1.813c1.588 2.927 3.206 4.696 6.187 6.187l-1.938.375L369 279l-1 2c-3.077-5.292-3.077-5.292-2.688-8.875L366 270Z"/><path fill="#AB937B" d="M347 244h1c.18 5.22-.03 9.073-2 14l-2-1 3-13Z"/><path fill="#DDBB96" d="M287 195c3.366 1.443 5.51 3.333 8 6h-7l-1-6Z"/><path fill="#E7C09E" d="M271 191c1.6 4.002.293 7.046-1 11h-2c-.37-6.4-.37-6.4 1.5-9.438L271 191Z"/><path fill="#2A2C2B" d="m197 126 2 3-1 2 2 1-1 3c-4.875-4.75-4.875-4.75-6-7l4-2Z"/><path fill="#E5E7E6" d="M152 36c3.736 1.245 4.188 2.634 6 6l-4 1c-1.563-1.813-1.563-1.813-3-4l1-3Z"/><path fill="#140F0C" d="M203 316h1l2 7 8 2v1c-1.457.081-2.916.14-4.375.188l-2.46.105L205 326c-2.43-3.644-2.162-5.712-2-10Z"/><path fill="#0F1110" d="M355 291h5l2 7h-3l-4-7Z"/><path fill="#050405" d="m349 244 2 1v9l-3-1 1-9Z"/><path fill="#030505" d="m392 225 5 1c-.375 1.938-.375 1.938-1 4l-2 1-2 4v-10Z"/><path fill="#E1B998" d="m68 218 4 1v3h-3l1 3h-3c-1-3-1-3-.063-5.188L68 218Z"/><path fill="#191514" d="M305 203c5.875 3.625 5.875 3.625 7 7l-4 1c-3-5.75-3-5.75-3-8Z"/><path fill="#5A4635" d="m368 176 2 1-1.61 1.172c-3.718 2.742-7.243 5.42-10.39 8.828.353-2.9.887-3.895 3.066-5.922l2.497-1.828 2.503-1.86L368 176Z"/><path fill="#D8B28F" d="M136 170v2h-2v2l2 1-6-1v-2l-2-1c2.928-.976 4.956-1.082 8-1Z"/><path fill="#D6AF8A" d="M379 173c-1.974 2.523-2.967 2.993-6.188 3.688L370 177l-1-2h2v-2c3.29-1.097 4.713-.8 8 0Z"/><path fill="#83D1C5" d="M21 121h1v9l-2 1-1-3-1 4-1-2c.777-2.164.777-2.164 1.938-4.625l1.152-2.477L21 121Z"/><path fill="#1F201F" d="M190 71c3.736 1.245 4.188 2.634 6 6h-4l-1-2-4 1v-3h3v-2Z"/><path fill="#181A19" d="M142 35v2l-9 4c.813-2.438.813-2.438 2-5 3-1 3-1 7-1Z"/><path fill="#2B251E" d="m290 321 1.625.938c2.773 1.24 5.375 1.653 8.375 2.062v1l-1.898-.07-2.477-.055-2.46-.07c-2.378-.019-2.378-.019-4.165 2.195a99.984 99.984 0 0 1 0-5l1-1Z"/><path fill="#D3B08E" d="m227 295 3 3h-2l-.375 3.438L227 305l-2 1c-.947-3.702-1.304-5.391.438-8.875L227 295Z"/><path fill="#050405" d="M288 283v2l-9 1v-3c6.75-1.125 6.75-1.125 9 0Z"/><path fill="#D8B693" d="m287 266 5 2-2 6c-2.624-3.061-3-3.732-3-8Z"/><path fill="#CEAA8B" d="M169 235c4.318.508 8.033 1.197 12 3-3.272 1.073-5.43.893-8.75.063l-2.422-.59L168 237l1-2Z"/><path fill="#050505" d="M67 205c2.392 1.872 3.008 3.026 3.875 6 .125 3 .125 3-1.313 4.875L68 217v-3l-1-1c-.141-2.67-.042-5.324 0-8Z"/><path fill="#1C1813" d="M120 174c-3.146 2.097-5.015 2.52-8.688 3.125l-3.011.508L106 178l-1-2c5.075-1.263 9.728-2.27 15-2Z"/><path fill="#1E1813" d="M174 157c-3.687 2.458-6.697 3.012-11 4l1-4c3.663-.75 6.424-1.238 10 0Z"/><path fill="#81D0C4" d="m131 19-2 4h-9c7.225-5.887 7.225-5.887 11-4Z"/><path fill="#0A0D0E" d="M287 330c3 3.75 3 3.75 3 6h-3v2l-3-1 1.063-1.875L286 333l-1-2 2-1Z"/><path fill="#242525" d="M291 331h5c-1.074 2.915-1.778 4.778-4 7v-3l-2-1 1-3Z"/><path fill="#030404" d="M265 330h9l-1 3-8-1v-2Z"/><path fill="#C5A585" d="m239 322 10 1c-3.904 1.952-6.722 2.506-11 3l2-2-1-2Z"/><path fill="#070807" d="M377 315c1.46 2.647 2 3.894 2 7l-4 1c-.688-1.75-.688-1.75-1-4 1.438-2.25 1.438-2.25 3-4Z"/><path fill="#0E0D0B" d="m243.941 297.902 3.621.036 3.63.027L254 298v1l-2.3.078-3.012.172-2.989.14c-2.838.37-2.838.37-4.554 2.657L240 304a99.984 99.984 0 0 1 0-5c1-1 1-1 3.941-1.098Z"/><path fill="#D9B595" d="m165 291-1 5h-7l-1-2c6.75-3 6.75-3 9-3Z"/><path fill="#0C0D0C" d="M347 283c2.667 2.49 4.557 4.634 6 8l-7-2 1-6Z"/><path fill="#1B1A15" d="M288 283h3v2l3 1c-3.674 1.176-7.17 1.074-11 1l2-2h3v-2Z"/><path fill="#2F2821" d="M286 282v1l-2.375.375c-2.766.416-2.766.416-4.625 2.625-3.125.125-3.125.125-6 0 3.586-4.989 7.382-4.432 13-4Z"/><path fill="#DBB694" d="M322 211c2.125.375 2.125.375 4 1v2l2 1c-1.75.688-1.75.688-4 1-2.25-1.438-2.25-1.438-4-3l2-2Z"/><path fill="#030505" d="M398 175h2c1.125 6.75 1.125 6.75 0 9l-4-1v-2h2l-1-3 1-3Z"/><path fill="#DAB695" d="M207 148c2.875-.188 2.875-.188 6 0l2 3-5 3v-5l-3-1Z"/><path fill="#E4BB97" d="M243 140h14v1h-9v2l-3 1-2-4Z"/><path fill="#111312" d="M232 131h2v7l-2 1-3-5h2l1-3Z"/><path fill="#2B2D2C" d="M179 56c2.5 2.313 2.5 2.313 5 5v3h-3c-1.765-3.088-2-4.233-2-8Z"/><path fill="#8CD2C8" d="m389 319 6 3-2 4c-2.5-2.174-3.436-3.73-4-7Z"/><path fill="#0C0A08" d="M329 304h1c.081 1.603.14 3.208.188 4.813l.105 2.707c-.342 2.896-1.047 3.706-3.293 5.48l-1-6 3 1v-8Z"/><path fill="#A68C73" d="m216.25 296.938 2.703.027L221 297v1l-2.75.375c-2.84.546-4.776 1.198-7.25 2.625v-2l-4-1c3.155-.936 5.966-1.106 9.25-1.063Z"/><path fill="#CBA687" d="m286 287 9 1-2 3c-4.75-.875-4.75-.875-7-2v-2Z"/><path fill="#87D0C6" d="M413 280c1.136 3.41.867 4.003-.438 7.188l-.87 2.167L411 291c-2-3-2-3-2-6h2v-3h2v-2Z"/><path fill="#DAB593" d="M315 284h10l1 2c-4.002 1.6-7.046.293-11-1v-1Z"/><path fill="#77CEC0" d="M390 277h1c.37 5.538.37 5.538-1.5 7.875L388 286v-2l-2-1a250 250 0 0 1 4-6Z"/><path fill="#DBB898" d="m300 251 8 4v1c-5.415.37-5.415.37-8.375-1.5L298 253h2v-2Z"/><path fill="#2C2825" d="m337 237 2.313.938c1.875.74 3.774 1.424 5.687 2.062l-1 3-8-4 1-2Z"/><path fill="#1B1716" d="M327 232c3.941.563 6.75 1.68 10 4v2c-4.43-1.208-6.981-2.517-10-6Z"/><path fill="#111213" d="M57 222h3l1 5-4 1c-1.125-3.75-1.125-3.75 0-6Z"/><path fill="#E3E4E3" d="m238 148 4 2-1 5-5-5 2-2Z"/><path fill="#030504" d="M213 105c2.36 2.36 2.491 3.779 3 7l-5-1v-5l2-1Z"/><path fill="#373837" d="M156 28v1h-6l-1 6-2-1c-.625-2.563-.625-2.563-1-5 3.473-1.158 6.36-1.069 10-1Z"/><path fill="#020403" d="M389 340v5h-7c.75-1.938.75-1.938 2-4 1.752-.637 3.14-1 5-1Z"/><path fill="#D3B090" d="M203 333c2.02.602 4.021 1.273 6 2l1 2-11-1 4-1v-2Z"/><path fill="#353736" d="m385 329 2 4-3 1-2 3-2-5 1.938-.375L384 331l1-2Z"/><path fill="#EEC39D" d="m326 288-3 4-2-3h-3l-1-2c3.62-1.34 5.574-.618 9 1Z"/><path fill="#D7B493" d="m178 283 2 1v3l-9 1c2.297-1.743 4.599-3.4 7-5Z"/><path fill="#AE9074" d="m301 282 2 3c-8.571.286-8.571.286-12-2 3.39-1.043 6.463-1.308 10-1Z"/><path fill="#241F1C" d="M342 256c.813 1.688.813 1.688 1 4-2.438 2.75-2.438 2.75-5 5 0-3.999 1.726-5.802 4-9Z"/><path fill="#80CDC2" d="M36 253h2l-1 9c-1.563-1.813-1.563-1.813-3-4 1-3 1-3 2-5Z"/><path fill="#34271D" d="M215 248c0 3.606-.817 4.413-3 7.188l-1.688 2.167L209 259l-2-2 8-9Z"/><path fill="#C5A58A" d="M333 234c2.664-.392 4.392-.406 6.668 1.113 1.483 1.25 2.912 2.566 4.332 3.887l-2 1c-2.164-.996-2.164-.996-4.625-2.438l-2.477-1.433L333 235v-1Z"/><path fill="#DBB690" d="M138 205c4.875 4.75 4.875 4.75 6 7h-4c-2-3-2-3-3-6l1-1Z"/><path fill="#EBC49F" d="m262 206 4 2-1 5-.813-1.938c-1.074-2.393-1.074-2.393-4.187-3.062l2-2Z"/><path fill="#2A221B" d="m314 201 3 2a84.76 84.76 0 0 1-2 7h-3l2-9Z"/><path fill="#050505" d="M391.063 169.25 393 170l1 3c-3 1-3 1-5.188.063L387 172v-2c2-1 2-1 4.063-.75Z"/><path fill="#3B3D3C" d="m116 168-1.645.805-2.168 1.07-2.144 1.055c-2.255 1.136-2.255 1.136-5.043 3.07v-4c1.455-.53 2.914-1.049 4.375-1.563l2.46-.878C114 167 114 167 116 168Z"/><path fill="#020402" d="m150 159-1 3-8 1c.75-1.938.75-1.938 2-4 2.953-1.238 3.874-1.042 7 0Z"/><path fill="#060709" d="m300 139-1 3-8-1c3.435-2.29 4.985-2.178 9-2Z"/><path fill="#8FCFC8" d="M407 129c1.79 2.686 2.66 4.663 3.625 7.688.26.808.52 1.616.79 2.449.192.615.386 1.23.585 1.863l-2-1v-2h-2l-1-9Z"/><path fill="#80CDC3" d="M31 103c2 2 2 2 2 6l-5 1c1.875-5.875 1.875-5.875 3-7Z"/><path fill="#7CCFC1" d="m107 29 3 1c-2 3-2 3-4 3.813L104 34l-2-2c2.313-1.563 2.313-1.563 5-3Z"/><path fill="#8BD2C7" d="m273 10 11 3c-3 2-3 2-5 2v-2l-6-1v-2Z"/><path fill="#251D18" d="m198 323 5 5h-2l-1 3-3-2v-2h2l-1-4Z"/><path fill="#373938" d="M360 325c3.161 1.37 3.993 1.99 6 5l-2 2c-4-4.75-4-4.75-4-7Z"/><path fill="#D0AF8B" d="m203 323 5 4-4 2-4-4 3-2Z"/><path fill="#EFC5A0" d="M201 315h1l1 9h-4l-1-2 2-1c.658-3.03.658-3.03 1-6Z"/><path fill="#D8B592" d="M330 312c.981 3.053.981 4.947 0 8l-5-1 1.938-2.375c2.043-2.42 2.043-2.42 3.062-4.625Z"/><path fill="#D4AE8F" d="M310 271c1.458-.027 2.917-.046 4.375-.063l2.46-.035C319 271 319 271 321 272v2c-4.219.196-7.17-.198-11-2v-1Z"/><path fill="#171310" d="M297 241h1l.25 2.75c.842 3.65 1.929 4.884 4.75 7.25-4.875-.875-4.875-.875-6-2-.141-2.67-.042-5.324 0-8Z"/><path fill="#ECC7A4" d="M149.063 229.813C152 231 152 231 153 233h-8l-1-3c2-1 2-1 5.063-.188Z"/><path fill="#DFB48F" d="m328 226 7 5-2 2c-2.5-1.25-2.5-1.25-5-3v-4Z"/><path fill="#0D0E0D" d="M350 222h2c-1.074 2.915-1.778 4.778-4 7l-2-4h3l1-3Z"/><path fill="#1C1A18" d="m266 170 5 5-2 2-1.313-1.375C265.892 173.8 265.892 173.8 263 172h3v-2Z"/><path fill="#D9B896" d="m202 163 5 1 1 6c-3-1.813-3-1.813-6-4v-3Z"/><path fill="#DEB896" d="m295 142 10 2c-4.18 2.786-6.147 1.796-11 1l1-3Z"/><path fill="#333534" d="m234 125 5 5-2 1-1 3c-1.858-3.135-2.201-5.375-2-9Z"/><path fill="#8BD1C6" d="M201 71c1.813.125 1.813.125 4 1 1.813 2.938 1.813 2.938 3 6l-1 2a568551759.563 568551759.563 0 0 0-4.688-6.152C201 72 201 72 201 71Z"/><path fill="#8CD3C9" d="M124 34h4l-3 10h-1V34Z"/><path fill="#7CCFC3" d="m322 389 7 2-4 3-3-2v-3Z"/><path fill="#48494A" d="M266 300c1.333 2.667.671 4.167 0 7h-2l-2 4-1-3 4-2-1-5 2-1Z"/><path fill="#E0B995" d="m145 300-1 2c-3.063.625-3.063.625-6 1l-1-3c3.287-.8 4.71-1.097 8 0Z"/><path fill="#DDB996" d="m174 277 5 1-5 4-3-2 3-1v-2Z"/><path fill="#D3B28D" d="m237 264 2 4h-2v5h-3l3-9Z"/><path fill="#221B14" d="M386 250h1l1 8-4-1 2-7Z"/><path fill="#313332" d="M48 245c2 3 2 3 1.625 5.188L49 252h-2l-1 3c.458-3.47.891-6.674 2-10Z"/><path fill="#EEC49F" d="M148 219c-2.386 1.892-4.072 3.024-7 4l-1-2c1-2 1-2 2.875-2.688C145 218 145 218 148 219Z"/><path fill="#D3AB87" d="M132 215c2.622 1.049 3.794 1.65 5.25 4.125L138 221l-6-2v-4Z"/><path fill="#2C241D" d="M137 201h2c1.29 1.75 1.29 1.75 2.625 4l1.352 2.25L144 209h-3c-4-5.257-4-5.257-4-8Z"/><path fill="#2F3030" d="M70 199c.826 2.892 1 4.887 1 8l-4-2c1.875-4.875 1.875-4.875 3-6Z"/><path fill="#89D1C8" d="m80 174 1 3-5 4v-6c2-1 2-1 4-1Z"/><path fill="#120E0D" d="M206 170c6.152.586 6.152.586 8 1l1 2c-6.75.125-6.75.125-9-1v-2Z"/><path fill="#323534" d="M165 152c-1 2-1 2-4 4-2.688-.375-2.688-.375-5-1 3.268-2.179 5.08-3 9-3Z"/><path fill="#040403" d="m241 144 4 2v4l-3 1c-.687-2.49-1-4.379-1-7Z"/><path fill="#8BD3C7" d="m186 131 4 4-1 3-3-1v-6Z"/><path fill="#E0E2E1" d="m221 125 4 4-3 3-3-5h2v-2Z"/><path fill="#1A1C1B" d="M213 121c3.736 1.245 4.188 2.634 6 6-3 0-3 0-4.688-1.313C213 124 213 124 213 121Z"/><path fill="#0E100F" d="M162 40h5l1 2-2 3c-2.51-1.255-2.871-2.5-4-5Z"/><path fill="#DFB791" d="m235 306 3 1-3 9h-1l1-10Z"/><path fill="#DCB797" d="m286 294 1 3-4 4-1-5 4-2Z"/><path fill="#7DCBC3" d="M405 290h1v6h2l-2 4c-1.804-2.76-2.013-3.89-1.625-7.25L405 290Z"/><path fill="#ECC5A4" d="M231 291c1.044 3.133.934 3.99 0 7l-3-2c1.875-3.875 1.875-3.875 3-5Z"/><path fill="#27211E" d="m185 274 1 3 2 1-4 2v-2h-2l1-3 2-1Z"/><path fill="#7ECCC4" d="m401 254 4 2v2l-3 1-1 2h-2l2-7Z"/><path fill="#DFE2E1" d="m379 248 2 1-1 7-2-1 1-7Z"/><path fill="#1C1613" d="m369 247 4 1-7 5c1-4 1-4 3-6Z"/><path fill="#86D0C7" d="M404 243c2 3 2 3 2 7l-4 2 2-9Z"/><path fill="#40352A" d="m298 236 2 3-2 3a75.316 75.316 0 0 0-1 5h-1c-.286-7.429-.286-7.429 2-11Z"/><path fill="#D8B692" d="m175 229-1 4-6-3c3.625-2.125 3.625-2.125 7-1Z"/><path fill="#040608" d="M397 198h2c.93 2.606 1.15 3.642.063 6.25L398 206h-1v-8Z"/><path fill="#D4B294" d="M298 195h2a158.814 158.814 0 0 1 5 6c-3.528 0-4.468-.643-7-3v-3Z"/><path fill="#E0B995" d="m363 172 2 1a108.817 108.817 0 0 1-1 7l-2 1c-.625-3.375-.625-3.375-1-7l2-2Z"/><path fill="#323433" d="M146 160c-3.85 2.567-5.586 1.833-10 1 3.85-2.567 5.586-1.833 10-1Z"/><path fill="#D4B18D" d="M198 151v2h-2l-1 2-4-2c3-2 3-2 7-2Z"/><path fill="#7ECEC2" d="m146 82 4 2v3l-4-1v-4Z"/><path fill="#141615" d="m180 77 5 5-1 2-5-3 1-4Z"/><path fill="#83D2C5" d="M175 34c1.945 2.918 2.453 4.625 3 8-4.875-4.75-4.875-4.75-6-7l3-1Z"/></svg>