<svg version="1.0" xmlns="http://www.w3.org/2000/svg" width="400" height="400" viewBox="0 0 300 300"><path d="M135.6 1.1c-35.3 3.7-66.1 18.4-91.1 43.4C7.3 81.6-7.6 134.2 4.7 185c5.9 24.6 18.3 47.7 35.3 66.2 53.9 58.6 143.8 64.7 205.2 14 47.5-39.1 66.1-104 46.7-162.5C273.2 46.6 222.7 6.6 163.5 1c-12.3-1.1-16.4-1.1-27.9.1zm18.9 79c34.5 2.9 67.8 11.9 92 24.7 10.5 5.6 13.5 9.1 13.5 15.9 0 5.6-2.1 9.6-6.3 12.2-5.7 3.5-10.3 2.8-22.4-3.3-13.1-6.6-24.9-10.8-40.8-14.6-22-5.3-33.4-6.5-62.5-6.5-28.6 0-38.7 1.1-58.3 6.2-9.6 2.4-10 2.5-14.3.8-11.2-4.3-12.6-19.2-2.2-25.5 5.5-3.3 28.6-8.1 47.8-9.9 12.6-1.2 39.9-1.2 53.5 0zm.2 52.4c24 3.1 45.6 9.6 66 19.7 14.7 7.2 18.3 10.6 18.3 17.3 0 5.3-3.5 10-8.6 11.4-4.2 1.1-7.3.3-14.1-3.7-25.1-14.9-62.8-23.2-98.8-21.9-17.6.7-23.8 1.5-39.5 5.3-9.9 2.4-10.8 2.5-14.3 1.1-10-4.2-10.1-17.4-.3-21.8 5.7-2.5 19.7-5.8 31.6-7.4 13.5-1.8 45.3-1.8 59.7 0zm-2.7 48.6c27.1 3 64.8 18.1 67.9 27.2 2.2 6.2-2.3 12.7-8.7 12.7-1.6 0-7.6-2.5-13.3-5.5-12.3-6.4-24.6-10.6-40.1-13.7-9.2-1.8-14.8-2.2-30.3-2.2-19.1-.1-28.8.9-46.8 4.5-8.9 1.8-10 1.8-12.7.4-3.8-2-6.3-6.8-5.5-10.4.9-4.3 4.6-7.1 11.1-8.6 25.5-5.8 52-7.3 78.4-4.4z"/></svg>