<svg xmlns="http://www.w3.org/2000/svg" width="375" height="375"><path d="M33 168h319l.063 85.375.027 26.81c.005 10.928.005 10.928.005 16.067.001 3.537.005 7.074.01 10.612.031 20.404-.05 40.753-1.105 61.136-4.151-1.342-7.807-2.844-11.613-4.984l-3.243-1.813-3.457-1.953-3.62-2.03c-2.481-1.39-4.961-2.783-7.44-4.178a3752.89 3752.89 0 0 0-10.084-5.655c-7.212-4.033-14.42-8.075-21.627-12.116l-9.291-5.209c-1.537-.86-1.537-.86-3.105-1.74a7292.6 7292.6 0 0 0-26.568-14.782 2173.743 2173.743 0 0 1-18.807-10.557c-3.731-2.118-7.469-4.225-11.208-6.329a2223.427 2223.427 0 0 1-6.183-3.496c-3.285-1.859-6.58-3.698-9.879-5.533l-3.073-1.752-2.872-1.584-2.524-1.415c-3.563-1.294-5.95-.491-9.353.951l-1.889 1.003-2.187 1.153-2.352 1.269-2.516 1.341c-8.396 4.506-16.678 9.213-24.96 13.925-6.484 3.684-13.002 7.306-19.524 10.921a6788.42 6788.42 0 0 0-29.355 16.366L95 335a10042.383 10042.383 0 0 1-43.056 24.027l-3.233 1.793-3.013 1.67a375.59 375.59 0 0 0-6.846 3.94C36 368 36 368 34 368c-1.354-19.78-1.131-39.585-1.101-59.399.005-4.469.006-8.938.006-13.407.006-13.002.02-26.004.032-39.007L33 168ZM33 87h319v45H33V87ZM33 6h319v44H33V6Z"/></svg>