<svg xmlns="http://www.w3.org/2000/svg" width="559" height="559"><path fill="#ed902d" fill-rule="evenodd" d="M132.231 71.169c-.927.927-1.231 9.71-1.231 35.517v34.286l-32.25.264-32.25.264-.283 11.25-.283 11.25h32.783l32.783-.001-.276 34.117c-.202 25.01.037 34.494.898 35.532.912 1.098 3.661 1.352 12.276 1.133l11.102-.281.263-35.236.263-35.237 32.737-.263 32.737-.264v-22l-32.737-.264-32.737-.263-.263-35.237L155.5 70.5l-11.019-.281c-7.72-.196-11.388.088-12.25.95"/><path fill="#7099a6" fill-rule="evenodd" d="M272 45v24h-44.084l.292 7.75.292 7.75H272.001L272 108.75V133h17V85h20.8c11.733 0 21.214-.412 21.75-.946.522-.52.801-4.12.618-8L331.836 69H289V21h-17v24M59.667 224.667c-.367.366-.667 10.941-.667 23.5V271H16v17h43v47h17V288.233l2.25-.603c1.237-.331 11.156-.609 22.042-.616l19.792-.014-.292-7.75-.292-7.75-21.75-.27-21.75-.269V224h-7.833c-4.309 0-8.134.3-8.5.667"/><path fill="#c82034" fill-rule="evenodd" d="M131 357.986v34.986l-32.25.264-32.25.264-.286 10.919c-.21 8.057.052 11.137 1 11.75.708.456 15.236.805 32.286.775l31-.055.263 35.055.263 35.056H157l-.001-35.25V416.5l30.25.287c16.638.158 31.278.034 32.533-.277 2.23-.551 2.276-.826 2-11.787L221.5 393.5l-32.25-.264-32.25-.264V323h-26v34.986"/><path fill="#e8752c" fill-rule="evenodd" d="M265 225.461v39.514l-36.25.263-36.25.262-.279 13.923c-.21 10.467.038 14.124 1 14.735.703.446 17.142.818 36.529.827L265 295v78h30v-78.5h71.5l.277-14.75.276-14.75h-72.03l-.261-39.25-.262-39.25-14.75-.277-14.75-.276v39.514"/><path fill="#58869b" fill-rule="evenodd" d="M403.696 70.637c-.383.383-.696 16.365-.696 35.516v34.819l-32.25.264-32.25.264-.283 11.25-.283 11.25h65.04l.263 35.25.263 35.25 10.5.292c5.775.16 11.512.039 12.75-.269l2.25-.561V164h65.066l-.283-11.25-.283-11.25-32.237-.264-32.237-.264-.263-35.236L428.5 70.5l-12.054-.279c-6.63-.154-12.367.034-12.75.416"/><path fill="#596491" fill-rule="evenodd" d="M497 221.107c0 .609-.675.848-1.5.531-2.091-.802-1.88.644.292 2 1.524.951 1.821.763 1.989-1.259.108-1.309-.023-2.379-.292-2.379-.269 0-.489.498-.489 1.107m-5 .952c0 .582-.359.837-.798.566-.439-.271-1.451-.08-2.25.426-.86.544-.975.925-.284.934.643.008 1.784.251 2.536.54.856.328 1.424-.232 1.519-1.5.084-1.114-.044-2.025-.285-2.025s-.438.477-.438 1.059m-13.25.647c1.238.238 2.25 1.051 2.25 1.806 0 .875-.795 1.22-2.194.951-2.022-.39-2.067-.295-.577 1.194 1.193 1.194 1.382 2.235.722 3.972-.95 2.498-.332 5.371 1.156 5.371 1.398 0 1.046-1.997-.357-2.022-.687-.012-.125-.902 1.25-1.978s1.938-1.966 1.25-1.978c-.687-.012-1.25-.729-1.25-1.593 0-1.397.167-1.405 1.5-.072 1.614 1.614 2.003 3.643.7 3.643-.44 0-.8 1.096-.8 2.435 0 1.34.36 2.213.8 1.941.44-.272.8-1.116.8-1.876 0-.76.449-1.659.997-1.998.658-.407.671.242.038 1.905-.613 1.612-.611 2.737.003 3.117.529.327.962.091.962-.524s.45-.84 1-.5c.55.34 1-.11 1-1s.43-1.352.956-1.027c.526.325.721 1.206.432 1.958-.631 1.644 1.209 3.031 2.102 1.585.345-.559 1.726-1.016 3.069-1.016 2.425 0 3.277-1.365 1.526-2.447-.503-.311-1.116 0-1.363.691-.246.691-.786.943-1.198.56-.412-.383.539-1.51 2.113-2.505 1.575-.995 2.987-2.403 3.138-3.128.151-.726-.187-1.035-.75-.686-.564.348-1.025.156-1.025-.426s.525-1.059 1.167-1.059c2.13 0 .053-1.152-2.603-1.444-1.437-.157-2.853.103-3.147.579-.294.476.184.865 1.063.865 1.313 0 1.369.246.314 1.375-.707.757-1.737 1.292-2.289 1.189-2.893-.537-5.505-1.814-5.505-2.69 0-.546-.399-.745-.887-.444-.487.301-1.442-.122-2.122-.941-.75-.904-.828-1.489-.197-1.489.572 0 1.266.563 1.544 1.25.277.688.568.125.646-1.25l.143-2.5.928 2.314c.51 1.273 1.373 2.04 1.916 1.704 1.488-.919-1.118-4.518-3.271-4.518-1 0-1.54.45-1.2 1 .34.55.168 1-.382 1s-1.278-.45-1.618-1c-.34-.55-1.604-.939-2.809-.864-2.19.136-2.19.137.059.57m10.545 4.742c-.951 1.083-.899 1.49.25 1.931.97.372 1.455-.098 1.455-1.41 0-2.304-.109-2.338-1.705-.521m-11.902 11.023c.119.809.416 1.597.661 1.75.245.153.337.095.205-.129-.133-.224.26-1.012.872-1.75.85-1.023.75-1.342-.42-1.342-.844 0-1.437.662-1.318 1.471m4.857-.753c-.687.247-1.25.785-1.25 1.195 0 .996 6.684.74 7.701-.295.44-.448-.101-.668-1.201-.491-1.1.178-2.45.058-3-.267-.55-.325-1.562-.388-2.25-.142m10.523 1.121c.701.444 1.478 1.867 1.727 3.161.249 1.294.816 2.611 1.26 2.927 1.273.904.881 3.05-.76 4.163-1.23.834-1.14.96.5.7 1.497-.237 2.016-1.116 2.063-3.497.035-1.749-.251-2.986-.636-2.748s-.934-.463-1.22-1.559c-.321-1.225.116-2.363 1.136-2.958 1.294-.755.891-.97-1.843-.982-2.159-.01-3.012.294-2.227.793m-11.523 2.192c-1.238.498-2.283 1.707-2.322 2.687-.04.98-.153 3.425-.25 5.434-.156 3.193.042 3.534 1.572 2.715.962-.516 1.75-.58 1.75-.143 0 1.36 3.845 3.273 5.388 2.681.807-.31 1.3-1.428 1.097-2.484-.204-1.057-.016-1.921.417-1.921 1.296 0 4.156 3.609 3.434 4.331-.368.368-.182.669.414.669s1.29-.562 1.542-1.25c.366-1 .723-1 1.783 0 1.093 1.031 1.046 1.25-.268 1.25-.876 0-1.8.563-2.053 1.25-.765 2.081.298 3.75 2.388 3.75 1.087 0 1.717-.419 1.401-.931-.317-.512-.094-1.229.495-1.593.725-.448.576-1.416-.461-3-1.398-2.133-1.381-2.384.195-2.865.95-.29.246-.397-1.566-.236-3.943.349-5.032-.842-2.319-2.536 1.8-1.125 1.843-1.46.518-4.022-.795-1.538-1.413-3.138-1.372-3.557.04-.418-.626-.905-1.48-1.083-1.988-.414-2.042 2.421-.061 3.181 1.776.682 1.654 5.309-.141 5.309-.682 0-1.152-.419-1.045-.93.107-.511-.856-1.335-2.139-1.832-1.728-.668-2.214-.578-1.875.347.252.686.889 1.16 1.416 1.054.582-.118.535 1.16-.119 3.25-1.118 3.569-2.496 4.557-2.714 1.944-.284-3.407-.515-3.991-1.504-3.806-.571.107-1.038-.457-1.038-1.254 0-1.161.39-1.1 1.967.306 1.895 1.691 1.942 1.676 1.292-.412-.371-1.193-.199-2.459.384-2.819.581-.359.815-1.044.519-1.523-.295-.478.26-1.333 1.234-1.9 2.897-1.687.438-1.23-3.029.563-2.977 1.539-3.104 1.539-1.828 0 1.544-1.862 1.5-1.879-1.622-.624m8.795 11.651c1.159.563-2.972 3.988-4.295 3.56-.413-.133-.757.77-.765 2.008-.013 1.819-.201 1.963-.985.75-.533-.825-.991-1.05-1.016-.5-.026.55-.713.12-1.526-.955-1.435-1.898-1.527-1.901-3.218-.109-.957 1.015-1.177 1.531-.49 1.146.688-.385 1.25-.223 1.25.359s-.477 1.059-1.059 1.059c-2.141 0 .175 1.867 3.118 2.513 2.472.543 2.819.929 1.866 2.077-.643.775-2.127 1.417-3.297 1.425-1.747.013-1.86.192-.628 1 1.244.817 1.268 1.134.143 1.86-.851.549-.978 1.109-.34 1.503 1.459.902 4.197-.355 4.197-1.926 0-.734.468-1.623 1.04-1.977.675-.417.812.266.392 1.941-.394 1.569-.23 2.584.417 2.584.601 0 .948-1.502.795-3.444-.149-1.894.134-3.193.63-2.887.495.306.678 1.406.407 2.444-.546 2.085.855 2.624 1.657.637.403-1 .52-1 .583 0 .132 2.094 2.079 1.392 2.079-.75 0-1.1-.346-1.887-.769-1.75-.423.137-1.807-.715-3.076-1.894-1.68-1.563-1.972-2.351-1.076-2.905.715-.442.974-.346.619.228-.35.566.668.988 2.385.988 1.937 0 2.54-.289 1.706-.818-.953-.605-.835-.822.455-.834 1.263-.011 1.628-.635 1.324-2.265-.231-1.238-.509-2.363-.619-2.5-.109-.137-.255-.775-.324-1.417-.069-.641-.699-1.283-1.4-1.425-.725-.147-.802-.029-.18.274m-2.153 4.369c-1.316 1.156-1.829 1.816-1.142 1.466.688-.349 1.25-.103 1.25.546 0 .875.348.893 1.342.068.738-.612 1.604-.851 1.925-.531.321.321.48-.12.354-.979-.386-2.63-1.236-2.76-3.729-.57m-8.23 1.765c.294 1.125 1.23 2.312 2.08 2.638 2.494.957 2.425.051-.182-2.398-2.32-2.179-2.408-2.19-1.898-.24m13.133 7.437c.734.884.623 1.823-.378 3.191-.779 1.066-1.417 1.572-1.417 1.125 0-.448-.675-.254-1.5.431s-1.5.953-1.5.597c0-.357-1.324.037-2.943.874s-3.175 1.147-3.458.689c-.943-1.525-4.941-.532-5.705 1.417-.666 1.7-.762 1.643-.824-.494-.038-1.329-.363-2.123-.721-1.765-.358.358-1.146-.025-1.75-.852-.905-1.238-1.099-1.056-1.099 1.027 0 1.612.453 2.355 1.25 2.049.688-.263 1.25-.081 1.25.406 0 .487-.476 1.044-1.057 1.238-.582.194-.759 1.131-.393 2.083.754 1.966 3.966 2.322 5.055.561.491-.794.171-.958-.993-.511-.969.372-1.464.25-1.136-.28.465-.753 3.71-.783 8.524-.081.275.04-.169.496-.987 1.013-1.166.737-.999.904.774.77 1.391-.105 2.072-.666 1.769-1.456-.271-.707-.043-1.285.507-1.285s1.259.675 1.575 1.5c.381.993 1.808 1.454 4.219 1.364 2.732-.102 3.018-.249 1.143-.585-3.283-.589-4.532-1.861-2.567-2.615.862-.331 1.567-.165 1.567.367 0 .533.788.962 1.75.954 1.496-.013 1.532-.157.25-.985-1.207-.78-1.049-.972.809-.985 1.27-.008 2.05-.434 1.734-.946-.317-.512-.107-1.22.465-1.574.573-.354.977-.273.898.181-.364 2.097.194 3.38 1.201 2.758.773-.478.698-.97-.25-1.635-1.098-.77-1.071-.873.143-.539.825.227 1.509 1.048 1.519 1.826.011.778.461 1.527 1 1.664.54.137.972-.538.96-1.5-.012-.962.663-2.094 1.5-2.515.9-.453.428-.555-1.157-.249-1.684.324-3.261-.068-4.25-1.057-.864-.864-1.572-1.09-1.572-.5 0 .589-.702 1.071-1.559 1.071s-1.351.337-1.096.75c.255.413-.688.819-2.094.904-1.844.111-2.166-.094-1.154-.735 1.119-.708 1.036-.891-.406-.904-.995-.008-1.573-.396-1.285-.862.288-.467 1.777-.78 3.309-.698 4.372.237 5.48-1.545 2.612-4.203-2.607-2.416-4.244-3.062-2.532-.999m-56.711 4.348c1.146 1.381 19.176 1.118 19.645-.287.161-.485-4.412-.884-10.163-.885-7.897-.003-10.219.284-9.482 1.172m24.381-.544c-.246.398.786 1.513 2.294 2.477 1.507.965 2.407 1.393 2 .952-.408-.441-.183-1.492.5-2.336.99-1.224.988-1.382-.009-.783-.687.413-1.25.349-1.25-.141 0-1.066-2.896-1.204-3.535-.169m39.238.611c.538 1.401 19.563 1.035 20.036-.386.167-.499-4.334-.875-10.092-.842-7.493.043-10.267.386-9.944 1.228m24.762-.611c-.246.398.786 1.513 2.294 2.477 1.507.965 2.407 1.393 2 .952-.408-.441-.183-1.492.5-2.336.99-1.224.988-1.382-.009-.783-.687.413-1.25.349-1.25-.141 0-1.066-2.896-1.204-3.535-.169m14.1-.162c-.305.493.104 1.148.909 1.457 1.562.599 2.897-.648 1.832-1.713-.904-.904-2.093-.793-2.741.256m-105.543.688c-.012.596.315 1.421.728 1.834.413.412.77 1.275.795 1.916.025.642.609 1.047 1.298.901.689-.146 1.118.317.954 1.03-.163.712.153 1.394.703 1.516.55.121.991-.568.979-1.53-.012-.962.663-2.097 1.5-2.521.942-.477.569-.58-.979-.271-1.79.356-2.991-.135-4.228-1.73-.95-1.225-1.738-1.74-1.75-1.145m102.478 1.91c0 1.612.453 2.355 1.25 2.049.688-.263 1.25-.081 1.25.406 0 .487-.476 1.044-1.057 1.238-.588.196-.747 1.161-.359 2.173.487 1.268 1.421 1.682 3.081 1.365 1.311-.251 2.667.003 3.013.565.362.584.138.715-.523.306-.674-.416-1.155-.098-1.155.763 0 2.124-2.299 2.591-3.66.743-1.041-1.413-1.391-1.371-3.419.412-1.706 1.5-2.12 1.601-1.69.413.473-1.303-.285-1.559-4.416-1.491-3.973.066-5.223.509-6.151 2.177-.64 1.152-1.789 1.877-2.553 1.612-.929-.323-1.126-.058-.596.801.521.842.396 1.038-.36.57-.635-.392-1.155-.161-1.155.513s-.289.936-.643.583c-.353-.354-.015-1.415.75-2.359 1.208-1.488 1.194-1.595-.107-.802-3.68 2.242-5.696.43-2.291-2.059 1.46-1.067 1.095-1.229-2.5-1.11-4.121.136-6.147 1.639-2.209 1.639 1.1 0 2 .375 2 .833 0 1.127-3.219 1.115-4.661-.018-.715-.562-1.41-.51-1.809.136-.356.577-.059 1.056.661 1.064 1.06.013 1.055.177-.025.861-1.091.692-1.067.948.128 1.407.804.308 1.967.056 2.584-.561 1.562-1.562 1.441.534-.128 2.225-1.015 1.094-.974 1.188.222.504.809-.464 3.509-.904 6-.979 2.49-.075 5.428-.479 6.528-.898 1.413-.539 1.602-.478.643.207-.875.625-.989 1.196-.322 1.609.569.351 1.307-.219 1.64-1.268.333-1.048 1.603-2.157 2.822-2.464 2.03-.511 2.068-.447.456.76-1.59 1.191-1.609 1.445-.194 2.62.862.715 1.489.887 1.393.381-.435-2.287.178-3.312 1.646-2.748 1.287.493 1.334.785.25 1.555-.952.676-.69.806.916.454 1.237-.271 2.25-.03 2.25.536 0 .609.612.521 1.5-.216 1.197-.993 1.803-.993 3 0s1.5.993 1.5 0c0-.92.346-.958 1.324-.146 2.473 2.053 3.676-.879 3.676-8.96 0-7.144-.142-7.67-1.946-7.198-1.071.28-2.144 1.251-2.384 2.157-.275 1.033-.481.746-.554-.77-.064-1.329-.409-2.123-.767-1.765-.358.358-1.146-.025-1.75-.852-.905-1.238-1.099-1.056-1.099 1.027m-90.485.757c-.008.962-.352 1.697-.765 1.632-1.93-.305-3.314.205-2.803 1.033.311.503.023 1.095-.64 1.316-.764.255-.588.639.482 1.049.928.357 1.639.327 1.581-.066-.297-1.993.241-3.263 1.146-2.704.559.346.715 1.117.346 1.714-.404.653-.205.797.5.361.644-.398.935-1.104.648-1.569-.287-.465-.084-.996.452-1.181.621-.214.629-.878.021-1.835-.812-1.279-.955-1.243-.968.25m2.532-.326c-.709 1.148 3.41 5.22 4.561 4.509.442-.273.557-1.27.254-2.215-.422-1.318-.325-1.402.419-.361.682.955 1.173 1.027 1.657.243.379-.613-.1-1.417-1.065-1.787-1.008-.387-1.92-.172-2.146.507-.217.649-.833 1.18-1.369 1.18-.537 0-.717-.419-.401-.931a1.106 1.106 0 0 0-.372-1.516 1.122 1.122 0 0 0-1.538.371m8.068 1.541c-.888 1.355-1.615 2.93-1.615 3.5 0 .569-.75 1.035-1.667 1.035-.916 0-1.4.266-1.075.591.957.957 4.742-.614 4.742-1.967 0-.683.712-2.115 1.582-3.183 1.513-1.857 1.555-1.859.977-.05-.484 1.513-.331 1.665.76.759.751-.623 1.661-.837 2.023-.475.362.362.658.181.658-.401 0-1.003-2.217-2.274-3.967-2.274-.442 0-1.53 1.109-2.418 2.465m10.933-1.215c.513 1.348.124 1.773-1.691 1.85l-2.357.099 2.5.717c1.59.456 2.394 1.327 2.208 2.393-.214 1.227.356 1.622 2.125 1.475 2.194-.181 2.328-.458 1.445-2.992-1.083-3.107-2.264-3.9-1.305-.876.335 1.054.253 2.135-.182 2.404-.435.268-.859-.639-.941-2.016-.083-1.378-.672-3.022-1.31-3.654-.876-.869-.996-.723-.492.6m20.269-.202c-.476 1.429-3.709 1.828-7.067.874-3.126-.889-3.636.043-.944 1.725 1.356.847 2.719.815 5.464-.129 2.012-.692 3.899-1.016 4.194-.721.295.295.536.038.536-.571 0-1.534-1.749-2.478-2.183-1.178m22.198.202c-.008.962-.352 1.697-.765 1.632-1.93-.305-3.314.205-2.803 1.033.311.503.023 1.095-.64 1.316-.764.255-.588.639.482 1.049.928.357 1.639.327 1.581-.066-.297-1.993.241-3.263 1.146-2.704.559.346.715 1.117.346 1.714-.404.653-.205.797.5.361.644-.398.935-1.104.648-1.569-.287-.465-.084-.996.452-1.181.621-.214.629-.878.021-1.835-.812-1.279-.955-1.243-.968.25m2.532-.326c-.709 1.148 3.41 5.22 4.561 4.509.442-.273.557-1.27.254-2.215-.422-1.318-.325-1.402.419-.361.682.955 1.173 1.027 1.657.243.379-.613-.1-1.417-1.065-1.787-1.008-.387-1.92-.172-2.146.507-.217.649-.833 1.18-1.369 1.18-.537 0-.717-.419-.401-.931a1.106 1.106 0 0 0-.372-1.516 1.122 1.122 0 0 0-1.538.371m8.068 1.541c-.888 1.355-1.615 2.93-1.615 3.5 0 .569-.75 1.035-1.667 1.035-.916 0-1.4.266-1.075.591.957.957 4.742-.614 4.742-1.967 0-.683.712-2.115 1.582-3.183 1.513-1.857 1.555-1.859.977-.05-.484 1.513-.331 1.665.76.759.751-.623 1.661-.837 2.023-.475.362.362.658.181.658-.401 0-1.003-2.217-2.274-3.967-2.274-.442 0-1.53 1.109-2.418 2.465m10.933-1.215c.513 1.348.124 1.773-1.691 1.85l-2.357.099 2.5.717c1.59.456 2.394 1.327 2.208 2.393-.214 1.227.356 1.622 2.125 1.475 2.194-.181 2.328-.458 1.445-2.992-1.083-3.107-2.264-3.9-1.305-.876.335 1.054.253 2.135-.182 2.404-.435.268-.859-.639-.941-2.016-.083-1.378-.672-3.022-1.31-3.654-.876-.869-.996-.723-.492.6M458 278.165c0 .775.951 1.481 2.113 1.569 1.162.087 1.95.056 1.75-.071-.2-.126-1.151-.832-2.113-1.568-1.473-1.127-1.75-1.116-1.75.07m64 0c0 .775.951 1.481 2.113 1.569 1.162.087 1.95.056 1.75-.071-.2-.126-1.151-.832-2.113-1.568-1.473-1.127-1.75-1.116-1.75.07m-86.595 4.511c.476 1.518.169 2.463-1.016 3.126-1.897 1.062-1.256 4.248.83 4.119 1.003-.062 1.01-.188.031-.583-1.895-.765-1.496-1.894.729-2.061 1.088-.082 1.876.33 1.75.916-.236 1.1 4.121 1.936 4.656.893.165-.322-1.491-2.386-3.681-4.586-3.017-3.03-3.817-3.473-3.299-1.824m8.595-.426c0 .413.9.75 2 .75s2 .375 2 .833c0 1.127-3.219 1.115-4.661-.018-.715-.562-1.41-.51-1.809.136-.356.577-.059 1.056.661 1.064 1.06.013 1.055.177-.025.861-1.091.692-1.067.948.128 1.407.804.308 1.967.056 2.584-.561 1.562-1.562 1.441.534-.128 2.225-1.015 1.094-.974 1.188.222.504.809-.464 3.509-.904 6-.979 2.49-.075 5.428-.479 6.528-.898 1.413-.539 1.602-.478.643.207-.875.625-.989 1.196-.322 1.609.569.351 1.307-.219 1.64-1.268.333-1.048 1.603-2.157 2.822-2.464 2.03-.511 2.068-.447.456.76-1.59 1.191-1.609 1.445-.194 2.62.862.715 1.489.887 1.393.381-.435-2.287.178-3.312 1.646-2.748 1.287.493 1.334.785.25 1.555-.952.676-.69.806.916.454 1.238-.271 2.25-.03 2.25.536 0 .609.612.521 1.5-.216 1.146-.951 1.831-.97 2.903-.081.944.784 1.517.82 1.753.113.193-.579 1.249-1.255 2.347-1.502 3.91-.882 5.978-1.237 4.751-.814-.895.308-.965.956-.248 2.296.684 1.277.657 2.078-.084 2.536-.604.374-.809 1.766-.463 3.145.365 1.453.23 2.233-.326 1.889-.536-.331-.733.391-.453 1.667.396 1.808.283 1.956-.578.751-.925-1.296-1.073-1.262-1.087.25-.008.962.435 1.75.985 1.75s1 .477 1 1.059-.461.774-1.025.426c-.563-.349-.96-.263-.881.191.444 2.556-.211 4.376-1.344 3.736-.989-.558-.994-.429-.024.618 1.011 1.09 1.586.997 3.274-.53 1.126-1.019 1.699-2.111 1.274-2.426-1.081-.802-1.237-4.074-.194-4.074.471 0 .61-.788.307-1.75-.474-1.506-.331-1.481 1.021.177.864 1.06 1.876 1.622 2.248 1.25.373-.372.322-.677-.112-.677s-.175-.74.576-1.644c1.218-1.468 1.11-1.564-1.003-.893-1.528.485-2.144.389-1.736-.27.347-.562.066-1.219-.625-1.459-.691-.241.994-.452 3.744-.47 3.085-.02 4.129.211 2.726.602-2.246.626-2.24.649.5 1.86 3.472 1.535 6.112 5.274 3.723 5.274-.862 0-1.284.457-.939 1.016.346.559 1.067.746 1.603.414.536-.331 1.63-.058 2.431.606 1.167.969 1.456.904 1.456-.33 0-.847-.562-1.736-1.25-1.977-.916-.32-.783-.964.5-2.412 1.916-2.162 2.306-4.317.781-4.317-.532 0-.727.629-.431 1.399.295.769.056 1.696-.532 2.059-.598.369-1.115-.136-1.174-1.149-.292-4.971-.496-5.668-1.783-6.101-.844-.284-1.115-.024-.691.662.435.704-.099 1.13-1.413 1.13-1.99 0-1.957-.142.588-2.5 1.483-1.375 3.194-2.493 3.801-2.485.607.009.482.41-.279.891-1.151.729-1.088 1.272.373 3.235.966 1.298 1.504 1.61 1.197.694-.308-.916-.177-2.941.291-4.5.468-1.559.889-2.287.936-1.616.048.675.773.955 1.627.627.956-.367 1.43-.098 1.25.711-.242 1.082 2.19 1.629 4.693 1.054.266-.061-1.134-1.798-3.112-3.861-2.879-3.002-4.382-3.777-7.534-3.884-3.657-.124-3.827-.011-2.388 1.579 1.863 2.058 2.041 3.48.3 2.392-1.848-1.155-3.846-1.301-3.186-.233.316.511 1.063.627 1.66.258.653-.404.797-.205.361.5-.398.644-1.142.912-1.654.595-.512-.316-.931-.098-.931.484s.525 1.059 1.167 1.059c.641 0 .931.236.643.524-.288.287-1.275.235-2.192-.117-1.295-.497-1.412-.95-.521-2.024.631-.761.813-1.383.403-1.383-.41 0-.176-.686.52-1.524s.976-1.813.623-2.167c-.354-.353-.643-.027-.643.724 0 1.078-.259 1.108-1.223.144-.965-.965-1.476-.425-2.414 2.55l-1.19 3.773.163-3.363c.152-3.107-.089-3.393-3.166-3.75-1.902-.222-4.226.239-5.418 1.074-1.858 1.301-2.224 1.275-3.329-.236-1.159-1.584-1.395-1.565-3.502.288-1.706 1.5-2.12 1.601-1.69.413.473-1.303-.285-1.559-4.416-1.491-3.973.066-5.223.509-6.151 2.177-.64 1.152-1.789 1.877-2.553 1.612-.929-.323-1.126-.058-.596.801.521.842.396 1.038-.36.57-.635-.392-1.155-.161-1.155.513s-.289.936-.643.583c-.353-.354-.015-1.415.75-2.359 1.208-1.488 1.194-1.595-.107-.802-3.68 2.242-5.696.43-2.291-2.059 1.46-1.067 1.095-1.229-2.5-1.11-2.314.076-4.208.476-4.209.889m9.301.152c.523 1.57 2.409 1.796 2.962.355.314-.817-.221-1.328-1.389-1.328-1.044 0-1.752.438-1.573.973m64 0c.523 1.57 2.409 1.796 2.962.355.314-.817-.221-1.328-1.389-1.328-1.044 0-1.752.438-1.573.973m-57.577 1.32c.353.921 1.356 1.224 2.829.854 1.255-.315 2.431-.137 2.614.395.183.532 2.133 1.235 4.333 1.563l4 .595-3.961-2.064c-5.033-2.623-10.599-3.385-9.815-1.343m19.776-.889c-1.1.21-2.562.839-3.25 1.397-.858.697-1.709.634-2.716-.202-.807-.669-2.027-1.03-2.713-.802-1.773.591 4.316 3.406 6.441 2.978.969-.196 1.476-.819 1.125-1.387-.415-.671.408-.801 2.361-.372 2.071.455 3.157.245 3.512-.679.521-1.358-.989-1.655-4.76-.933m44.224.889c.353.921 1.356 1.224 2.829.854 1.255-.315 2.431-.137 2.614.395.183.532 2.133 1.235 4.333 1.563l4 .595-3.961-2.064c-5.033-2.623-10.599-3.385-9.815-1.343m-27.724.065c0 .433.9.855 2 .938 1.1.083 2-.271 2-.787s-.9-.938-2-.938-2 .354-2 .787m38-.36c0 .234 1.313 1.082 2.918 1.882 2.183 1.089 3.227 1.17 4.147.323.952-.877 1.07-.681.523.868-.539 1.526-.429 1.724.466.837 1.607-1.595.192-3.55-2.054-2.837-1.007.32-2.121.113-2.475-.459-.615-.995-3.525-1.502-3.525-.614m-46.299 7.237c.411 1.071.246 1.422-.462.984-.605-.374-1.383-.223-1.729.336-.345.559.25 1.016 1.324 1.016 1.946 0 3.566-2.267 2.43-3.402-1.211-1.211-2.182-.548-1.563 1.066m-10.308 2.807c.362 2.466 1.607 3.005 1.607.696 0-1.192-.41-2.167-.912-2.167-.501 0-.814.662-.695 1.471m15.27 1.779c.429.688.872 1.854.984 2.592.412 2.724 1.12 2.164.999-.79-.074-1.798-.667-3.052-1.444-3.052-.806 0-1.016.487-.539 1.25m-7.684 5.637c-1.672.674-1.879 1.934-.639 3.888.504.795.358 1.171-.391 1-.659-.151-1.426.35-1.704 1.114-.309.851-.067 1.119.625.691.622-.384 1.13-.259 1.13.278 0 .536-.562 1.202-1.25 1.48-.687.277.043.54 1.622.583 2.382.066 2.67-.165 1.686-1.351-.95-1.144-.774-1.652.877-2.535 1.946-1.042 2.512-.688 2.143 1.338-.088.48.49.623 1.283.319 1.95-.749 2.862.334 1.582 1.877-.668.804-.69 1.469-.064 1.856.538.332 1.255-.272 1.595-1.342.34-1.071 1.834-2.392 3.322-2.936 1.73-.633 2.074-1.018.954-1.068-.962-.043-1.75-.619-1.75-1.279 0-.933-.267-.933-1.2 0-1.54 1.54-3.142 1.562-2.195.03.49-.792.173-.959-.981-.516-1.216.467-1.621.195-1.414-.946.332-1.831-2.965-3.394-5.231-2.481M487.5 307c-.34.55-.338 1.453.004 2.007.343.554-.081 1.277-.941 1.607-.859.33-1.563 1.438-1.563 2.462 0 1.24.498 1.67 1.494 1.288.822-.316 1.249-.971.948-1.457-.3-.486.265-.593 1.256-.236.991.356 1.468.28 1.061-.17-.408-.449-.24-1.421.372-2.159.859-1.035.718-1.342-.616-1.342-1.126 0-1.528-.523-1.153-1.5.649-1.692.079-2.023-.862-.5m7.535 2.458c-.704.848-.887 1.549-.407 1.557.479.009.212.433-.594.943-.95.601-1.987.507-2.942-.265-1.147-.927-1.314-.924-.751.014.454.758-.412 1.796-2.326 2.785-2.839 1.469-3.097 1.454-3.71-.207-1.314-3.558-4.792-4.446-5.03-1.285-.083 1.1.298 2 .846 2s.719-.45.379-1c-.34-.55.11-1 1-1s1.406.342 1.148.761c-.259.419.128 1.579.859 2.579 1.053 1.44 1.741 1.598 3.311.757 1.564-.837 2.114-.717 2.606.564.343.894.326 1.898-.037 2.232-.364.334-.862.045-1.107-.643-.246-.687-.914-1.25-1.486-1.25-.67 0-.634.488.101 1.373 1.19 1.435.521 4.627-.971 4.627-.473 0-.607-.662-.297-1.471.31-.808-.379-2.669-1.531-4.134-1.153-1.466-2.152-2.379-2.221-2.03-.457 2.32-.319 3.223.592 3.87.568.404.035.741-1.186.75-1.62.011-2.053.447-1.604 1.616.338.88.063 1.942-.612 2.359-.778.481-.077.988 1.921 1.387 1.856.371 2.878 1.064 2.491 1.69-.436.706-1.054.729-1.85.069-1.692-1.405-3.42-.029-4.003 3.186-.275 1.512-.108 2.507.369 2.212.478-.295 1.154-.074 1.504.491.349.565 1.914.929 3.479.81 2.231-.17 2.796-.666 2.621-2.303-.122-1.148-.558-2.63-.969-3.294-.978-1.583.598-1.555 2.319.042 1.077 1 1.205 1 .641 0-.857-1.517 1.021-1.692 1.954-.183.363.588-.285 1.314-1.441 1.617-2.377.622-2.858 2.316-.658 2.316.794 0 2.144-1 3-2.223l1.557-2.222v2.222c0 3.23 2.674 2.754 4.513-.802 1.367-2.643 1.383-3.285.13-5.074-.916-1.308-1.678-1.654-2.108-.958-.37.599-1.12.813-1.667.475-.547-.337-1.866.175-2.931 1.139s-1.944 1.346-1.952.848c-.009-.498-.452-.23-.985.595-.862 1.333-.968 1.333-.953 0 .021-1.875 2.331-5 3.697-5 1.475 0 2.26-3.815.9-4.373-.661-.271-.511-.509.356-.563 1.333-.084 1.333-.202 0-1.064-1.25-.808-1.167-.991.5-1.1 1.1-.072 2.772-.053 3.717.042 1.093.11 1.956-.782 2.376-2.458.826-3.289-.771-5.179-2.558-3.026m-17.488 7.788c.482 2.499 1.228 3.312 2.174 2.366.397-.396.059-1.139-.75-1.651-1.245-.787-1.211-.933.22-.946 2.638-.024 2.899-1.498.292-1.654-1.828-.11-2.242.294-1.936 1.885m15.974.893c.129.902-.131 2.23-.578 2.953-1.161 1.879-.018 3.215 1.602 1.87.752-.624 1.79-.873 2.306-.554.517.319 1.217-.142 1.556-1.025.448-1.168.186-1.441-.961-1.001-1.198.46-1.431.147-.971-1.304.334-1.05.143-2.196-.423-2.546-.612-.378-.788-.007-.434.916.328.854.131 1.552-.438 1.552-.568 0-1.227-.562-1.463-1.25-.237-.687-.325-.512-.196.389m-12.405 5.076c-.064.943.774 2.191 1.861 2.773 1.612.862 1.87.777 1.396-.459-.321-.835-.951-1.29-1.402-1.011-.451.279-1.026-.287-1.279-1.256-.421-1.612-.47-1.616-.576-.047m8.895 3.272c-.691.832-.976 1.569-.633 1.638.342.069 1.072.238 1.622.375s1.417.306 1.927.375c.509.069 1.085.913 1.279 1.875.288 1.425.451 1.472.88.25.29-.825-.451-2.518-1.646-3.763-1.91-1.988-2.326-2.079-3.429-.75M480 330c0 1.362.417 1.86 1.17 1.395.787-.486.961-.178.531.941-.435 1.134-.117 1.664.997 1.664.899 0 1.339-.296.977-.658-.362-.362-.156-1.262.456-2 .613-.738.834-1.398.491-1.467-.342-.069-.959-.188-1.372-.265-.413-.077-1.312-.498-2-.934-.856-.544-1.25-.127-1.25 1.324m8.5 4c-.373.604.891.972 3.191.93 3.042-.056 3.406-.244 1.809-.93-2.748-1.181-4.27-1.181-5 0m-6.803 3.651c.489 1.278 1.596 1.181 5.303-.461 2.294-1.017 2.161-1.091-1.622-.899-2.632.133-3.962.625-3.681 1.36m-210.591 84.788c.242.242 3.135.537 6.431.656l5.991.216.055 3.244c.039 2.289-.333 3.094-1.264 2.737-.747-.287-1.141-1.49-.908-2.774.334-1.844-.04-2.268-2-2.268-3.044 0-2.988.481.545 4.611 1.874 2.191 3.34 3.097 4.21 2.603 1.053-.598 1.08-.483.126.547-.992 1.072-1.527 1.064-3-.045-1.154-.869-1.035-.534.336.943 1.754 1.888 2.489 2.099 4.178 1.195 1.127-.603 2.869-.831 3.872-.506 1.518.492 1.572.411.322-.488-.827-.596-.992-1.086-.367-1.095 1.591-.021 2.23-3.152 1.208-5.916-.664-1.796-1.165-2.075-2.193-1.222-.733.608-1.628.81-1.99.448-.362-.362-.658-.103-.658.576 0 .779.738 1 2 .599 1.443-.458 2-.18 2 1s-.557 1.458-2 1c-1.192-.378-2-.18-2 .492 0 .619.419.867.931.551a1.106 1.106 0 0 1 1.516.372c.672 1.087-1.274 2.591-2.181 1.685-.33-.331-.659-1.396-.73-2.368-.072-.972-.473-2.322-.892-3-.43-.695-.275-1.232.356-1.232.615 0 .854-.426.532-.948-.322-.521.317-.774 1.42-.561 1.103.212 2.267-.036 2.586-.552.346-.561-3.341-.939-9.146-.939-5.349 0-9.528.198-9.286.439m-.356 2.31c-1.606.365-1.744 2.258-1.671 23.074.043 12.472.327 22.002.63 21.177.304-.825 1.18-2.223 1.947-3.107 1.192-1.373 1.192-1.774.002-2.762-.829-.688-1.244-2.433-1.026-4.31.447-3.835 1.044-4.545 2.552-3.037.867.867.756 1.302-.451 1.765-1.364.523-1.213 1.052 1.013 3.55 1.438 1.614 2.882 2.502 3.209 1.973.627-1.014 2.097-.936 5.795.306 2.4.807 3.084 2.612 1 2.637-.833.011-.75.339.25.985 1.09.704 1.142.974.191.985-.731.008-.995.523-.597 1.166.493.798 1.125.586 2.059-.691 1.205-1.648 1.347-1.664 1.347-.151 0 2.12 1.586 2.212 2.382.139.385-1.004.192-1.303-.548-.845-.727.449-.868.261-.387-.517.415-.672 1.497-.966 2.404-.652 1.494.517 1.5.453.061-.682-.873-.688-1.386-1.85-1.14-2.581.246-.731-.461-1.965-1.571-2.743-1.311-.918-1.834-2.116-1.493-3.421.536-2.048 2.292-2.82 2.292-1.007 0 .55.788.964 1.75.921 1.045-.047 1.247-.282.5-.583-.687-.278-1.25-.944-1.25-1.48 0-.537.373-.745.829-.463.943.582.823-1.566-.32-5.752-.554-2.029-.378-3.112.606-3.735.997-.632 1.035-.882.135-.893-.687-.008-1.25-.69-1.25-1.515s-.562-1.507-1.25-1.515c-.926-.012-.9-.237.098-.87.742-.47 1.185-1.701.986-2.735-.278-1.441-1.294-1.905-4.349-1.989-6.083-.167-6.585-.295-6.41-1.641.362-2.787-.138-4.75-1.209-4.75-.623 0-2.086-1.046-3.25-2.325-1.164-1.278-2.904-2.145-3.866-1.926m.44 1.876c-.599 1.07-.644 2.681-.115 4.072.482 1.267.499 2.303.039 2.303s-.622 1.125-.359 2.5c.488 2.551 2.233 3.516 2.26 1.25.011-.885.276-.838.908.159.49.775.676 1.974.411 2.663-.264.689.34 1.465 1.343 1.725 1.703.44 1.706.479.042.587-.98.064-2.041-.559-2.357-1.384-1.121-2.92-2.047-1.436-2.224 3.562-.098 2.784-.223 5.371-.277 5.75-.388 2.731.629 4.177 3.889 5.53 2.802 1.162 3.196 1.568 1.559 1.606-1.205.029-2.429.437-2.72.908-.291.47.583.643 1.941.383 2.529-.483 3.396 1.071 1.315 2.356-.756.468-.881.272-.36-.57.502-.814.348-1.136-.421-.88-3.167 1.056-1.008 2.28 3.863 2.191 4.777-.088 5.445-.353 5.583-2.218.09-1.226-.436-2.118-1.249-2.118-1.134 0-1.102-.302.168-1.571 1.97-1.971 1.995-2.529.078-1.793-1.165.447-1.414-.103-1.134-2.508.198-1.694 0-2.859-.438-2.588-.438.271-1.084.028-1.435-.54-.351-.568-1.127-.731-1.724-.362-.663.41-.796.203-.341-.532.569-.921 1.074-.929 2.154-.032 1.116.926 1.411.832 1.411-.452 0-1.53-1.234-2.114-3.5-1.657-.55.111-.625-.173-.167-.632 1.414-1.414 6.103-1.022 7.35.615 1.01 1.326 1.374 1.349 2.5.155 1.107-1.174 1.015-1.29-.574-.727-1.68.595-1.736.477-.5-1.045.769-.948.863-1.398.21-1.007-.649.39-1.454.267-1.787-.273-.334-.54-2.279-.748-4.322-.462-3.331.466-3.902.203-5.524-2.543-1.532-2.593-1.586-3.147-.357-3.619.798-.306 1.388-1.615 1.311-2.908-.077-1.293-.321-2.17-.543-1.948-.222.221-1.419-.974-2.66-2.657-2.037-2.761-2.353-2.886-3.247-1.289m5.81 10.733c0 .768.675 1.957 1.5 2.642 1.036.86 1.5.898 1.5.122 0-.617-.562-1.129-1.25-1.137-.885-.011-.838-.276.159-.908.775-.49 2.125-.637 3-.325s1.309.25.964-.137c-1.322-1.482-5.873-1.681-5.873-.257m8.854-.482c-1.344.51-1.407.845-.34 1.829 1.029.95 1.436.867 1.92-.393.762-1.987.5-2.226-1.58-1.436m-13.177 6.194c.745.75.875 1.979.353 3.352-.683 1.795-.455 2.186 1.323 2.271 1.181.057 1.585-.113.897-.378-.687-.265-1.25-1.167-1.25-2.005 0-.98.566-1.307 1.584-.916.956.367 1.431.15 1.198-.548-.212-.635-1.487-1.561-2.833-2.057-1.885-.694-2.178-.629-1.272.281m14.649 5.407c-.898.976-.898 1.574 0 2.546.904.978.889 1.11-.065.572-.821-.464-1.044-.193-.661.806.459 1.196.955 1.269 2.419.355 1.652-1.031 1.511-2.911-.404-5.405-.063-.082-.643.425-1.289 1.126m-13.045 4.978c1.348 1.444 3.719 1.606 3.719.256 0-.526.67-.4 1.489.28.819.68 1.242 1.635.941 2.122-.301.488-.071.887.511.887 1.736 0 1.2-2.728-.691-3.512-.962-.4-2.954-.843-4.425-.985-2.057-.199-2.414.021-1.544.952m11.473 8.795c-.609 1.656.167 3.75 1.388 3.75.537 0 .698-.45.358-1-.34-.55-.156-1 .41-1 .565 0 .768-.675.452-1.5-.701-1.825-1.983-1.948-2.608-.25m-6.118 1.53c-.338.546.056 1.549.875 2.229 1.626 1.35 1.965.291.599-1.866-.523-.824-1.101-.967-1.474-.363m-8.077 3.927c-.943 2.459-.564 2.884.877.983 1.035-1.366 1.562-1.503 2.145-.559.436.705.263 1.421-.395 1.64-.822.274-.732.826.304 1.862 1.149 1.148 2.247 1.258 5.002.497 2.082-.575 3.296-.596 2.96-.052-.313.507.019.936.739.952.771.018.557.468-.523 1.096-1.007.585-2.694.839-3.749.563-2.791-.73-3.3.93-.992 3.238 1.1 1.1 1.617 2.237 1.15 2.526-.468.289-1.406-.145-2.086-.964-.68-.819-2.279-1.489-3.554-1.489-1.276 0-2.571-.408-2.879-.906-.9-1.456-4.487-.072-3.884 1.499.295.767 1.008 1.104 1.585.747.578-.357.758-.177.401.401-.719 1.163 1.772 2.494 2.78 1.486 1.679-1.679 5.496-1.156 6.975.955 1.506 2.15 1.612 2.163 2.922.372.85-1.162 1.845-1.559 2.654-1.06.945.584.574 1.178-1.372 2.198-1.467.768-3.182 1.078-3.813.688-.766-.474-.928-.14-.487 1.008.391 1.019.257 1.468-.33 1.105-.984-.608-1.4.755-1.035 3.384.143 1.028-.523 1.197-2.629.668-3.437-.862-3.713-1.108-2.836-2.527.506-.819 1.045-.82 2.03-.002 1.031.855 1.607.617 2.488-1.03 1.269-2.37.692-4.986-1.098-4.986-.802 0-.842.382-.132 1.25s.635 1.607-.246 2.417c-.983.904-1.959.535-4.343-1.642-2.999-2.739-3.116-2.762-4.786-.917-.951 1.051-1.213 1.892-.588 1.892.637 0 .847.72.485 1.664-.467 1.216-.278 1.441.701.836.96-.593 1.171-.388.745.723-.422 1.098-.106 1.422 1.08 1.112 1.538-.404 1.65 1.501 1.372 23.334-.166 13.075-.045 24.799.269 26.052.54 2.149 1.058 2.279 9.112 2.279 5.53 0 8.319-.358 7.912-1.016-.346-.559-1.16-.698-1.809-.308-.673.403-.59-.02.191-.984.755-.931 1.007-1.692.559-1.692-.447 0 .06-.708 1.128-1.574 1.067-.866 1.41-1.309.76-.984-.649.325-1.463.133-1.809-.426-.929-1.504 1.23-1.232 3.849.484 2.229 1.46 2.285 1.414 2.138-1.735-.13-2.771-.547-3.265-2.911-3.446-1.988-.153-2.611.173-2.229 1.168.343.894-.131 1.33-1.345 1.239-1.03-.078-1.792-.385-1.693-.684.199-.595-.781-1.042-2.284-1.042-1.65 0-2.986 3.47-1.946 5.054.809 1.233 1.148 1.186 2.298-.315 1.205-1.572 1.486-1.597 2.623-.227 1.059 1.277 1.015 1.435-.267.943-.848-.325-1.835-.116-2.194.465-.387.628-.063.831.798.5 2.642-1.013 2.641 1.265-.001 2.468-2.101.957-3.035.89-4.934-.353-2.858-1.873-4.029-1.983-2.585-.244.809.975.599 1.327-.858 1.436-1.061.08-2.233-.345-2.604-.945-.403-.653-.211-.805.48-.377.635.392 1.155.285 1.155-.239s-.624-1.191-1.386-1.484c-2.004-.769-1.312-10.698.856-12.284 1.789-1.308 5.53-.743 5.53.835 0 .55-1.012.745-2.25.433-2.204-.555-2.209-.536-.257.922 1.811 1.352 2.077 1.302 2.903-.55.5-1.121 1.291-2.038 1.757-2.038 1.179 0 1.062 1.749-.169 2.51-1.715 1.06-.011 2.572 1.827 1.623.929-.481 2.479-.746 3.444-.591.992.16 1.48-.162 1.122-.742-.348-.563-.013-1.416.745-1.896 2.038-1.292 3.462-1.088 2.078.296-1.615 1.615-1.511 2.467.3 2.467.825 0 1.291-.21 1.035-.465-.255-.256-.015-1.306.535-2.333.964-1.802.215-2.416-2.394-1.963-.454.079-.535-.325-.181-.898.354-.572 1.062-.782 1.574-.465.512.316.931.098.931-.484s-.477-1.059-1.059-1.059-.776-.457-.431-1.016c.346-.559.972-.804 1.392-.544.421.259.765-.118.765-.839 0-.722-.938-1.262-2.084-1.201-1.561.083-2.005.674-1.77 2.356.172 1.234-.185 2.244-.794 2.244s-1.034-.562-.944-1.25c.383-2.954-.233-3.537-3.575-3.38-1.925.091-3.507-.293-3.515-.853-.009-.559-.403-.406-.875.34-.556.877-1.647 1.107-3.084.651-2.167-.688-2.177-.657-.375 1.184 1.645 1.681 1.979 1.72 3.024.349 1.01-1.323 1.331-1.133 2.278 1.348.607 1.588 1.352 2.64 1.656 2.335.304-.304-.007-1.604-.692-2.888-1.098-2.062-1.064-2.187.293-1.069.845.697 2.321.967 3.28.599 1.488-.571 1.584-.374.662 1.351-.595 1.111-.797 2.304-.45 2.652.347.347.051.631-.658.631-1.032 0-1.041.299-.044 1.5.797.961.859 1.5.172 1.5-.59 0-1.489-.745-1.999-1.654-.588-1.052-1.558-1.412-2.661-.989-1.356.52-1.588.281-1.064-1.096.524-1.376.405-1.498-.542-.558-.867.861-1.762.909-3.141.171-1.502-.803-2.259-.627-3.421.797-.821 1.006-1.166 1.2-.768.432.398-.769.694-6.957.657-13.75-.038-6.794.297-12.353.742-12.353.446 0 1.094-.739 1.441-1.641.55-1.435.414-1.467-1.08-.25-1.511 1.229-1.632 1.181-1.035-.411.406-1.082.281-1.558-.312-1.191-.544.336-.989-.121-.989-1.015 0-1.72 1.589-1.536 7.25.841 2.768 1.163 3.994 3.082 1.311 2.052-.792-.304-2.254-.043-3.25.579-1.648 1.03-1.621 1.08.298.561 1.16-.314 2.859-.283 3.776.069 1.326.509 1.422.934.471 2.079-.657.792-.781 1.361-.275 1.265 2.126-.404 3.419.151 3.419 1.468 0 .919-.781 1.259-2.25.98-2.072-.393-2.091-.356-.25.468 1.1.493 2.256.751 2.569.574.313-.177.369 1.039.125 2.702-.391 2.662-.758 2.96-3.069 2.487-1.444-.296-2.088-.301-1.431-.013.656.289.946 1.171.643 1.961-.679 1.767.792 1.872 2.61.185 1.102-1.023 1.23-.917.7.582-.356 1.007-.647 2.046-.647 2.309 0 .262-.52.156-1.155-.236-.715-.443-.883-.275-.44.44 1.013 1.641 2.595 1.431 2.595-.345 0-.825.661-1.5 1.469-1.5.835 0 1.241.593.941 1.375-.363.946.271 1.375 2.031 1.375 1.407 0 2.559-.446 2.559-.992 0-.545-.892-.758-1.983-.473-1.642.43-1.82.215-1.035-1.252 1.154-2.156.173-3.406-1.551-1.976-.868.721-1.452.718-1.901-.008-.356-.577-.036-1.049.711-1.049 2.917 0 3.757-2.191 1.88-4.907-3.26-4.716-3.35-5.093-1.211-5.093 1.32 0 1.841.485 1.494 1.39-.293.764.547 2.47 1.868 3.791 1.953 1.953 2.158 2.628 1.099 3.617-1.622 1.515-.703 4.202 1.436 4.202 1.203 0 1.311-.282.44-1.153-.657-.657-.821-1.841-.381-2.75 1.124-2.324-1.027-7.855-2.866-7.368-1.114.294-1.049.03.25-1.026 1.939-1.578 2.336-3.703.691-3.703-.582 0-.8.419-.484.931 1.25 2.022-1.513 2.022-3.18 0-3.475-4.213-4.266-4.747-6.259-4.225-1.212.317-2.018.038-2.018-.696 0-.673.603-.992 1.341-.71.737.283 1.975.113 2.75-.377 1.101-.697.971-.899-.591-.923-1.481-.023-1.654-.25-.665-.877.735-.466 1.41-1.246 1.5-1.735.091-.488.502-.775.915-.638 2.62.873 3.229.557 3.001-1.558-.144-1.346.172-2.048.76-1.685.555.343 2.144-.27 3.532-1.362 1.476-1.161 2.095-2.251 1.491-2.624-.569-.352-1.034-.136-1.034.479s-.48.821-1.067.459c-1.461-.903-.601-1.562 2.479-1.9 3.241-.356 3.252.333.055 3.462-1.393 1.363-3.306 3.334-4.25 4.379a279.745 279.745 0 0 1-3.384 3.667c-2.165 2.295-1.397 2.955 2.229 1.915 1.729-.496 3.15-.448 3.499.116.323.524.048.828-.612.677-.659-.151-1.405.288-1.657.975-.252.688.206 1.25 1.018 1.25s1.683-.562 1.936-1.25c.765-2.081-.298-3.75-2.388-3.75-1.087 0-1.71-.431-1.384-.957.712-1.153 6.521-.894 6.524.29.001.459.542.654 1.202.434.66-.22 1.155-1.608 1.1-3.084-.149-3.987-.177-4.03-1.8-2.683-.825.685-1.5.933-1.5.551 0-1.048 2.72-3.551 3.859-3.551.551 0 1.197-1.012 1.435-2.25l.434-2.25.136 2.25c.093 1.538.769 2.25 2.136 2.25 2.531 0 2.545-1.197.04-3.464-1.44-1.303-2.852-1.606-5.322-1.143-3.999.75-5.365-.181-2.952-2.012 2.047-1.555 4.622-1.817 3.734-.381-.34.55-.141 1 .441 1 2.406 0 .872-2.889-1.691-3.184-2.014-.231-2.668-.799-2.443-2.123.276-1.628.104-1.604-1.75.25-1.131 1.131-2.432 2.057-2.89 2.057-.459 0-.834.675-.834 1.5s.28 1.5.621 1.5c1.101 0 .955 3.938-.172 4.635-.6.371-.826.246-.502-.278.323-.524.175-1.606-.331-2.405-.801-1.267-.92-1.267-.934-.002-.011 1.073-.307 1.158-1.138.327s-.519-1.972 1.199-4.383c1.815-2.55 1.957-3.121.651-2.62-.922.354-2.321-.011-3.127-.816-.801-.802-2.052-1.451-2.779-1.443-.987.012-.942.288.179 1.095 1.274.916 1.241.996-.218.528-.945-.303-1.984-.12-2.309.406-.325.526-1.127.942-1.782.924-.655-.017-.358-.662.659-1.433 1.018-.771 1.588-1.826 1.268-2.343-.916-1.483-5.44-1.099-6.059.515m17.941 4.058c-1.232.905-1.776 3.241-.75 3.22.413-.009 1.425-.452 2.25-.985 1.09-.704 1.142-.974.191-.985-.72-.008-1.031-.465-.691-1.015.727-1.176.389-1.255-1-.235m-61.952 1.985c-.534 1.403-.417 1.502.593.5 1.495-1.484 4.248-1.689 3.359-.25-.34.55-.141 1 .441 1s1.059-.675 1.059-1.5c0-2.137-4.624-1.925-5.452.25m7.002-.669c.372.601 1.767.805 3.143.46 1.846-.463 2.289-.293 1.744.669-.586 1.035-.464 1.043.616.04 2.323-2.156 3.591-1.38 3.53 2.162-.031 1.877-.401 3.201-.82 2.941-.42-.259-.763.006-.763.588 0 1.491 3.737 1.325 4.286-.191.362-1 .876-1 2.57 0 2.587 1.528 5.144 1.623 5.144.191 0-.582-.45-.781-1-.441s-1 .141-1-.441c0-1.6 1.982-1.269 2.638.441.317.825 1.004 1.5 1.528 1.5s.674-.45.334-1-.141-1 .441-1 1.059.345 1.059.767c0 .421 2.033.857 4.518.967 4.22.188 4.448.071 3.456-1.782-.887-1.658-.685-2.126 1.232-2.85 1.339-.505 3.127-.475 4.294.071 1.984.93 1.985.925.029-.64-1.085-.867-2.66-1.279-3.5-.914-.841.365-2.75.874-4.242 1.131-2.327.4-2.656.166-2.308-1.642.373-1.936-.039-2.108-5.036-2.108-5.53 0-6.06.448-5.533 4.685.09.724-.933 1.069-2.631.888-1.529-.163-2.835-.808-2.904-1.434-.069-.627-.181-1.814-.25-2.639-.095-1.138-1.465-1.5-5.684-1.5-3.729 0-5.339.356-4.891 1.081m29.206-.417c.691.279.942 1.031.558 1.671-.531.886-.352.886.744 0 .793-.641 1.742-1.091 2.109-1 .366.091 1.004-.172 1.416-.585.413-.413-.787-.714-2.666-.671-1.879.043-2.852.307-2.161.585m34.794.417c.372.601 1.767.805 3.143.46 1.846-.463 2.289-.293 1.744.669-.586 1.035-.464 1.043.616.04 2.323-2.156 3.591-1.38 3.53 2.162-.031 1.877-.401 3.201-.82 2.941-.42-.259-.763.006-.763.588 0 1.491 3.737 1.325 4.286-.191.362-1 .876-1 2.57 0 2.587 1.528 5.144 1.623 5.144.191 0-.582-.45-.781-1-.441s-1 .141-1-.441c0-1.6 1.982-1.269 2.638.441.317.825 1.004 1.5 1.528 1.5s.674-.45.334-1-.141-1 .441-1 1.059.388 1.059.863c0 .474 1.012.87 2.25.879 7.164.052 7.223.077 5.25 2.258-.995 1.1-1.304 2-.686 2 .637 0 .847.72.485 1.664-.467 1.216-.278 1.441.701.836.951-.588 1.172-.391.761.68-.445 1.161-.004 1.398 1.922 1.03 1.602-.306 2.07-.745 1.302-1.219-.911-.564-.918-.914-.027-1.465.846-.523.678-1.271-.603-2.686-1.491-1.648-1.549-2.102-.363-2.835.777-.48 1.884-.591 2.46-.247.577.344.402-.17-.388-1.142-1.247-1.537-1.247-1.901 0-2.779 1.071-.753.8-.865-1.064-.437-1.375.315-2.823.579-3.219.586-.395.008-.46.686-.145 1.508.316.822 1.046 1.203 1.623.846.657-.406.748-.16.243.657-.654 1.058-1.016 1.033-1.905-.132-.603-.791-1.885-1.276-2.847-1.078-.962.198-1.75-.143-1.75-.758 0-.614.563-1.017 1.25-.895.688.122 2.825-.538 4.75-1.467 2.358-1.137 2.684-1.491 1-1.084-7.348 1.775-7.947 1.738-7.521-.475.373-1.936-.039-2.108-5.036-2.108-5.53 0-6.06.448-5.533 4.685.09.724-.933 1.069-2.631.888-1.529-.163-2.835-.808-2.904-1.434-.069-.627-.181-1.814-.25-2.639-.095-1.138-1.465-1.5-5.684-1.5-3.729 0-5.339.356-4.891 1.081m29.206-.417c.691.279.942 1.031.558 1.671-.531.886-.352.886.744 0 .793-.641 1.742-1.091 2.109-1 .366.091 1.004-.172 1.416-.585.413-.413-.787-.714-2.666-.671-1.879.043-2.852.307-2.161.585m-75.327 2.263c0 1.059.273 1.757.607 1.551.334-.207 1.79.238 3.235.987 1.977 1.026 2.84 1.075 3.489.199 1.542-2.081.794-4.156-1.621-4.498-1.733-.245-2.16.02-1.603 1 .61 1.074.495 1.09-.589.084-1.968-1.826-3.518-1.528-3.518.677m64 0c0 1.059.273 1.757.607 1.551.334-.207 1.79.238 3.235.987 1.977 1.026 2.84 1.075 3.489.199 1.542-2.081.794-4.156-1.621-4.498-1.733-.245-2.16.02-1.603 1 .61 1.074.495 1.09-.589.084-1.968-1.826-3.518-1.528-3.518.677m-86.84 1.217c.291.471-.398.856-1.53.856-1.132 0-2.059.502-2.059 1.117 0 .624.882.886 2 .593 2.443-.639 2.596.561.308 2.418-1.15.932-1.451.971-.941.122.422-.703.261-1.25-.37-1.25-.725 0-.919 1.265-.551 3.583.313 1.971.241 4.108-.16 4.75-1.317 2.106-1.136 3.667.425 3.667 1.193 0 1.278-.308.386-1.383-.885-1.067-.799-1.517.377-1.969.84-.322 1.526-.112 1.526.467 0 .578.54.872 1.2.652.66-.22 1.155-1.608 1.1-3.084-.149-3.987-.177-4.03-1.8-2.683-.825.685-1.5.933-1.5.551 0-1.048 2.72-3.551 3.859-3.551.551 0 1.197-1.012 1.435-2.25l.434-2.25.136 2.25c.093 1.538.769 2.25 2.136 2.25 2.465 0 2.559-1.203.25-3.214-1.898-1.654-7.525-3.04-6.661-1.642m7.344.519c.574 1.189 1.529 2.324 2.121 2.522.631.21.251 1.31-.919 2.659-1.652 1.905-2.35 2.112-4.051 1.201-1.892-1.013-1.982-.907-1.134 1.325.507 1.333.839 2.589.736 2.789-.102.201.372-.283 1.054-1.074.681-.791 1.541-1.137 1.91-.768s-.189 1.666-1.239 2.883c-1.728 2.001-1.606 1.978 1.284-.244 3.506-2.695 4.301-4.517 1.555-3.561-1.565.546-1.583.478-.163-.643 2.504-1.976 4.106-5.514 2.849-6.291-.588-.364-1.332-.398-1.654-.077-.321.322-1.216-.196-1.988-1.15-1.27-1.569-1.305-1.528-.361.429m64 0c.574 1.189 1.529 2.324 2.121 2.522.631.21.251 1.31-.919 2.659-1.652 1.905-2.35 2.112-4.051 1.201-1.892-1.013-1.982-.907-1.134 1.325.507 1.333.839 2.589.736 2.789-.102.201.372-.283 1.054-1.074.681-.791 1.541-1.137 1.91-.768s-.189 1.666-1.239 2.883c-1.728 2.001-1.606 1.978 1.284-.244 3.506-2.695 4.301-4.517 1.555-3.561-1.565.546-1.583.478-.163-.643 2.504-1.976 4.106-5.514 2.849-6.291-.588-.364-1.332-.398-1.654-.077-.321.322-1.216-.196-1.988-1.15-1.27-1.569-1.305-1.528-.361.429m-22.426.326c-.341.552.03.742.84.431 2.298-.882 3.193 1.712 1.115 3.232-1.015.741-1.398 1.348-.853 1.348.545 0 1.52-.529 2.167-1.176.902-.902 1.655-.744 3.224.676 1.429 1.294 2.364 1.536 3.097.803.733-.733.281-1.242-1.495-1.688-1.399-.351-3.023-1.533-3.608-2.627-1.133-2.115-3.475-2.637-4.487-.999m-21.863 5.638c1.342.55.584 4.373-.868 4.373-.544 0-.731-.675-.414-1.5.606-1.581.21-1.679-6.862-1.698-6.391-.018-6.91.136-8.695 2.594-1.644 2.264-1.615 2.367 1 3.485 2.497 1.067 2.553 1.041.768-.354-1.06-.829-1.633-1.8-1.274-2.159.359-.359 1.27-.14 2.025.486 1.06.88 1.784.685 3.179-.858.994-1.098 2.3-1.989 2.902-1.981.612.009.506.389-.239.861-1.074.681-1.025.964.25 1.453.871.335 1.584 1.222 1.584 1.973a1.36 1.36 0 0 0 1.349 1.365c.896 0 1.238-.962 1.017-2.857-.273-2.343-.093-2.633.999-1.613.733.684 1.124 2.157.87 3.273-.423 1.854-.315 1.831 1.241-.268 1.441-1.943 1.951-2.097 3.301-1 1.39 1.13 1.491 1.039.777-.702-.452-1.1-.789-2.788-.75-3.75.042-1.032-.62-1.718-1.616-1.671-.928.043-1.173.29-.544.548m64 0c1.342.55.584 4.373-.868 4.373-.544 0-.731-.675-.414-1.5.606-1.581.21-1.679-6.862-1.698-6.391-.018-6.91.136-8.695 2.594-1.644 2.264-1.615 2.367 1 3.485 2.497 1.067 2.553 1.041.768-.354-1.06-.829-1.633-1.8-1.274-2.159.359-.359 1.27-.14 2.025.486 1.06.88 1.784.685 3.179-.858.994-1.098 2.3-1.989 2.902-1.981.612.009.506.389-.239.861-1.074.681-1.025.964.25 1.453.871.335 1.584 1.222 1.584 1.973a1.36 1.36 0 0 0 1.349 1.365c.896 0 1.238-.962 1.017-2.857-.273-2.343-.093-2.633.999-1.613.733.684 1.124 2.157.87 3.273-.423 1.854-.315 1.831 1.241-.268 1.441-1.943 1.951-2.097 3.301-1 1.39 1.13 1.491 1.039.777-.702-.452-1.1-.789-2.788-.75-3.75.042-1.032-.62-1.718-1.616-1.671-.928.043-1.173.29-.544.548m-60.436 1.085c-.987.369-1.019.811-.136 1.874.635.766 1.599 1.118 2.141.782.543-.335.472.352-.156 1.526-.929 1.736-.846 2.25.443 2.744.872.335 1.867.328 2.21-.014.343-.343.14-.624-.45-.624-.59 0-.868-.788-.618-1.75.567-2.185-1.702-5.184-3.434-4.538m5.792.382c0 .601.895 1.327 1.989 1.613 1.094.286 1.699.989 1.345 1.561-.387.627-.154.739.587.281.908-.561.698-1.256-.804-2.655-2.319-2.16-3.117-2.365-3.117-.8m58.208-.382c-.987.369-1.019.811-.136 1.874.635.766 1.599 1.118 2.141.782.543-.335.472.352-.156 1.526-.929 1.736-.846 2.25.443 2.744.872.335 1.867.328 2.21-.014.343-.343.14-.624-.45-.624-.59 0-.868-.788-.618-1.75.567-2.185-1.702-5.184-3.434-4.538m6.042.538c.228.688 1.247 1.411 2.262 1.608 1.696.329 1.716.227.239-1.25-1.922-1.922-3.077-2.087-2.501-.358m-84.707 4.681c-.969 1.568.874 1.949 2.246.464 1.06-1.146 1.025-1.395-.191-1.395-.814 0-1.739.419-2.055.931m64 0c-.969 1.568.874 1.949 2.246.464 1.06-1.146 1.025-1.395-.191-1.395-.814 0-1.739.419-2.055.931M284 493.755c0 .55.675 1.56 1.5 2.245.837.694 1.5.803 1.5.245 0-.55-.675-1.56-1.5-2.245-.837-.694-1.5-.803-1.5-.245m-10.734 8.127c.113 1.493.834 2.118 2.447 2.118 1.258 0 2.287.579 2.287 1.286 0 .707.9 1.285 2 1.285 2.909 0 2.456-.89-1.25-2.459-1.788-.757-3.789-2.045-4.447-2.862-1.016-1.262-1.172-1.167-1.037.632m-.537 4.855c.279.725 1.466 1.781 2.639 2.346 1.945.937 1.979.903.382-.388-2.144-1.734-2.292-3.117-.25-2.333.825.316 1.5.144 1.5-.382 0-.527-1.075-.869-2.388-.76-1.52.126-2.205.678-1.883 1.517m.271 4.322c0 .582.414.803.919.491.506-.313 1.631.143 2.5 1.012.87.87 1.581 1.115 1.581.545s-.87-1.502-1.934-2.072c-2.443-1.307-3.066-1.302-3.066.024m-1.985 18.691c.028 1.358 1.953 3.833 1.97 2.531.008-.679.69-.959 1.541-.633 1.17.449 1.26.905.386 1.958-.626.754-1.507 1.145-1.956.867-.45-.278-1.141.017-1.536.656-.504.815.106 1.004 2.048.632 1.903-.363 3.352.059 4.648 1.355 2.044 2.044 2.884 2.351 2.884 1.053 0-.457-1.106-1.423-2.457-2.146-1.981-1.06-2.265-1.674-1.465-3.169.815-1.523.629-1.854-1.043-1.854-1.119 0-2.035-.45-2.035-1s-.675-1-1.5-1-1.493.337-1.485.75m17.168 7.137c-1.802 1.114-.371 4.003 1.898 3.832 1.055-.08 1.919-.669 1.919-1.309 0-1.791-2.418-3.388-3.817-2.523"/><path fill="#1d447f" fill-rule="evenodd" d="M403 357.986v34.986l-32.25.264-32.25.264v23h64.501L403 451.75V487h25.974l.263-35.056.263-35.055 31 .055c17.05.03 31.578-.319 32.286-.775.948-.613 1.21-3.693 1-11.75L493.5 393.5l-32.25-.264-32.25-.264V323h-26v34.986"/><path fill="#5b6590" fill-rule="evenodd" d="M478.5 221.713c1.1.265 2.428.887 2.95 1.384 1.286 1.222 2.82 1.149 2.05-.097-.34-.55.2-1 1.2-1 2.153 0 4.759 3.599 3.271 4.518-.543.336-1.406-.431-1.916-1.704l-.928-2.314-.143 2.5c-.078 1.375-.369 1.938-.646 1.25-.278-.687-.972-1.25-1.544-1.25-.631 0-.553.585.197 1.489.68.819 1.635 1.242 2.122.941.488-.301.887-.102.887.444 0 .876 2.612 2.153 5.505 2.69.552.103 1.582-.432 2.289-1.189 1.055-1.129.999-1.375-.314-1.375-.879 0-1.357-.389-1.063-.865.294-.476 1.71-.736 3.147-.579 2.656.292 4.733 1.444 2.603 1.444-.642 0-1.167.477-1.167 1.059s.375.827.833.544c.459-.283.834.16.834.984 0 .944-.575 1.279-1.553.903-.854-.328-1.248-.291-.876.081.372.373-.316 1.506-1.531 2.52-1.214 1.013-1.644 1.857-.957 1.876.688.018 1.25-.444 1.25-1.026 0-.582.45-.781 1-.441 1.826 1.128 1.035 2.5-1.441 2.5-1.343 0-2.724.457-3.069 1.016-.893 1.446-2.733.059-2.102-1.585.289-.752.094-1.633-.432-1.958-.526-.325-.956.137-.956 1.027 0 .89-.45 1.34-1 1-.55-.34-1-.115-1 .5s-.433.851-.962.524c-.614-.38-.616-1.505-.003-3.117.633-1.663.62-2.312-.038-1.905-.548.339-.997 1.238-.997 1.998s-.36 1.604-.8 1.876c-.44.272-.8-.601-.8-1.941 0-1.339.36-2.435.8-2.435 1.303 0 .914-2.029-.7-3.643-1.333-1.333-1.5-1.325-1.5.072 0 .864.563 1.581 1.25 1.593.688.012.125.902-1.25 1.978s-1.937 1.966-1.25 1.978c1.403.025 1.755 2.022.357 2.022-1.51 0-2.1-2.888-1.117-5.473.593-1.561.577-2.676-.045-3.061-.537-.332-.714-1.03-.392-1.551a1.106 1.106 0 0 1 1.516-.372c.512.316.931-.127.931-.984s-.823-1.559-1.829-1.559c-1.584 0-1.848.936-1.969 7-.113 5.674.15 7 1.388 7 .84 0 1.245.457.9 1.016-.346.559-1.16.698-1.809.308-.65-.389-.506.14.319 1.176.981 1.232 1.05 1.613.199 1.102-1.037-.624-1.265 1.259-1.126 9.308.1 5.831.589 10.09 1.157 10.09.541 0 .73-.661.421-1.468-.876-2.281 1.316-2.951 2.884-.882.771 1.017 1.423 1.4 1.449.85.025-.55.483-.325 1.016.5.788 1.219.972 1.09.985-.693.012-1.697.497-2.099 2.15-1.781 1.175.226 2.412.722 2.75 1.102.338.38-.158.414-1.103.075-.945-.339-2.027-.116-2.404.495-.416.673-.232.83.467.397.635-.392 1.155-.21 1.155.405 0 .644.53.787 1.25.337 1.856-1.159 3.75-1.285 3.75-.249 0 .502-.788.919-1.75.927-1.293.012-1.413.229-.461.834.834.529.231.818-1.706.818-1.717 0-2.735-.422-2.385-.988.355-.574.096-.67-.619-.228-.896.554-.604 1.342 1.076 2.905 1.269 1.179 2.653 2.031 3.076 1.894.423-.138.769.65.769 1.75 0 2.213-1.547 2.71-2.338.75-.403-1-.52-1-.583 0-.043.688-.487 1.25-.985 1.25-.499 0-.685-.849-.413-1.887.271-1.038.088-2.138-.407-2.444-.496-.306-.779.993-.63 2.887.153 1.942-.194 3.444-.795 3.444-.647 0-.811-1.015-.417-2.584.42-1.675.283-2.358-.392-1.941-.572.354-1.04 1.243-1.04 1.977 0 1.571-2.738 2.828-4.197 1.926-.638-.394-.511-.954.34-1.503 1.125-.726 1.101-1.043-.143-1.86-1.232-.808-1.119-.987.628-1 1.17-.008 2.626-.616 3.236-1.351.873-1.053.379-1.561-2.327-2.391l-3.436-1.055-.301 4.563c-.199 3.022-.807 4.699-1.8 4.967-1.333.359-1.333.286 0-.657 1.167-.825.654-1.064-2.309-1.076-2.288-.009-3.562.384-3.191.985.34.55-.084 1-.941 1s-1.559-.45-1.559-1-.675-1-1.5-1-1.5.477-1.5 1.059.563.721 1.25.308c.997-.599.999-.441.009.783-.683.844-.908 1.895-.5 2.336.407.441-.493.013-2-.952-1.508-.964-2.472-2.19-2.141-2.725.739-1.196-3.861-.662-4.745.551-.345.473-4.62.983-9.5 1.133-6.853.211-9.271-.077-10.623-1.265-1.976-1.737-2.249-1.028-.71 1.847.77 1.439 1.744 1.807 3.75 1.419 1.59-.308 2.081-.208 1.189.241-.837.421-1.512 1.553-1.5 2.515.012.962-.426 1.637-.972 1.5s-.863-.82-.703-1.516c.16-.696-.272-1.146-.961-1-.689.146-1.273-.259-1.298-.901-.025-.641-.361-1.483-.748-1.869-.386-.387-.692 2.528-.68 6.477.016 5.079.368 7.056 1.203 6.759.649-.231 1.062-1.443.918-2.693-.231-2.012.18-1.828 3.593 1.61 2.12 2.136 3.71 4.161 3.534 4.502-.176.34 3.307.696 7.741.79 4.912.105 7.832-.201 7.472-.783-.325-.525-.25-1.145.166-1.377.416-.232.081-.219-.744.028-4.91 1.472-5.031 1.468-4.41-.151.341-.888 1.092-1.323 1.669-.966.651.402.748.161.256-.635-.53-.859-.333-1.124.596-.801.764.265 1.913-.46 2.553-1.612.928-1.668 2.178-2.111 6.151-2.177 4.131-.068 4.889.188 4.416 1.491-.43 1.188-.016 1.087 1.69-.413 2.107-1.853 2.343-1.872 3.502-.288 1.105 1.511 1.471 1.537 3.329.236 1.192-.835 3.516-1.296 5.418-1.074 3.077.357 3.318.643 3.166 3.75l-.163 3.363 1.19-3.773c.938-2.975 1.449-3.515 2.414-2.55.964.964 1.223.934 1.223-.144 0-.751.289-1.077.643-.724.353.354.073 1.329-.623 2.167-.696.838-.93 1.524-.52 1.524.41 0 .228.622-.403 1.383-.891 1.074-.774 1.527.521 2.024.917.352 1.904.404 2.192.117.288-.288-.002-.524-.643-.524-.642 0-1.167-.477-1.167-1.059s.419-.8.931-.484c.512.317 1.256.049 1.654-.595.436-.705.292-.904-.361-.5-.597.369-1.344.253-1.66-.258-.66-1.068 1.338-.922 3.186.233 1.741 1.088 1.563-.334-.3-2.392-1.439-1.59-1.269-1.703 2.388-1.579 3.137.107 4.654.881 7.46 3.807 1.937 2.02 3.322 3.873 3.078 4.118-.244.244 3.209.522 7.674.617 4.948.106 7.888-.2 7.528-.782-.325-.525-.25-1.145.166-1.377.416-.232.081-.219-.744.028-4.91 1.472-5.031 1.468-4.41-.151.341-.888 1.092-1.323 1.669-.966.651.402.748.161.256-.635-.53-.859-.333-1.124.596-.801.764.265 1.913-.46 2.553-1.612.928-1.668 2.178-2.111 6.151-2.177 4.131-.068 4.889.188 4.416 1.491-.43 1.188-.016 1.087 1.69-.413 2.028-1.783 2.378-1.825 3.419-.412 1.361 1.848 3.66 1.381 3.66-.743 0-.861.481-1.179 1.155-.763.661.409.885.278.523-.306-.346-.562-1.702-.816-3.013-.565-1.66.317-2.594-.097-3.081-1.365-.388-1.012-.229-1.977.359-2.173.581-.194 1.057-.751 1.057-1.238s-.562-.669-1.25-.406c-.797.306-1.25-.437-1.25-2.049 0-2.083.194-2.265 1.099-1.027.604.827 1.392 1.21 1.75.852.358-.358.703.436.767 1.765.073 1.516.279 1.803.554.77.24-.906 1.315-1.877 2.388-2.158 1.291-.338 1.744-1.048 1.339-2.102-.592-1.544-2.65-2.351-2.147-.843.266.797-.572 1.25-2.309 1.25-.582 0-.781-.45-.441-1 .362-.585-.676-1-2.5-1-1.824 0-2.862.415-2.5 1 .34.55-.084 1-.941 1s-1.559-.45-1.559-1-.675-1-1.5-1-1.5.477-1.5 1.059.563.721 1.25.308c.997-.599.999-.441.009.783-.683.844-.908 1.895-.5 2.336.407.441-.493.013-2-.952-1.508-.964-2.472-2.19-2.141-2.725.733-1.186-3.856-.667-4.736.536-.339.465-4.918.99-10.174 1.168-7.698.26-9.667.037-10.121-1.147-.31-.808-.232-1.264.174-1.012.407.251.611-10.525.455-23.948-.173-14.835-.663-24.406-1.25-24.406-.933 0-1.39 1.518-1.028 3.419.183.965-2.909-1.199-4.173-2.919-.693-.944-1.215.833-.843 2.873.088.48-.57.592-1.463.25-.892-.343-2.148-.63-2.791-.638-.691-.009-.576-.39.284-.934.799-.506 1.811-.697 2.25-.426.439.271.798.016.798-.566 0-.664-2.889-1.016-7.75-.943-4.262.064-6.85.332-5.75.597m10.795 5.735c-.951 1.083-.899 1.49.25 1.931.97.372 1.455-.098 1.455-1.41 0-2.304-.109-2.338-1.705-.521m-7.045 10.27c-.687.247-1.25.785-1.25 1.195 0 .996 6.684.74 7.701-.295.44-.448-.101-.668-1.201-.491-1.1.178-2.45.058-3-.267-.55-.325-1.562-.388-2.25-.142m10.523 1.121c.701.444 1.478 1.867 1.727 3.161.249 1.294.816 2.611 1.26 2.927 1.273.904.881 3.05-.76 4.163-1.23.834-1.14.96.5.7 1.497-.237 2.016-1.116 2.063-3.497.035-1.749-.251-2.986-.636-2.748s-.934-.463-1.22-1.559c-.321-1.225.116-2.363 1.136-2.958 1.294-.755.891-.97-1.843-.982-2.159-.01-3.012.294-2.227.793m-11.523 2.192c-1.238.498-2.283 1.707-2.322 2.687-.04.98-.153 3.425-.25 5.434-.156 3.193.042 3.534 1.572 2.715.962-.516 1.75-.58 1.75-.143 0 1.36 3.845 3.273 5.388 2.681.807-.31 1.3-1.428 1.097-2.484-.204-1.057-.016-1.921.417-1.921 1.296 0 4.156 3.609 3.434 4.331-.368.368-.182.669.414.669s1.29-.562 1.542-1.25c.366-1 .723-1 1.783 0 1.091 1.029 1.025 1.25-.375 1.25-.935 0-1.7.52-1.7 1.155 0 .667-.818.415-1.937-.598-1.065-.964-2.442-1.441-3.06-1.059-.759.469-.541 1.12.676 2.009.989.724 2.145 1.102 2.567.841.422-.261 1.038.229 1.368 1.089.33.859 1.478 1.563 2.552 1.563s1.693-.419 1.377-.931c-.317-.512-.094-1.229.495-1.593.725-.448.576-1.416-.461-3-1.398-2.133-1.381-2.384.195-2.865.95-.29.246-.397-1.566-.236-3.943.349-5.032-.842-2.319-2.536 1.8-1.125 1.843-1.46.518-4.022-.795-1.538-1.413-3.138-1.372-3.557.04-.418-.626-.905-1.48-1.083-1.988-.414-2.042 2.421-.061 3.181 1.776.682 1.654 5.309-.141 5.309-.682 0-1.152-.419-1.045-.93.107-.511-.856-1.335-2.139-1.832-1.728-.668-2.214-.578-1.875.347.252.686.889 1.16 1.416 1.054.582-.118.535 1.16-.119 3.25-1.118 3.569-2.496 4.557-2.714 1.944-.284-3.407-.515-3.991-1.504-3.806-.571.107-1.038-.457-1.038-1.254 0-1.161.39-1.1 1.967.306 1.895 1.691 1.942 1.676 1.292-.412-.371-1.193-.199-2.459.384-2.819.581-.359.815-1.044.519-1.523-.295-.478.26-1.333 1.234-1.9 2.897-1.687.438-1.23-3.029.563-2.977 1.539-3.104 1.539-1.828 0 1.544-1.862 1.5-1.879-1.622-.624m-1.588 17.785c.294 1.125 1.23 2.312 2.08 2.638 2.494.957 2.425.051-.182-2.398-2.32-2.179-2.408-2.19-1.898-.24m13.133 7.437c.734.884.623 1.823-.378 3.191-.779 1.066-1.417 1.572-1.417 1.125 0-.448-.675-.254-1.5.431s-1.5.953-1.5.597c0-.357-1.324.037-2.943.874s-3.175 1.147-3.458.689c-.943-1.525-4.941-.532-5.705 1.417-.666 1.7-.762 1.643-.824-.494-.038-1.329-.363-2.123-.721-1.765-.358.358-1.146-.025-1.75-.852-.905-1.238-1.099-1.056-1.099 1.027 0 1.612.453 2.355 1.25 2.049.688-.263 1.25-.081 1.25.406 0 .487-.476 1.044-1.057 1.238-.582.194-.759 1.131-.393 2.083.754 1.966 3.966 2.322 5.055.561.491-.794.171-.958-.993-.511-.969.372-1.464.25-1.136-.28.465-.753 3.71-.783 8.524-.081.275.04-.169.496-.987 1.013-1.166.737-.999.904.774.77 1.391-.105 2.072-.666 1.769-1.456-.271-.707-.043-1.285.507-1.285s1.259.675 1.575 1.5c.381.993 1.808 1.454 4.219 1.364 2.732-.102 3.018-.249 1.143-.585-3.283-.589-4.532-1.861-2.567-2.615.862-.331 1.567-.165 1.567.367 0 .533.788.962 1.75.954 1.496-.013 1.532-.157.25-.985-1.207-.78-1.049-.972.809-.985 1.27-.008 2.05-.434 1.734-.946-.317-.512-.107-1.22.465-1.574.573-.354.977-.273.898.181-.364 2.097.194 3.38 1.201 2.758.773-.478.698-.97-.25-1.635-1.098-.77-1.071-.873.143-.539.825.227 1.509 1.048 1.519 1.826.011.778.461 1.527 1 1.664.54.137.972-.538.96-1.5-.012-.962.663-2.094 1.5-2.515.9-.453.428-.555-1.157-.249-1.684.324-3.261-.068-4.25-1.057-.864-.864-1.572-1.09-1.572-.5 0 .589-.702 1.071-1.559 1.071s-1.351.337-1.096.75c.255.413-.688.819-2.094.904-1.844.111-2.166-.094-1.154-.735 1.119-.708 1.036-.891-.406-.904-.995-.008-1.573-.396-1.285-.862.288-.467 1.777-.78 3.309-.698 4.372.237 5.48-1.545 2.612-4.203-2.607-2.416-4.244-3.062-2.532-.999m-47.78 6.997c-.008.962-.352 1.697-.765 1.632-1.93-.305-3.314.205-2.803 1.033.311.503.023 1.095-.64 1.316-.764.255-.588.639.482 1.049.928.357 1.639.327 1.581-.066-.297-1.993.241-3.263 1.146-2.704.559.346.715 1.117.346 1.714-.404.653-.205.797.5.361.644-.398.935-1.104.648-1.569-.287-.465-.084-.996.452-1.181.621-.214.629-.878.021-1.835-.812-1.279-.955-1.243-.968.25m2.532-.326c-.709 1.148 3.41 5.22 4.561 4.509.442-.273.557-1.27.254-2.215-.422-1.318-.325-1.402.419-.361.682.955 1.173 1.027 1.657.243.379-.613-.1-1.417-1.065-1.787-1.008-.387-1.92-.172-2.146.507-.217.649-.833 1.18-1.369 1.18-.537 0-.717-.419-.401-.931a1.106 1.106 0 0 0-.372-1.516 1.122 1.122 0 0 0-1.538.371m8.068 1.541c-.888 1.355-1.615 2.93-1.615 3.5 0 .569-.75 1.035-1.667 1.035-.916 0-1.4.266-1.075.591.957.957 4.742-.614 4.742-1.967 0-.683.712-2.115 1.582-3.183 1.513-1.857 1.555-1.859.977-.05-.484 1.513-.331 1.665.76.759.751-.623 1.661-.837 2.023-.475.362.362.658.181.658-.401 0-1.003-2.217-2.274-3.967-2.274-.442 0-1.53 1.109-2.418 2.465m10.933-1.215c.513 1.348.124 1.773-1.691 1.85l-2.357.099 2.5.717c1.59.456 2.394 1.327 2.208 2.393-.214 1.227.356 1.622 2.125 1.475 2.194-.181 2.328-.458 1.445-2.992-1.083-3.107-2.264-3.9-1.305-.876.335 1.054.253 2.135-.182 2.404-.435.268-.859-.639-.941-2.016-.083-1.378-.672-3.022-1.31-3.654-.876-.869-.996-.723-.492.6m20.269-.202c-.476 1.429-3.709 1.828-7.067.874-3.126-.889-3.636.043-.944 1.725 1.356.847 2.719.815 5.464-.129 2.012-.692 3.899-1.016 4.194-.721.295.295.536.038.536-.571 0-1.534-1.749-2.478-2.183-1.178m22.198.202c-.008.962-.352 1.697-.765 1.632-1.93-.305-3.314.205-2.803 1.033.311.503.023 1.095-.64 1.316-.764.255-.588.639.482 1.049.928.357 1.639.327 1.581-.066-.297-1.993.241-3.263 1.146-2.704.559.346.715 1.117.346 1.714-.404.653-.205.797.5.361.644-.398.935-1.104.648-1.569-.287-.465-.084-.996.452-1.181.621-.214.629-.878.021-1.835-.812-1.279-.955-1.243-.968.25m2.532-.326c-.709 1.148 3.41 5.22 4.561 4.509.442-.273.557-1.27.254-2.215-.422-1.318-.325-1.402.419-.361.682.955 1.173 1.027 1.657.243.379-.613-.1-1.417-1.065-1.787-1.008-.387-1.92-.172-2.146.507-.217.649-.833 1.18-1.369 1.18-.537 0-.717-.419-.401-.931a1.106 1.106 0 0 0-.372-1.516 1.122 1.122 0 0 0-1.538.371m8.068 1.541c-.888 1.355-1.615 2.93-1.615 3.5 0 .569-.75 1.035-1.667 1.035-.916 0-1.4.266-1.075.591.957.957 4.742-.614 4.742-1.967 0-.683.712-2.115 1.582-3.183 1.513-1.857 1.555-1.859.977-.05-.484 1.513-.331 1.665.76.759.751-.623 1.661-.837 2.023-.475.362.362.658.181.658-.401 0-1.003-2.217-2.274-3.967-2.274-.442 0-1.53 1.109-2.418 2.465m10.933-1.215c.513 1.348.124 1.773-1.691 1.85l-2.357.099 2.5.717c1.59.456 2.394 1.327 2.208 2.393-.214 1.227.356 1.622 2.125 1.475 2.194-.181 2.328-.458 1.445-2.992-1.083-3.107-2.264-3.9-1.305-.876.335 1.054.253 2.135-.182 2.404-.435.268-.859-.639-.941-2.016-.083-1.378-.672-3.022-1.31-3.654-.876-.869-.996-.723-.492.6M458 278.165c0 .775.951 1.481 2.113 1.569 1.162.087 1.95.056 1.75-.071-.2-.126-1.151-.832-2.113-1.568-1.473-1.127-1.75-1.116-1.75.07m64 0c0 .775.951 1.481 2.113 1.569 1.162.087 1.95.056 1.75-.071-.2-.126-1.151-.832-2.113-1.568-1.473-1.127-1.75-1.116-1.75.07m-78 4.085c0 .413.9.75 2 .75s2 .375 2 .833c0 1.127-3.219 1.115-4.661-.018-.715-.562-1.41-.51-1.809.136-.356.577-.059 1.056.661 1.064 1.06.013 1.055.177-.025.861-1.091.692-1.067.948.128 1.407.804.308 2.033.033 2.731-.611.993-.917 1.146-.818.7.457-1.07 3.06 4.517 1.646 8.033-2.033 1.783-1.866 3.242-3.454 3.242-3.53 0-.076-.911-.137-2.025-.137-1.212 0-1.831.503-1.543 1.253.491 1.281-.943 2.612-3.182 2.951-1.818.276-1.53-1.708.459-3.162 1.46-1.067 1.095-1.229-2.5-1.11-2.314.076-4.208.476-4.209.889m64 0c0 .413.9.75 2 .75s2 .375 2 .833c0 1.127-3.219 1.115-4.661-.018-.715-.562-1.41-.51-1.809.136-.356.577-.059 1.056.661 1.064 1.06.013 1.055.177-.025.861-1.091.692-1.067.948.128 1.407.804.308 2.033.033 2.731-.611.993-.917 1.146-.818.7.457-1.07 3.06 4.517 1.646 8.033-2.033 1.783-1.866 3.242-3.454 3.242-3.53 0-.076-.911-.137-2.025-.137-1.212 0-1.831.503-1.543 1.253.491 1.281-.943 2.612-3.182 2.951-1.818.276-1.53-1.708.459-3.162 1.46-1.067 1.095-1.229-2.5-1.11-2.314.076-4.208.476-4.209.889m-48.276 1.472c.353.921 1.356 1.224 2.829.854 1.255-.315 2.431-.137 2.614.395.183.532 2.133 1.235 4.333 1.563l4 .595-3.961-2.064c-5.033-2.623-10.599-3.385-9.815-1.343m19.776-.889c-1.1.21-2.562.839-3.25 1.397-.858.697-1.709.634-2.716-.202-.807-.669-2.027-1.03-2.713-.802-1.773.591 4.316 3.406 6.441 2.978.969-.196 1.476-.819 1.125-1.387-.415-.671.408-.801 2.361-.372 2.071.455 3.157.245 3.512-.679.521-1.358-.989-1.655-4.76-.933m44.224.889c.353.921 1.356 1.224 2.829.854 1.255-.315 2.431-.137 2.614.395.183.532 2.133 1.235 4.333 1.563l4 .595-3.961-2.064c-5.033-2.623-10.599-3.385-9.815-1.343m-27.724.065c0 .433.9.855 2 .938 1.1.083 2-.271 2-.787s-.9-.938-2-.938-2 .354-2 .787m38-.36c0 .234 1.313 1.082 2.918 1.882 2.183 1.089 3.227 1.17 4.147.323.952-.877 1.07-.681.523.868-.539 1.526-.429 1.724.466.837 1.607-1.595.192-3.55-2.054-2.837-1.007.32-2.121.113-2.475-.459-.615-.995-3.525-1.502-3.525-.614m-72 2.381c-1.504.493-2.956 2.121-2.985 3.346-.008.36 2.235.671 4.985.693 2.75.021 5-.344 5-.811 0-.467-1.012-.627-2.25-.356-1.44.316-1.814.18-1.04-.378 1.567-1.128-1.528-3.209-3.71-2.494m64 0c-1.504.493-2.956 2.121-2.985 3.346-.008.36 2.235.671 4.985.693 2.75.021 5-.344 5-.811 0-.467-1.013-.627-2.25-.356-1.44.316-1.814.18-1.04-.378 1.567-1.128-1.528-3.209-3.71-2.494m-45.242.767c-.507.507-2.793 1.123-5.008 1.348-.413.043-.75.554-.75 1.136 0 .582.45.781 1 .441s1 .084 1 .941.45 1.559 1 1.559 1 .927 1 2.059c0 1.166-.449 1.781-1.036 1.419-.693-.428-.97 2.617-.836 9.191.178 8.761.427 9.974 2.286 11.144l2.086 1.312-2.107-.431c-1.991-.408-2.113-.009-2.203 7.187-.052 4.19.177 6.944.508 6.119.887-2.209 2.571-3.021 3.929-1.894.796.66 1.414.637 1.85-.069.387-.626-.635-1.319-2.491-1.69-1.998-.399-2.699-.906-1.921-1.387.675-.417.95-1.479.612-2.359-.449-1.169-.016-1.605 1.604-1.616 1.221-.009 1.754-.346 1.186-.75-.911-.647-1.049-1.55-.592-3.87.069-.349 1.068.564 2.221 2.03 1.152 1.465 1.841 3.326 1.531 4.134-.31.809-.176 1.471.297 1.471 1.492 0 2.161-3.192.971-4.627-.735-.885-.771-1.373-.101-1.373.572 0 1.24.563 1.486 1.25.245.688.743.977 1.107.643.363-.334.38-1.338.037-2.232-.492-1.281-1.042-1.401-2.606-.564-1.57.841-2.258.683-3.311-.757-.731-1-1.118-2.16-.859-2.579.258-.419-.258-.761-1.148-.761-.89 0-1.34.45-1 1 .34.55.169 1-.379 1s-.929-.9-.846-2c.238-3.161 3.716-2.273 5.03 1.285.629 1.703.808 1.705 3.927.042 3.247-1.732 3.85-1.962 5.768-2.202.55-.069.887-.687.75-1.375-.137-.687.346-1.126 1.074-.975.816.169 1.048-.215.604-1-.558-.987-.433-1.009.552-.098 1.806 1.669.45 6.487-1.763 6.265-3.066-.308-5.826.173-4.354.758 1.151.458 1.151.677 0 1.406-.85.538-.928.869-.207.879.662.008.933.87.634 2.015-.288 1.1-.984 2-1.546 2-1.366 0-3.676 3.125-3.697 5-.015 1.333.091 1.333.953 0 .533-.825.976-1.093.985-.595.008.498.887.116 1.952-.848s2.384-1.476 2.931-1.139c.547.338 1.297.124 1.667-.475.43-.696 1.192-.35 2.108.958 1.253 1.789 1.237 2.431-.13 5.074-1.839 3.556-4.513 4.032-4.513.802v-2.222l-1.557 2.222c-.856 1.223-2.206 2.223-3 2.223-2.2 0-1.719-1.694.658-2.316 1.156-.303 1.804-1.029 1.441-1.617-.933-1.509-2.811-1.334-1.954.183.564 1 .436 1-.641 0-1.721-1.597-3.297-1.625-2.319-.042.411.664.847 2.144.969 3.289.169 1.583-.396 2.133-2.356 2.295-1.418.117-3.311-.45-4.207-1.261-1.473-1.334-1.651-1.143-1.863 1.997-.139 2.066.227 3.472.905 3.472.626 0 .879-.675.562-1.5-.316-.825-.139-1.5.393-1.5.533 0 .969.675.969 1.5s.498 1.5 1.107 1.5.892-.562.628-1.25c-.328-.857.817-1.316 3.643-1.459 3.787-.192 3.919-.119 1.622.902-2.117.941-2.224 1.178-.702 1.542.989.237 2.538-.17 3.442-.902 1.178-.955 1.431-.979.893-.083-.948 1.578 2.5 1.717 4.054.163.783-.783 1.275-.783 1.759 0 .37.598 1.122 1.087 1.672 1.087.55 0 .722-.45.382-1-.34-.55-.126-1 .476-1 .769 0 1.009-7.088.809-23.874-.201-16.836.034-23.75.798-23.457.596.23 1.084-.297 1.084-1.169 0-.911-.568-1.368-1.334-1.074-.733.281-1.372-.037-1.419-.707-.047-.671-.468.057-.936 1.616-.468 1.559-.599 3.584-.291 4.5.307.916-.231.604-1.197-.694-1.461-1.963-1.524-2.506-.373-3.235.761-.481.886-.882.279-.891-.607-.008-2.318 1.11-3.801 2.485-2.545 2.358-2.578 2.5-.588 2.5 1.314 0 1.848-.426 1.413-1.13-.424-.686-.153-.946.691-.662 1.287.433 1.491 1.13 1.783 6.101.059 1.013.576 1.518 1.174 1.149.588-.363.827-1.29.532-2.059-.296-.77-.101-1.399.431-1.399 1.525 0 1.135 2.155-.781 4.317-1.283 1.448-1.416 2.092-.5 2.412.688.241 1.25 1.13 1.25 1.977 0 1.234-.289 1.299-1.456.33-.801-.664-1.895-.937-2.431-.606-.536.332-1.257.145-1.603-.414-.345-.559.077-1.016.939-1.016 2.389 0-.251-3.739-3.723-5.274-2.74-1.211-2.746-1.234-.5-1.86 1.403-.391.359-.622-2.726-.602-2.75.018-4.435.229-3.744.47.691.24.972.897.625 1.459-.408.659.208.755 1.736.27 2.018-.641 2.186-.532 1.134.735-.679.817-.938 1.782-.576 2.144.362.362.295.658-.148.658-.444 0-1.455-.788-2.248-1.75-1.374-1.667-1.416-1.667-.892 0 .303.962.211 1.75-.204 1.75s-.754.9-.754 2 .423 2 .94 2c.518 0 .126.9-.869 2-2.451 2.708-3.649 2.521-2.539-.397.501-1.319.603-2.741.225-3.161-.377-.419-.123-.439.564-.043.688.395 1.25.242 1.25-.34 0-.582-.45-1.059-1-1.059s-.993-.788-.985-1.75c.014-1.512.162-1.546 1.087-.25.861 1.205.974 1.057.578-.751-.28-1.276-.083-1.998.453-1.667.556.344.691-.436.326-1.889-.346-1.379-.141-2.771.463-3.145.741-.458.768-1.259.084-2.536-.781-1.461-.619-1.966.748-2.323 1.403-.367 1.435-.48.163-.573-.871-.064-1.842.143-2.159.459m-47.104 1.886c-.22.571.594 1.099 1.807 1.173 1.219.074 2.206-.452 2.206-1.175 0-1.53-3.427-1.528-4.013.002M470.5 289c-.34.55.335 1 1.5 1s1.84-.45 1.5-1c-.34-.55-1.015-1-1.5-1-.485 0-1.16.45-1.5 1m64 0c-.34.55.335 1 1.5 1s1.84-.45 1.5-1c-.34-.55-1.015-1-1.5-1-.485 0-1.16.45-1.5 1m-46.799 1.664c.411 1.071.246 1.422-.462.984-.605-.374-1.383-.223-1.729.336-.345.559.25 1.016 1.324 1.016 1.946 0 3.566-2.267 2.43-3.402-1.211-1.211-2.182-.548-1.563 1.066m4.962 4.586c.429.688.872 1.854.984 2.592.412 2.724 1.12 2.164.999-.79-.074-1.798-.667-3.052-1.444-3.052-.806 0-1.016.487-.539 1.25m-7.684 5.637c-1.672.674-1.879 1.934-.639 3.888.504.795.358 1.171-.391 1-.659-.151-1.426.35-1.704 1.114-.309.851-.067 1.119.625.691.622-.384 1.13-.259 1.13.278 0 .536-.562 1.202-1.25 1.48-.687.277.043.54 1.622.583 2.382.066 2.67-.165 1.686-1.351-.95-1.144-.774-1.652.877-2.535 1.946-1.042 2.512-.688 2.143 1.338-.088.48.49.623 1.283.319 1.95-.749 2.862.334 1.582 1.877-.668.804-.69 1.469-.064 1.856.538.332 1.255-.272 1.595-1.342.34-1.071 1.834-2.392 3.322-2.936 1.73-.633 2.074-1.018.954-1.068-.962-.043-1.75-.619-1.75-1.279 0-.933-.267-.933-1.2 0-1.54 1.54-3.142 1.562-2.195.03.49-.792.173-.959-.981-.516-1.216.467-1.621.195-1.414-.946.332-1.831-2.965-3.394-5.231-2.481M487.5 307c-.34.55-.338 1.453.004 2.007.343.554-.081 1.277-.941 1.607-.859.33-1.563 1.463-1.563 2.519 0 1.81.17 1.83 3 .367 1.65-.853 3-1.791 3-2.085 0-.293-.562-.195-1.25.218-.849.51-.81.209.122-.941 1.19-1.466 1.142-1.692-.357-1.692-1.126 0-1.528-.523-1.153-1.5.649-1.692.079-2.023-.862-.5m6.021 11.139c.129.902-.131 2.23-.578 2.953-1.161 1.879-.018 3.215 1.602 1.87.752-.624 1.79-.873 2.306-.554.517.319 1.217-.142 1.556-1.025.448-1.168.186-1.441-.961-1.001-1.198.46-1.431.147-.971-1.304.334-1.05.143-2.196-.423-2.546-.612-.378-.788-.007-.434.916.328.854.131 1.552-.438 1.552-.568 0-1.227-.562-1.463-1.25-.237-.687-.325-.512-.196.389m-12.405 5.076c-.064.943.774 2.191 1.861 2.773 1.612.862 1.87.777 1.396-.459-.321-.835-.951-1.29-1.402-1.011-.451.279-1.026-.287-1.279-1.256-.421-1.612-.47-1.616-.576-.047m8.895 3.272c-.691.832-.976 1.569-.633 1.638.342.069 1.072.238 1.622.375s1.417.306 1.927.375c.509.069 1.085.913 1.279 1.875.288 1.425.451 1.472.88.25.29-.825-.451-2.518-1.646-3.763-1.91-1.988-2.326-2.079-3.429-.75M480 330c0 1.362.417 1.86 1.17 1.395.787-.486.961-.178.531.941-.435 1.134-.117 1.664.997 1.664.899 0 1.339-.296.977-.658-.362-.362-.156-1.262.456-2 .613-.738.834-1.398.491-1.467-.342-.069-.959-.188-1.372-.265-.413-.077-1.312-.498-2-.934-.856-.544-1.25-.127-1.25 1.324m8.5 4c-.373.604.891.972 3.191.93 3.042-.056 3.406-.244 1.809-.93-2.748-1.181-4.27-1.181-5 0m-218.861 88.694c-1.328 1.328-.564 2.52 1.303 2.032 1.279-.335 2.554.308 3.737 1.883.988 1.315 2.364 2.391 3.058 2.391 1.184 0 1.711 1.874 1.338 4.75-.175 1.346.327 1.474 6.41 1.641 3.055.084 4.071.548 4.349 1.989.199 1.034-.244 2.265-.986 2.735-.998.633-1.024.858-.098.87.688.008 1.25.69 1.25 1.515s.434 1.5.964 1.5c.547 0 .913-3.359.846-7.75-.066-4.262-.308-6.962-.538-6-.23.962-.948 1.757-1.595 1.765-.709.01-.58.445.323 1.095 1.25.899 1.196.98-.322.488-1.003-.325-2.745-.097-3.872.506-1.689.904-2.424.693-4.178-1.195-1.371-1.477-1.49-1.812-.336-.943 1.473 1.109 2.008 1.117 3 .045.954-1.03.927-1.145-.126-.547-.87.494-2.336-.412-4.21-2.603-3.087-3.61-3.576-4.861-1.897-4.861.582 0 .8.419.484.931-.317.512-.107 1.22.465 1.574.573.354.918.104.767-.556-.151-.659.263-1.397.921-1.639.789-.291 1.044.394.749 2.018-.265 1.464.088 2.663.874 2.964.931.357 1.303-.448 1.264-2.737l-.055-3.244-5.956-.215c-3.275-.118-6.256-.401-6.624-.628-.368-.228-.957-.126-1.309.226m19.909.228c-.324.525-1.493.781-2.596.569-1.103-.213-1.742.04-1.42.561.322.522.083.948-.532.948-.631 0-.786.537-.356 1.232.419.678.82 2.028.892 3 .071.972.4 2.037.73 2.368.907.906 2.853-.598 2.181-1.685a1.106 1.106 0 0 0-1.516-.372c-.512.316-.931.068-.931-.551 0-.672.808-.87 2-.492 1.443.458 2 .18 2-1s-.557-1.458-2-1c-1.262.401-2 .18-2-.599 0-.679.296-.938.658-.576.362.362 1.257.16 1.99-.448 1.027-.852 1.549-.565 2.279 1.259l.946 2.364.064-2.691c.066-2.805-1.368-4.538-2.389-2.887m-18.358 3.703c-.599 1.07-.644 2.681-.115 4.072.482 1.267.499 2.303.039 2.303s-.622 1.125-.359 2.5c.488 2.551 2.233 3.516 2.26 1.25.011-.885.276-.838.908.159.49.775.676 1.974.411 2.663-.264.689.34 1.465 1.343 1.725 1.703.44 1.706.479.042.587-.98.064-2.041-.559-2.357-1.384-1.121-2.92-2.047-1.436-2.224 3.562-.098 2.784-.223 5.371-.277 5.75-.327 2.303.351 4.055 1.782 4.605 2.105.807 3.23-.259 1.44-1.366-1.65-1.02 3.544-.652 6.167.437 1.891.784 2.427 3.512.691 3.512-.582 0-.812-.399-.511-.887.301-.487-.122-1.442-.941-2.122-1.114-.925-1.489-.939-1.489-.054 0 .649-.419.922-.931.606-.512-.317-1.213-.118-1.559.441-.345.559.186 1.061 1.181 1.116 1.281.07 1.08.333-.691.9l-2.5.801 2.357.099c1.664.071 2.188.541 1.781 1.6-.443 1.156.221 1.5 2.893 1.5 1.908 0 3.769.113 4.136.25s.742-.762.833-2c.099-1.344-.4-2.25-1.239-2.25-1.134 0-1.102-.302.168-1.571 1.97-1.971 1.995-2.529.078-1.793-1.165.447-1.414-.103-1.134-2.508.198-1.694 0-2.859-.438-2.588-.438.271-1.084.028-1.435-.54-.351-.568-1.127-.731-1.724-.362-.663.41-.796.203-.341-.532.569-.921 1.074-.929 2.154-.032 1.116.926 1.411.832 1.411-.452 0-1.53-1.234-2.114-3.5-1.657-.55.111-.63-.168-.178-.621 1.433-1.432 6.541-1.143 7.135.405.308.802 1.231 1.201 2.051.886.881-.338 1.492-.004 1.492.815 0 .762.256 2.211.569 3.218.42 1.352.224 1.27-.75-.316-1.054-1.716-1.555-1.892-2.493-.874-.898.976-.898 1.573 0 2.545.904.978.889 1.11-.065.572-.843-.476-1.04-.182-.617.92.441 1.148.932 1.309 1.689.552 1.718-1.718 2.853-1.23 2.167.933-.349 1.1-.259 2 .199 2 .459 0 .942-2.426 1.074-5.391.185-4.165-.124-5.53-1.357-6.003-.878-.337-2.118-.3-2.756.083-.638.382-.485-.153.34-1.189s.969-1.565.319-1.176c-.649.39-1.454.267-1.787-.273-.334-.54-2.279-.748-4.322-.462-3.331.466-3.902.203-5.524-2.543-1.532-2.593-1.586-3.147-.357-3.619.798-.306 1.388-1.615 1.311-2.908-.077-1.293-.321-2.17-.543-1.948-.222.221-1.419-.974-2.66-2.657-2.037-2.761-2.353-2.886-3.247-1.289m5.81 10.733c0 .768.675 1.957 1.5 2.642 1.036.86 1.5.898 1.5.122 0-.617-.562-1.129-1.25-1.137-.885-.011-.838-.276.159-.908.775-.49 2.125-.637 3-.325s1.309.25.964-.137c-1.322-1.482-5.873-1.681-5.873-.257m8.854-.482c-1.344.51-1.407.845-.34 1.829 1.029.95 1.436.867 1.92-.393.762-1.987.5-2.226-1.58-1.436m-13.177 6.194c.745.75.875 1.979.353 3.352-.683 1.795-.455 2.186 1.323 2.271 1.181.057 1.585-.113.897-.378-.687-.265-1.25-1.167-1.25-2.005 0-.98.566-1.307 1.584-.916.956.367 1.431.15 1.198-.548-.212-.635-1.487-1.561-2.833-2.057-1.885-.694-2.178-.629-1.272.281m-1.76 13.097a97.36 97.36 0 0 1-.334 3.598c-.138 1.246.361 2.773 1.108 3.394 1.144.949 1.139 1.382-.035 2.734-.767.884-1.829 2.957-2.359 4.607-.53 1.65-1.376 3.007-1.88 3.015-.504.009-1.549.416-2.322.905-.965.611-1.181.528-.69-.265.392-.635.236-1.155-.346-1.155s-1.368-.012-1.746-.027c-.378-.016-.795.706-.927 1.602-.184 1.252.382 1.523 2.437 1.169 1.473-.254 3.365-.76 4.206-1.125.84-.365 2.415.047 3.5.914 1.94 1.552 1.938 1.561-.109.578-1.466-.704-2.803-.625-4.527.269-1.345.698-2.996 1.086-3.669.861-.673-.224-1.224.132-1.224.792 0 .695.816.987 1.935.694 1.103-.288 2.159.077 2.456.848.395 1.031-.545 1.307-3.936 1.156-2.45-.109-4.455-.543-4.455-.964 0-.422-.477-.767-1.059-.767s-.781.45-.441 1 .19 1-.334 1-1.211-.675-1.528-1.5c-.656-1.71-2.638-2.041-2.638-.441 0 .582.45.781 1 .441s1-.141 1 .441c0 1.432-2.557 1.337-5.144-.191-1.694-1-2.208-1-2.57 0-.549 1.516-4.286 1.682-4.286.191 0-.582.343-.847.763-.588.419.26.789-1.064.82-2.941.061-3.542-1.207-4.318-3.53-2.162-1.086 1.008-1.197.987-.574-.107.588-1.035.256-1.194-1.402-.668-1.24.394-2.796.173-3.625-.515-1.168-.969-1.452-.887-1.452.418 0 .892-.477 1.622-1.059 1.622s-.781-.45-.441-1c.889-1.439-1.864-1.234-3.359.25-1.01 1.002-1.127.903-.593-.5.454-1.192.181-1.75-.858-1.75-1.257 0-1.523 1.654-1.523 9.472 0 5.21.3 9.414.666 9.341.367-.072 1.355.176 2.195.55.841.374 10.479.558 21.418.409 15.993-.219 19.98-.547 20.355-1.674.332-.998-.126-1.246-1.592-.863-1.562.409-1.916.164-1.464-1.012.426-1.111.215-1.316-.745-.723-.979.605-1.168.38-.701-.836.362-.944.152-1.664-.485-1.664-.625 0-.363-.841.588-1.892 1.67-1.845 1.787-1.822 4.786.917 2.384 2.177 3.36 2.546 4.343 1.642.881-.81.956-1.549.246-2.417-.71-.868-.67-1.25.132-1.25 1.79 0 2.367 2.616 1.098 4.986-.881 1.647-1.457 1.885-2.488 1.03-.985-.818-1.524-.817-2.03.002-.877 1.419-.601 1.665 2.836 2.527 2.106.529 2.772.36 2.629-.668-.365-2.629.051-3.992 1.035-3.384.587.363.721-.086.33-1.105-.441-1.148-.279-1.482.487-1.008.631.39 2.346.08 3.813-.688 1.946-1.02 2.317-1.614 1.372-2.198-.809-.499-1.804-.102-2.654 1.06-1.31 1.791-1.416 1.778-2.922-.372-1.479-2.111-5.296-2.634-6.975-.955-1.008 1.008-3.499-.323-2.78-1.486.357-.578.177-.758-.401-.401-.577.357-1.29.02-1.585-.747-.603-1.571 2.984-2.955 3.884-1.499.308.498 1.603.906 2.879.906 1.275 0 2.874.67 3.554 1.489.68.819 1.618 1.253 2.086.964.467-.289-.05-1.426-1.15-2.526-2.308-2.308-1.799-3.968.992-3.238 1.055.276 2.742.022 3.749-.563 1.08-.628 1.294-1.078.523-1.096-.72-.016-1.052-.445-.739-.952.336-.544-.878-.523-2.96.052-2.755.761-3.853.651-5.002-.497-1.036-1.036-1.126-1.588-.304-1.862.658-.219.831-.935.395-1.64-.583-.944-1.11-.807-2.145.559-.755.996-1.38 1.36-1.389.81-.03-1.819 1.422-3.094 3.683-3.234 3.022-.188 3.885 1.553 1.62 3.269-1.017.771-1.314 1.416-.659 1.433.655.018 1.457-.398 1.782-.924.325-.526 1.364-.709 2.309-.406 1.459.468 1.492.388.218-.528-1.121-.807-1.166-1.083-.179-1.095.727-.008 1.978.641 2.779 1.443.806.805 2.205 1.17 3.127.816 1.323-.507 1.2.019-.592 2.536-1.244 1.747-1.952 3.677-1.573 4.29.483.782.944.709 1.548-.243.703-1.11.884-1.084.993.143.074.825.069 1.871-.009 2.324-.079.454.289.557.818.231 1.034-.64 1.07-4.555.042-4.555-.341 0-.621-.675-.621-1.5 0-1.44.454-1.681 3.584-1.907 2.073-.149 2.583-14.593.515-14.593-.788 0-1.432-.45-1.432-1 0-1.813-1.756-1.041-2.292 1.007-.342 1.31.185 2.505 1.515 3.437 1.231.862 1.802 2.049 1.44 2.992-.332.865-.082 1.564.56 1.564.637 0 .286.708-.782 1.574-1.067.866-1.384 1.293-.702.948.815-.412 1.035-.095.643.926-.796 2.073-2.382 1.981-2.382-.139 0-1.513-.142-1.497-1.347.151-.934 1.277-1.566 1.489-2.059.691-.398-.643-.134-1.158.597-1.166.951-.011.899-.281-.191-.985-1-.646-1.083-.974-.25-.985 2.092-.025 1.395-1.834-1-2.594-1.238-.393-2.475-.693-2.75-.666-1.374.132-3.981-1.976-3.469-2.805.323-.523.137-.95-.413-.95-1.895 0-2.156 1.879-.397 2.864.969.542 1.503 1.245 1.187 1.562-.317.316-1.846-.85-3.399-2.592-1.552-1.743-2.121-2.899-1.264-2.57 1.057.405 1.481.075 1.319-1.029-.294-2.005-2.532-2.908-2.647-1.068m14.837 6.083c-.609 1.656.167 3.75 1.388 3.75.537 0 .698-.45.358-1-.34-.55-.156-1 .41-1 .565 0 .768-.675.452-1.5-.701-1.825-1.983-1.948-2.608-.25m-6.118 1.53c-.338.546.056 1.549.875 2.229 1.626 1.35 1.965.291.599-1.866-.523-.824-1.101-.967-1.474-.363m-34.317 11.116c.231 1.72 1.035 2.472 2.851 2.666 2.127.227 2.543-.156 2.606-2.396.066-2.298-.328-2.666-2.851-2.666-2.51 0-2.881.341-2.606 2.396m43.014-1.425c0 1.09.626 1.391 2.084 1.002 1.776-.475 1.732-.351-.302.843-1.705 1-2.031 1.618-1.143 2.166.968.599.975.933.028 1.518-.867.536-.898.945-.107 1.434.609.376 1.107.181 1.107-.434s.465-.831 1.034-.479c.604.373-.015 1.463-1.491 2.624-1.388 1.092-2.977 1.705-3.532 1.362-.588-.363-.904.339-.76 1.685.232 2.15-.219 2.373-3.151 1.558-.495-.137-.907.15-.915.638-.008.489-.615 1.269-1.35 1.735-.989.627-.816.854.665.877 1.562.024 1.692.226.591.923-.775.49-2.013.66-2.75.377-.738-.282-1.341.037-1.341.71 0 .734.806 1.013 2.018.696 1.993-.522 2.784.012 6.259 4.225 1.667 2.022 4.43 2.022 3.18 0-.316-.512-.098-.931.484-.931 1.643 0 1.249 2.123-.691 3.721-1.519 1.252-1.532 1.375-.103.932 1.179-.366 1.793.25 2.162 2.168.283 1.473.332 2.864.109 3.089-.81.82-4.471-4.329-3.983-5.602.312-.812-.266-1.308-1.525-1.308-2.139 0-2.049.377 1.211 5.093 1.877 2.716 1.037 4.907-1.88 4.907-.747 0-1.067.472-.711 1.049.449.726 1.033.729 1.901.008 1.724-1.43 2.705-.18 1.551 1.976-.785 1.467-.607 1.682 1.035 1.252 1.091-.285 1.983-.072 1.983.473 0 .546-1.152.992-2.559.992-1.76 0-2.394-.429-2.031-1.375.3-.782-.106-1.375-.941-1.375-.808 0-1.469.675-1.469 1.5 0 1.776-1.582 1.986-2.595.345-.417-.674-.277-.884.336-.505.577.357 1.322-.061 1.654-.928.923-2.405.728-2.935-.595-1.612-1.65 1.65-3.132 1.509-2.463-.235.303-.79.013-1.672-.643-1.961-.657-.288-.013-.283 1.431.013 2.311.473 2.678.175 3.069-2.487.244-1.663.188-2.879-.125-2.702-.313.177-1.469-.081-2.569-.574-1.841-.824-1.822-.861.25-.468 1.469.279 2.25-.061 2.25-.98 0-1.317-1.293-1.872-3.419-1.468-.506.096-.37-.488.302-1.297.995-1.199.867-1.586-.689-2.08-1.052-.333-2.763-.337-3.803-.008-1.792.567-1.797.538-.08-.561.996-.638 2.458-.911 3.25-.607 2.683 1.03 1.457-.889-1.311-2.052-6.912-2.902-8.097-2.704-6.633 1.111.482 1.257.923 1.353 2.023.44 1.129-.937 1.282-.844.776.475-.347.902-.995 1.641-1.441 1.641-.445 0-.78 5.559-.742 12.353.037 6.793-.259 12.981-.657 13.75-.398.768-.053.574.768-.432 1.162-1.424 1.919-1.6 3.421-.797 1.379.738 2.274.69 3.141-.171.947-.94 1.073-.836.574.474-.492 1.293-.194 1.561 1.303 1.169 1.2-.313 2.173.096 2.548 1.073.333.87 1.125 1.581 1.76 1.581.831 0 .806-.419-.091-1.5-.997-1.201-.988-1.5.044-1.5.709 0 1.005-.284.658-.631-.347-.348-.145-1.541.45-2.652.922-1.725.826-1.922-.662-1.351-.959.368-2.435.098-3.28-.599-1.357-1.118-1.391-.993-.293 1.069.685 1.284.996 2.584.692 2.888-.304.305-1.049-.747-1.656-2.335-.947-2.481-1.268-2.671-2.278-1.348-1.045 1.371-1.379 1.332-3.024-.349-1.802-1.841-1.792-1.872.375-1.184 1.437.456 2.528.226 3.084-.651.472-.746.866-.899.875-.34.008.56 1.59.944 3.515.853 3.342-.157 3.958.426 3.575 3.38-.09.688.36 1.25.998 1.25.668 0 .938-.848.638-1.999-.571-2.182.675-3.499 2.338-2.471.716.443.678 1.094-.123 2.059-.842 1.014-.855 1.411-.048 1.411.617 0 1.122.477 1.122 1.059s-.419.8-.931.484c-.512-.317-1.156-.212-1.431.233-.275.445.313.87 1.306.945 1.536.116 1.806-.675 1.806-5.293 0-3.717-.4-5.428-1.268-5.428-.697 0-1.475-.562-1.728-1.25-.618-1.682.174-3.75 1.436-3.75.563 0 .77.661.461 1.468-.31.807-.153 1.722.348 2.031.52.322.901-2.78.887-7.218-.013-4.279.007-8.681.044-9.781.066-1.944.657-1.992 21.152-1.711 14.4.198 20.881-.04 20.442-.75-.353-.571.039-1.039.872-1.039 1.209 0 1.489-1.307 1.388-6.5-.069-3.575-.547-6.5-1.062-6.5s-.682.663-.371 1.474c.313.813-.19 1.896-1.122 2.418-1.573.88-1.566 1.079.107 2.927 1.293 1.429 1.467 2.185.622 2.707-.891.551-.884.901.027 1.465.768.474.3.913-1.302 1.219-1.926.368-2.367.131-1.922-1.03.411-1.071.19-1.268-.761-.68-.979.605-1.168.38-.701-.836.362-.944.152-1.664-.485-1.664-.618 0-.309-.9.686-2 1.973-2.181 1.914-2.206-5.25-2.258-1.238-.009-2.25-.405-2.25-.879 0-.475-.477-.863-1.059-.863s-.781.45-.441 1 .19 1-.334 1-1.211-.675-1.528-1.5c-.656-1.71-2.638-2.041-2.638-.441 0 .582.45.781 1 .441s1-.141 1 .441c0 1.432-2.557 1.337-5.144-.191-1.694-1-2.208-1-2.57 0-.549 1.516-4.286 1.682-4.286.191 0-.582.343-.847.763-.588.419.26.789-1.064.82-2.941.061-3.542-1.207-4.318-3.53-2.162-1.086 1.008-1.197.987-.574-.107.588-1.035.256-1.194-1.402-.668-1.24.394-2.796.173-3.625-.515-1.168-.969-1.452-.887-1.452.418 0 .892-.477 1.622-1.059 1.622s-.783-.447-.445-.993c.345-.559-.394-.937-1.691-.865-1.268.071-3.017-.177-3.888-.55-1.057-.453-1.584-.16-1.584.879m20.986 1.425c.231 1.72 1.035 2.472 2.851 2.666 2.127.227 2.543-.156 2.606-2.396.066-2.298-.328-2.666-2.851-2.666-2.51 0-2.881.341-2.606 2.396m16.604-2.615c-.042.121-.234 1.053-.426 2.072-.363 1.919.413 1.943 7.503.23 1.684-.407 1.358-.053-1 1.084-1.925.929-4.062 1.589-4.75 1.467-.687-.122-1.25.281-1.25.895 0 .615.788.956 1.75.758.962-.198 2.244.287 2.847 1.078.889 1.165 1.251 1.19 1.905.132.505-.817.414-1.063-.243-.657-.577.357-1.296.006-1.597-.779-.372-.969.396-1.635 2.395-2.074 1.619-.355 2.943-1.259 2.943-2.007 0-2.041-1.895-2.812-3.544-1.444-.801.665-1.456.874-1.456.464s-.761-.127-1.692.628c-.931.754-1.383.857-1.006.227.378-.63.014-1.403-.808-1.719-.822-.315-1.528-.475-1.571-.355m-73.494 2.646c0 1.059.273 1.757.607 1.551.334-.207 1.79.238 3.235.987 1.977 1.026 2.84 1.075 3.489.199 1.542-2.081.794-4.156-1.621-4.498-1.733-.245-2.16.02-1.603 1 .61 1.074.495 1.09-.589.084-1.968-1.826-3.518-1.528-3.518.677m64 0c0 1.059.273 1.757.607 1.551.334-.207 1.79.238 3.235.987 1.977 1.026 2.84 1.075 3.489.199 1.542-2.081.794-4.156-1.621-4.498-1.733-.245-2.16.02-1.603 1 .61 1.074.495 1.09-.589.084-1.968-1.826-3.518-1.528-3.518.677m-86.84 1.217c.291.471-.398.856-1.53.856-1.132 0-2.059.502-2.059 1.117 0 .624.882.886 2 .593 2.443-.639 2.596.561.308 2.418-1.15.932-1.451.971-.941.122.413-.687.314-1.25-.221-1.25-.534 0-.898 2.028-.809 4.506.114 3.143.541 4.362 1.413 4.031.688-.261 1.25-.001 1.25.578 0 .578.54.872 1.2.652.66-.22 1.155-1.608 1.1-3.084-.149-3.987-.177-4.03-1.8-2.683-.825.685-1.5.933-1.5.551 0-1.048 2.72-3.551 3.859-3.551.551 0 1.197-1.012 1.435-2.25l.434-2.25.136 2.25c.093 1.538.769 2.25 2.136 2.25 2.465 0 2.559-1.203.25-3.214-1.898-1.654-7.525-3.04-6.661-1.642m7.344.519c.574 1.189 1.529 2.324 2.121 2.522.631.21.251 1.31-.919 2.659-1.652 1.905-2.35 2.112-4.051 1.201-1.892-1.013-1.982-.907-1.134 1.325.507 1.333.839 2.589.736 2.789-.102.201.372-.283 1.054-1.074.681-.791 1.541-1.137 1.91-.768s-.189 1.666-1.239 2.883c-1.728 2.001-1.606 1.978 1.284-.244 3.506-2.695 4.301-4.517 1.555-3.561-1.565.546-1.583.478-.163-.643 2.504-1.976 4.106-5.514 2.849-6.291-.588-.364-1.332-.398-1.654-.077-.321.322-1.216-.196-1.988-1.15-1.27-1.569-1.305-1.528-.361.429m56.754-.361c.386.624-.223.791-1.588.434-1.451-.379-2.07-.175-1.798.593.228.644 1.153 1.109 2.057 1.032 2.29-.194 2.054.778-.891 3.66-1.393 1.363-3.306 3.334-4.25 4.379a278.32 278.32 0 0 1-3.349 3.632c-1.514 1.607-1.463 1.938.714 4.6 1.29 1.577 2.362 2.306 2.382 1.618.02-.687.663-1.25 1.429-1.25s1.6-.562 1.853-1.25c.765-2.081-.298-3.75-2.388-3.75-1.087 0-1.71-.431-1.384-.957.712-1.153 6.521-.894 6.524.29.001.459.542.654 1.202.434.66-.22 1.155-1.608 1.1-3.084-.149-3.987-.177-4.03-1.8-2.683-.825.685-1.5.933-1.5.551 0-1.048 2.72-3.551 3.859-3.551.551 0 1.197-1.012 1.435-2.25l.434-2.25.136 2.25c.093 1.538.769 2.25 2.136 2.25 2.465 0 2.559-1.203.25-3.214-2.051-1.787-7.514-3.022-6.563-1.484m7.246.361c.574 1.189 1.529 2.324 2.121 2.522.631.21.251 1.31-.919 2.659-1.652 1.905-2.35 2.112-4.051 1.201-1.892-1.013-1.982-.907-1.134 1.325.507 1.333.839 2.589.736 2.789-.102.201.372-.283 1.054-1.074.681-.791 1.541-1.137 1.91-.768s-.189 1.666-1.239 2.883c-1.728 2.001-1.606 1.978 1.284-.244 3.506-2.695 4.301-4.517 1.555-3.561-1.565.546-1.583.478-.163-.643 2.504-1.976 4.106-5.514 2.849-6.291-.588-.364-1.332-.398-1.654-.077-.321.322-1.216-.196-1.988-1.15-1.27-1.569-1.305-1.528-.361.429m-22.426.326c-.341.552.03.742.84.431 2.298-.882 3.193 1.712 1.115 3.232-1.015.741-1.398 1.348-.853 1.348.545 0 1.52-.529 2.167-1.176.902-.902 1.655-.744 3.224.676 1.429 1.294 2.364 1.536 3.097.803.733-.733.281-1.242-1.495-1.688-1.399-.351-3.023-1.533-3.608-2.627-1.133-2.115-3.475-2.637-4.487-.999m-21.863 5.638c1.342.55.584 4.373-.868 4.373-.544 0-.731-.675-.414-1.5.606-1.581.21-1.679-6.862-1.698-6.391-.018-6.91.136-8.695 2.594-1.644 2.264-1.615 2.367 1 3.485 2.497 1.067 2.553 1.041.768-.354-1.06-.829-1.633-1.8-1.274-2.159.359-.359 1.27-.14 2.025.486 1.06.88 1.784.685 3.179-.858.994-1.098 2.3-1.989 2.902-1.981.612.009.506.389-.239.861-1.074.681-1.025.964.25 1.453.871.335 1.584 1.222 1.584 1.973a1.36 1.36 0 0 0 1.349 1.365c.896 0 1.238-.962 1.017-2.857-.273-2.343-.093-2.633.999-1.613.733.684 1.124 2.157.87 3.273-.423 1.854-.315 1.831 1.241-.268 1.441-1.943 1.951-2.097 3.301-1 1.39 1.13 1.491 1.039.777-.702-.452-1.1-.789-2.788-.75-3.75.042-1.032-.62-1.718-1.616-1.671-.928.043-1.173.29-.544.548m64 0c1.342.55.584 4.373-.868 4.373-.544 0-.731-.675-.414-1.5.606-1.581.21-1.679-6.862-1.698-6.391-.018-6.91.136-8.695 2.594-1.644 2.264-1.615 2.367 1 3.485 2.497 1.067 2.553 1.041.768-.354-1.06-.829-1.633-1.8-1.274-2.159.359-.359 1.27-.14 2.025.486 1.06.88 1.784.685 3.179-.858.994-1.098 2.3-1.989 2.902-1.981.612.009.506.389-.239.861-1.074.681-1.025.964.25 1.453.871.335 1.584 1.222 1.584 1.973a1.36 1.36 0 0 0 1.349 1.365c.896 0 1.238-.962 1.017-2.857-.273-2.343-.093-2.633.999-1.613.733.684 1.124 2.157.87 3.273-.423 1.854-.315 1.831 1.241-.268 1.441-1.943 1.951-2.097 3.301-1 1.39 1.13 1.491 1.039.777-.702-.452-1.1-.789-2.788-.75-3.75.042-1.032-.62-1.718-1.616-1.671-.928.043-1.173.29-.544.548m-60.436 1.085c-.987.369-1.019.811-.136 1.874.635.766 1.599 1.118 2.141.782.543-.335.472.352-.156 1.526-.929 1.736-.846 2.25.443 2.744.872.335 1.867.328 2.21-.014.343-.343.14-.624-.45-.624-.59 0-.868-.788-.618-1.75.567-2.185-1.702-5.184-3.434-4.538m5.792.382c0 .601.895 1.327 1.989 1.613 1.094.286 1.699.989 1.345 1.561-.387.627-.154.739.587.281.908-.561.698-1.256-.804-2.655-2.319-2.16-3.117-2.365-3.117-.8m58.208-.382c-.987.369-1.019.811-.136 1.874.635.766 1.599 1.118 2.141.782.543-.335.472.352-.156 1.526-.929 1.736-.846 2.25.443 2.744.872.335 1.867.328 2.21-.014.343-.343.14-.624-.45-.624-.59 0-.868-.788-.618-1.75.567-2.185-1.702-5.184-3.434-4.538m6.042.538c.228.688 1.247 1.411 2.262 1.608 1.696.329 1.716.227.239-1.25-1.922-1.922-3.077-2.087-2.501-.358m-84.707 4.681c-.969 1.568.874 1.949 2.246.464 1.06-1.146 1.025-1.395-.191-1.395-.814 0-1.739.419-2.055.931m64 0c-.969 1.568.874 1.949 2.246.464 1.06-1.146 1.025-1.395-.191-1.395-.814 0-1.739.419-2.055.931m-23.426 2.936c-2.07.58-2.184.833-.867 1.926 1.24 1.029 1.628.968 2.126-.331.343-.893 1.119-1.274 1.771-.871.723.446.892.281.448-.436-.392-.635-.799-1.11-.904-1.055-.105.055-1.263.4-2.574.767m-12.851 10.015c.113 1.493.834 2.118 2.447 2.118 1.258 0 2.287.579 2.287 1.286 0 .707.9 1.285 2 1.285 2.909 0 2.456-.89-1.25-2.459-1.788-.757-3.789-2.045-4.447-2.862-1.016-1.262-1.172-1.167-1.037.632m-.537 4.855c.279.725 1.466 1.781 2.639 2.346 1.945.937 1.979.903.382-.388-2.144-1.734-2.292-3.117-.25-2.333.825.316 1.5.144 1.5-.382 0-.527-1.075-.869-2.388-.76-1.52.126-2.205.678-1.883 1.517m.271 4.322c0 .582.414.803.919.491.506-.313 1.631.143 2.5 1.012.87.87 1.581 1.115 1.581.545s-.87-1.502-1.934-2.072c-2.443-1.307-3.066-1.302-3.066.024m.347 11.621c.342.342-.081 1.136-.939 1.764-2.111 1.543-2.756 11.485-.794 12.238.762.293 1.386.96 1.386 1.484s-.52.631-1.155.239c-.691-.428-.883-.276-.48.377.371.6 1.543 1.025 2.604.945 1.457-.109 1.667-.461.858-1.436-1.444-1.739-.273-1.629 2.585.244 1.899 1.243 2.833 1.31 4.934.353 2.642-1.203 2.643-3.481.001-2.468-.861.331-1.185.128-.798-.5.359-.581 1.346-.79 2.194-.465 1.282.492 1.326.334.267-.943-1.137-1.37-1.418-1.345-2.623.227-1.15 1.501-1.489 1.548-2.298.315-1.04-1.584.296-5.054 1.946-5.054 1.918 0 2.462.212 2.284.892-.099.381.663.756 1.693.834 1.167.088 1.685-.353 1.372-1.167-.334-.87.363-1.309 2.077-1.309 2.402 0 2.458.1.809 1.457-1.571 1.293-1.581 1.397-.086.932 1.206-.376 1.642.026 1.537 1.418-.158 2.098-1.227 2.552-2.221.943-.34-.55-1.293-1-2.118-1s-1.217.457-.872 1.016c.346.559 1.16.751 1.809.426.65-.325.307.118-.76.984-1.068.866-1.575 1.574-1.128 1.574.448 0 .211.788-.526 1.75-.736.962-.945 1.416-.464 1.009.481-.408 1.544-.187 2.361.492 1.256 1.042 1.382.904.812-.89-.739-2.33 1.784-4.144 3.008-2.163.401.648.234.831-.398.44-1.766-1.091-2.34 1.021-.657 2.418.85.705 1.467.869 1.371.363-.096-.505-.073-1.144.052-1.419.124-.275.396-3.875.603-8 .241-4.804.046-6.978-.543-6.048-.505.799-.743 1.736-.528 2.084.215.347-.265.631-1.066.631-1.77 0-1.859-.864-.256-2.467 1.384-1.384-.04-1.588-2.078-.296-.758.48-1.093 1.333-.745 1.896.358.58-.13.902-1.122.742-.965-.155-2.515.11-3.444.591-1.838.949-3.542-.563-1.827-1.623 1.231-.761 1.348-2.51.169-2.51-.466 0-1.257.917-1.757 2.038-.826 1.852-1.092 1.902-2.903.55-1.952-1.458-1.947-1.477.257-.922 3.098.781 2.821-.894-.395-2.387-1.447-.671-2.35-.941-2.008-.599m-2.332 7.07c.028 1.358 1.953 3.833 1.97 2.531.008-.679.69-.959 1.541-.633 1.17.449 1.26.905.386 1.958-.626.754-1.507 1.145-1.956.867-.45-.278-1.141.017-1.536.656-.504.815.106 1.004 2.048.632 1.903-.363 3.352.059 4.648 1.355 2.044 2.044 2.884 2.351 2.884 1.053 0-.457-1.106-1.423-2.457-2.146-1.981-1.06-2.265-1.674-1.465-3.169.815-1.523.629-1.854-1.043-1.854-1.119 0-2.035-.45-2.035-1s-.675-1-1.5-1-1.493.337-1.485.75"/></svg>